<svg width="1440" height="331" viewBox="0 0 1440 331" fill="none" xmlns="http://www.w3.org/2000/svg">
<path d="M109 225.919C137.997 238.97 170.526 237.915 199 223C167.261 224.471 135.522 225.942 109 225.919Z" fill="#5FBEFB"/>
<path d="M1023 241.919C1052 254.97 1084.53 253.915 1113 239C1081.26 240.471 1049.52 241.942 1023 241.919Z" fill="#5FBEFB"/>
<path d="M109 226.009C137.773 228.228 166.947 226.991 195 219.533C166.176 215.985 137.12 218.781 109 226.009Z" fill="white"/>
<path d="M1023 242.009C1051.77 244.228 1080.95 242.991 1109 235.533C1080.18 231.985 1051.12 234.781 1023 242.009Z" fill="white"/>
<path d="M399.642 69C386.66 95.1564 386.795 126.946 400 153C399.859 127.321 399.718 101.641 399.642 69Z" fill="#5FBEFB"/>
<path d="M1200 140.903L1246 76C1244.2 106.508 1228.21 135.892 1203.53 154C1201.76 149.707 1199.99 145.415 1200 140.903Z" fill="#5FBEFB"/>
<path d="M436 94.9526C435.419 94.9472 434.836 94.94 434.253 94.936C423.348 94.7728 412.477 96.1666 401.971 99.0745C400.475 84.9672 398.193 70.9199 395.562 57C394.164 71.7397 393.807 86.5583 394.491 101.348C386.39 104.075 378.532 107.47 371 111.497C378.962 110.302 386.895 108.893 394.761 107.196C395.86 124.635 398.366 141.958 402.255 159C404.369 141.138 404.161 123.227 402.586 105.396C409.963 103.589 417.267 101.493 424.449 98.9783C428.318 97.6921 432.158 96.317 436 94.9526Z" fill="white"/>
<path d="M1232.52 128.328C1239.94 139.374 1248.12 149.885 1257 159.786C1251.67 146.311 1245.42 133.223 1238.29 120.618C1244.03 112.606 1248.71 104.934 1251.33 98.3958C1245.49 103.449 1239.96 108.847 1234.76 114.562C1224.58 97.4 1212.96 81.1524 1200 66C1207.62 85.5162 1217.12 104.239 1228.36 121.903C1217.93 134.498 1209.04 148.294 1201.86 163C1212.72 152.029 1222.95 140.454 1232.52 128.328V128.328Z" fill="white"/>
<path d="M1056.46 198.986C1061.14 196.622 1067.54 198.681 1069.97 203.331C1072.4 207.982 1070.43 214.413 1065.81 216.905C1061.2 219.396 1054.74 217.513 1052.18 212.931C1049.63 208.349 1051.28 201.6 1056.46 198.986Z" fill="#5FBEFB"/>
<path d="M1063.5 268C1069.11 265.168 1073.59 265.429 1076.5 271C1079.41 276.571 1080.24 282.936 1074.71 285.921C1069.18 288.905 1061.44 286.65 1058.38 281.161C1055.32 275.672 1057.3 271.131 1063.5 268Z" fill="#5FBEFB"/>
<path d="M1057.35 198.741C1060.86 196.967 1065.66 198.512 1067.48 202C1069.31 205.489 1067.83 210.314 1064.36 212.183C1060.9 214.052 1056.06 212.639 1054.14 209.202C1052.22 205.764 1053.46 200.701 1057.35 198.741Z" fill="white"/>
<path d="M1066.42 267.897C1070.63 265.772 1076.39 267.622 1078.57 271.802C1080.75 275.981 1078.98 281.76 1074.83 283.998C1070.68 286.237 1064.88 284.546 1062.58 280.428C1060.29 276.31 1061.77 270.245 1066.42 267.897Z" fill="white"/>
<path d="M683.078 87.7821C720.046 69.1217 770.592 85.3736 789.757 122.083C808.922 158.792 793.364 209.555 756.921 229.221C720.478 248.888 669.506 234.027 649.343 197.857C629.179 161.687 642.208 108.412 683.078 87.7821Z" fill="#5FBEFB"/>
<path d="M772.716 129.326C769.558 117.198 762.625 106.389 752.918 98.4611C754.849 92.4094 756.822 86.3704 758.944 80.3848C755.421 85.3098 752.167 90.4214 749.196 95.6974C743.89 92.0895 737.88 89.6446 731.562 88.5233C725.096 87.7399 718.125 86.8377 711.902 89.2235C702.25 93.8541 695.252 102.852 689.538 111.702C686.355 114.069 683.559 116.916 681.248 120.14C669.915 137.292 673.811 159.469 679.599 177.938C688.691 210.205 729.42 245.119 758.207 212.652C766.256 203.077 770.57 191.021 773.242 178.947C777.692 159.496 776.576 145.416 772.716 129.326ZM757.797 175.734C753.779 190.08 750.977 197.399 742.183 205.69C736.152 210.651 726.382 213.225 712.013 202.404C707.25 199.034 702.934 195.072 699.17 190.613C695.463 185.354 692.261 179.757 689.609 173.894C682.819 157.633 676.96 139.337 684.243 122.72C687.887 114.96 694.921 109.676 700.793 103.683C697.361 106.188 693.703 108.512 690.29 111.103C693.89 107.16 697.924 103.635 702.315 100.596C706.127 97.9508 710.152 95.1047 714.846 94.423C720.199 94.2364 725.534 95.1295 730.534 97.0489C735.534 98.9682 740.096 101.875 743.949 105.595L743.938 105.617C735.663 121.895 729.449 139.141 725.44 156.956C719.889 149.463 713.797 142.387 707.213 135.782C711.245 143.275 715.371 150.721 719.051 158.396C721.457 162.314 722.956 171.976 729.353 168.832C731.649 167.28 732.191 164.322 733.119 161.88C734.425 157.914 735.735 153.949 737.049 149.985C741.314 137.13 745.103 124.127 749.002 111.158C752.12 115.192 754.747 119.583 756.829 124.237C759.667 132.34 761.114 140.863 761.108 149.448C761.16 161.635 760.665 163.591 757.797 175.734V175.734Z" fill="white"/>
</svg>
