<svg width="1440" height="330" viewBox="0 0 1440 330" fill="none" xmlns="http://www.w3.org/2000/svg">
<path d="M1280.17 56.0491L1280.17 56.0496C1280.25 55.732 1280.23 55.4779 1280.14 55.3682C1280.11 55.3191 1280.06 55.2776 1280.01 55.2462C1279.96 55.2149 1279.91 55.1943 1279.85 55.1858C1279.27 55.1025 1278.73 55.9672 1278.48 56.7509C1278.35 57.1517 1278.27 57.5763 1278.31 57.9962C1278.34 58.2868 1278.37 58.584 1278.47 58.8593C1278.43 58.532 1278.49 58.1861 1278.53 57.8506C1278.57 57.6008 1278.65 57.3326 1278.78 57.0262C1279.01 56.5405 1278.99 56.5636 1279.29 56.1023C1279.34 56.0309 1279.39 55.9684 1279.43 55.9141C1279.47 55.8811 1279.51 55.8513 1279.55 55.8252C1279.51 55.8496 1279.54 55.8311 1279.56 55.8155C1279.56 55.8186 1279.56 55.8211 1279.56 55.8208C1279.67 55.7576 1279.64 55.7627 1279.73 55.7519C1279.73 55.7519 1279.74 55.7517 1279.74 55.7519C1279.74 55.7519 1279.74 55.7522 1279.74 55.7522C1279.75 55.7545 1279.75 55.7568 1279.75 55.7593C1279.76 55.7677 1279.76 55.7762 1279.76 55.7849C1279.77 55.8153 1279.77 55.836 1279.78 55.8508C1279.77 55.8835 1279.77 55.9163 1279.77 55.949C1279.74 56.081 1279.8 56.2225 1279.95 56.236C1280.09 56.2366 1280.15 56.1548 1280.17 56.0491Z" fill="#5FBEFB"/>
<path d="M1279.31 60.3195C1279.27 60.0936 1279.13 59.8763 1278.93 59.7732C1278.86 59.7392 1278.78 59.7159 1278.7 59.7041C1278.81 59.7481 1278.9 59.8167 1278.98 59.9044C1279.07 60.024 1279.12 60.1679 1279.12 60.3178C1279.12 60.4342 1279.1 60.4915 1279.05 60.5952C1279.02 60.6557 1278.92 60.8079 1278.78 60.8989C1278.74 60.9227 1278.7 60.9431 1278.66 60.9598C1278.62 60.9798 1278.58 60.997 1278.53 61.0114C1278.13 61.1124 1277.71 60.998 1277.51 60.7525C1277.42 60.6387 1277.43 60.6662 1277.38 60.5595C1277.37 60.5058 1277.36 60.4998 1277.37 60.3601C1277.41 60.1175 1277.56 60.0225 1277.83 59.9354C1278.04 59.8911 1278.25 59.9292 1278.46 59.9284C1278.27 59.8859 1278.07 59.8215 1277.87 59.8138C1277.71 59.8208 1277.56 59.8623 1277.42 59.9353C1277.29 60.0073 1277.21 60.1358 1277.16 60.2696C1277.03 60.5925 1277.19 60.8946 1277.43 61.1083C1277.68 61.3129 1278.01 61.3955 1278.33 61.364C1278.84 61.3308 1279.38 60.8729 1279.31 60.3195Z" fill="#F3F7FA"/>
<path d="M1280.63 55.4555C1280.59 55.0868 1280.32 54.7543 1279.95 54.7039C1279.36 54.6128 1278.77 54.958 1278.4 55.4156C1278.05 55.8327 1277.94 56.3922 1277.91 56.9208C1277.89 57.2767 1277.9 57.6335 1277.95 57.9854C1278.02 58.3726 1278.12 58.754 1278.2 59.1365C1278.19 58.5908 1278.14 58.1749 1278.16 57.7168C1278.19 57.1585 1278.26 56.6645 1278.4 56.2424C1278.5 55.9753 1278.51 55.9629 1278.65 55.7585C1278.67 55.7204 1278.79 55.5779 1278.8 55.5715C1279.22 55.1231 1279.82 54.9728 1280.08 55.2022C1280.24 55.3524 1280.29 55.6797 1280.1 56.1448C1279.94 56.5173 1279.73 56.862 1279.54 57.2212C1279.34 57.6072 1279.15 57.9991 1278.99 58.4052C1278.86 58.7125 1278.78 59.0414 1278.65 59.3477C1278.63 59.338 1278.61 59.3287 1278.6 59.3203C1278.47 59.2601 1278.34 59.2001 1278.21 59.1349C1278.32 59.2315 1278.44 59.322 1278.56 59.4059C1278.6 59.4283 1278.64 59.4777 1278.69 59.4619C1278.7 59.4552 1278.72 59.4426 1278.73 59.4261C1278.77 59.3721 1278.8 59.3151 1278.83 59.2556C1278.92 59.068 1279.02 58.8811 1279.12 58.6959C1279.33 58.2863 1279.66 57.7531 1279.95 57.2726C1280.16 56.9174 1280.38 56.5639 1280.52 56.1746C1280.6 55.9437 1280.66 55.6996 1280.63 55.4555Z" fill="#F3F7FA"/>
<path d="M1278.32 60.1241C1277.96 59.9949 1277.75 60.53 1278.11 60.678C1278.47 60.8072 1278.67 60.272 1278.32 60.1241Z" fill="#5FBEFB"/>
<path d="M1275.52 55.2215C1283.47 49.5045 1286.19 62.9559 1276.38 61.3291C1270.62 59.5734 1277.63 50.144 1273.1 57.6235C1271.94 63.7578 1281.56 64.8203 1284.12 59.8927C1287.96 54.7943 1278.17 50.0827 1275.52 55.2215Z" fill="#F3F7FA"/>
<path d="M752.157 109.575C752.176 109.554 752.194 109.531 752.213 109.51C752.153 109.57 752.121 109.604 752.157 109.575Z" fill="#5FBEFB"/>
<path d="M770.331 122.963C768.973 120.175 767.448 117.452 765.761 114.806C763.104 111.003 759.902 106.639 756.513 106.812C755.845 106.839 755.194 107.001 754.608 107.285C754.022 107.569 753.518 107.968 753.135 108.451C752.809 108.787 752.511 109.153 752.212 109.51C752.266 109.455 752.342 109.378 752.422 109.295C752.069 109.697 751.73 110.128 751.417 110.548C749.426 113.235 747.605 116.02 745.522 118.655C742.79 122.23 737.228 128.668 736.701 129.263C731.919 134.847 726.708 140.294 723.465 146.738C726.649 143.182 730.412 140.112 734.234 137.094C731.842 139.902 729.427 142.694 727.032 145.5C729.106 144.096 731.147 142.655 733.156 141.178C739.583 136.679 745.26 131.452 751.195 126.474C753.306 124.736 757.377 121.301 758.322 120.743C758.447 120.712 758.574 120.688 758.702 120.665C758.945 120.649 759.189 120.645 759.432 120.654C759.439 120.66 759.445 120.668 759.452 120.674C760.611 122.158 761.619 123.728 762.71 125.25C763.71 126.673 764.95 128.349 767.09 128.276C770.284 128.295 771.86 125.128 770.331 122.963Z" fill="#5FBEFB"/>
<path d="M744.018 167.622C742.777 168.04 741.653 168.687 740.454 169.187C739.045 169.813 738.692 169.853 736.406 170.72C736.006 170.913 735.631 171.145 735.29 171.411C733.644 172.739 734.714 174.796 734.665 176.489C734.684 176.972 734.687 177.454 734.684 177.937C734.399 178.437 734.118 178.939 733.83 179.438C733.202 180.595 732.265 181.708 732.207 183.028C732.414 186.132 735.329 186.394 738.195 186.268C740.829 186.185 743.622 186.238 746.064 185.261C748.087 184.352 748.5 182.326 748.506 180.499C748.63 178.712 748.775 176.925 748.79 175.135C748.74 172.574 748.82 166.986 744.018 167.622Z" fill="#5FBEFB"/>
<path d="M786.65 144.475C785.277 140.052 782.855 135.946 780.679 131.801C777.84 126.845 774.996 121.856 771.417 117.276C769.237 114.387 766.715 111.709 763.894 109.289C761.393 107.222 758.633 105.424 755.921 103.578C756.057 103.344 756.193 103.11 756.328 102.876C756.148 103.08 755.967 103.283 755.787 103.487C755.248 103.119 754.712 102.749 754.178 102.376C754.62 102.835 755.079 103.298 755.543 103.762C755.475 103.84 755.407 103.917 755.338 103.994C750.936 109.039 746.243 113.881 741.277 118.501C734.953 124.82 728.54 131.068 722.038 137.245C718.467 140.873 714.24 144.095 711.485 148.283C711.236 148.712 711.008 149.147 710.789 149.584C701.57 149.878 692.344 149.416 683.14 148.889C679.809 148.652 676.512 148.12 673.177 147.925C669.788 147.764 666.393 147.909 663.002 147.983C663.049 147.753 663.096 147.524 663.145 147.294C663.158 147.264 663.164 147.249 663.174 147.225C663.188 147.201 663.204 147.179 663.219 147.156C663.301 147.081 663.428 146.965 663.59 146.829C663.945 146.477 666.158 145.193 668.204 144.246C678.785 139.275 689.445 134.439 700.184 129.738C699.948 132.571 699.688 135.402 699.357 138.228C700.413 135.137 701.339 132.013 702.168 128.87C703.341 128.357 704.511 127.839 705.686 127.33C708.3 126.211 710.908 125.077 713.508 123.93C712.805 127.276 712.205 130.64 711.672 134.013C711.543 134.742 711.42 135.472 711.302 136.203C711.538 135.628 711.772 135.053 712.006 134.478C713.544 130.498 715.089 126.519 716.64 122.542C725.501 118.592 734.269 114.477 742.882 110.127C746.927 108.027 750.991 105.924 754.724 103.405C752.285 104.439 749.084 105.734 747.079 106.456C737.884 109.863 728.526 112.935 719.436 116.559C719.248 116.635 719.061 116.713 718.873 116.789C719.286 115.724 719.699 114.66 720.112 113.595C721.127 110.325 724.249 103.868 721.427 101.029C720.072 99.9407 718.073 100.348 716.395 100.129C713.74 99.9408 712.978 99.7272 710.709 99.5145C708.931 99.3161 707.127 99.4347 705.403 99.8633C703.333 100.336 702.502 101.632 702.288 103.422C701.434 107.792 701.3 112.223 701.142 116.645C700.962 119.258 700.779 121.871 700.594 124.484C692.636 127.956 684.736 131.535 676.859 135.146C673.873 136.532 670.923 137.977 667.926 139.344C665.162 140.63 662.28 141.849 659.937 143.703C657.493 145.662 657.821 148.883 657.225 151.527C656.137 158.702 655.406 165.903 654.941 173.129C654.583 177.391 653.879 181.634 653.867 185.914C654.404 199.94 655.049 213.966 655.376 228C657.772 214.338 658.874 200.551 659.19 186.738C659.229 182.889 659.728 179.063 660.111 175.233C660.46 171.591 660.567 167.936 660.829 164.288C661.504 158.056 661.951 153.199 662.962 148.177C666.285 148.635 669.627 148.992 672.919 149.603C676.173 150.249 679.352 151.161 682.612 151.787C692.058 153.337 699.649 154.567 708.851 154.718C707.68 158.878 707.203 163.229 706.315 167.418C705.023 174.631 703.502 181.828 703.202 189.142C702.719 201.256 702.058 213.363 701.331 225.467C703.459 216.706 705.326 207.891 706.672 199.008C707.66 192.765 708.19 186.475 709.09 180.223C709.45 178.02 711.027 169.202 711.826 164.769C712.255 162.069 713.139 157.693 713.996 154.691C714.174 154.686 714.346 154.685 714.525 154.679C722.043 154.967 729.231 152.894 736.549 151.714C747.499 150.044 758.502 148.684 769.412 146.81C773.112 146.297 776.804 145.743 780.482 145.118C780.556 145.33 780.632 145.543 780.7 145.75C782.309 151.998 782.688 156.736 783.159 165.618C783.521 173.202 783.146 180.794 783.338 188.381C783.381 199.306 783.95 210.216 785.045 221.109C785.1 221.672 785.157 222.233 785.215 222.795C786.325 212.361 787.297 201.916 788.233 191.469C788.875 183.61 789.167 175.736 789.112 167.847C789.058 160.024 788.672 152.117 786.65 144.475ZM704.823 117.055C705.774 110.921 705.855 109.676 707.096 103.694C707.246 103.658 707.406 103.622 707.548 103.598C709.438 103.403 711.34 103.644 713.215 103.862C714.846 104.052 716.49 104.152 718.136 104.159C718.176 106.29 716.763 110.66 715.888 114.234C715.487 115.639 715.116 117.05 714.764 118.464C711.009 120.01 707.272 121.587 703.551 123.196C704.01 121.154 704.434 119.108 704.823 117.055ZM762.726 144.869C753.392 145.382 744.007 145.47 734.743 146.702C730.095 147.313 725.549 148.406 720.916 149.088C718.554 149.217 717.815 149.213 716.705 149.277C718.648 146.768 721 145.068 724.017 142.043C729.271 137.138 734.212 131.98 738.817 126.592C744.854 119.281 751.127 112.059 755.714 103.932C758.338 106.549 761.185 109.215 763.067 111.545C768.49 118.17 772.23 127.058 774.009 130.703C774.992 133.081 778.442 139.46 780.334 144.692C774.464 144.664 768.588 144.569 762.726 144.869Z" fill="#F3F7FA"/>
<path d="M746.393 198.557C741.896 199.145 735.347 200.791 732.973 204.481C732.029 206.176 731.976 208.121 731.758 209.968C731.515 212.558 731.525 215.162 731.788 217.75C731.802 219.261 734.086 219.796 734.787 218.358C734.928 217.886 734.966 217.394 734.898 216.909C735.022 215.643 735.226 213.456 735.458 212.088C735.495 211.865 735.528 211.627 735.537 211.547C735.625 210.975 735.566 211.256 735.884 209.437C736.219 207.701 736.469 206.519 736.94 206.036C737.371 205.257 741.339 203.326 744.189 202.562C744.982 202.338 745.775 202.101 746.584 201.927C747.633 203.53 748.255 209.064 748.754 212.908C749.038 215.154 749.324 217.399 749.652 219.64C749.739 218.967 749.83 218.293 749.91 217.619C750.349 213.747 750.642 209.857 750.68 205.965C750.511 203.604 750.716 198.399 746.393 198.557Z" fill="#F3F7FA"/>
<path d="M753.814 165.044C752.959 158.869 748.62 160.815 743.898 162.37C742.132 163.023 740.31 163.611 738.681 164.51C737.828 165.043 736.92 165.624 736.586 166.54C736.215 167.568 736.275 168.677 736.06 169.735C735.744 171.79 734.977 176.228 734.607 179.092C735.899 175.625 737.227 172.166 738.33 168.647C738.418 168.322 738.624 167.755 738.698 167.567C738.853 167.338 738.829 167.316 739.005 167.179C740.484 166.379 740.534 166.458 742.052 165.985C744.576 165.258 747.13 164.605 749.718 164.079C750.374 165.405 750.323 168.37 750.248 171.362C750.183 173.617 750.168 175.876 750.003 178.128C750.005 178.429 749.914 178.726 749.742 178.986C749.134 179.514 747.238 179.55 745.301 179.71C743.479 179.876 741.649 179.962 739.817 179.967C740.664 180.171 741.519 180.352 742.383 180.495C744.236 180.762 746.105 180.967 747.979 181.078C749.496 181.192 751.301 180.913 752.034 179.59C753.034 177.225 753.104 174.617 753.535 172.136C753.77 169.785 754.184 167.4 753.814 165.044Z" fill="#F3F7FA"/>
<path d="M585.69 76.7096L585.709 76.6931C583.388 73.9044 580.968 72.4517 579.387 72.5693C578.729 72.5529 578.077 72.6722 577.47 72.9196C576.864 73.1671 576.316 73.5377 575.861 74.0085C571.365 78.6664 575.639 89.0997 581.032 96.4481C583.8 100.192 587.114 103.629 591.152 105.973C593.955 107.584 596.793 109.271 599.908 110.16C596.739 108.362 593.981 105.643 591.225 103.117C589.243 101.141 587.399 98.6242 585.485 95.4806C582.602 90.289 582.692 90.6017 580.507 84.9036C580.183 84.0034 579.923 83.1807 579.717 82.4395C579.653 81.9031 579.637 81.3628 579.668 80.8249C579.632 81.3373 579.658 80.9512 579.681 80.6235C579.678 80.686 579.676 80.7381 579.674 80.7336C579.857 79.2844 579.721 79.5705 580.187 78.719C580.21 78.6871 580.231 78.654 580.256 78.6229C580.262 78.6153 580.27 78.6097 580.276 78.6022C580.317 78.5884 580.358 78.5757 580.399 78.5639C580.5 78.5841 580.599 78.6066 580.698 78.6352C581.003 78.7859 581.214 78.8858 581.364 78.957C581.649 79.1814 581.931 79.4107 582.209 79.6447C583.221 80.7375 584.884 81.1093 585.933 79.9105C586.876 78.6117 586.532 77.542 585.69 76.7096Z" fill="#5FBEFB"/>
<path d="M846.25 57.2033L846.275 57.2091C847.179 53.695 846.942 50.8824 845.922 49.6691C845.55 49.1258 845.072 48.6666 844.517 48.3195C843.961 47.9724 843.341 47.7448 842.692 47.6507C836.285 46.7284 830.322 56.2971 827.515 64.9695C826.098 69.4045 825.248 74.1031 825.709 78.7491C826.042 81.9645 826.332 85.2536 827.433 88.2998C827.038 84.6778 827.631 80.851 828.068 77.1376C828.511 74.3742 829.474 71.4066 830.905 68.0156C833.43 62.6409 833.229 62.8969 836.573 57.792C837.113 57.0025 837.628 56.3102 838.109 55.7094C838.507 55.3443 838.936 55.015 839.39 54.7254C838.954 54.9963 839.282 54.7912 839.561 54.6185C839.508 54.6524 839.465 54.6809 839.468 54.6774C840.75 53.9777 840.438 54.0348 841.401 53.9145C841.441 53.9147 841.48 53.9128 841.52 53.9144C841.529 53.9147 841.539 53.918 841.548 53.9185C841.583 53.9436 841.618 53.9694 841.652 53.9964C841.694 54.0896 841.734 54.1835 841.768 54.2802C841.825 54.6161 841.867 54.8454 841.897 55.0087C841.882 55.3715 841.861 55.734 841.833 56.0963C841.539 57.5563 842.21 59.1225 843.796 59.2722C845.401 59.278 846.067 58.373 846.25 57.2033Z" fill="#5FBEFB"/>
<path d="M1274.27 34.5955L1274.27 34.596C1274.35 34.2784 1274.33 34.0242 1274.24 33.9146C1274.21 33.8655 1274.16 33.824 1274.11 33.7926C1274.06 33.7613 1274.01 33.7407 1273.95 33.7322C1273.37 33.6488 1272.83 34.5136 1272.58 35.2973C1272.45 35.6981 1272.37 36.1227 1272.41 36.5426C1272.44 36.8332 1272.47 37.1304 1272.57 37.4057C1272.53 37.0784 1272.59 36.7325 1272.63 36.3969C1272.67 36.1472 1272.75 35.879 1272.88 35.5726C1273.11 35.0869 1273.09 35.11 1273.39 34.6487C1273.44 34.5773 1273.49 34.5148 1273.53 34.4605C1273.57 34.4275 1273.61 34.3977 1273.65 34.3715C1273.61 34.396 1273.64 34.3775 1273.66 34.3619C1273.66 34.3649 1273.66 34.3675 1273.66 34.3672C1273.77 34.304 1273.74 34.3091 1273.83 34.2983C1273.83 34.2983 1273.84 34.2981 1273.84 34.2983C1273.84 34.2983 1273.84 34.2986 1273.84 34.2986C1273.85 34.3009 1273.85 34.3032 1273.85 34.3057C1273.86 34.3141 1273.86 34.3226 1273.86 34.3313C1273.87 34.3617 1273.87 34.3824 1273.88 34.3971C1273.87 34.4299 1273.87 34.4627 1273.87 34.4954C1273.84 34.6274 1273.9 34.7689 1274.05 34.7824C1274.19 34.783 1274.25 34.7012 1274.27 34.5955Z" fill="#5FBEFB"/>
<path d="M618.464 112.056C616.165 110.971 613.349 110.766 611.085 111.953C610.322 112.369 609.624 112.896 609.015 113.518C610.094 112.853 611.318 112.455 612.586 112.355C614.23 112.338 615.85 112.815 617.238 113.724C618.275 114.489 618.676 115.016 619.275 116.147C619.572 116.881 620.314 118.73 620.228 120.572C620.204 121.056 620.136 121.536 620.025 122.006C619.925 122.523 619.793 123.032 619.629 123.531C617.941 127.782 614.2 130.808 610.686 131.036C609.079 131.111 609.388 131.204 608.147 130.904C607.578 130.678 607.463 130.725 606.303 129.69C604.364 127.79 604.47 125.844 605.453 122.834C606.388 120.698 608.111 119.031 609.453 117.156C607.812 118.626 605.983 119.945 604.618 121.691C603.659 123.153 603.029 124.812 602.77 126.553C602.603 128.148 603.224 129.718 604.098 131.037C606.164 134.28 609.908 134.802 613.361 134.057C616.816 133.137 619.714 130.679 621.5 127.608C624.515 122.798 623.914 114.968 618.464 112.056Z" fill="#F3F7FA"/>
<path d="M836.749 104.461C836.284 101.96 834.804 99.5563 832.516 98.4151C831.732 98.039 830.897 97.7816 830.037 97.6508C831.207 98.1375 832.246 98.8967 833.069 99.8675C834.044 101.191 834.604 102.784 834.679 104.442C834.665 105.73 834.472 106.363 833.905 107.511C833.483 108.181 832.417 109.865 830.873 110.872C830.466 111.135 830.037 111.361 829.591 111.546C829.114 111.767 828.623 111.958 828.123 112.116C823.687 113.234 819.044 111.969 816.804 109.252C815.804 107.992 815.909 108.297 815.427 107.116C815.277 106.522 815.171 106.456 815.333 104.91C815.74 102.226 817.38 101.174 820.397 100.21C822.676 99.7198 825.036 100.142 827.342 100.133C825.19 99.6624 823.05 98.9502 820.835 98.8646C819.088 98.9423 817.375 99.4011 815.811 100.21C814.419 101.007 813.509 102.428 812.95 103.909C811.528 107.482 813.295 110.824 815.919 113.189C818.685 115.454 822.374 116.367 825.909 116.019C831.574 115.651 837.574 110.585 836.749 104.461Z" fill="#F3F7FA"/>
<path d="M1273.41 38.8661C1273.37 38.6402 1273.23 38.4229 1273.03 38.3198C1272.96 38.2858 1272.88 38.2625 1272.8 38.2507C1272.91 38.2947 1273 38.3633 1273.08 38.451C1273.17 38.5707 1273.22 38.7146 1273.22 38.8644C1273.22 38.9808 1273.2 39.0381 1273.15 39.1418C1273.12 39.2023 1273.02 39.3545 1272.88 39.4455C1272.84 39.4693 1272.8 39.4897 1272.76 39.5065C1272.72 39.5264 1272.68 39.5436 1272.63 39.558C1272.23 39.659 1271.81 39.5447 1271.61 39.2992C1271.52 39.1853 1271.53 39.2128 1271.48 39.1061C1271.47 39.0525 1271.46 39.0464 1271.48 38.9068C1271.51 38.6642 1271.66 38.5691 1271.93 38.482C1272.14 38.4377 1272.35 38.4759 1272.56 38.4751C1272.37 38.4325 1272.17 38.3682 1271.97 38.3604C1271.81 38.3674 1271.66 38.4089 1271.52 38.482C1271.39 38.554 1271.31 38.6825 1271.26 38.8163C1271.13 39.1391 1271.29 39.4412 1271.53 39.6549C1271.78 39.8596 1272.11 39.9421 1272.43 39.9106C1272.94 39.8774 1273.49 39.4195 1273.41 38.8661Z" fill="#F3F7FA"/>
<path d="M583.331 68.7484C579.769 66.7134 575.078 66.9287 572.21 69.9522C567.547 74.6961 566.833 82.2165 568.541 88.5056C570.026 94.3364 574.367 98.903 578.896 102.623C581.952 105.118 585.251 107.293 588.74 109.113C592.642 111.027 596.686 112.635 600.685 114.325C595.663 110.965 591.652 108.66 587.656 105.533C582.827 101.668 578.879 97.797 576.002 93.8022C574.257 91.1687 574.183 91.0345 573.222 88.5013C573.033 88.0423 572.565 85.9966 572.534 85.9172C571.26 79.2004 573.77 72.8775 577.532 71.9992C579.915 71.535 583.173 73.2102 586.094 77.9583C588.427 81.7704 590.131 85.9285 592.167 89.9C594.319 94.2201 596.582 98.4963 599.19 102.562C601.097 105.732 603.567 108.529 605.461 111.696C605.26 111.793 605.061 111.893 604.867 112.003C603.495 112.766 602.124 113.532 600.723 114.24C602.316 113.861 603.886 113.395 605.427 112.846C605.878 112.645 606.549 112.646 606.726 112.103C606.782 111.899 606.767 111.681 606.683 111.485C606.449 110.787 606.161 110.108 605.822 109.455C604.733 107.414 603.663 105.364 602.626 103.296C600.318 98.7475 597.672 92.3299 595.248 86.6014C593.408 82.4324 591.677 78.1448 589.089 74.3686C587.524 72.1712 585.706 70.074 583.331 68.7484Z" fill="#F3F7FA"/>
<path d="M851.328 50.6337C850.895 46.5539 847.977 42.8747 843.847 42.3174C837.272 41.3093 830.755 45.1292 826.652 50.1922C822.791 54.8075 821.626 60.9995 821.258 66.8487C821.022 70.7869 821.187 74.7345 821.751 78.6288C822.481 82.9135 823.542 87.1341 824.509 91.3661C824.298 85.3283 823.821 80.7258 824.021 75.6563C824.331 69.4786 825.162 64.0123 826.719 59.3419C827.835 56.3862 827.901 56.2482 829.394 53.9871C829.655 53.5654 831.041 51.9888 831.087 51.9172C835.79 46.9554 842.387 45.2931 845.299 47.8309C847.07 49.4926 847.616 53.1148 845.474 58.2616C843.746 62.3837 841.37 66.1972 839.34 70.172C837.094 74.444 834.949 78.7806 833.176 83.2741C831.721 86.6749 830.896 90.3141 829.435 93.703C829.239 93.5965 829.042 93.4929 828.839 93.4005C827.418 92.7341 825.995 92.0702 824.601 91.348C825.84 92.4179 827.136 93.4193 828.483 94.3478C828.91 94.5955 829.301 95.1415 829.846 94.967C830.043 94.8927 830.211 94.753 830.322 94.5707C830.751 93.9728 831.133 93.3422 831.465 92.6847C832.483 90.608 833.52 88.5404 834.591 86.4907C836.93 81.9582 840.588 76.0579 843.817 70.7416C846.122 66.8109 848.588 62.899 850.137 58.591C851.004 56.0364 851.642 53.3352 851.328 50.6337Z" fill="#F3F7FA"/>
<path d="M1274.73 34.0016C1274.69 33.6329 1274.43 33.3004 1274.05 33.2501C1273.46 33.159 1272.87 33.5042 1272.5 33.9617C1272.15 34.3788 1272.04 34.9384 1272.01 35.467C1271.99 35.8229 1272 36.1796 1272.06 36.5316C1272.12 36.9188 1272.22 37.3002 1272.3 37.6826C1272.29 37.137 1272.24 36.7211 1272.26 36.2629C1272.29 35.7046 1272.36 35.2107 1272.5 34.7886C1272.61 34.5215 1272.61 34.509 1272.75 34.3047C1272.77 34.2666 1272.89 34.1241 1272.9 34.1176C1273.32 33.6692 1273.92 33.519 1274.18 33.7483C1274.34 33.8985 1274.39 34.2258 1274.2 34.691C1274.04 35.0635 1273.83 35.4081 1273.64 35.7673C1273.44 36.1534 1273.25 36.5453 1273.09 36.9514C1272.96 37.2587 1272.88 37.5876 1272.75 37.8938C1272.73 37.8842 1272.71 37.8748 1272.7 37.8665C1272.57 37.8063 1272.44 37.7463 1272.31 37.681C1272.42 37.7777 1272.54 37.8682 1272.66 37.9521C1272.7 37.9745 1272.74 38.0238 1272.79 38.008C1272.8 38.0013 1272.82 37.9887 1272.83 37.9722C1272.87 37.9182 1272.9 37.8612 1272.93 37.8018C1273.03 37.6141 1273.12 37.4273 1273.22 37.242C1273.43 36.8324 1273.76 36.2992 1274.05 35.8188C1274.26 35.4636 1274.48 35.11 1274.62 34.7207C1274.7 34.4899 1274.76 34.2457 1274.73 34.0016Z" fill="#F3F7FA"/>
<path d="M610.289 119.688C606.786 122.103 610.261 127.409 613.88 125.189C617.384 122.774 613.908 117.469 610.289 119.688Z" fill="#5FBEFB"/>
<path d="M825.777 102.294C821.769 100.864 819.498 106.786 823.415 108.423C827.423 109.853 829.693 103.931 825.777 102.294Z" fill="#5FBEFB"/>
<path d="M1272.42 38.6702C1272.06 38.541 1271.85 39.0762 1272.21 39.2241C1272.57 39.3533 1272.77 38.8181 1272.42 38.6702Z" fill="#5FBEFB"/>
<g clip-path="url(#clip0_318_670)">
<path d="M623.835 51.1463L623.858 51.1362C622.468 47.7842 620.588 45.6788 619.044 45.3221C618.42 45.1113 617.762 45.0316 617.11 45.088C616.457 45.1444 615.824 45.3357 615.25 45.6501C609.574 48.7641 610.559 59.9957 613.529 68.6135C615.062 73.0101 617.206 77.276 620.367 80.7121C622.565 83.0822 624.775 85.5362 627.485 87.3092C624.993 84.6516 623.167 81.2369 621.284 78.0065C619.977 75.5315 618.963 72.5809 618.068 69.011C616.856 63.1978 616.849 63.5232 616.454 57.4334C616.411 56.4775 616.407 55.6146 616.43 54.8456C616.529 54.3145 616.673 53.7937 616.862 53.2892C616.676 53.768 616.815 53.4069 616.935 53.1008C616.913 53.1596 616.895 53.2086 616.896 53.204C617.5 51.8742 617.285 52.1071 617.983 51.4321C618.014 51.4086 618.045 51.3833 618.077 51.3609C618.085 51.3554 618.094 51.3524 618.102 51.347C618.146 51.346 618.189 51.346 618.232 51.3471C618.322 51.3962 618.41 51.4472 618.496 51.5038C618.743 51.7384 618.914 51.8963 619.036 52.0087C619.242 52.3078 619.443 52.6103 619.639 52.9162C620.281 54.2601 621.759 55.1086 623.116 54.2751C624.403 53.3148 624.392 52.1911 623.835 51.1463Z" fill="#5FBEFB"/>
<path d="M644.644 94.6264C642.77 92.9078 640.141 91.8759 637.628 92.3386C636.775 92.5092 635.953 92.8056 635.186 93.2182C636.414 92.9036 637.701 92.8862 638.942 93.1675C640.517 93.6391 641.922 94.5751 642.978 95.8559C643.741 96.8933 643.968 97.5155 644.204 98.774C644.27 99.5624 644.43 101.549 643.801 103.282C643.634 103.737 643.427 104.175 643.182 104.591C642.933 105.055 642.655 105.502 642.351 105.93C639.478 109.489 635.007 111.268 631.583 110.444C630.027 110.038 630.294 110.218 629.198 109.564C628.722 109.18 628.598 109.19 627.798 107.858C626.51 105.467 627.188 103.641 629.02 101.057C630.547 99.2959 632.687 98.2147 634.525 96.822C632.522 97.7389 630.383 98.4561 628.561 99.7188C627.212 100.831 626.118 102.227 625.355 103.813C624.722 105.286 624.848 106.97 625.292 108.489C626.302 112.199 629.723 113.809 633.242 114.122C636.814 114.269 640.311 112.782 642.927 110.379C647.234 106.68 648.984 99.0248 644.644 94.6264Z" fill="#F3F7FA"/>
<path d="M623.944 42.8442C621.146 39.8438 616.602 38.6573 612.967 40.6938C607.106 43.8401 604.193 50.8101 603.957 57.3224C603.646 63.3315 606.436 68.9805 609.657 73.8768C611.835 77.1663 614.34 80.222 617.131 82.9954C620.29 85.9811 623.675 88.7167 626.991 91.5176C623.193 86.8192 620.046 83.4269 617.159 79.2552C613.694 74.1314 611.073 69.2633 609.51 64.5945C608.625 61.5618 608.595 61.4119 608.429 58.7076C608.385 58.2132 608.544 56.1206 608.539 56.0356C609.315 49.2433 613.588 43.9499 617.441 44.2276C619.855 44.4916 622.469 47.058 623.85 52.4592C624.947 56.7919 625.34 61.2682 626.106 65.6651C626.879 70.4292 627.771 75.1843 629.055 79.8412C629.936 83.4337 631.464 86.8379 632.333 90.4246C632.112 90.4573 631.892 90.4932 631.674 90.5413C630.138 90.8629 628.602 91.1875 627.054 91.4481C628.687 91.5581 630.325 91.5795 631.96 91.5122C632.449 91.4537 633.09 91.6549 633.421 91.1882C633.534 91.0099 633.584 90.7974 633.563 90.5853C633.546 89.8496 633.473 89.116 633.343 88.391C632.908 86.1194 632.495 83.8434 632.119 81.5615C631.264 76.533 630.641 69.619 630.027 63.4293C629.507 58.9021 629.126 54.294 627.775 49.9198C626.932 47.357 625.819 44.8147 623.944 42.8442Z" fill="#F3F7FA"/>
<path d="M634.572 99.4894C630.51 100.756 632.254 106.853 636.368 105.808C640.431 104.541 638.686 98.4437 634.572 99.4894Z" fill="#5FBEFB"/>
</g>
<g clip-path="url(#clip1_318_670)">
<path d="M889.295 73.1921L889.317 73.2049C891.223 70.1175 891.831 67.3611 891.217 65.8999C891.024 65.2708 890.703 64.6904 890.276 64.1941C889.848 63.6978 889.323 63.2962 888.732 63.014C882.887 60.2318 874.353 67.6 869.099 75.0491C866.43 78.8636 864.224 83.0985 863.285 87.672C862.649 90.8412 861.95 94.0684 862.098 97.3041C862.796 93.7281 864.497 90.2495 866.016 86.833C867.26 84.3257 869.06 81.7775 871.432 78.9637C875.438 74.5803 875.17 74.7652 879.879 70.8825C880.629 70.289 881.326 69.7807 881.964 69.3496C882.452 69.1191 882.959 68.9318 883.479 68.79C882.982 68.9193 883.356 68.8208 883.674 68.7388C883.614 68.7556 883.564 68.7698 883.568 68.7674C885 68.4797 884.685 68.4417 885.64 68.6126C885.678 68.6246 885.716 68.6344 885.754 68.6477C885.763 68.6508 885.771 68.6567 885.78 68.66C885.806 68.6944 885.831 68.7293 885.855 68.765C885.868 68.8666 885.878 68.9681 885.882 69.0707C885.837 69.4083 885.809 69.6398 885.789 69.8046C885.667 70.1466 885.539 70.4865 885.406 70.8243C884.691 72.1312 884.867 73.8259 886.337 74.4394C887.868 74.9214 888.773 74.2549 889.295 73.1921Z" fill="#5FBEFB"/>
<path d="M866.198 115.501C866.496 112.976 865.796 110.241 863.95 108.472C863.313 107.88 862.592 107.387 861.809 107.006C862.782 107.819 863.549 108.852 864.046 110.023C864.585 111.576 864.648 113.263 864.226 114.869C863.831 116.095 863.459 116.643 862.577 117.57C861.976 118.085 860.458 119.376 858.684 119.88C858.218 120.011 857.741 120.099 857.26 120.144C856.738 120.213 856.214 120.249 855.688 120.252C851.121 120.004 847.063 117.418 845.729 114.159C845.149 112.659 845.158 112.981 845.048 111.71C845.081 111.099 845.001 111.003 845.613 109.576C846.798 107.133 848.677 106.615 851.844 106.59C854.166 106.798 856.294 107.902 858.499 108.578C856.583 107.489 854.751 106.174 852.661 105.435C850.97 104.991 849.198 104.92 847.465 105.229C845.899 105.577 844.608 106.664 843.635 107.912C841.217 110.902 841.912 114.619 843.716 117.655C845.686 120.639 848.938 122.606 852.417 123.322C857.936 124.652 865.169 121.594 866.198 115.501Z" fill="#F3F7FA"/>
<path d="M896.093 68.4251C896.89 64.4007 895.195 60.0212 891.417 58.2636C885.437 55.3496 878.08 57.0635 872.66 60.681C867.603 63.9428 864.653 69.5102 862.566 74.9866C861.172 78.6773 860.158 82.4961 859.541 86.3824C858.967 90.6907 858.727 95.036 858.395 99.3645C859.985 93.5358 860.896 88.9993 862.591 84.2174C864.72 78.4101 867.136 73.4366 870.009 69.4386C871.951 66.947 872.055 66.8349 874.152 65.1186C874.527 64.7935 876.318 63.699 876.383 63.6444C882.347 60.3016 889.139 60.6717 891.168 63.9596C892.365 66.0719 891.812 69.693 888.239 73.9722C885.366 77.396 881.965 80.3325 878.847 83.5258C875.435 86.9391 872.099 90.4438 869.073 94.2089C866.674 97.0247 864.807 100.255 862.406 103.058C862.25 102.898 862.093 102.741 861.926 102.592C860.767 101.534 859.605 100.478 858.488 99.3744C859.355 100.764 860.295 102.105 861.306 103.391C861.639 103.754 861.851 104.392 862.423 104.387C862.634 104.374 862.835 104.291 862.995 104.15C863.582 103.706 864.134 103.217 864.646 102.688C866.235 101.007 867.839 99.34 869.47 97.7004C873.049 94.0663 878.293 89.5171 882.954 85.3985C886.322 82.3289 889.837 79.3248 892.594 75.6705C894.18 73.4882 895.591 71.098 896.093 68.4251Z" fill="#F3F7FA"/>
<path d="M856.363 110.176C852.96 107.621 849.034 112.603 852.288 115.328C855.692 117.883 859.617 112.901 856.363 110.176Z" fill="#5FBEFB"/>
</g>
<path d="M131.545 153.807C120.072 148.03 104.096 156.855 102.861 169.651C101.627 182.448 115.621 194.17 127.986 190.697C140.351 187.225 151.003 163.605 131.545 153.807Z" fill="#5FBEFB"/>
<path d="M139.35 212.108C139.641 212.144 139.932 212.179 140.223 212.215C139.743 212.162 139.472 212.127 139.35 212.108Z" fill="#F3F7FA"/>
<path d="M89.4399 244.697C94.3486 234.341 101.046 224.84 108.681 216.323C113.12 211.8 118.165 207.941 123.408 204.392C114.299 196.01 108.59 182.861 111.946 170.581C114.733 160.76 124.969 153.751 134.998 157.573C138.217 158.836 141.256 160.521 144.251 162.238C139.807 160.99 135.315 159.221 130.633 159.449C128.56 159.638 126.574 160.37 124.874 161.573C123.837 162.134 122.032 163.708 120.994 165.104C116.756 172.271 117.246 176.672 120.35 185.63C124.736 195.273 136.636 206.011 146.364 202.976C148.549 202.442 154.912 196.528 155.788 191.735C159.195 179.05 153.979 165.578 137.5 162.234C155.534 161.882 165.463 177.317 162.562 194.19C160.978 201.988 155.292 209.39 147.568 211.809C145.336 212.381 143.02 212.542 140.731 212.283C139.901 212.127 138.996 212.052 139.35 212.108C139.298 212.102 139.246 212.095 139.194 212.089C133.72 211.746 128.873 209.008 124.731 205.569C121.054 210.111 117.269 214.565 113.538 219.062C108.664 225.385 103.358 231.363 97.6596 236.953C94.772 240.019 91.8603 243.063 88.8408 246C89.0394 245.566 89.2379 245.13 89.4399 244.697Z" fill="#F3F7FA"/>
<path d="M88.8409 195.395C92.6335 195.489 92.6237 201.051 88.8409 201.155C85.0481 201.061 85.058 195.499 88.8409 195.395Z" fill="#F3F7FA"/>
<path d="M170.159 152C173.952 152.094 173.942 157.656 170.159 157.761C166.366 157.667 166.376 152.104 170.159 152Z" fill="#F3F7FA"/>
<path d="M167.318 218.911C171.111 219.005 171.101 224.568 167.318 224.672C163.526 224.578 163.535 219.016 167.318 218.911Z" fill="#F3F7FA"/>
<path d="M1359.1 136.163L1359.28 141.21C1359.29 141.757 1359.34 142.374 1359.66 142.718C1359.92 142.995 1360.28 143.004 1360.61 142.999C1367.71 142.885 1374.79 142.121 1381.87 141.356C1382.07 138.907 1382.04 136.445 1381.77 134.001C1381.73 133.664 1381.67 133.288 1381.46 133.109C1381.29 132.972 1381.08 132.993 1380.88 133.019L1366.83 134.92C1364.19 135.277 1361.54 135.638 1359 136.674" fill="#5FBEFB"/>
<path d="M1391.1 156.479L1391.26 162.031C1391.28 162.633 1391.32 163.312 1391.63 163.689C1391.88 163.995 1392.22 164.005 1392.54 163.999C1399.33 163.874 1406.1 163.033 1412.87 162.192C1413.07 159.497 1413.04 156.789 1412.78 154.101C1412.75 153.731 1412.69 153.316 1412.48 153.12C1412.32 152.969 1412.12 152.993 1411.93 153.021L1398.49 155.112C1395.97 155.504 1393.42 155.902 1391 157.041" fill="#5FBEFB"/>
<path d="M1337.33 132.068C1351.16 128.99 1365.53 129.286 1379.57 127.525C1380.59 127.258 1381.02 127.633 1381 128.664C1381.42 131.822 1381.49 135.017 1381.2 138.19C1367.15 139.399 1353.37 141.126 1339.35 141.455C1336.04 139.895 1337.89 134.408 1337 131.332C1337.73 134.603 1335.27 142.106 1340.47 141.999C1350.7 141.966 1360.84 141.379 1371.09 140.596C1374.87 140.308 1378.66 139.99 1382.44 139.675C1382.88 139.706 1382.63 138.58 1382.77 138.293C1382.49 135.007 1384.68 125.469 1379.54 126.023C1365.37 127.997 1351.01 128.183 1337.33 132.068Z" fill="#F3F7FA"/>
<path d="M1366.33 160.689C1380.16 157.803 1394.53 158.081 1408.57 156.429C1409.59 156.18 1410.02 156.53 1410 157.497C1410.42 160.458 1410.49 163.453 1410.2 166.428C1396.15 167.561 1382.37 169.181 1368.35 169.489C1365.04 168.027 1366.89 162.883 1366 159.999C1366.74 163.065 1364.27 170.1 1369.47 169.999C1379.7 169.968 1389.84 169.418 1400.09 168.683C1403.87 168.414 1407.66 168.116 1411.44 167.82C1411.88 167.849 1411.63 166.794 1411.77 166.525C1411.49 163.444 1413.68 154.502 1408.54 155.022C1394.37 156.872 1380.01 157.046 1366.33 160.689Z" fill="#F3F7FA"/>
<path d="M1330.05 134.891L1330.05 134.892C1330.13 134.574 1330.11 134.32 1330.02 134.21C1329.99 134.161 1329.94 134.12 1329.89 134.088C1329.84 134.057 1329.79 134.036 1329.73 134.028C1329.15 133.944 1328.61 134.809 1328.36 135.593C1328.23 135.994 1328.15 136.418 1328.19 136.838C1328.22 137.129 1328.25 137.426 1328.35 137.701C1328.31 137.374 1328.37 137.028 1328.41 136.693C1328.45 136.443 1328.53 136.175 1328.66 135.868C1328.89 135.383 1328.87 135.406 1329.17 134.944C1329.22 134.873 1329.27 134.81 1329.31 134.756C1329.35 134.723 1329.39 134.693 1329.43 134.667C1329.39 134.692 1329.42 134.673 1329.44 134.658C1329.44 134.661 1329.44 134.663 1329.44 134.663C1329.55 134.6 1329.52 134.605 1329.61 134.594C1329.61 134.594 1329.62 134.594 1329.62 134.594C1329.62 134.594 1329.62 134.594 1329.62 134.594C1329.63 134.597 1329.63 134.599 1329.63 134.601C1329.64 134.61 1329.64 134.618 1329.64 134.627C1329.65 134.657 1329.65 134.678 1329.66 134.693C1329.65 134.726 1329.65 134.758 1329.65 134.791C1329.62 134.923 1329.68 135.065 1329.83 135.078C1329.97 135.079 1330.03 134.997 1330.05 134.891Z" fill="#5FBEFB"/>
<path d="M1358.47 163.866L1358.48 163.867C1358.56 163.549 1358.54 163.295 1358.45 163.186C1358.41 163.137 1358.37 163.095 1358.32 163.064C1358.27 163.032 1358.21 163.012 1358.15 163.003C1357.57 162.92 1357.04 163.785 1356.78 164.568C1356.65 164.969 1356.58 165.394 1356.62 165.814C1356.65 166.104 1356.67 166.401 1356.77 166.677C1356.74 166.349 1356.79 166.004 1356.83 165.668C1356.87 165.418 1356.96 165.15 1357.09 164.844C1357.32 164.358 1357.3 164.381 1357.6 163.92C1357.65 163.848 1357.7 163.786 1357.74 163.731C1357.77 163.698 1357.81 163.669 1357.85 163.643C1357.82 163.667 1357.84 163.648 1357.87 163.633C1357.87 163.636 1357.86 163.639 1357.86 163.638C1357.98 163.575 1357.95 163.58 1358.04 163.569C1358.04 163.569 1358.04 163.569 1358.05 163.569C1358.05 163.569 1358.05 163.57 1358.05 163.57C1358.05 163.572 1358.06 163.574 1358.06 163.577C1358.06 163.585 1358.07 163.594 1358.07 163.602C1358.07 163.633 1358.08 163.653 1358.08 163.668C1358.08 163.701 1358.08 163.734 1358.08 163.766C1358.05 163.898 1358.11 164.04 1358.25 164.053C1358.4 164.054 1358.46 163.972 1358.47 163.866Z" fill="#5FBEFB"/>
<path d="M1329.19 139.162C1329.15 138.936 1329.01 138.719 1328.81 138.615C1328.74 138.581 1328.66 138.558 1328.58 138.546C1328.69 138.59 1328.78 138.659 1328.86 138.747C1328.95 138.866 1329 139.01 1329 139.16C1329 139.276 1328.98 139.334 1328.93 139.437C1328.89 139.498 1328.8 139.65 1328.66 139.741C1328.62 139.765 1328.58 139.785 1328.54 139.802C1328.5 139.822 1328.46 139.839 1328.41 139.854C1328.01 139.955 1327.59 139.84 1327.39 139.595C1327.3 139.481 1327.31 139.508 1327.26 139.402C1327.25 139.348 1327.24 139.342 1327.25 139.202C1327.29 138.96 1327.44 138.865 1327.71 138.778C1327.92 138.733 1328.13 138.772 1328.34 138.771C1328.15 138.728 1327.95 138.664 1327.75 138.656C1327.59 138.663 1327.44 138.705 1327.3 138.778C1327.17 138.85 1327.09 138.978 1327.04 139.112C1326.91 139.435 1327.07 139.737 1327.31 139.951C1327.56 140.155 1327.89 140.238 1328.21 140.206C1328.72 140.173 1329.26 139.715 1329.19 139.162Z" fill="#F3F7FA"/>
<path d="M1357.62 168.137C1357.57 167.911 1357.44 167.694 1357.23 167.591C1357.16 167.557 1357.09 167.534 1357.01 167.522C1357.12 167.566 1357.21 167.634 1357.28 167.722C1357.37 167.842 1357.42 167.986 1357.43 168.135C1357.43 168.252 1357.41 168.309 1357.36 168.413C1357.32 168.473 1357.22 168.625 1357.09 168.716C1357.05 168.74 1357.01 168.761 1356.97 168.777C1356.93 168.797 1356.88 168.815 1356.84 168.829C1356.44 168.93 1356.02 168.816 1355.81 168.57C1355.72 168.456 1355.73 168.484 1355.69 168.377C1355.68 168.323 1355.67 168.317 1355.68 168.178C1355.72 167.935 1355.87 167.84 1356.14 167.753C1356.34 167.709 1356.56 167.747 1356.77 167.746C1356.57 167.704 1356.38 167.639 1356.18 167.631C1356.02 167.638 1355.87 167.68 1355.72 167.753C1355.6 167.825 1355.52 167.953 1355.47 168.087C1355.34 168.41 1355.5 168.712 1355.73 168.926C1355.98 169.131 1356.32 169.213 1356.64 169.182C1357.15 169.148 1357.69 168.691 1357.62 168.137Z" fill="#F3F7FA"/>
<path d="M1330.51 134.297C1330.47 133.929 1330.2 133.596 1329.83 133.546C1329.24 133.455 1328.65 133.8 1328.28 134.257C1327.93 134.674 1327.82 135.234 1327.79 135.763C1327.77 136.119 1327.78 136.475 1327.83 136.827C1327.9 137.214 1328 137.596 1328.08 137.978C1328.06 137.433 1328.02 137.017 1328.04 136.559C1328.07 136 1328.14 135.506 1328.28 135.084C1328.38 134.817 1328.39 134.805 1328.53 134.6C1328.55 134.562 1328.67 134.42 1328.68 134.413C1329.1 133.965 1329.7 133.815 1329.96 134.044C1330.12 134.194 1330.17 134.521 1329.98 134.987C1329.82 135.359 1329.61 135.704 1329.42 136.063C1329.22 136.449 1329.03 136.841 1328.87 137.247C1328.74 137.554 1328.66 137.883 1328.53 138.189C1328.51 138.18 1328.49 138.17 1328.48 138.162C1328.35 138.102 1328.22 138.042 1328.09 137.977C1328.2 138.073 1328.32 138.164 1328.44 138.248C1328.48 138.27 1328.52 138.319 1328.57 138.304C1328.58 138.297 1328.6 138.284 1328.61 138.268C1328.65 138.214 1328.68 138.157 1328.71 138.097C1328.8 137.91 1328.9 137.723 1329 137.538C1329.21 137.128 1329.54 136.595 1329.83 136.114C1330.04 135.759 1330.26 135.406 1330.4 135.016C1330.48 134.786 1330.54 134.541 1330.51 134.297Z" fill="#F3F7FA"/>
<path d="M1358.93 163.273C1358.89 162.904 1358.63 162.571 1358.26 162.521C1357.66 162.43 1357.07 162.775 1356.7 163.233C1356.35 163.65 1356.25 164.209 1356.22 164.738C1356.19 165.094 1356.21 165.451 1356.26 165.803C1356.33 166.19 1356.42 166.571 1356.51 166.954C1356.49 166.408 1356.45 165.992 1356.47 165.534C1356.49 164.976 1356.57 164.482 1356.71 164.06C1356.81 163.792 1356.82 163.78 1356.95 163.576C1356.98 163.538 1357.1 163.395 1357.1 163.389C1357.53 162.94 1358.13 162.79 1358.39 163.019C1358.55 163.169 1358.6 163.497 1358.4 163.962C1358.25 164.334 1358.03 164.679 1357.85 165.038C1357.65 165.424 1357.45 165.816 1357.29 166.222C1357.16 166.53 1357.09 166.859 1356.96 167.165C1356.94 167.155 1356.92 167.146 1356.9 167.137C1356.77 167.077 1356.64 167.017 1356.52 166.952C1356.63 167.049 1356.75 167.139 1356.87 167.223C1356.91 167.245 1356.94 167.295 1356.99 167.279C1357.01 167.272 1357.03 167.26 1357.04 167.243C1357.07 167.189 1357.11 167.132 1357.14 167.073C1357.23 166.885 1357.32 166.698 1357.42 166.513C1357.63 166.103 1357.96 165.57 1358.25 165.09C1358.46 164.735 1358.69 164.381 1358.83 163.992C1358.9 163.761 1358.96 163.517 1358.93 163.273Z" fill="#F3F7FA"/>
<path d="M1328.2 138.966C1327.84 138.837 1327.63 139.372 1327.99 139.52C1328.35 139.649 1328.55 139.114 1328.2 138.966Z" fill="#5FBEFB"/>
<path d="M1356.62 167.941C1356.26 167.812 1356.06 168.347 1356.41 168.495C1356.77 168.624 1356.98 168.089 1356.62 167.941Z" fill="#5FBEFB"/>
<path d="M1325.31 134.221C1332.59 128.504 1335.09 141.956 1326.09 140.329C1320.82 138.573 1327.25 129.144 1323.09 136.624C1322.03 142.758 1330.85 143.82 1333.19 138.893C1336.71 133.794 1327.74 129.083 1325.31 134.221Z" fill="#F3F7FA"/>
<path d="M1353.52 163.221C1361.47 157.504 1364.19 170.956 1354.38 169.329C1348.62 167.573 1355.63 158.144 1351.1 165.624C1349.94 171.758 1359.56 172.82 1362.12 167.893C1365.96 162.794 1356.17 158.083 1353.52 163.221Z" fill="#F3F7FA"/>
<path d="M1314.2 108.428L1314.54 115.494C1314.58 116.26 1314.66 117.124 1315.29 117.605C1315.79 117.994 1316.5 118.006 1317.15 117.999C1331.04 117.839 1344.9 116.769 1358.74 115.699C1359.14 112.273 1359.08 108.812 1358.55 105.401C1358.48 104.93 1358.36 104.403 1357.94 104.152C1357.61 103.96 1357.2 103.99 1356.82 104.027L1329.32 106.688C1324.16 107.187 1318.96 107.694 1314 109.143" fill="#5FBEFB"/>
<path d="M1311.33 106.068C1325.16 102.99 1339.53 103.286 1353.57 101.525C1354.59 101.258 1355.02 101.632 1355 102.664C1355.42 105.822 1355.49 109.017 1355.2 112.19C1341.15 113.399 1327.37 115.126 1313.35 115.455C1310.04 113.895 1311.89 108.408 1311 105.332C1311.73 108.603 1309.27 116.106 1314.47 115.999C1324.7 115.966 1334.84 115.379 1345.09 114.596C1348.87 114.308 1352.66 113.99 1356.44 113.675C1356.88 113.706 1356.63 112.58 1356.77 112.293C1356.49 109.006 1358.68 99.4686 1353.54 100.023C1339.37 101.997 1325.01 102.183 1311.33 106.068Z" fill="#F3F7FA"/>
<path d="M1301.62 109.098L1301.62 109.098C1301.71 108.781 1301.69 108.526 1301.59 108.417C1301.56 108.368 1301.52 108.326 1301.47 108.295C1301.42 108.263 1301.36 108.243 1301.3 108.234C1300.72 108.151 1300.18 109.016 1299.93 109.8C1299.8 110.2 1299.72 110.625 1299.77 111.045C1299.8 111.335 1299.82 111.633 1299.92 111.908C1299.89 111.581 1299.94 111.235 1299.98 110.899C1300.02 110.649 1300.11 110.381 1300.24 110.075C1300.46 109.589 1300.45 109.612 1300.75 109.151C1300.8 109.08 1300.84 109.017 1300.89 108.963C1300.92 108.93 1300.96 108.9 1301 108.874C1300.96 108.898 1300.99 108.88 1301.02 108.864C1301.01 108.867 1301.01 108.87 1301.01 108.869C1301.13 108.806 1301.1 108.811 1301.18 108.8C1301.19 108.8 1301.19 108.8 1301.2 108.8C1301.2 108.8 1301.2 108.801 1301.2 108.801C1301.2 108.803 1301.2 108.805 1301.21 108.808C1301.21 108.816 1301.21 108.825 1301.22 108.833C1301.22 108.864 1301.23 108.885 1301.23 108.899C1301.23 108.932 1301.23 108.965 1301.22 108.998C1301.2 109.13 1301.26 109.271 1301.4 109.285C1301.55 109.285 1301.61 109.203 1301.62 109.098Z" fill="#5FBEFB"/>
<path d="M1300.76 113.368C1300.72 113.142 1300.59 112.925 1300.38 112.822C1300.31 112.788 1300.24 112.765 1300.16 112.753C1300.26 112.797 1300.36 112.866 1300.43 112.953C1300.52 113.073 1300.57 113.217 1300.58 113.367C1300.58 113.483 1300.56 113.54 1300.51 113.644C1300.47 113.705 1300.37 113.857 1300.23 113.948C1300.2 113.971 1300.16 113.992 1300.12 114.009C1300.07 114.029 1300.03 114.046 1299.98 114.06C1299.58 114.161 1299.16 114.047 1298.96 113.801C1298.87 113.688 1298.88 113.715 1298.84 113.608C1298.82 113.555 1298.81 113.549 1298.83 113.409C1298.87 113.166 1299.01 113.071 1299.29 112.984C1299.49 112.94 1299.71 112.978 1299.91 112.977C1299.72 112.935 1299.53 112.87 1299.33 112.863C1299.17 112.87 1299.01 112.911 1298.87 112.984C1298.75 113.056 1298.66 113.185 1298.61 113.318C1298.48 113.641 1298.64 113.943 1298.88 114.157C1299.13 114.362 1299.46 114.444 1299.78 114.413C1300.3 114.38 1300.84 113.922 1300.76 113.368Z" fill="#F3F7FA"/>
<path d="M1302.08 108.504C1302.04 108.135 1301.78 107.803 1301.41 107.752C1300.81 107.661 1300.22 108.006 1299.85 108.464C1299.5 108.881 1299.4 109.441 1299.36 109.969C1299.34 110.325 1299.36 110.682 1299.41 111.034C1299.47 111.421 1299.57 111.802 1299.66 112.185C1299.64 111.639 1299.6 111.223 1299.61 110.765C1299.64 110.207 1299.72 109.713 1299.86 109.291C1299.96 109.024 1299.96 109.011 1300.1 108.807C1300.12 108.769 1300.25 108.626 1300.25 108.62C1300.68 108.171 1301.27 108.021 1301.54 108.251C1301.7 108.401 1301.75 108.728 1301.55 109.193C1301.4 109.566 1301.18 109.91 1301 110.269C1300.8 110.656 1300.6 111.047 1300.44 111.454C1300.31 111.761 1300.24 112.09 1300.1 112.396C1300.09 112.386 1300.07 112.377 1300.05 112.369C1299.92 112.308 1299.79 112.248 1299.67 112.183C1299.78 112.28 1299.9 112.37 1300.02 112.454C1300.06 112.477 1300.09 112.526 1300.14 112.51C1300.16 112.504 1300.17 112.491 1300.18 112.474C1300.22 112.42 1300.26 112.363 1300.29 112.304C1300.38 112.116 1300.47 111.929 1300.57 111.744C1300.78 111.335 1301.11 110.801 1301.4 110.321C1301.61 109.966 1301.83 109.612 1301.97 109.223C1302.05 108.992 1302.11 108.748 1302.08 108.504Z" fill="#F3F7FA"/>
<path d="M1299.77 113.172C1299.41 113.043 1299.21 113.578 1299.56 113.726C1299.92 113.856 1300.13 113.32 1299.77 113.172Z" fill="#5FBEFB"/>
<path d="M1297.31 108.221C1304.59 102.504 1307.09 115.956 1298.09 114.329C1292.82 112.573 1299.25 103.144 1295.09 110.624C1294.03 116.758 1302.85 117.82 1305.19 112.893C1308.71 107.794 1299.74 103.083 1297.31 108.221Z" fill="#F3F7FA"/>
<path d="M1291.43 82.7573L1291.43 82.7579C1291.52 82.4403 1291.49 82.1861 1291.4 82.0765C1291.37 82.0274 1291.33 81.9859 1291.28 81.9545C1291.23 81.9231 1291.17 81.9026 1291.11 81.8941C1290.53 81.8107 1289.99 82.6754 1289.74 83.4592C1289.61 83.86 1289.53 84.2846 1289.58 84.7044C1289.61 84.995 1289.63 85.2923 1289.73 85.5675C1289.7 85.2402 1289.75 84.8944 1289.79 84.5588C1289.83 84.3091 1289.92 84.0409 1290.05 83.7344C1290.27 83.2487 1290.26 83.2719 1290.56 82.8105C1290.61 82.7392 1290.65 82.6766 1290.7 82.6223C1290.73 82.5893 1290.77 82.5596 1290.81 82.5334C1290.77 82.5579 1290.8 82.5394 1290.83 82.5237C1290.82 82.5268 1290.82 82.5294 1290.82 82.5291C1290.94 82.4658 1290.91 82.471 1290.99 82.4601C1291 82.4601 1291 82.46 1291 82.4601C1291.01 82.4601 1291.01 82.4604 1291.01 82.4605C1291.01 82.4628 1291.01 82.4651 1291.02 82.4675C1291.02 82.4759 1291.02 82.4844 1291.03 82.4932C1291.03 82.5235 1291.04 82.5443 1291.04 82.559C1291.04 82.5918 1291.04 82.6246 1291.03 82.6573C1291.01 82.7892 1291.07 82.9308 1291.21 82.9443C1291.36 82.9448 1291.42 82.863 1291.43 82.7573Z" fill="#5FBEFB"/>
<path d="M1290.57 87.028C1290.53 86.8021 1290.4 86.5848 1290.19 86.4817C1290.12 86.4477 1290.04 86.4244 1289.97 86.4126C1290.07 86.4566 1290.17 86.5252 1290.24 86.6129C1290.33 86.7325 1290.38 86.8764 1290.39 87.0263C1290.39 87.1427 1290.37 87.2 1290.32 87.3037C1290.28 87.3642 1290.18 87.5164 1290.04 87.6074C1290.01 87.6312 1289.97 87.6516 1289.93 87.6683C1289.88 87.6883 1289.84 87.7055 1289.79 87.7199C1289.39 87.8209 1288.97 87.7065 1288.77 87.461C1288.68 87.3472 1288.69 87.3747 1288.65 87.2679C1288.63 87.2143 1288.62 87.2083 1288.64 87.0686C1288.67 86.826 1288.82 86.731 1289.1 86.6439C1289.3 86.5996 1289.51 86.6377 1289.72 86.6369C1289.53 86.5944 1289.34 86.53 1289.14 86.5223C1288.98 86.5293 1288.82 86.5708 1288.68 86.6438C1288.56 86.7158 1288.47 86.8443 1288.42 86.9781C1288.29 87.301 1288.45 87.6031 1288.69 87.8168C1288.94 88.0214 1289.27 88.1039 1289.59 88.0725C1290.11 88.0393 1290.65 87.5814 1290.57 87.028Z" fill="#F3F7FA"/>
<path d="M1291.89 82.1635C1291.85 81.7948 1291.59 81.4623 1291.22 81.4119C1290.62 81.3208 1290.03 81.666 1289.66 82.1236C1289.31 82.5407 1289.21 83.1002 1289.17 83.6288C1289.15 83.9847 1289.17 84.3415 1289.22 84.6934C1289.28 85.0806 1289.38 85.462 1289.47 85.8445C1289.45 85.2989 1289.41 84.8829 1289.42 84.4248C1289.45 83.8665 1289.53 83.3725 1289.67 82.9504C1289.77 82.6833 1289.77 82.6709 1289.91 82.4665C1289.93 82.4284 1290.06 82.2859 1290.06 82.2795C1290.49 81.8311 1291.08 81.6808 1291.35 81.9102C1291.51 82.0604 1291.56 82.3877 1291.36 82.8528C1291.21 83.2253 1290.99 83.57 1290.81 83.9292C1290.6 84.3152 1290.41 84.7071 1290.25 85.1132C1290.12 85.4205 1290.04 85.7494 1289.91 86.0557C1289.89 86.0461 1289.88 86.0367 1289.86 86.0283C1289.73 85.9681 1289.6 85.9081 1289.48 85.8429C1289.59 85.9395 1289.7 86.03 1289.83 86.114C1289.87 86.1363 1289.9 86.1857 1289.95 86.1699C1289.97 86.1632 1289.98 86.1506 1289.99 86.1341C1290.03 86.0801 1290.07 86.0231 1290.1 85.9636C1290.19 85.776 1290.28 85.5891 1290.38 85.4039C1290.59 84.9943 1290.92 84.4611 1291.21 83.9806C1291.42 83.6254 1291.64 83.2719 1291.78 82.8826C1291.86 82.6517 1291.92 82.4076 1291.89 82.1635Z" fill="#F3F7FA"/>
<path d="M1289.58 86.8321C1289.22 86.7029 1289.01 87.2381 1289.37 87.386C1289.73 87.5152 1289.94 86.98 1289.58 86.8321Z" fill="#5FBEFB"/>
<path d="M1287.31 82.2215C1294.59 76.5045 1297.09 89.9559 1288.09 88.3291C1282.82 86.5734 1289.25 77.144 1285.09 84.6235C1284.03 90.7578 1292.85 91.8203 1295.19 86.8927C1298.71 81.7943 1289.74 77.0827 1287.31 82.2215Z" fill="#F3F7FA"/>
<path d="M1305.1 27.4789L1305.28 33.0307C1305.29 33.6328 1305.34 34.3117 1305.66 34.6894C1305.92 34.995 1306.28 35.0048 1306.61 34.999C1313.71 34.8739 1320.79 34.0326 1327.87 33.1918C1328.07 30.4974 1328.04 27.7891 1327.77 25.101C1327.73 24.7309 1327.67 24.3164 1327.46 24.1197C1327.29 23.9687 1327.08 23.9925 1326.88 24.0214L1312.83 26.112C1310.19 26.5043 1307.54 26.9023 1305 28.041" fill="#5FBEFB"/>
<path d="M1281.33 31.689C1295.16 28.8031 1309.53 29.0805 1323.57 27.4295C1324.59 27.1798 1325.02 27.5304 1325 28.4973C1325.42 31.4578 1325.49 34.4535 1325.2 37.4278C1311.15 38.5611 1297.37 40.1806 1283.35 40.489C1280.04 39.0265 1281.89 33.8827 1281 30.9986C1281.74 34.0654 1279.27 41.0996 1284.47 40.9989C1294.7 40.9679 1304.84 40.4176 1315.09 39.6834C1318.87 39.4137 1322.66 39.1157 1326.44 38.8204C1326.88 38.8494 1326.63 37.794 1326.77 37.5251C1326.49 34.4436 1328.68 25.5018 1323.54 26.0218C1309.37 27.8721 1295.01 28.0463 1281.33 31.689Z" fill="#F3F7FA"/>
<path d="M1270.31 33.4436C1277.59 27.1549 1280.09 41.9515 1271.09 40.162C1265.82 38.2307 1272.25 27.8584 1268.09 36.0859C1267.03 42.8336 1275.85 44.0023 1278.19 38.582C1281.71 32.9738 1272.74 27.791 1270.31 33.4436Z" fill="#F3F7FA"/>
<path d="M1291.2 54.4277L1291.53 61.4936C1291.56 62.26 1291.65 63.1239 1292.26 63.6047C1292.75 63.9936 1293.45 64.0062 1294.08 63.9987C1307.66 63.8395 1321.21 62.7687 1334.75 61.6986C1335.14 58.2726 1335.08 54.8116 1334.56 51.4012C1334.49 50.9302 1334.37 50.4026 1333.96 50.1523C1333.64 49.9602 1333.24 49.9905 1332.87 50.0273L1305.98 52.688C1300.93 53.1873 1295.85 53.6939 1291 55.1432" fill="#5FBEFB"/>
<path d="M1322.1 82.8464L1322.28 87.3887C1322.29 87.8814 1322.34 88.4368 1322.66 88.7458C1322.92 88.9959 1323.28 89.004 1323.61 88.9992C1330.71 88.8968 1337.79 88.2085 1344.87 87.5205C1345.07 85.3161 1345.04 83.1002 1344.77 80.9008C1344.73 80.598 1344.67 80.2588 1344.46 80.0979C1344.29 79.9744 1344.08 79.9939 1343.88 80.0175L1329.83 81.728C1327.19 82.049 1324.54 82.3746 1322 83.3063" fill="#5FBEFB"/>
<path d="M1287.32 52.4475C1300.85 49.1768 1314.91 49.4913 1328.65 47.6201C1329.65 47.337 1330.06 47.7345 1330.04 48.8303C1330.46 52.1856 1330.52 55.5806 1330.24 58.9515C1316.5 60.2359 1303.01 62.0713 1289.3 62.4208C1286.06 60.7633 1287.87 54.9338 1287 51.6651C1287.72 55.1408 1285.31 63.1129 1290.4 62.9988C1300.41 62.9636 1310.32 62.34 1320.35 61.5078C1324.05 61.2023 1327.75 60.8645 1331.45 60.5298C1331.88 60.5627 1331.64 59.3665 1331.78 59.0617C1331.5 55.5694 1333.64 45.4354 1328.61 46.0247C1314.75 48.1217 1300.71 48.3192 1287.32 52.4475Z" fill="#F3F7FA"/>
<path d="M1300.33 78.4475C1314.16 75.1768 1328.53 75.4912 1342.57 73.6201C1343.59 73.337 1344.02 73.7345 1344 74.8303C1344.42 78.1856 1344.49 81.5806 1344.2 84.9515C1330.15 86.2359 1316.37 88.0713 1302.35 88.4208C1299.04 86.7633 1300.89 80.9337 1300 77.6651C1300.73 81.1408 1298.27 89.1129 1303.47 88.9988C1313.7 88.9637 1323.84 88.3399 1334.09 87.5079C1337.87 87.2022 1341.66 86.8645 1345.44 86.5298C1345.88 86.5627 1345.63 85.3665 1345.77 85.0617C1345.49 81.5694 1347.68 71.4354 1342.54 72.0247C1328.37 74.1217 1314.01 74.3192 1300.33 78.4475Z" fill="#F3F7FA"/>
<defs>
<clipPath id="clip0_318_670">
<rect width="31" height="77" fill="white" transform="translate(611.206 44.6016) rotate(-1.11189)"/>
</clipPath>
<clipPath id="clip1_318_670">
<rect width="31" height="77" fill="white" transform="translate(880.39 49.2688) rotate(38.3377)"/>
</clipPath>
</defs>
</svg>
