<svg width="1440" height="330" viewBox="0 0 1440 330" fill="none" xmlns="http://www.w3.org/2000/svg">
<path d="M727.774 60.9852C729.901 66.2669 732.301 71.4393 734.103 76.8497C735.185 80.1393 735.664 81.1475 736.118 83.7033C735.651 83.0625 735.133 82.3895 734.856 82.0704C727.89 73.2884 713.262 69.6366 702.47 68.5552C693.478 68.0531 684.058 70.2268 676.763 75.704C670.136 81.1737 664.362 87.8768 660.763 95.7177C651.492 117.058 660.21 142.558 678.048 156.462C685.379 162.072 693.54 166.512 702.243 169.625C712.047 172.616 722.35 173.854 732.582 174.321C723.437 172.132 711.758 168.113 704.667 164.388C695.725 159.099 687.004 152.603 681.041 145.14C670.4 132.164 666.403 115.41 670.103 102.864C672.565 96.2 673.033 95.4858 677.749 88.9859C681.795 84.1518 681.51 83.7063 686.612 80.2385C689.311 78.6589 692.196 77.421 695.198 76.5536C698.7 75.6109 702.307 75.1263 705.929 75.112C709.899 75.1843 720.408 76.0262 725.846 78.1272C729.708 79.2262 733.096 81.5374 736.007 84.2002C729.561 86.7246 716.751 89.7842 705.1 93.2035C711.934 92.9749 743.086 94.1635 741.583 83.8508C739.385 75.0856 733.41 67.8234 727.774 60.9852Z" fill="url(#paint0_linear_321_776)"/>
<path d="M699.21 77.6248L728.116 82.4979C719.56 91.4455 702.34 88.9366 699.21 77.6248Z" fill="#F3F7FA"/>
<path d="M714.477 236.702C712.046 231.553 709.348 226.53 707.234 221.234C705.962 218.013 705.425 217.034 704.823 214.509C705.326 215.122 705.882 215.763 706.177 216.066C713.644 224.426 728.46 227.219 739.297 227.668C748.303 227.645 757.58 224.925 764.543 219.032C770.84 213.185 776.213 206.156 779.348 198.119C787.358 176.274 777.167 151.326 758.548 138.486C750.903 133.314 742.496 129.358 733.627 126.758C723.665 124.343 713.307 123.709 703.065 123.84C712.322 125.492 724.216 128.822 731.512 132.127C740.747 136.885 749.833 142.861 756.221 149.963C767.601 162.297 772.568 178.789 769.607 191.53C767.538 198.326 767.112 199.066 762.784 205.83C759.026 210.892 759.337 211.32 754.446 215.08C751.844 216.814 749.036 218.218 746.09 219.259C742.649 220.405 739.076 221.099 735.462 221.325C731.493 221.484 720.953 221.257 715.402 219.477C711.483 218.605 707.966 216.495 704.904 214.007C711.192 211.111 723.801 207.309 735.234 203.216C728.424 203.843 697.256 204.474 699.358 214.681C702.064 223.303 708.453 230.204 714.477 236.702Z" fill="url(#paint1_linear_321_776)"/>
<path d="M742.022 218.424L712.881 215.246C720.901 205.815 738.237 207.315 742.022 218.424Z" fill="#F3F7FA"/>
<g clip-path="url(#clip0_321_776)">
<path d="M110.976 238.63L110.951 229.39L106.397 261.776C109.767 261.87 113.136 261.964 117.132 261.923C115.055 252.27 110.989 243.095 110.976 238.63Z" fill="#5FBEFB"/>
<path d="M150.699 213.627L138.877 258.039C145.863 258.237 152.849 258.436 160.392 258.615C156.001 243.668 151.61 228.721 150.699 213.627Z" fill="#5FBEFB"/>
<path d="M178.726 194.683C178.952 216.877 179.178 239.072 178.75 261.268C184.356 261.166 189.962 261.063 197.37 260.867C192.365 238.868 187.36 216.87 178.726 194.683Z" fill="#5FBEFB"/>
<path d="M122.346 216.113C120.942 215.729 119.515 215.429 118.075 215.216C118.416 215.332 118.757 215.445 119.097 215.564C122.845 217.124 127.568 218.401 129.643 222.392C130.602 224.853 130.391 227.588 130.193 230.17C129.79 233.73 129.174 237.263 128.348 240.749C126.616 248.763 123.281 257.937 119.869 260.267C118.917 261.312 115.619 261.025 114.104 260.758C109.664 259.838 108.393 259.133 108.406 256.253C109.621 241.713 109.452 227.115 109.922 212.542C107.948 223.897 106.741 235.358 105.29 246.787C105.047 248.627 105.162 247.758 104.942 249.396C104.635 253.252 102.86 257.615 105.164 261.144C107.165 264.131 110.86 265.217 114.238 265.71C119.282 266.677 122.987 265.257 125.89 260.962C130.884 252.572 131.861 242.926 132.777 234.125C133.334 224.466 133.015 218.565 122.346 216.113Z" fill="#F3F7FA"/>
<path d="M164.924 199.114C164.708 198.171 164.222 197.311 163.526 196.642C162.829 195.973 161.952 195.523 161.004 195.347C157.298 194.307 153.402 194.742 149.615 194.969C152.955 195.339 155.895 195.387 159.097 196.363C162.557 197.324 162.775 198.471 163.032 201.095C163.305 205.094 163.234 209.11 163.138 213.115C162.892 225.335 159.86 250.57 154.195 256.763C152.982 257.511 153.816 257.169 152.378 257.494C152.336 257.495 152.303 257.497 152.253 257.498C148.262 257.407 145.615 256.787 142.948 255.326C142.868 255.263 142.803 255.213 142.747 255.171C142.541 255.007 142.347 254.83 142.165 254.639C142.157 254.629 142.153 254.625 142.146 254.615C142.085 254.524 142.028 254.431 141.976 254.334C141.91 254.139 141.854 253.94 141.809 253.739C141.765 253.319 141.743 252.898 141.743 252.476C142.485 233.367 141.689 214.244 142.306 195.132C139.618 210.553 138.412 226.161 137.227 241.755C136.985 244.912 136.702 248.066 136.5 251.226C136.3 253.736 136.467 256.506 138.284 258.427C141.634 262.057 149.279 263.451 154.015 262.786C158.316 261.943 160.636 257.89 161.944 254.038C163.362 250.358 164.413 246.547 165.081 242.659C167.4 228.314 167.8 213.397 164.924 199.114Z" fill="#F3F7FA"/>
<path d="M211.434 200.573C210.882 194.598 210.943 188.291 208.532 182.706C205.179 175.492 196.081 174.826 189.12 174.142C194.05 175.531 198.436 176.572 202.517 179.406C206.931 182.797 206.561 187.06 206.872 191.997C207.124 199.697 206.833 207.4 206.571 215.096C206.026 231.031 206.046 254.513 201.822 258.651C200.445 259.059 194.423 259.373 190.573 259.66C186.648 259.803 183.442 260.273 181.097 259.542C180.899 256.492 181.216 241.574 181.324 234.327C181.613 212.942 180.623 191.556 181.628 170.178C177.918 190.138 176.582 210.403 175.849 230.666C175.591 237.209 175.511 243.757 175.418 250.304C175.474 253.928 175.08 257.589 175.55 261.19C176.909 266.186 183.236 265.715 187.35 265.607C191.357 265.388 195.362 265.119 199.363 264.8C201.277 264.593 203.36 264.595 205.007 263.469C207.564 261.525 208.682 258.175 209.618 255.206C211.286 247.466 211.479 239.495 211.794 231.608C212.146 221.267 212.06 210.902 211.434 200.573Z" fill="#F3F7FA"/>
<path d="M177.354 136.513C174.224 131.67 168.184 130.868 162.877 131.016C156.793 131.044 150.735 131.884 144.786 133.126C142.111 133.848 139.156 134.365 136.926 136.092C135.497 137.509 135.906 139.97 137.602 140.982C138.57 141.511 139.686 141.461 140.757 141.47C147.39 141.459 154.024 141.331 160.657 141.275C162.532 141.256 163.915 141.276 165.037 141.37C163.469 143.032 161.782 144.581 160.123 146.15C142.028 162.23 124.599 179.059 108.729 197.377C122.855 185.582 136.973 173.777 151.083 161.961C156.702 157.222 162.243 152.386 167.596 147.345C169.32 145.615 171.396 144.002 172.278 141.65C172.641 140.363 172.553 139.314 172.17 138.456C172.204 138.481 172.236 138.501 172.271 138.526C175.275 140.517 176.18 149.162 174.882 158.233C174.262 162.551 172.053 171.745 170.26 177.547C169.8 179.066 169.313 180.577 168.787 182.073C171.88 176.285 174.51 170.258 176.652 164.052C179.197 156.606 182.044 143.418 177.354 136.513Z" fill="#F3F7FA"/>
<path d="M147.09 172.628L172.363 149.011C174.294 162.249 161.169 175.402 147.09 172.628Z" fill="#5FBEFB"/>
</g>
<g clip-path="url(#clip1_321_776)">
<path d="M1253.99 174.583C1260.75 171.163 1269.98 174.141 1273.48 180.868C1276.98 187.595 1274.14 196.898 1267.48 200.502C1260.83 204.106 1251.51 201.382 1247.83 194.754C1244.15 188.126 1246.53 178.363 1253.99 174.583Z" fill="#5FBEFB"/>
<path d="M1309.96 208.971C1312.55 212.667 1315.55 216.04 1318.61 219.355C1323.29 224.66 1328.44 229.519 1333.42 234.544C1334.27 235.363 1335.13 236.174 1336 236.978C1335.33 236.034 1334.67 235.089 1334 234.146C1331.28 230.031 1326.59 223.941 1325.28 222.323C1322.79 218.903 1316.33 210.96 1314.9 209.07C1308.53 200.77 1306.81 198.424 1300.32 190.36C1297.19 186.686 1294.31 182.799 1290.94 179.337C1291.6 178.657 1292.14 177.87 1292.53 177.009C1294.13 173.609 1293.77 169.678 1292.8 166.15C1292.29 164.385 1291.58 162.513 1290.01 161.439C1289.51 161.177 1288.97 161.009 1288.41 160.945C1288.3 159.579 1288.19 158.212 1288.1 156.843C1287.84 152.938 1287.67 149.024 1287.23 145.134C1286.96 142.544 1286.81 138.995 1283.77 138.215C1282.08 137.77 1280.33 138.117 1278.64 138.352C1275.45 138.865 1274.91 138.965 1271.82 139.252C1262.85 139.872 1253.82 140.155 1244.97 141.832C1241.63 142.421 1237.85 142.621 1235.43 145.297C1235.07 145.633 1234.73 145.99 1234.4 146.354C1234.98 145.918 1235.58 145.513 1236.2 145.14C1238.96 143.359 1242.08 143.945 1245.31 143.754C1251.75 143.419 1258.2 143.69 1264.65 143.439C1267.97 143.4 1271.28 143.187 1274.57 142.803C1277.49 142.5 1279.79 141.916 1281.54 141.842C1281.85 141.82 1282.16 141.823 1282.47 141.85C1282.58 141.872 1282.68 141.896 1282.79 141.924C1282.8 141.935 1282.81 141.944 1282.82 141.955C1282.84 141.99 1282.87 142.03 1282.9 142.087C1282.91 142.121 1282.92 142.139 1282.93 142.166C1282.99 142.337 1283.04 142.513 1283.07 142.692C1283.73 146.421 1284.07 154.13 1284.47 159.631C1285.13 166.926 1285.82 174.224 1286.74 181.493C1287.83 189.427 1287.8 197.456 1288.42 205.431C1288.69 209.205 1289.21 212.96 1289.36 216.742C1289.48 222.168 1289.31 227.117 1288.5 231.262C1287.65 235.071 1286.89 237.784 1285.56 238.575C1285.53 238.589 1285.49 238.604 1285.44 238.628C1284.58 238.881 1284.82 238.785 1283.17 238.712C1279.55 238.476 1275.93 238.197 1272.32 237.815C1268.32 237.463 1264.97 236.668 1260.05 236.125C1255.97 235.712 1251.88 235.397 1247.8 234.988C1245.54 234.791 1243.68 234.58 1242.69 234.107C1241.25 233.226 1241.47 233.394 1241.2 229.978C1241.01 225.242 1240.74 220.51 1240.42 215.781C1240.12 210.952 1239.87 206.119 1239.37 201.306C1238.83 196.296 1238.1 191.307 1237.61 186.292C1236.96 178.365 1236.42 170.427 1235.65 162.509C1235.06 156.66 1234.23 150.836 1233.7 144.98C1233.11 150.843 1233.03 156.741 1232.97 162.628C1232.93 164.297 1232.91 165.965 1232.91 167.633C1231.55 168.414 1230.26 169.328 1229.46 170.714C1227.24 174.045 1227.5 178.475 1230.61 181.142C1231.47 181.861 1232.44 182.431 1233.49 182.826C1233.61 184.436 1233.77 186.042 1233.94 187.647C1232.21 188.825 1230.54 190.17 1229.8 192.192C1228.91 194.39 1228.8 196.825 1229.49 199.092C1230.05 200.782 1231.41 202.06 1232.87 203.002C1233.79 203.562 1234.78 203.988 1235.82 204.269C1235.96 205.842 1236.09 207.416 1236.17 208.995C1236.41 212.895 1236.67 216.792 1236.91 220.691C1236.02 220.22 1235.2 219.628 1234.47 218.933C1231.95 216.579 1230.86 212.705 1232.12 208.864C1232.72 207.153 1234.18 205.984 1235.42 204.745C1233.82 205.576 1232.12 206.439 1231.11 208.008C1228.49 212.048 1229.98 217.956 1234.31 220.122C1234.41 220.177 1234.52 220.224 1234.62 220.275C1233.16 221.564 1231.66 222.94 1231.02 224.841C1229.71 228.124 1231.87 231.367 1234.91 232.649C1235.74 233.022 1236.65 233.225 1237.57 233.246C1237.6 233.245 1237.63 233.245 1237.66 233.246C1238.04 235.022 1239.01 236.592 1240.76 237.42C1243.21 238.643 1246.04 238.588 1248.7 238.909C1252.19 239.253 1255.69 239.547 1259.19 239.866C1262.36 240.236 1265.62 240.773 1269.88 241.364C1274.72 241.963 1279.58 242.337 1284.45 242.62C1285.2 242.658 1285.95 242.541 1286.65 242.274C1287.35 242.008 1287.99 241.6 1288.52 241.074C1291.09 244.125 1293.11 246.893 1295.59 250.105C1299.09 254.547 1302.82 258.799 1306.51 263.073C1312.38 269.883 1318.33 276.689 1325.48 282.19C1325.82 282.463 1326.17 282.733 1326.52 283C1325.97 282.297 1325.42 281.595 1324.87 280.895C1320.04 274.938 1315.46 268.113 1309.9 261.469C1306.47 257.472 1302.56 253.923 1298.74 250.3C1295.38 247.168 1292.15 243.898 1288.58 241.015C1289.87 239.748 1290.7 237.896 1291.24 236.059C1292.96 230.385 1293.24 224.407 1293.23 218.512C1293.19 214.429 1292.64 210.377 1292.32 206.312C1291.92 201.469 1291.74 196.612 1291.49 191.761C1291.34 187.793 1290.86 183.856 1290.37 179.919C1290.56 179.732 1290.76 179.539 1290.94 179.341C1297.37 189.157 1302.78 199.657 1309.96 208.971ZM1233.01 182.444C1231.99 181.682 1231.13 180.723 1230.48 179.623C1228.94 176.942 1229.32 173.723 1230.8 170.784C1231.35 169.794 1232.07 168.905 1232.91 168.155C1232.92 172.454 1233.05 176.751 1233.37 181.041C1233.41 181.633 1233.45 182.224 1233.49 182.815C1233.33 182.693 1233.17 182.57 1233.01 182.444ZM1233.23 201.825C1231.1 199.822 1230.72 197.893 1230.84 194.88C1230.89 193.339 1231.33 191.835 1232.11 190.507C1232.66 189.646 1233.29 188.836 1233.98 188.085C1234.54 193.275 1235.26 198.449 1235.76 203.646C1234.84 203.154 1233.99 202.542 1233.23 201.825V201.825ZM1237.61 233.197C1236.65 232.836 1235.76 232.315 1234.96 231.658C1230.89 228.176 1231.8 224.744 1234.65 220.289C1235.37 220.646 1236.14 220.913 1236.93 221.082C1237.02 222.536 1237.1 223.991 1237.17 225.447C1237.26 227.521 1237.32 229.598 1237.48 231.668C1237.49 232.187 1237.55 232.704 1237.66 233.213C1237.64 233.208 1237.63 233.204 1237.61 233.197V233.197ZM1290.27 179.153C1290.2 178.535 1290.12 177.917 1290.05 177.299C1289.5 171.927 1288.88 166.559 1288.43 161.179C1288.9 161.358 1289.33 161.621 1289.7 161.956C1290.41 162.836 1290.89 163.886 1291.07 165.004C1291.59 167.504 1291.75 169.493 1291.92 172.301C1292 174.037 1291.75 175.774 1291.18 177.415C1290.93 178.019 1290.63 178.6 1290.27 179.153V179.153Z" fill="#F3F7FA"/>
<path d="M1259.66 150.25C1255.32 149.69 1250.91 149.905 1246.65 150.885C1250.13 151.101 1253.63 151.032 1257.1 150.679C1258.06 150.577 1259.02 150.444 1259.98 150.286C1259.87 150.274 1259.77 150.261 1259.66 150.25Z" fill="#F3F7FA"/>
<path d="M1268.78 148.258C1266.26 148.32 1266.27 152.025 1268.78 152.094C1271.3 152.032 1271.29 148.327 1268.78 148.258Z" fill="#F3F7FA"/>
<path d="M1270.76 181.022C1270.18 178.8 1268.91 176.819 1267.14 175.366C1267.49 174.257 1267.85 173.151 1268.24 172.054C1267.6 172.956 1267 173.893 1266.46 174.86C1265.49 174.199 1264.39 173.751 1263.24 173.545C1262.06 173.402 1260.78 173.236 1259.64 173.673C1257.88 174.522 1256.6 176.171 1255.56 177.793C1254.98 178.226 1254.47 178.748 1254.04 179.339C1251.97 182.482 1252.69 186.546 1253.74 189.931C1255.4 195.843 1262.85 202.242 1268.1 196.292C1269.57 194.537 1270.36 192.328 1270.85 190.115C1271.66 186.551 1271.46 183.971 1270.76 181.022ZM1268.03 189.527C1267.3 192.155 1266.78 193.497 1265.18 195.016C1264.08 195.925 1262.29 196.397 1259.67 194.414C1258.79 193.796 1258.01 193.07 1257.32 192.253C1256.64 191.29 1256.06 190.264 1255.57 189.189C1254.33 186.21 1253.26 182.857 1254.59 179.812C1255.26 178.39 1256.54 177.421 1257.62 176.323C1256.99 176.782 1256.32 177.208 1255.7 177.683C1256.35 176.96 1257.09 176.314 1257.89 175.758C1258.59 175.273 1259.33 174.751 1260.18 174.626C1261.16 174.592 1262.14 174.756 1263.05 175.107C1263.96 175.459 1264.8 175.992 1265.5 176.674L1265.5 176.677C1263.99 179.66 1262.85 182.821 1262.12 186.085C1261.1 184.712 1259.99 183.416 1258.79 182.205C1259.52 183.578 1260.28 184.943 1260.95 186.349C1261.39 187.067 1261.66 188.838 1262.83 188.262C1263.25 187.977 1263.35 187.435 1263.52 186.988C1263.76 186.261 1264 185.534 1264.24 184.808C1265.02 182.452 1265.71 180.07 1266.42 177.693C1266.99 178.432 1267.47 179.237 1267.85 180.09C1268.37 181.574 1268.64 183.137 1268.63 184.71C1268.64 186.943 1268.55 187.301 1268.03 189.527V189.527Z" fill="#F3F7FA"/>
</g>
<defs>
<linearGradient id="paint0_linear_321_776" x1="675.989" y1="76.3257" x2="746.037" y2="163.511" gradientUnits="userSpaceOnUse">
<stop stop-color="#5FBEFB"/>
<stop offset="1" stop-color="#55ABE0"/>
</linearGradient>
<linearGradient id="paint1_linear_321_776" x1="765.279" y1="218.366" x2="690.264" y2="135.417" gradientUnits="userSpaceOnUse">
<stop stop-color="#5FBEFB"/>
<stop offset="1" stop-color="#55ABE0"/>
</linearGradient>
<clipPath id="clip0_321_776">
<rect width="108" height="135" fill="white" transform="translate(104 131)"/>
</clipPath>
<clipPath id="clip1_321_776">
<rect width="108" height="145" fill="white" transform="translate(1228 138)"/>
</clipPath>
</defs>
</svg>
