<svg width="1440" height="330" viewBox="0 0 1440 330" fill="none" xmlns="http://www.w3.org/2000/svg">
<path d="M432.945 197.431L426.65 192C420.1 207.333 413.55 222.667 407 238C423.423 231.295 433.857 212.663 432.945 197.431Z" fill="#5FBEFB"/>
<path d="M852.945 196.431L846.65 191C840.1 206.333 833.55 221.667 827 237C843.423 230.295 853.857 211.663 852.945 196.431Z" fill="#5FBEFB"/>
<path d="M441.496 194C437.32 203.351 442.252 215.639 451.77 219.596C461.287 223.553 473.595 218.432 477.405 208.929C479.202 204.449 486.033 203.814 489.74 206.936C493.448 210.058 494.426 215.401 493.926 220.196C493.427 224.991 491.715 229.586 491.016 234.357C490.317 239.127 490.819 244.449 494.109 248C497.161 241.329 498.82 234.116 498.986 226.795C499.152 219.473 497.823 212.193 495.077 205.393C493.045 200.44 486.218 198.137 481.556 200.832C468.921 208.136 451.164 205.054 441.496 194Z" fill="#5FBEFB"/>
<path d="M861.496 193C857.32 202.351 862.252 214.639 871.77 218.596C881.287 222.553 893.595 217.432 897.405 207.929C899.202 203.449 906.033 202.814 909.74 205.936C913.448 209.058 914.426 214.401 913.926 219.196C913.427 223.991 911.715 228.586 911.016 233.357C910.317 238.127 910.819 243.449 914.109 247C917.161 240.329 918.82 233.116 918.986 225.795C919.152 218.473 917.823 211.193 915.077 204.393C913.045 199.44 906.218 197.137 901.556 199.832C888.921 207.136 871.164 204.054 861.496 193Z" fill="#5FBEFB"/>
<path d="M452.5 116C450.497 116.049 450.503 118.946 452.5 119C454.503 118.951 454.497 116.054 452.5 116Z" fill="white"/>
<path d="M872.5 115C870.497 115.049 870.503 117.946 872.5 118C874.503 117.951 874.497 115.054 872.5 115Z" fill="white"/>
<path d="M485 116C482.33 116.049 482.337 118.946 485 119C487.67 118.951 487.663 116.054 485 116Z" fill="white"/>
<path d="M905 115C902.33 115.049 902.337 117.946 905 118C907.67 117.951 907.663 115.054 905 115Z" fill="white"/>
<path d="M462.717 97.2944C462.115 95.9206 461.223 94.6883 460.099 93.6794C458.975 92.6705 457.645 91.9082 456.198 91.4431C453.933 90.851 451.428 90.7959 449.217 91.6248C445.843 92.9129 443.743 96.0435 442 99C444.275 96.3983 446.75 93.8085 449.578 92.9517C451.024 92.5332 451.602 92.5216 453.149 92.5089C455.229 92.4398 457.28 93.0025 459.023 94.1201C460.488 95.0047 461.751 96.178 462.732 97.5661C462.824 97.6833 462.911 97.8038 463 97.9226C462.909 97.7118 462.815 97.5021 462.717 97.2944Z" fill="white"/>
<path d="M882.717 96.2944C882.115 94.9206 881.223 93.6883 880.099 92.6794C878.975 91.6705 877.645 90.9082 876.198 90.4431C873.933 89.851 871.428 89.7959 869.217 90.6248C865.843 91.9129 863.743 95.0435 862 98C864.275 95.3983 866.75 92.8085 869.578 91.9517C871.024 91.5332 871.602 91.5216 873.149 91.5089C875.229 91.4398 877.28 92.0025 879.023 93.1201C880.488 94.0047 881.751 95.178 882.732 96.5661C882.824 96.6833 882.911 96.8038 883 96.9226C882.909 96.7118 882.815 96.5021 882.717 96.2944Z" fill="white"/>
<path d="M500.803 96.7464C500.609 95.4 500.145 94.1031 499.439 92.9283C498.024 90.3867 495.051 89.2139 492.19 89.071C489.628 88.8251 487.044 89.2207 484.685 90.2199C482.51 90.9985 480.793 92.5798 479.354 94.2961C477.958 96.0309 476.828 97.9521 476 100C478.22 96.8056 480.664 94.0417 484.03 92.3387C485.531 91.7164 487.102 91.2704 488.712 91.0102C491.138 90.8016 495.695 90.4847 498.099 93.0314C499.357 94.2872 500.139 95.8153 500.792 97.6151C501.22 98.9702 500.865 97.2325 500.803 96.7464Z" fill="white"/>
<path d="M920.803 95.7464C920.609 94.4 920.145 93.1031 919.439 91.9283C918.024 89.3867 915.051 88.2139 912.19 88.071C909.628 87.8251 907.044 88.2207 904.685 89.2199C902.51 89.9985 900.793 91.5798 899.354 93.2961C897.958 95.0309 896.828 96.9521 896 99C898.22 95.8056 900.664 93.0417 904.03 91.3387C905.531 90.7164 907.102 90.2704 908.712 90.0102C911.138 89.8016 915.695 89.4847 918.099 92.0314C919.357 93.2872 920.139 94.8153 920.792 96.6151C921.22 97.9702 920.865 96.2325 920.803 95.7464Z" fill="white"/>
<path d="M463.102 65.8976C461.345 62.667 458.894 57.5943 455.277 56.2609C450.125 54.8682 445.1 59.3176 442.451 63.2755C439.162 68.5289 436.823 74.2966 434.177 79.879C431.481 85.9212 428.51 91.8405 425.703 97.8336C423.147 103.355 420.132 108.665 417.754 114.266C415.686 119.53 415.335 124.138 417.301 129.508C418.11 131.877 419.224 134.127 420.241 136.412C421.832 140.177 423.641 143.921 426.408 146.993C428.449 149.023 430.771 150.931 433.482 152C432.185 151.214 431.006 150.253 429.978 149.144C428.845 148.037 427.836 146.812 426.969 145.491C424.582 141.623 423.721 138.534 422.128 134.267C419.978 129.02 418.171 123.994 419.132 120.007C420.289 114.254 422.979 110.167 425.658 104.462C427.862 99.9957 429.953 95.4758 432.054 90.9616C433.599 87.7146 435.197 84.492 436.585 81.1745C439.312 75.3547 442.45 67.3582 445.706 63.1975C448.615 59.9458 451.684 58.0292 454.567 58.8062C455.566 59.0943 457.442 61.144 458.739 63.0472C463.59 69.7201 465.408 74.0048 465.756 82.178C466.386 76.4102 465.895 71.1 463.102 65.8976Z" fill="white"/>
<path d="M883.102 64.8976C881.345 61.667 878.894 56.5943 875.277 55.2609C870.125 53.8682 865.1 58.3176 862.451 62.2755C859.162 67.5289 856.823 73.2966 854.177 78.879C851.481 84.9212 848.51 90.8405 845.703 96.8336C843.147 102.355 840.132 107.665 837.754 113.266C835.686 118.53 835.335 123.138 837.301 128.508C838.11 130.877 839.224 133.127 840.241 135.412C841.832 139.177 843.641 142.921 846.408 145.993C848.449 148.023 850.771 149.931 853.482 151C852.185 150.214 851.006 149.253 849.978 148.144C848.845 147.037 847.836 145.812 846.969 144.491C844.582 140.623 843.721 137.534 842.128 133.267C839.978 128.02 838.171 122.994 839.132 119.007C840.289 113.254 842.979 109.167 845.658 103.462C847.862 98.9957 849.953 94.4758 852.054 89.9616C853.599 86.7146 855.197 83.492 856.585 80.1745C859.312 74.3547 862.45 66.3582 865.706 62.1975C868.615 58.9458 871.684 57.0292 874.567 57.8062C875.566 58.0943 877.442 60.144 878.739 62.0472C883.59 68.7201 885.408 73.0048 885.756 81.178C886.386 75.4102 885.895 70.1 883.102 64.8976Z" fill="white"/>
<path d="M526.996 125.026C526.847 120.118 526.417 115.222 525.706 110.363C524.815 104.089 523.574 97.8743 522.108 91.7109C521.226 87.9459 520.58 84.0849 519.112 80.4911C517.081 75.8611 514.4 71.5446 511.15 67.6717C506.99 62.657 500.259 60.4696 493.88 61.1082C488.561 61.5823 483.315 62.8163 478.219 64.3873C475.023 65.4261 471.808 66.6027 469.048 68.5611C467.574 69.712 466.218 71.0064 465 72.4252C466.592 71.1203 468.131 69.8807 469.99 68.9345C472.149 67.9413 474.408 67.1811 476.728 66.667C481.739 65.5036 486.81 64.6102 491.917 63.9905C495.418 63.7062 497.915 63.5405 500.653 64.3655C504.169 65.3804 506.14 66.5616 508.682 69.4294C511.661 72.6843 515.332 79.0956 516.758 83.0043C517.723 86.064 518.38 89.2074 519.085 92.3343C519.79 95.4689 520.563 98.5892 521.194 101.74C522.506 108.594 523.354 113.507 523.773 120.225C524.032 123.361 524.061 126.51 523.862 129.65C523.029 137.655 520.637 146.288 514.02 151.72C512.574 152.995 508.553 155.186 505.639 156.388C502.988 157.484 498.158 159.122 494.473 159.708C493.96 159.806 493.445 159.9 492.929 159.989C493.215 159.993 493.501 159.996 493.788 159.996C499.628 160.072 505.425 158.976 510.835 156.773C519.593 153.431 523.942 145.314 525.836 136.573C526.658 132.78 527.047 128.907 526.996 125.026V125.026Z" fill="white"/>
<path d="M946.996 124.026C946.847 119.118 946.417 114.222 945.706 109.363C944.815 103.089 943.574 96.8743 942.108 90.7109C941.226 86.9459 940.58 83.0849 939.112 79.4911C937.081 74.8611 934.4 70.5446 931.15 66.6717C926.99 61.657 920.259 59.4696 913.88 60.1082C908.561 60.5823 903.315 61.8163 898.219 63.3873C895.023 64.4261 891.808 65.6027 889.048 67.5611C887.574 68.712 886.218 70.0064 885 71.4252C886.592 70.1203 888.131 68.8807 889.99 67.9345C892.149 66.9413 894.408 66.1811 896.728 65.667C901.739 64.5036 906.81 63.6102 911.917 62.9905C915.418 62.7062 917.915 62.5405 920.653 63.3655C924.169 64.3804 926.14 65.5616 928.682 68.4294C931.661 71.6843 935.332 78.0956 936.758 82.0043C937.723 85.064 938.38 88.2074 939.085 91.3343C939.79 94.4689 940.563 97.5892 941.194 100.74C942.506 107.594 943.354 112.507 943.773 119.225C944.032 122.361 944.061 125.51 943.862 128.65C943.029 136.655 940.637 145.288 934.02 150.72C932.574 151.995 928.553 154.186 925.639 155.388C922.988 156.484 918.158 158.122 914.473 158.708C913.96 158.806 913.445 158.9 912.929 158.989C913.215 158.993 913.501 158.996 913.788 158.996C919.628 159.072 925.425 157.976 930.835 155.773C939.593 152.431 943.942 144.314 945.836 135.573C946.658 131.78 947.047 127.907 946.996 124.026V124.026Z" fill="white"/>
<path d="M463.693 151.317C463.934 151.382 464.171 151.46 464.403 151.55C467.425 152.741 469.995 154.813 471.764 157.483C472.281 158.269 472.696 159.115 473 160C472.879 159.83 472.687 159.586 472.59 159.464C471.616 158.295 470.507 157.239 469.284 156.32C467.501 155.051 464.186 152.786 461.434 152.399C458.962 152.091 456.458 152.139 454 152.541C455.736 151.872 457.497 151.246 459.375 151.116C460.784 150.915 462.219 150.976 463.605 151.295" fill="white"/>
<path d="M892.693 150.683C892.934 150.618 893.171 150.54 893.403 150.45C896.425 149.259 898.995 147.187 900.764 144.517C901.281 143.731 901.696 142.885 902 142C901.879 142.17 901.687 142.414 901.59 142.536C900.616 143.705 899.507 144.761 898.284 145.68C896.501 146.949 893.186 149.214 890.434 149.601C887.962 149.909 885.458 149.861 883 149.459C884.736 150.128 886.497 150.754 888.375 150.884C889.784 151.085 891.219 151.024 892.605 150.705" fill="white"/>
<path d="M464.793 132.065C465.459 130.43 466.571 129.02 468 128C466.761 128.441 465.656 129.197 464.791 130.197C463.927 131.196 463.332 132.404 463.064 133.705C462.752 135.609 463.582 137.833 465.445 138.575C465.847 138.748 466.261 138.89 466.685 139C466.306 138.761 465.937 138.507 465.582 138.232C463.487 136.69 463.958 133.653 464.793 132.065Z" fill="white"/>
<path d="M884.793 131.065C885.459 129.43 886.571 128.02 888 127C886.761 127.441 885.656 128.197 884.791 129.197C883.927 130.196 883.332 131.404 883.064 132.705C882.752 134.609 883.582 136.833 885.445 137.575C885.847 137.748 886.261 137.89 886.685 138C886.306 137.761 885.937 137.507 885.582 137.232C883.487 135.69 883.958 132.653 884.793 131.065Z" fill="white"/>
<path d="M505.747 246.308C505.903 245.065 506.051 243.821 506.176 242.573C506.853 235.479 507.648 228.353 507.361 221.217C507.065 216.857 506.318 212.54 505.132 208.335C503.15 201.815 498.737 195.696 492.198 193.292C489.964 192.284 487.563 191.705 485.117 191.585C483.522 191.539 481.926 191.608 480.341 191.79C479.645 189.368 477.264 187.351 475.254 185.98C474.54 185.47 473.771 185.042 472.963 184.703C473.04 184.756 473.118 184.809 473.195 184.863C475.88 187.021 479.639 191.08 478.457 194.023C477.277 196.336 472.717 195.578 468.612 195.935C466.253 196.07 463.894 196.255 461.529 196.254C458.641 196.219 455.759 195.998 452.899 195.592C449.858 195.149 446.797 194.766 443.848 193.861C441.622 193.164 439.553 192.381 438.129 190.526C437.772 190.122 437.56 189.608 437.527 189.069C437.465 188.286 437.594 187.606 438.097 187.246C438.976 186.598 440.122 186.563 441.184 186.632C442.37 186.705 443.553 186.811 444.737 186.908C444.718 187.41 444.702 187.911 444.689 188.412C444.691 188.512 444.652 188.82 444.707 188.616C444.889 188.063 445.058 187.506 445.224 186.948C445.298 186.954 445.373 186.961 445.447 186.967C445.377 186.947 445.306 186.928 445.236 186.908C445.264 186.816 445.294 186.725 445.321 186.633C446.096 183.971 446.718 181.266 447.183 178.532C447.807 174.816 447.992 171.046 448.209 167.286C450.196 168.46 452.334 169.353 454.564 169.94C458.723 171.013 463.015 171.47 467.305 171.297C469.471 171.294 471.633 171.137 473.777 170.827C472.709 175.814 472.015 181.682 472.418 185.956C473.879 181.027 474.51 175.887 474.287 170.748C477.131 170.316 479.89 169.437 482.462 168.143C487.761 165.418 491.977 160.995 495.749 156.449C498.847 152.362 501.835 148.124 504.048 143.479C504.886 141.675 505.552 139.796 506.037 137.866C506.373 135.968 506.463 134.035 506.305 132.114C506.257 131.396 506.237 132.674 506.191 132.914C505.826 135.518 505.271 137.918 504.083 140.037C502.327 143.804 498.328 148.868 497.002 150.592C493.658 154.977 490.065 159.215 485.843 162.776C485.057 163.388 484.257 163.979 483.42 164.521C482.129 165.334 480.78 166.049 479.383 166.659C478.014 167.158 476.613 167.562 475.189 167.868C472.71 168.466 470.504 168.582 467.305 168.634C463.511 168.701 460.562 168.527 457.545 167.902C456.004 167.586 454.484 167.172 452.995 166.661C451.368 165.993 449.805 165.179 448.324 164.23C447.98 164.014 447.649 163.778 447.333 163.523C443.793 160.49 440.887 157.296 438.801 153.977C435.04 148.415 432.989 142.765 432.567 136.429C432.374 134.582 432.278 132.725 432.279 130.868C432.354 129.223 432.738 127.686 433.057 126C432.535 127.559 431.948 129.108 431.667 130.734C431.387 133.066 431.267 135.415 431.31 137.764C431.24 144.698 433.78 151.396 437.744 157.003C440.101 160.331 442.903 163.317 446.071 165.877C446.629 166.289 447.208 166.674 447.8 167.039C445.852 173.428 445.004 180.101 444.743 186.771C443.604 186.455 442.466 186.139 441.317 185.867C440.038 185.546 438.624 185.445 437.432 186.103C437.047 186.321 436.717 186.625 436.467 186.991C436.217 187.358 436.054 187.777 435.991 188.217C430.463 186.22 423.981 184.902 418.993 188.838C415.382 191.642 412.977 195.734 411.17 199.88C409.085 204.672 407.287 209.585 405.785 214.592C404.011 221.143 402.397 227.739 400.712 234.314C398.488 243.48 397.446 252.918 397.187 262.34C397.135 263.559 397.076 264.777 397 265.995C397.086 265.658 397.171 265.321 397.255 264.983C397.954 261.704 398.671 258.43 399.406 255.16C404.31 256.879 409.418 257.892 414.362 259.465C415.883 260.01 417.374 260.638 418.827 261.347C418.459 264.648 418.13 267.954 417.721 271.25C417.698 271.641 417.549 272.433 417.793 271.568C418.854 268.487 419.726 265.352 420.495 262.189C420.821 262.36 421.154 262.537 421.498 262.723C421.939 262.963 422.375 263.213 422.81 263.465C422.54 263.209 422.267 262.957 421.991 262.709C421.553 262.321 421.103 261.946 420.646 261.579C421.136 259.527 421.584 257.464 422.011 255.398C422.916 251.133 423.522 246.822 424.044 242.497C424.452 242.572 424.858 242.654 425.268 242.724C425.83 242.827 426.392 242.932 426.953 243.039C426.608 242.887 426.263 242.736 425.917 242.588C425.323 242.32 424.725 242.065 424.126 241.817C424.669 237.242 425.13 232.654 425.76 228.092C424.342 232.349 423.163 236.677 422.171 241.05C416.189 238.763 409.829 237.641 403.43 237.744C405.139 230.587 406.903 223.444 408.721 216.314C411.169 208.056 415.153 195.895 420.574 190.898C424.226 187.372 430.01 187.365 435.96 188.373C435.895 188.741 435.865 189.114 435.87 189.488C436.09 191.904 438.068 193.743 440.049 194.9C443.954 197.176 448.492 197.88 452.896 198.52C456.197 199.015 459.532 199.245 462.87 199.207C466.301 199.127 469.705 198.627 473.116 198.282C475.747 197.99 479.125 197.615 480.261 194.807C480.589 193.881 480.629 192.877 480.376 191.927C482.95 192.132 485.253 192.299 487.724 193.232C489.642 193.815 493.452 196.253 494.113 196.763C495.483 197.752 497.415 200.043 497.686 200.46C500.86 204.993 502.082 208.545 503.105 214.179C503.854 217.76 504.177 221.418 504.067 225.075C503.966 231.892 503.119 238.651 502.373 245.419C499.917 244.831 497.388 244.34 495.143 243.987C490.355 243.341 486.263 243.021 480.857 241.679C487.506 245.038 494.845 246.224 502.2 247.011C501.956 249.284 501.731 251.559 501.557 253.838C501.329 256.328 501.232 258.823 501.21 261.318C494.98 259.791 488.458 259.843 482.082 260.146C485.94 260.955 489.85 261.491 493.782 261.75C496.256 261.89 498.734 261.809 501.21 261.805C501.193 265.541 501.339 269.28 501.49 273.014C501.499 273.343 501.506 273.671 501.511 274C501.542 273.845 501.575 273.69 501.606 273.534C502.29 269.964 502.743 266.356 503.275 262.761C504.046 257.625 504.935 252.504 505.615 247.355C507.082 247.496 508.545 247.633 510 247.778C508.611 247.208 507.191 246.717 505.747 246.308ZM421.944 242.097C421.099 245.949 420.385 249.827 419.804 253.733C419.47 255.915 419.195 258.104 418.944 260.296C417.221 259.069 415.329 258.103 413.328 257.426C408.804 256.13 404.068 255.771 399.423 255.081C400.698 249.376 402.014 243.68 403.37 237.994C409.602 239.165 415.729 240.841 421.944 242.097H421.944Z" fill="white"/>
<path d="M925.747 245.308C925.903 244.065 926.051 242.821 926.176 241.573C926.853 234.479 927.648 227.353 927.361 220.217C927.065 215.857 926.318 211.54 925.132 207.335C923.15 200.815 918.737 194.696 912.198 192.292C909.964 191.284 907.563 190.705 905.117 190.585C903.522 190.539 901.926 190.608 900.341 190.79C899.645 188.368 897.264 186.351 895.254 184.98C894.54 184.47 893.771 184.042 892.963 183.703C893.04 183.756 893.118 183.809 893.195 183.863C895.88 186.021 899.639 190.08 898.457 193.023C897.277 195.336 892.717 194.578 888.612 194.935C886.253 195.07 883.894 195.255 881.529 195.254C878.641 195.219 875.759 194.998 872.899 194.592C869.858 194.149 866.797 193.766 863.848 192.861C861.622 192.164 859.553 191.381 858.129 189.526C857.772 189.122 857.56 188.608 857.527 188.069C857.465 187.286 857.594 186.606 858.097 186.246C858.976 185.598 860.122 185.563 861.184 185.632C862.37 185.705 863.553 185.811 864.737 185.908C864.718 186.41 864.702 186.911 864.689 187.412C864.691 187.512 864.652 187.82 864.707 187.616C864.889 187.063 865.058 186.506 865.224 185.948C865.298 185.954 865.373 185.961 865.447 185.967C865.377 185.947 865.306 185.928 865.236 185.908C865.264 185.816 865.294 185.725 865.321 185.633C866.096 182.971 866.718 180.266 867.183 177.532C867.807 173.816 867.992 170.046 868.209 166.286C870.196 167.46 872.334 168.353 874.564 168.94C878.723 170.013 883.015 170.47 887.305 170.297C889.471 170.294 891.633 170.137 893.777 169.827C892.709 174.814 892.015 180.682 892.418 184.956C893.879 180.027 894.51 174.887 894.287 169.748C897.131 169.316 899.89 168.437 902.462 167.143C907.761 164.418 911.977 159.995 915.749 155.449C918.847 151.362 921.835 147.124 924.048 142.479C924.886 140.675 925.552 138.796 926.037 136.866C926.373 134.968 926.463 133.035 926.305 131.114C926.257 130.396 926.237 131.674 926.191 131.914C925.826 134.518 925.271 136.918 924.083 139.037C922.327 142.804 918.328 147.868 917.002 149.592C913.658 153.977 910.065 158.215 905.843 161.776C905.057 162.388 904.257 162.979 903.42 163.521C902.129 164.334 900.78 165.049 899.383 165.659C898.014 166.158 896.613 166.562 895.189 166.868C892.71 167.466 890.504 167.582 887.305 167.634C883.511 167.701 880.562 167.527 877.545 166.902C876.004 166.586 874.484 166.172 872.995 165.661C871.368 164.993 869.805 164.179 868.324 163.23C867.98 163.014 867.649 162.778 867.333 162.523C863.793 159.49 860.887 156.296 858.801 152.977C855.04 147.415 852.989 141.765 852.567 135.429C852.374 133.582 852.278 131.725 852.279 129.868C852.354 128.223 852.738 126.686 853.057 125C852.535 126.559 851.948 128.108 851.667 129.734C851.387 132.066 851.267 134.415 851.31 136.764C851.24 143.698 853.78 150.396 857.744 156.003C860.101 159.331 862.903 162.317 866.071 164.877C866.629 165.289 867.208 165.674 867.8 166.039C865.852 172.428 865.004 179.101 864.743 185.771C863.604 185.455 862.466 185.139 861.317 184.867C860.038 184.546 858.624 184.445 857.432 185.103C857.047 185.321 856.717 185.625 856.467 185.991C856.217 186.358 856.054 186.777 855.991 187.217C850.463 185.22 843.981 183.902 838.993 187.838C835.382 190.642 832.977 194.734 831.17 198.88C829.085 203.672 827.287 208.585 825.785 213.592C824.011 220.143 822.397 226.739 820.712 233.314C818.488 242.48 817.446 251.918 817.187 261.34C817.135 262.559 817.076 263.777 817 264.995C817.086 264.658 817.171 264.321 817.255 263.983C817.954 260.704 818.671 257.43 819.406 254.16C824.31 255.879 829.418 256.892 834.362 258.465C835.883 259.01 837.374 259.638 838.827 260.347C838.459 263.648 838.13 266.954 837.721 270.25C837.698 270.641 837.549 271.433 837.793 270.568C838.854 267.487 839.726 264.352 840.495 261.189C840.821 261.36 841.154 261.537 841.498 261.723C841.939 261.963 842.375 262.213 842.81 262.465C842.54 262.209 842.267 261.957 841.991 261.709C841.553 261.321 841.103 260.946 840.646 260.579C841.136 258.527 841.584 256.464 842.011 254.398C842.916 250.133 843.522 245.822 844.044 241.497C844.452 241.572 844.858 241.654 845.268 241.724C845.83 241.827 846.392 241.932 846.953 242.039C846.608 241.887 846.263 241.736 845.917 241.588C845.323 241.32 844.725 241.065 844.126 240.817C844.669 236.242 845.13 231.654 845.76 227.092C844.342 231.349 843.163 235.677 842.171 240.05C836.189 237.763 829.829 236.641 823.43 236.744C825.139 229.587 826.903 222.444 828.721 215.314C831.169 207.056 835.153 194.895 840.574 189.898C844.226 186.372 850.01 186.365 855.96 187.373C855.895 187.741 855.865 188.114 855.87 188.488C856.09 190.904 858.068 192.743 860.049 193.9C863.954 196.176 868.492 196.88 872.896 197.52C876.197 198.015 879.532 198.245 882.87 198.207C886.301 198.127 889.705 197.627 893.116 197.282C895.747 196.99 899.125 196.615 900.261 193.807C900.589 192.881 900.629 191.877 900.376 190.927C902.95 191.132 905.253 191.299 907.724 192.232C909.642 192.815 913.452 195.253 914.113 195.763C915.483 196.752 917.415 199.043 917.686 199.46C920.86 203.993 922.082 207.545 923.105 213.179C923.854 216.76 924.177 220.418 924.067 224.075C923.966 230.892 923.119 237.651 922.373 244.419C919.917 243.831 917.388 243.34 915.143 242.987C910.355 242.341 906.263 242.021 900.857 240.679C907.506 244.038 914.845 245.224 922.2 246.011C921.956 248.284 921.731 250.559 921.557 252.838C921.329 255.328 921.232 257.823 921.21 260.318C914.98 258.791 908.458 258.843 902.082 259.146C905.94 259.955 909.85 260.491 913.782 260.75C916.256 260.89 918.734 260.809 921.21 260.805C921.193 264.541 921.339 268.28 921.49 272.014C921.499 272.343 921.506 272.671 921.511 273C921.542 272.845 921.575 272.69 921.606 272.534C922.29 268.964 922.743 265.356 923.275 261.761C924.046 256.625 924.935 251.504 925.615 246.355C927.082 246.496 928.545 246.633 930 246.778C928.611 246.208 927.191 245.717 925.747 245.308ZM841.944 241.097C841.099 244.949 840.385 248.827 839.804 252.733C839.47 254.915 839.195 257.104 838.944 259.296C837.221 258.069 835.329 257.103 833.328 256.426C828.804 255.13 824.068 254.771 819.423 254.081C820.698 248.376 822.014 242.68 823.37 236.994C829.602 238.165 835.729 239.841 841.944 241.097H841.944Z" fill="white"/>
<path d="M476.283 252.498C475.843 257.655 476.013 262.833 476.152 268C477.147 264.288 477.741 258.371 478.248 254.529C479.018 247.705 479.254 240.828 480 234C478.064 239.987 476.816 246.197 476.283 252.498V252.498Z" fill="white"/>
<path d="M896.283 251.498C895.843 256.655 896.013 261.833 896.152 267C897.147 263.288 897.741 257.371 898.248 253.529C899.018 246.705 899.254 239.828 900 233C898.064 238.987 896.816 245.197 896.283 251.498V251.498Z" fill="white"/>
<path d="M498.053 214.36C495.422 213.586 492.888 212.501 490.227 211.825C486.837 210.963 483.368 210.494 479.944 209.8C476.457 209.108 473.009 208.222 469.507 207.604C465.032 206.845 460.512 206.362 455.989 206.004C447.503 205.541 438.994 205.665 430.505 205.217C427.434 205.113 423.466 204.847 420.898 204.515C418.25 204.094 415.632 203.507 413 203C416.019 204.011 419.002 205.18 422.119 205.85C427.514 207.021 433.026 207.583 438.523 208.002C444.502 208.432 450.51 208.192 456.485 208.705C460.615 209.057 464.248 209.499 467.518 210.027C470.997 210.625 474.433 211.454 477.923 211.991C483.219 212.869 488.526 212.803 493.395 213.861C495.579 214.348 497.796 214.627 500 215C499.357 214.77 498.705 214.563 498.053 214.36Z" fill="white"/>
<path d="M918.053 213.36C915.422 212.586 912.888 211.501 910.227 210.825C906.837 209.963 903.368 209.494 899.944 208.8C896.457 208.108 893.009 207.222 889.507 206.604C885.032 205.845 880.512 205.362 875.989 205.004C867.503 204.541 858.994 204.665 850.505 204.217C847.434 204.113 843.466 203.847 840.898 203.515C838.25 203.094 835.632 202.507 833 202C836.019 203.011 839.002 204.18 842.119 204.85C847.514 206.021 853.026 206.583 858.523 207.002C864.502 207.432 870.51 207.192 876.485 207.705C880.615 208.057 884.248 208.499 887.518 209.027C890.997 209.625 894.433 210.454 897.923 210.991C903.219 211.869 908.526 211.803 913.395 212.861C915.579 213.348 917.796 213.627 920 214C919.357 213.77 918.705 213.563 918.053 213.36Z" fill="white"/>
<path d="M501.437 225.7C497.01 224.976 492.576 224.298 488.17 223.434C485.37 222.864 482.621 222.031 479.811 221.51C474.533 220.443 469.15 220.39 463.799 220.206C453.97 219.755 444.23 218.221 434.466 217.042C430.375 216.621 426.257 216.672 422.159 216.367C417.761 216.047 413.396 215.352 409 215C413.42 216.03 417.792 217.306 422.261 218.076C427.392 218.897 431.877 219.193 436.349 219.874C445.892 221.347 459.21 223.075 470.12 223.333C476.319 223.665 480.726 224.436 486.655 225.346C490.424 225.792 494.223 225.869 498.012 225.928C499.674 225.953 501.338 225.921 503 226C502.481 225.886 501.96 225.789 501.437 225.7Z" fill="white"/>
<path d="M921.437 224.7C917.01 223.976 912.576 223.298 908.17 222.434C905.37 221.864 902.621 221.031 899.811 220.51C894.533 219.443 889.15 219.39 883.799 219.206C873.97 218.755 864.23 217.221 854.466 216.042C850.375 215.621 846.257 215.672 842.159 215.367C837.761 215.047 833.396 214.352 829 214C833.42 215.03 837.792 216.306 842.261 217.076C847.392 217.897 851.877 218.193 856.349 218.874C865.892 220.347 879.21 222.075 890.12 222.333C896.319 222.665 900.726 223.436 906.655 224.346C910.424 224.792 914.223 224.869 918.012 224.928C919.674 224.953 921.338 224.921 923 225C922.481 224.886 921.96 224.789 921.437 224.7Z" fill="white"/>
<path d="M475.607 244.298C471.41 242.388 466.943 241.115 462.434 240.128C458.614 239.25 454.733 238.642 450.823 238.309C442.888 237.793 434.745 238.219 427 237C433.958 239.203 441.266 239.929 448.511 240.62C453.382 241.133 458.83 241.82 461.376 242.155C465.296 242.661 470.25 243.311 474.862 244.407C475.581 244.581 476.297 244.771 477 245C476.542 244.754 476.078 244.52 475.607 244.298Z" fill="white"/>
<path d="M895.607 243.298C891.41 241.388 886.943 240.115 882.434 239.128C878.614 238.25 874.733 237.642 870.823 237.309C862.888 236.793 854.745 237.219 847 236C853.958 238.203 861.266 238.929 868.511 239.62C873.382 240.133 878.83 240.82 881.376 241.155C885.296 241.661 890.25 242.311 894.862 243.407C895.581 243.581 896.297 243.771 897 244C896.542 243.754 896.078 243.52 895.607 243.298Z" fill="white"/>
<path d="M472.403 263.41C470.174 261.325 467.391 260.141 464.684 258.964C461.652 257.596 458.492 256.586 455.257 255.953C450.89 255.103 446.436 255.052 442.01 255.065C438.34 255.018 434.67 254.955 431 255.047C434.59 255.636 438.171 256.288 441.766 256.841C448.759 257.813 453.32 258.194 460.61 260.041C464.23 261.072 468.338 261.816 471.477 263.379C472.353 263.854 473.196 264.395 474 265C473.485 264.45 472.955 263.916 472.403 263.41Z" fill="white"/>
<path d="M892.403 262.41C890.174 260.325 887.391 259.141 884.684 257.964C881.652 256.596 878.492 255.586 875.257 254.953C870.89 254.103 866.436 254.052 862.01 254.065C858.34 254.018 854.67 253.955 851 254.047C854.59 254.636 858.171 255.288 861.766 255.841C868.759 256.813 873.32 257.194 880.61 259.041C884.23 260.072 888.338 260.816 891.477 262.379C892.353 262.854 893.196 263.395 894 264C893.485 263.45 892.955 262.916 892.403 262.41Z" fill="white"/>
<path d="M602.21 202.281C603.709 209.938 596.999 218.1 589.243 218.054C584.091 218.023 578.966 218.868 573.814 218.868C568.662 218.869 563.28 217.92 559.202 214.753C555.125 211.585 552.785 205.758 554.829 201C544.144 219.861 537.403 240.72 535.02 262.297C534.93 263.118 535.146 263.944 535.626 264.614C536.106 265.284 536.816 265.751 537.619 265.925C538.421 266.099 539.26 265.967 539.971 265.555C540.683 265.143 541.217 264.48 541.471 263.694L555.725 219.551C553.561 222.003 556.434 225.844 559.505 226.941C562.577 228.037 566.287 228.208 568.34 230.754C576.043 240.306 591.709 241.913 601.169 234.123C610.629 226.332 612.16 210.563 602.21 202.281Z" fill="#5FBEFB"/>
<path d="M1022.21 201.281C1023.71 208.938 1017 217.1 1009.24 217.054C1004.09 217.023 998.966 217.868 993.814 217.868C988.662 217.869 983.28 216.92 979.202 213.753C975.125 210.585 972.785 204.758 974.829 200C964.144 218.861 957.403 239.72 955.02 261.297C954.93 262.118 955.146 262.944 955.626 263.614C956.106 264.284 956.816 264.751 957.619 264.925C958.421 265.099 959.26 264.967 959.971 264.555C960.683 264.143 961.217 263.48 961.471 262.694L975.725 218.551C973.561 221.003 976.434 224.844 979.505 225.941C982.577 227.037 986.287 227.208 988.34 229.754C996.043 239.306 1011.71 240.913 1021.17 233.123C1030.63 225.332 1032.16 209.563 1022.21 201.281Z" fill="#5FBEFB"/>
<path d="M568.5 115C566.497 115.049 566.503 117.946 568.5 118C570.503 117.951 570.497 115.054 568.5 115Z" fill="white"/>
<path d="M988.5 114C986.497 114.049 986.503 116.946 988.5 117C990.503 116.951 990.497 114.054 988.5 114Z" fill="white"/>
<path d="M599.5 114C597.497 114.065 597.503 117.927 599.5 118C601.503 117.935 601.497 114.072 599.5 114Z" fill="white"/>
<path d="M1019.5 113C1017.5 113.065 1017.5 116.927 1019.5 117C1021.5 116.935 1021.5 113.072 1019.5 113Z" fill="white"/>
<path d="M561 100.842C563.677 101.198 566.379 100.952 569 100.113C566.322 99.8314 563.629 100.077 561 100.842V100.842Z" fill="white"/>
<path d="M981 99.8418C983.677 100.198 986.379 99.9519 989 99.113C986.322 98.8314 983.629 99.0768 981 99.8418V99.8418Z" fill="white"/>
<path d="M591 99.4495C594.52 100.029 598.807 100.229 602 99.6647C598.381 98.8579 594.646 98.7848 591 99.4495Z" fill="white"/>
<path d="M1011 98.4495C1014.52 99.0295 1018.81 99.229 1022 98.6647C1018.38 97.8579 1014.65 97.7848 1011 98.4495Z" fill="white"/>
<path d="M585 131C582.964 132.86 581.092 135.391 582.478 138C582.073 135.431 583.846 133.232 585 131Z" fill="white"/>
<path d="M1005 130C1002.96 131.86 1001.09 134.391 1002.48 137C1002.07 134.431 1003.85 132.232 1005 130Z" fill="white"/>
<path d="M593.73 157.564C592.823 156.154 591.738 154.866 590.502 153.729C586.699 150.369 582.145 148.61 576.807 148.928C574.153 149.042 571.573 149.949 569 150.762C571.296 149.34 573.67 147.938 576.353 147.388C582.747 145.979 588.622 148.467 592.186 153.881C592.965 155.172 593.574 156.556 594 158C593.91 157.855 593.821 157.709 593.73 157.564Z" fill="white"/>
<path d="M1019.73 145.436C1018.82 146.846 1017.74 148.134 1016.5 149.271C1012.7 152.631 1008.14 154.39 1002.81 154.072C1000.15 153.958 997.573 153.051 995 152.238C997.296 153.66 999.67 155.062 1002.35 155.612C1008.75 157.021 1014.62 154.533 1018.19 149.119C1018.96 147.828 1019.57 146.444 1020 145C1019.91 145.145 1019.82 145.291 1019.73 145.436Z" fill="white"/>
<path d="M616.283 130.444C616.265 130.32 616.247 130.197 616.23 130.073C616.19 130.913 616.133 131.752 616.066 132.59C615.844 135.232 615.554 137.857 615.248 139.947C613.935 150.901 611.614 155.752 604.254 162.975C600.692 166.589 597.061 168.695 591.951 171.193C589.673 172.283 585.239 173.553 582.267 173.446C579.517 173.428 577.815 172.934 574.538 172.119C569.476 170.475 565.27 168.788 560.591 165.183C559.678 164.403 558.8 163.587 557.964 162.723C556.668 161.399 555.446 160.003 554.303 158.541C553.156 157.028 552.262 155.334 551.656 153.526C549.725 147.281 548.62 142.582 548.615 136.755C548.622 133.762 548.832 130.736 550.138 128C548.677 130.251 547.768 132.823 547.485 135.502C546.535 140.658 547.103 145.939 548.131 151.038C548.642 153.358 549.259 155.69 550.35 157.807C551.577 159.94 553.047 161.92 554.73 163.706C559.076 168.808 564.871 172.023 571.041 174.313C579.85 177.559 586.163 177.42 593.615 174.083C592.958 177.28 592.407 180.501 592.064 183.749C591.683 188.155 591.535 192.578 591.619 197C593.591 189.976 594.158 181.613 594.135 173.847C595.505 173.212 596.914 172.471 598.387 171.624C602.296 169.505 605.697 166.55 608.726 163.29C613.423 158.624 616.491 152.958 616.844 146.21C617.171 140.949 616.984 135.667 616.283 130.444Z" fill="white"/>
<path d="M1036.28 129.444C1036.27 129.32 1036.25 129.197 1036.23 129.073C1036.19 129.913 1036.13 130.752 1036.07 131.59C1035.84 134.232 1035.55 136.857 1035.25 138.947C1033.94 149.901 1031.61 154.752 1024.25 161.975C1020.69 165.589 1017.06 167.695 1011.95 170.193C1009.67 171.283 1005.24 172.553 1002.27 172.446C999.517 172.428 997.815 171.934 994.538 171.119C989.476 169.475 985.27 167.788 980.591 164.183C979.678 163.403 978.8 162.587 977.964 161.723C976.668 160.399 975.446 159.003 974.303 157.541C973.156 156.028 972.262 154.334 971.656 152.526C969.725 146.281 968.62 141.582 968.615 135.755C968.622 132.762 968.832 129.736 970.138 127C968.677 129.251 967.768 131.823 967.485 134.502C966.535 139.658 967.103 144.939 968.131 150.038C968.642 152.358 969.259 154.69 970.35 156.807C971.577 158.94 973.047 160.92 974.73 162.706C979.076 167.808 984.871 171.023 991.041 173.313C999.85 176.559 1006.16 176.42 1013.62 173.083C1012.96 176.28 1012.41 179.501 1012.06 182.749C1011.68 187.155 1011.53 191.578 1011.62 196C1013.59 188.976 1014.16 180.613 1014.14 172.847C1015.5 172.212 1016.91 171.471 1018.39 170.624C1022.3 168.505 1025.7 165.55 1028.73 162.29C1033.42 157.624 1036.49 151.958 1036.84 145.21C1037.17 139.949 1036.98 134.667 1036.28 129.444Z" fill="white"/>
<path d="M623.881 99.5317C623.939 98.4428 624.142 97.3608 623.833 96.2881C623.412 94.466 623.197 94.2341 622.494 92.3539C621.997 91.0613 621.36 89.7992 621.055 88.4425C621.281 87.8378 621.9 86.0558 621.828 84.4311C621.623 82.107 621.233 81.8321 622.068 79.5504C622.357 78.0294 622.602 76.3417 621.887 74.9044C620.066 71.98 616.691 70.619 614.047 68.5917C608.906 64.3399 613.563 64.3171 603.013 63.3488C600.97 63.0904 599.833 63.1221 598.958 62.5942C598.946 62.5875 598.94 62.5839 598.93 62.5779C597.619 61.4446 596.055 60.6469 594.373 60.2525C592.084 59.8355 589.739 59.9236 587.435 59.6261C587.032 59.5846 586.633 59.5145 586.24 59.4163C585.853 59.358 585.48 59.228 585.139 59.0326C583.717 58.0095 581.862 57.8158 580.177 58.1507C576.323 59.4012 572.51 62.4042 569.512 63.2452C569.3 63.3098 569.084 63.3619 568.865 63.4013C568.784 63.4072 568.702 63.408 568.62 63.4037C568.505 63.3817 568.392 63.3523 568.281 63.3157C567.004 62.6925 565.594 62.3942 564.176 62.4469C562.25 62.4292 560.431 63.3069 559.005 64.571C557.332 66.1056 556.376 68.2384 555.581 70.332C553.667 75.3381 553.92 80.8668 555.047 86.0299C555.093 86.2262 555.242 86.9966 555.309 87.3221C554.578 88.2126 554.228 88.8095 553.058 90.8483C551.055 94.0206 549.884 97.4215 548.895 101.028C548.745 101.506 548.783 102.024 549.002 102.474C549.001 102.506 549.004 102.537 549.011 102.569C549.011 102.773 548.985 102.977 548.934 103.175C548.593 104.448 548.329 105.741 548.142 107.046C548.027 108.061 547.845 109.161 548.249 110.131C549.175 111.413 550.747 109.966 551.754 109.484C550.841 109.77 548.97 110.939 548.667 109.737C548.596 107.527 549.673 105.471 550.345 103.416C550.496 102.986 550.55 102.527 550.504 102.073C550.496 101.966 550.463 101.863 550.407 101.771C550.938 99.982 551.514 99.0135 552.326 97.1121C552.882 95.5185 553.614 94.4599 554.79 92.6601C555.199 92.0456 555.598 91.423 556.003 90.8055C554.554 95.749 553.389 100.773 552.514 105.852C551.452 113.194 551.009 120.614 550.341 128C552.829 119.599 554.386 110.962 555.502 102.277C555.882 99.3517 556.647 94.0658 557.05 89.3113C557.518 88.8321 558.076 88.3712 558.055 87.6344C558.046 86.0761 557.471 84.5662 557.294 83.0196C557.027 81.2321 556.919 79.4241 556.972 77.6173C556.979 76.9128 557.06 76.2137 557.136 75.5142C557.895 71.494 558.992 68.2767 561.263 66.2829C561.765 65.858 562.345 65.5382 562.971 65.342C563.596 65.1459 564.255 65.0774 564.907 65.1405C566.608 65.2502 565.866 65.1861 567.685 65.8531C569.177 66.2616 570.64 65.5624 571.978 64.9596C574.066 63.9837 576.059 62.8214 578.089 61.7304C580.096 60.7504 580.164 60.4548 582.046 60.543C582.084 60.5466 582.121 60.5518 582.158 60.5561C582.381 60.5871 582.602 60.633 582.819 60.6934C582.905 60.7164 582.989 60.7472 583.072 60.7781C582.901 60.714 582.798 60.6335 583.072 60.7782C583.098 60.788 583.126 60.7944 583.152 60.805C583.125 60.797 583.098 60.7878 583.072 60.7782L583.092 60.7886C584.203 61.5584 585.495 62.0215 586.839 62.1319C589.848 62.5385 593.501 62.444 594.677 63.1057C595.317 63.4184 595.932 63.7819 596.514 64.1928C596.887 64.5663 597.305 64.8904 597.759 65.1573C599.059 65.8529 600.578 65.7328 601.997 65.9464C604.79 66.2791 605.738 66.2952 608.395 66.8712C608.509 66.9028 608.621 66.9425 608.732 66.9832C608.765 67.0002 608.798 67.0179 608.83 67.0366C609.032 67.241 609.007 67.3442 609.617 68.0766C611.446 70.3002 613.937 71.804 616.277 73.4162C617.527 74.2389 617.787 74.487 619.133 75.8925C619.167 75.9425 619.19 75.9749 619.209 76.0002C619.272 76.0975 619.328 76.1987 619.378 76.303C619.396 76.3651 619.419 76.4456 619.438 76.5282C619.433 78.0629 619.48 78.168 619.242 79.0706C618.537 80.668 618.756 82.3992 618.936 84.0798C618.952 84.336 618.946 84.5932 618.919 84.8484C618.823 85.4973 618.689 86.1399 618.517 86.7728C618.234 87.5444 618.013 88.3507 618.241 89.1699C618.988 91.7415 620.834 94.5337 621.499 97.3429C621.523 97.4438 621.546 97.5448 621.567 97.6463C621.58 97.8767 621.559 98.1076 621.561 98.338C621.577 99.1019 621.635 99.8643 621.737 100.622C621.921 102.226 622.22 103.813 622.528 105.397C622.638 106.282 622.621 107.177 622.478 108.057C621.96 109.112 620.653 109.346 619.643 109.708C618.999 109.912 618.358 110.124 617.714 110.329C618.007 110.29 618.3 110.253 618.593 110.217C620.448 109.956 623.265 110.017 623.659 107.662C623.935 106.593 624.029 105.485 623.938 104.385C623.853 102.769 623.825 101.149 623.881 99.5317Z" fill="white"/>
<path d="M1043.88 98.5317C1043.94 97.4428 1044.14 96.3608 1043.83 95.2881C1043.41 93.466 1043.2 93.2341 1042.49 91.3539C1042 90.0613 1041.36 88.7992 1041.06 87.4425C1041.28 86.8378 1041.9 85.0558 1041.83 83.4311C1041.62 81.107 1041.23 80.8321 1042.07 78.5504C1042.36 77.0294 1042.6 75.3417 1041.89 73.9044C1040.07 70.98 1036.69 69.619 1034.05 67.5917C1028.91 63.3399 1033.56 63.3171 1023.01 62.3488C1020.97 62.0904 1019.83 62.1221 1018.96 61.5942C1018.95 61.5875 1018.94 61.5839 1018.93 61.5779C1017.62 60.4446 1016.06 59.6469 1014.37 59.2525C1012.08 58.8355 1009.74 58.9236 1007.44 58.6261C1007.03 58.5846 1006.63 58.5145 1006.24 58.4163C1005.85 58.358 1005.48 58.228 1005.14 58.0326C1003.72 57.0095 1001.86 56.8158 1000.18 57.1507C996.323 58.4012 992.51 61.4042 989.512 62.2452C989.3 62.3098 989.084 62.3619 988.865 62.4013C988.784 62.4072 988.702 62.408 988.62 62.4037C988.505 62.3817 988.392 62.3523 988.281 62.3157C987.004 61.6925 985.594 61.3942 984.176 61.4469C982.25 61.4292 980.431 62.3069 979.005 63.571C977.332 65.1056 976.376 67.2384 975.581 69.332C973.667 74.3381 973.92 79.8668 975.047 85.0299C975.093 85.2262 975.242 85.9966 975.309 86.3221C974.578 87.2126 974.228 87.8095 973.058 89.8483C971.055 93.0206 969.884 96.4215 968.895 100.028C968.745 100.506 968.783 101.024 969.002 101.474C969.001 101.506 969.004 101.537 969.011 101.569C969.011 101.773 968.985 101.977 968.934 102.175C968.593 103.448 968.329 104.741 968.142 106.046C968.027 107.061 967.845 108.161 968.249 109.131C969.175 110.413 970.747 108.966 971.754 108.484C970.841 108.77 968.97 109.939 968.667 108.737C968.596 106.527 969.673 104.471 970.345 102.416C970.496 101.986 970.55 101.527 970.504 101.073C970.496 100.966 970.463 100.863 970.407 100.771C970.938 98.982 971.514 98.0135 972.326 96.1121C972.882 94.5185 973.614 93.4599 974.79 91.6601C975.199 91.0456 975.598 90.423 976.003 89.8055C974.554 94.749 973.389 99.7727 972.514 104.852C971.452 112.194 971.009 119.614 970.341 127C972.829 118.599 974.386 109.962 975.502 101.277C975.882 98.3517 976.647 93.0658 977.05 88.3113C977.518 87.8321 978.076 87.3712 978.055 86.6344C978.046 85.0761 977.471 83.5662 977.294 82.0196C977.027 80.2321 976.919 78.4241 976.972 76.6173C976.979 75.9128 977.06 75.2137 977.136 74.5142C977.895 70.494 978.992 67.2767 981.263 65.2829C981.765 64.858 982.345 64.5382 982.971 64.342C983.596 64.1459 984.255 64.0774 984.907 64.1405C986.608 64.2502 985.866 64.1861 987.685 64.8531C989.177 65.2616 990.64 64.5624 991.978 63.9596C994.066 62.9837 996.059 61.8214 998.089 60.7304C1000.1 59.7504 1000.16 59.4548 1002.05 59.543C1002.08 59.5466 1002.12 59.5518 1002.16 59.5561C1002.38 59.5871 1002.6 59.633 1002.82 59.6934C1002.91 59.7164 1002.99 59.7472 1003.07 59.7781C1002.9 59.714 1002.8 59.6335 1003.07 59.7782C1003.1 59.788 1003.13 59.7944 1003.15 59.805C1003.12 59.797 1003.1 59.7878 1003.07 59.7782L1003.09 59.7886C1004.2 60.5584 1005.49 61.0215 1006.84 61.1319C1009.85 61.5385 1013.5 61.444 1014.68 62.1057C1015.32 62.4184 1015.93 62.7819 1016.51 63.1928C1016.89 63.5663 1017.31 63.8904 1017.76 64.1573C1019.06 64.8529 1020.58 64.7328 1022 64.9464C1024.79 65.2791 1025.74 65.2952 1028.4 65.8712C1028.51 65.9028 1028.62 65.9425 1028.73 65.9832C1028.77 66.0002 1028.8 66.0179 1028.83 66.0366C1029.03 66.241 1029.01 66.3442 1029.62 67.0766C1031.45 69.3002 1033.94 70.804 1036.28 72.4162C1037.53 73.2389 1037.79 73.487 1039.13 74.8925C1039.17 74.9425 1039.19 74.9749 1039.21 75.0002C1039.27 75.0975 1039.33 75.1987 1039.38 75.303C1039.4 75.3651 1039.42 75.4456 1039.44 75.5282C1039.43 77.0629 1039.48 77.168 1039.24 78.0706C1038.54 79.668 1038.76 81.3992 1038.94 83.0798C1038.95 83.336 1038.95 83.5932 1038.92 83.8484C1038.82 84.4973 1038.69 85.1399 1038.52 85.7728C1038.23 86.5444 1038.01 87.3507 1038.24 88.1699C1038.99 90.7415 1040.83 93.5337 1041.5 96.3429C1041.52 96.4438 1041.55 96.5448 1041.57 96.6463C1041.58 96.8767 1041.56 97.1076 1041.56 97.338C1041.58 98.1019 1041.64 98.8643 1041.74 99.6215C1041.92 101.226 1042.22 102.813 1042.53 104.397C1042.64 105.282 1042.62 106.177 1042.48 107.057C1041.96 108.112 1040.65 108.346 1039.64 108.708C1039 108.912 1038.36 109.124 1037.71 109.329C1038.01 109.29 1038.3 109.253 1038.59 109.217C1040.45 108.956 1043.27 109.017 1043.66 106.662C1043.93 105.593 1044.03 104.485 1043.94 103.385C1043.85 101.769 1043.82 100.149 1043.88 98.5317Z" fill="white"/>
<path d="M615.415 90.4661C615.704 90.4562 615.993 90.4455 616.281 90.4371C617.212 90.4143 616.304 90.3752 615.859 90.3055C615.703 90.2847 615.548 90.2643 615.392 90.2444C615.359 89.9252 615.327 89.6058 615.293 89.2867C615.255 88.9479 615.215 88.6091 615.175 88.2704C615.102 88.9094 615.042 89.5496 614.976 90.1894C614.173 90.095 613.376 89.9506 612.591 89.7571C611.98 89.5565 611.388 89.3044 610.769 89.1264C609.461 88.7008 608.065 88.663 606.76 88.2195C604.604 87.5576 603.229 86.7011 600.836 85.9557C595.736 84.5441 590.38 83.5686 585.079 84.1919C583.229 84.4955 581.477 85.2109 579.636 85.562C577.893 86.0137 574.809 85.7324 572.19 86.4535C566.916 87.9675 564.486 88.8375 559 87.1743C563.006 89.0564 565.77 89.426 570.132 88.6363C572.351 88.268 573.396 87.9656 575.739 88.0443C577.553 88.1979 579.378 88.1139 581.17 87.7943C582.582 87.5645 583.955 87.137 585.368 86.9128C587.535 86.7689 589.709 86.7629 591.877 86.8949C595.397 87.1182 597.401 87.4644 601.05 88.1606C603.838 88.9373 606.596 89.939 609.531 89.9078C610.463 89.9675 611.392 90.2281 612.559 90.4285C613.353 90.4957 614.151 90.5125 614.946 90.4787C614.785 92.0857 614.636 93.694 614.515 95.3045C613.933 102.58 614.146 109.887 614.746 117.154C615.052 121.775 615.38 126.396 615.886 131C616.466 125.264 617.031 119.51 616.999 113.74C616.913 105.963 616.216 98.2006 615.415 90.4661Z" fill="white"/>
<path d="M1035.41 89.4661C1035.7 89.4562 1035.99 89.4455 1036.28 89.4371C1037.21 89.4143 1036.3 89.3752 1035.86 89.3055C1035.7 89.2847 1035.55 89.2643 1035.39 89.2444C1035.36 88.9252 1035.33 88.6058 1035.29 88.2867C1035.25 87.9479 1035.22 87.6091 1035.17 87.2704C1035.1 87.9094 1035.04 88.5496 1034.98 89.1894C1034.17 89.095 1033.38 88.9506 1032.59 88.7571C1031.98 88.5565 1031.39 88.3044 1030.77 88.1264C1029.46 87.7008 1028.06 87.663 1026.76 87.2195C1024.6 86.5576 1023.23 85.7011 1020.84 84.9557C1015.74 83.5441 1010.38 82.5686 1005.08 83.1919C1003.23 83.4955 1001.48 84.2109 999.636 84.562C997.893 85.0137 994.809 84.7324 992.19 85.4535C986.916 86.9675 984.486 87.8375 979 86.1743C983.006 88.0564 985.77 88.426 990.132 87.6363C992.351 87.268 993.396 86.9656 995.739 87.0443C997.553 87.1979 999.378 87.1139 1001.17 86.7943C1002.58 86.5645 1003.96 86.137 1005.37 85.9128C1007.54 85.7689 1009.71 85.7629 1011.88 85.8949C1015.4 86.1182 1017.4 86.4644 1021.05 87.1606C1023.84 87.9373 1026.6 88.939 1029.53 88.9078C1030.46 88.9675 1031.39 89.2281 1032.56 89.4285C1033.35 89.4957 1034.15 89.5125 1034.95 89.4787C1034.78 91.0857 1034.64 92.694 1034.52 94.3045C1033.93 101.58 1034.15 108.887 1034.75 116.154C1035.05 120.775 1035.38 125.396 1035.89 130C1036.47 124.264 1037.03 118.51 1037 112.74C1036.91 104.963 1036.22 97.2006 1035.41 89.4661Z" fill="white"/>
<path d="M578 163C581.751 162.9 585.463 162.225 589 161C585.249 161.1 581.537 161.775 578 163V163Z" fill="white"/>
<path d="M998 162C1001.75 161.9 1005.46 161.225 1009 160C1005.25 160.1 1001.54 160.775 998 162V162Z" fill="white"/>
<path d="M596.855 196.964C595.713 196.388 594.477 196.029 593.208 195.904C593.677 196.051 594.322 196.327 594.657 196.465C598.078 197.979 599.632 201.146 597.515 204.096C595.003 207.27 588.161 208.412 584.662 208.77C580.803 209.023 576.932 209.011 573.075 208.735C569.445 208.488 567.477 208.381 564.229 207.608C562.064 207.028 560.982 206.752 559.304 205.824C558.795 205.589 558.355 205.225 558.023 204.768C557.692 204.311 557.482 203.775 557.412 203.212C557.358 202.728 557.405 202.238 557.55 201.774C557.695 201.309 557.934 200.881 558.252 200.517C558.776 200.61 559.298 200.708 559.817 200.789C559.372 200.61 558.939 200.439 558.512 200.282C560.077 199.375 561.899 199.702 563.619 199.899C563.615 199.958 563.611 200.017 563.606 200.076C563.624 200.019 563.643 199.961 563.662 199.903C563.837 199.923 564.012 199.942 564.184 199.957C564.022 199.911 563.857 199.863 563.691 199.813C563.721 199.721 563.751 199.628 563.781 199.536C566.427 191.643 567.673 183.335 567.46 175C566.035 181.547 564.545 188.1 564.015 194.799C563.867 196.463 563.757 198.129 563.627 199.794C561.728 199.23 559.656 198.576 557.807 199.561C557.66 199.663 557.52 199.775 557.389 199.897C554.944 199.131 552.681 198.974 550.007 200.367C546.657 201.92 544.265 204.856 542.516 208.069C540.109 212.302 538.5 216.935 537.268 221.646C535.221 229.448 533.525 237.35 531.971 245.267C531.32 249.108 530.872 254.107 530.435 256.914C529.758 261.954 528.861 266.959 528.136 271.991C528.09 272.327 528.045 272.664 528 273C528.153 272.5 528.311 272.001 528.47 271.502C530.419 265.684 532.235 259.813 533.481 253.792C535.008 245.625 536.68 237.487 538.497 229.38C540.126 222.164 542.004 215.136 544.821 209.316C546.165 206.589 547.04 204.859 549.075 203.062C550.434 201.861 551.993 200.801 553.766 200.377C554.83 200.162 555.923 200.142 556.995 200.318C556.331 201.167 555.969 202.219 555.967 203.303C555.964 204.387 556.322 205.44 556.983 206.292C559.424 208.998 564.014 210.238 567.481 210.911C571.62 211.617 575.83 211.73 580.018 211.771C583.66 211.807 587.326 211.444 590.797 210.273C593.481 209.416 596.194 208.22 598.217 206.182C601.024 203.251 600.478 198.88 596.855 196.964Z" fill="white"/>
<path d="M1016.86 195.964C1015.71 195.388 1014.48 195.029 1013.21 194.904C1013.68 195.051 1014.32 195.327 1014.66 195.465C1018.08 196.979 1019.63 200.146 1017.52 203.096C1015 206.27 1008.16 207.412 1004.66 207.77C1000.8 208.023 996.932 208.011 993.075 207.735C989.445 207.488 987.477 207.381 984.229 206.608C982.064 206.028 980.982 205.752 979.304 204.824C978.795 204.589 978.355 204.225 978.023 203.768C977.692 203.311 977.482 202.775 977.412 202.212C977.358 201.728 977.405 201.238 977.55 200.774C977.695 200.309 977.934 199.881 978.252 199.517C978.776 199.61 979.298 199.708 979.817 199.789C979.372 199.61 978.939 199.439 978.512 199.282C980.077 198.375 981.899 198.702 983.619 198.899C983.615 198.958 983.611 199.017 983.606 199.076C983.624 199.019 983.643 198.961 983.662 198.903C983.837 198.923 984.012 198.942 984.184 198.957C984.022 198.911 983.857 198.863 983.691 198.813C983.721 198.721 983.751 198.628 983.781 198.536C986.427 190.643 987.673 182.335 987.46 174C986.035 180.547 984.545 187.1 984.015 193.799C983.867 195.463 983.757 197.129 983.627 198.794C981.728 198.23 979.656 197.576 977.807 198.561C977.66 198.663 977.52 198.775 977.389 198.897C974.944 198.131 972.681 197.974 970.007 199.367C966.657 200.92 964.265 203.856 962.516 207.069C960.109 211.302 958.5 215.935 957.268 220.646C955.221 228.448 953.525 236.35 951.971 244.267C951.32 248.108 950.872 253.107 950.435 255.914C949.758 260.954 948.861 265.959 948.136 270.991C948.09 271.327 948.045 271.664 948 272C948.153 271.5 948.311 271.001 948.47 270.502C950.419 264.684 952.235 258.813 953.481 252.792C955.008 244.625 956.68 236.487 958.497 228.38C960.126 221.164 962.004 214.136 964.821 208.316C966.165 205.589 967.04 203.859 969.075 202.062C970.434 200.861 971.993 199.801 973.766 199.377C974.83 199.162 975.923 199.142 976.995 199.318C976.331 200.167 975.969 201.219 975.967 202.303C975.964 203.387 976.322 204.44 976.983 205.292C979.424 207.998 984.014 209.238 987.481 209.911C991.62 210.617 995.83 210.73 1000.02 210.771C1003.66 210.807 1007.33 210.444 1010.8 209.273C1013.48 208.416 1016.19 207.22 1018.22 205.182C1021.02 202.251 1020.48 197.88 1016.86 195.964Z" fill="white"/>
<path d="M610.407 202.248C609.515 201.024 608.538 199.724 607.127 199.062C604.893 198.074 602.412 197.766 600 198.177C602.371 198.177 604.689 198.868 606.665 200.164C607.555 200.85 608.113 201.871 608.659 202.827C611.331 207.51 609.684 215.8 609.122 221.799C608.461 227.936 607.63 234.061 607.251 240.224C606.851 247.397 606.88 254.585 606.803 261.767C606.801 262.178 606.799 262.589 606.796 263C606.843 262.768 606.893 262.537 606.941 262.306C608.595 254.52 609.565 246.618 610.503 238.724C611.204 233.008 611.748 227.276 612.439 221.56C613.037 215.627 613.931 207.398 610.407 202.248Z" fill="white"/>
<path d="M1030.41 201.248C1029.51 200.024 1028.54 198.724 1027.13 198.062C1024.89 197.074 1022.41 196.766 1020 197.177C1022.37 197.177 1024.69 197.868 1026.66 199.164C1027.55 199.85 1028.11 200.871 1028.66 201.827C1031.33 206.51 1029.68 214.8 1029.12 220.799C1028.46 226.936 1027.63 233.061 1027.25 239.224C1026.85 246.397 1026.88 253.585 1026.8 260.767C1026.8 261.178 1026.8 261.589 1026.8 262C1026.84 261.768 1026.89 261.537 1026.94 261.306C1028.59 253.52 1029.56 245.618 1030.5 237.724C1031.2 232.008 1031.75 226.276 1032.44 220.56C1033.04 214.627 1033.93 206.398 1030.41 201.248Z" fill="white"/>
<path d="M555.709 238.64C550.979 249.206 547.243 260.357 546 272C548.621 264.206 551.771 256.588 553.694 248.557C554.564 245.101 555.25 241.599 555.979 238.109C556.082 237.711 555.775 238.524 555.709 238.64Z" fill="white"/>
<path d="M975.709 237.64C970.979 248.206 967.243 259.357 966 271C968.621 263.206 971.771 255.588 973.694 247.557C974.564 244.101 975.25 240.599 975.979 237.109C976.082 236.711 975.775 237.524 975.709 237.64Z" fill="white"/>
<path d="M594.805 237.441C592.542 243.207 590.904 249.168 589.916 255.236C588.995 261.449 588.873 267.739 589.097 274C591.459 263.729 593.206 254.805 594.206 244.867C594.486 242.293 594.663 239.711 594.983 237.141C595.056 236.74 594.876 237.31 594.805 237.441Z" fill="white"/>
<path d="M1014.81 236.441C1012.54 242.207 1010.9 248.168 1009.92 254.236C1008.99 260.449 1008.87 266.739 1009.1 273C1011.46 262.729 1013.21 253.805 1014.21 243.867C1014.49 241.293 1014.66 238.711 1014.98 236.141C1015.06 235.74 1014.88 236.31 1014.81 236.441Z" fill="white"/>
<path d="M591.942 227.285C590.74 229.723 588.711 231.894 586.698 232.631C584.784 233.316 583.178 233.147 582.766 232.69C582.951 229.25 583.559 224.795 583.661 221C582.847 224.198 582.045 227.401 581.335 230.624C581.19 231.537 580.789 232.531 581.141 233.434C582.038 235.188 584.46 235.209 586.139 234.742C591.028 233.385 592.769 227.98 593.862 223.592C593.911 223.387 593.957 223.181 594 222.975C593.377 224.44 592.693 225.881 591.942 227.285Z" fill="white"/>
<path d="M1011.94 226.285C1010.74 228.723 1008.71 230.894 1006.7 231.631C1004.78 232.316 1003.18 232.147 1002.77 231.69C1002.95 228.25 1003.56 223.795 1003.66 220C1002.85 223.198 1002.04 226.401 1001.34 229.624C1001.19 230.537 1000.79 231.531 1001.14 232.434C1002.04 234.188 1004.46 234.209 1006.14 233.742C1011.03 232.385 1012.77 226.98 1013.86 222.592C1013.91 222.387 1013.96 222.181 1014 221.975C1013.38 223.44 1012.69 224.881 1011.94 226.285Z" fill="white"/>
<path d="M690.928 168.043C678.843 173.762 672.251 184.023 672.121 194.347C671.99 204.672 677.822 214.965 686.66 223.616C692.402 229.237 699.901 234.471 709.359 236.435C725.564 239.801 742.678 231.906 748.217 221.246C753.756 210.586 749.939 198.287 742.755 187.66C737.535 179.938 730.155 172.45 719.41 168.19C708.664 163.93 694.04 163.76 685.671 169.531" fill="#5FBEFB"/>
<path d="M750.853 181.247C736.32 178.22 721.746 176.43 707.41 178.116C693.55 180.418 681.002 185.928 668 191.046C694.398 193.048 729.62 189.653 750.853 181.247Z" fill="white"/>
<path d="M709.248 154C714.252 158.979 718.728 164.095 723.087 169.078C725.267 171.571 727.42 174.035 729.601 176.454C730.691 177.663 731.793 178.857 732.9 180.048L733.71 180.897C733.754 180.941 733.8 180.982 733.85 181.024L734.012 181.146C734.061 181.176 734.062 181.149 734.098 181.156C734.188 181.148 734.278 181.152 734.367 181.166C734.493 181.206 734.604 181.281 734.687 181.383C734.77 181.485 734.822 181.609 734.836 181.74C734.843 181.764 734.847 181.789 734.846 181.814C734.844 181.832 734.854 181.834 734.842 181.866L734.779 181.996L734.53 182.517L734.04 183.565C733.718 184.268 733.397 184.969 733.077 185.668C731.809 188.479 730.602 191.326 729.397 194.199C726.988 199.943 724.584 205.803 721.723 211.619C726.532 207.95 731.016 203.873 735.124 199.434C737.276 197.122 739.364 194.687 741.361 192.159L742.842 190.246L744.5 188.008C746.327 185.456 748.131 182.891 749.884 180.35L745.957 176.032L744.112 174.076L743.195 173.11L742.737 172.629C742.65 172.536 742.599 172.487 742.559 172.45L742.42 172.318C740.948 170.909 739.442 169.553 737.899 168.27C734.895 165.759 731.702 163.483 728.35 161.459C722.492 157.827 716.017 155.299 709.248 154V154Z" fill="white"/>
</svg>
