<svg width="180" height="180" viewBox="0 0 180 180" fill="none" xmlns="http://www.w3.org/2000/svg">
<path d="M122.157 61.5757C122.176 61.5539 122.194 61.5316 122.213 61.5098C122.153 61.57 122.121 61.6038 122.157 61.5757Z" fill="#5FBEFB"/>
<path d="M140.331 74.9634C138.973 72.1746 137.448 69.4515 135.761 66.8057C133.104 63.0029 129.901 58.639 126.513 58.8121C125.845 58.8391 125.193 59.0009 124.608 59.285C124.022 59.5691 123.518 59.968 123.135 60.4509C122.809 60.7869 122.511 61.153 122.212 61.5097C122.266 61.4547 122.342 61.3778 122.422 61.2946C122.069 61.6967 121.73 62.1283 121.417 62.5482C119.426 65.2345 117.604 68.0197 115.522 70.6545C112.79 74.2304 107.228 80.6678 106.701 81.2626C101.919 86.8475 96.7077 92.2942 93.4647 98.7377C96.6492 95.182 100.412 92.1118 104.234 89.0944C101.842 91.9016 99.4265 94.6941 97.0318 97.4996C99.1057 96.0957 101.147 94.6553 103.156 93.1784C109.583 88.6788 115.26 83.4524 121.195 78.4745C123.306 76.7362 127.377 73.3006 128.322 72.7427C128.447 72.7121 128.574 72.6876 128.702 72.6654C128.945 72.649 129.189 72.6451 129.432 72.6536C129.439 72.6602 129.445 72.6676 129.452 72.6742C130.611 74.1583 131.619 75.7278 132.71 77.2504C133.71 78.6731 134.95 80.3489 137.09 80.2761C140.284 80.2954 141.86 77.1284 140.331 74.9634Z" fill="#5FBEFB"/>
<path d="M114.018 119.622C112.777 120.04 111.653 120.687 110.454 121.187C109.045 121.813 108.692 121.853 106.406 122.72C106.006 122.913 105.631 123.145 105.29 123.411C103.644 124.739 104.714 126.796 104.665 128.489C104.684 128.972 104.687 129.454 104.684 129.937C104.398 130.437 104.118 130.939 103.83 131.438C103.202 132.595 102.265 133.708 102.207 135.028C102.414 138.132 105.329 138.394 108.195 138.268C110.829 138.185 113.622 138.238 116.064 137.261C118.087 136.352 118.5 134.326 118.506 132.499C118.63 130.712 118.775 128.925 118.79 127.135C118.74 124.574 118.82 118.986 114.018 119.622Z" fill="#5FBEFB"/>
<path d="M156.65 96.4751C155.277 92.0521 152.855 87.9465 150.679 83.8008C147.84 78.8448 144.996 73.8565 141.417 69.2767C139.237 66.3871 136.715 63.7095 133.894 61.2889C131.393 59.2222 128.633 57.4239 125.921 55.578C126.057 55.3441 126.193 55.1101 126.328 54.876C126.148 55.0798 125.967 55.2835 125.787 55.4871C125.248 55.1197 124.712 54.7495 124.178 54.3766C124.62 54.8352 125.079 55.2983 125.543 55.7627C125.475 55.8399 125.407 55.9171 125.338 55.9943C120.936 61.0389 116.243 65.8809 111.277 70.501C104.953 76.8201 98.5396 83.0683 92.0376 89.2454C88.4669 92.8734 84.2399 96.0949 81.4847 100.283C81.2359 100.712 81.0077 101.147 80.7895 101.585C71.5701 101.879 62.3442 101.417 53.1402 100.889C49.8088 100.652 46.5121 100.121 43.1769 99.9248C39.7881 99.764 36.3933 99.9089 33.0023 99.9831C33.0491 99.7536 33.0956 99.5244 33.1448 99.2941C33.1575 99.2643 33.1637 99.2489 33.1737 99.225C33.1882 99.2014 33.2042 99.1789 33.2195 99.1558C33.3012 99.081 33.4278 98.9655 33.5905 98.829C33.9455 98.4768 36.1584 97.1929 38.2036 96.2467C48.785 91.2751 59.4451 86.4389 70.1838 81.7382C69.9476 84.571 69.6878 87.4021 69.3566 90.2277C70.4134 87.1372 71.3395 84.0137 72.1677 80.8698C73.341 80.3576 74.5106 79.8391 75.6857 79.33C78.3002 78.2108 80.9077 77.0777 83.5079 75.9306C82.8047 79.2766 82.2047 82.6399 81.6719 86.0128C81.5431 86.7422 81.42 87.4724 81.3025 88.2034C81.5378 87.6287 81.7725 87.0537 82.0065 86.4785C83.5443 82.498 85.0888 78.5194 86.6403 74.5426C95.5009 70.5925 104.269 66.477 112.882 62.127C116.927 60.0271 120.991 57.9239 124.724 55.4055C122.285 56.4397 119.084 57.7342 117.079 58.4563C107.884 61.8634 98.5259 64.9357 89.4364 68.5595C89.248 68.6352 89.0611 68.7133 88.8729 68.7892C89.2856 67.7245 89.6987 66.66 90.1122 65.5956C91.1265 62.3249 94.2487 55.8679 91.4265 53.0296C90.0716 51.9409 88.073 52.3483 86.3953 52.1289C83.7397 51.941 82.9784 51.7274 80.7087 51.5148C78.9314 51.3163 77.127 51.4349 75.4027 51.8636C73.3332 52.3362 72.5025 53.6321 72.2879 55.4225C71.4341 59.7924 71.2999 64.2236 71.1423 68.6454C70.9618 71.258 70.779 73.8709 70.5942 76.4839C62.6358 79.9565 54.7365 83.5357 46.8593 87.1465C43.8734 88.5322 40.9232 89.977 37.9263 91.3439C35.162 92.6302 32.2804 93.8494 29.9373 95.7036C27.4927 97.6626 27.8206 100.884 27.2246 103.527C26.1375 110.702 25.4063 117.903 24.9414 125.129C24.5834 129.391 23.8788 133.634 23.8674 137.914C24.4039 151.941 25.049 165.966 25.3765 180C27.7715 166.339 28.8742 152.552 29.1897 138.738C29.2287 134.889 29.728 131.064 30.1113 127.234C30.4596 123.591 30.5668 119.936 30.8287 116.288C31.5042 110.057 31.9509 105.199 32.9622 100.177C36.2847 100.635 39.6275 100.992 42.9193 101.603C46.1731 102.249 49.352 103.161 52.6121 103.787C62.0577 105.337 69.6487 106.567 78.8508 106.719C77.6797 110.878 77.2026 115.229 76.3146 119.418C75.0227 126.631 73.5023 133.829 73.2022 141.143C72.7194 153.256 72.058 165.364 71.3307 177.467C73.4588 168.706 75.3263 159.891 76.6725 151.008C77.6596 144.765 78.1897 138.475 79.0902 132.223C79.4503 130.02 81.0267 121.202 81.826 116.769C82.2551 114.069 83.1391 109.694 83.9956 106.691C84.1737 106.687 84.3456 106.685 84.5251 106.68C92.0428 106.967 99.2315 104.894 106.549 103.715C117.499 102.045 128.502 100.684 139.412 98.8104C143.112 98.2976 146.804 97.7429 150.482 97.1182C150.556 97.3299 150.632 97.5435 150.7 97.7505C152.309 103.998 152.688 108.736 153.159 117.619C153.521 125.202 153.146 132.794 153.338 140.381C153.381 151.307 153.95 162.216 155.045 173.11C155.1 173.672 155.157 174.234 155.215 174.795C156.325 164.361 157.297 153.916 158.234 143.469C158.875 135.61 159.167 127.737 159.112 119.847C159.058 112.025 158.672 104.118 156.65 96.4751ZM74.8235 69.0557C75.7735 62.9216 75.8545 61.6764 77.0965 55.6941C77.246 55.6578 77.4061 55.622 77.5476 55.5982C79.4384 55.403 81.3396 55.6443 83.2147 55.8626C84.8464 56.0527 86.4901 56.1518 88.1359 56.1591C88.1761 58.2901 86.7635 62.6602 85.8876 66.234C85.4869 67.6394 85.1163 69.0503 84.7638 70.4642C81.0094 72.0101 77.2718 73.5873 73.5511 75.1959C74.0097 73.1546 74.4339 71.1079 74.8235 69.0557ZM132.726 96.8697C123.392 97.3824 114.007 97.47 104.743 98.7024C100.095 99.3129 95.5492 100.406 90.9165 101.088C88.5545 101.217 87.8155 101.213 86.7052 101.277C88.6481 98.7678 91.0004 97.0678 94.0174 94.0435C99.2711 89.1386 104.212 83.9802 108.817 78.5922C114.854 71.2813 121.127 64.0596 125.714 55.9326C128.338 58.5492 131.185 61.2155 133.067 63.5456C138.49 70.1699 142.23 79.058 144.009 82.7035C144.992 85.0808 148.442 91.4606 150.334 96.6925C144.464 96.6645 138.588 96.5696 132.726 96.8697Z" fill="black"/>
<path d="M116.393 150.557C111.896 151.145 105.347 152.791 102.973 156.481C102.03 158.176 101.976 160.121 101.759 161.968C101.515 164.558 101.525 167.162 101.788 169.75C101.802 171.261 104.086 171.796 104.787 170.358C104.928 169.886 104.966 169.394 104.898 168.909C105.022 167.643 105.226 165.456 105.458 164.088C105.495 163.865 105.528 163.627 105.537 163.547C105.625 162.975 105.567 163.256 105.884 161.437C106.219 159.701 106.469 158.519 106.94 158.036C107.371 157.257 111.339 155.326 114.189 154.562C114.982 154.338 115.775 154.101 116.584 153.927C117.633 155.53 118.255 161.064 118.754 164.908C119.038 167.154 119.324 169.399 119.652 171.64C119.739 170.967 119.83 170.293 119.91 169.619C120.349 165.747 120.643 161.857 120.68 157.965C120.511 155.604 120.716 150.399 116.393 150.557Z" fill="black"/>
<path d="M123.814 117.044C122.959 110.869 118.62 112.815 113.898 114.37C112.132 115.023 110.31 115.611 108.681 116.51C107.828 117.043 106.92 117.624 106.586 118.54C106.215 119.568 106.275 120.677 106.06 121.735C105.744 123.79 104.977 128.228 104.607 131.092C105.899 127.625 107.227 124.166 108.33 120.647C108.418 120.322 108.624 119.755 108.698 119.567C108.853 119.338 108.829 119.316 109.004 119.179C110.484 118.379 110.534 118.458 112.052 117.985C114.576 117.258 117.13 116.605 119.718 116.079C120.374 117.405 120.323 120.37 120.248 123.362C120.183 125.617 120.168 127.876 120.003 130.128C120.005 130.429 119.914 130.726 119.742 130.986C119.134 131.514 117.238 131.55 115.301 131.71C113.479 131.876 111.649 131.962 109.817 131.967C110.664 132.171 111.519 132.352 112.383 132.495C114.236 132.762 116.105 132.967 117.979 133.078C119.496 133.192 121.301 132.913 122.034 131.59C123.034 129.225 123.104 126.617 123.535 124.136C123.769 121.785 124.184 119.4 123.814 117.044Z" fill="black"/>
</svg>
