<svg width="845" height="400" viewBox="0 0 845 400" fill="none" xmlns="http://www.w3.org/2000/svg">
<g clip-path="url(#clip0_59_72)">
<path d="M51.5016 282.11H144.63V400H51.5016V282.11Z" fill="url(#paint0_linear_59_72)"/>
<path d="M144.63 282.11H187.248V400H144.63V282.11Z" fill="#2F5D7A"/>
<path d="M158.836 332.173H209.346V400H158.836V332.173Z" fill="url(#paint1_linear_59_72)"/>
<path d="M209.346 332.173H228.287V400H209.346V332.173Z" fill="#2F5D7A"/>
<path d="M67.286 299.874H130.424V327.328H67.286V299.874Z" fill="#478EBA"/>
<path d="M79.9136 299.874H117.796V327.328H79.9136V299.874ZM180.934 351.552H209.346V388.696H180.934V351.552Z" fill="#F3F7FA"/>
<path d="M209.346 351.552H221.973V388.695H209.346V351.552Z" fill="#478EBA"/>
<path d="M67.286 362.857H87.8057V390.31H67.286V362.857Z" fill="#F3F7FA"/>
<path d="M100.433 356.397H130.424V400H100.433V356.397Z" fill="#2F5D7A"/>
<path d="M106.747 362.857H130.424V400H106.747V362.857ZM45.1879 340.248H124.11V346.707H45.1879V340.248ZM45.1879 278.88H144.63V283.725H45.1879V278.88Z" fill="#478EBA"/>
<path d="M144.63 278.88H190.404V283.725H144.63V278.88Z" fill="url(#paint2_linear_59_72)"/>
<path d="M122.531 340.248H133.581V346.707H122.531V340.248Z" fill="#2F5D7A"/>
<path d="M160.414 324.098H161.993V332.173H160.414V324.098ZM166.728 324.098H168.306V332.173H166.728V324.098ZM171.463 324.098H173.042V332.173H171.463V324.098ZM176.198 324.098H177.777V332.173H176.198V324.098ZM180.934 324.098H182.512V332.173H180.934V324.098ZM185.669 324.098H187.248V332.173H185.669V324.098ZM190.404 324.098H191.983V332.173H190.404V324.098ZM196.718 324.098H198.297V332.173H196.718V324.098ZM201.454 324.098H203.032V332.173H201.454V324.098ZM206.189 324.098H207.767V332.173H206.189V324.098Z" fill="url(#paint3_linear_59_72)"/>
<path d="M210.924 324.098H212.503V332.173H210.924V324.098ZM217.238 324.098H218.816V332.173H217.238V324.098ZM221.973 324.098H223.552V332.173H221.973V324.098Z" fill="#2F5D7A"/>
<path d="M158.836 320.869H209.346V324.098H158.836V320.869Z" fill="#478EBA"/>
<path d="M209.346 320.869H228.287V324.098H209.346V320.869Z" fill="url(#paint4_linear_59_72)"/>
<path d="M458.762 400C512.056 400 555.259 391.798 555.259 381.679C555.259 371.561 512.056 363.359 458.762 363.359C405.468 363.359 362.265 371.561 362.265 381.679C362.265 391.798 405.468 400 458.762 400Z" fill="#AEDBD8"/>
<path d="M593 117.27C593 163.863 521.765 301.269 480.921 376.224C478.151 381.309 474.102 385.546 469.193 388.495C464.284 391.445 458.694 393 453 393C447.306 393 441.716 391.445 436.807 388.495C431.898 385.546 427.849 381.309 425.079 376.224C384.235 301.269 313 163.863 313 117.27C313 51.9512 375.68 -1 453 -1C530.32 -1 593 51.9512 593 117.27Z" fill="#2F5D7A"/>
<path d="M448.5 189C490.75 189 525 154.302 525 111.5C525 68.6979 490.75 34 448.5 34C406.25 34 372 68.6979 372 111.5C372 154.302 406.25 189 448.5 189Z" fill="#F3F7FA"/>
<path d="M56 223C86.928 223 112 197.48 112 166C112 134.52 86.928 109 56 109C25.0721 109 0 134.52 0 166C0 197.48 25.0721 223 56 223Z" fill="#FFE665"/>
<path opacity="0.4" d="M684.031 223.257C697.897 223.257 709.137 211.785 709.137 197.633C709.137 183.482 697.897 172.01 684.031 172.01C670.166 172.01 658.926 183.482 658.926 197.633C658.926 211.785 670.166 223.257 684.031 223.257Z" fill="#F3F7FA"/>
<path d="M757.883 307.584C771.028 300.429 784.602 294.126 798.523 288.711C784.566 294.036 770.986 300.343 757.883 307.584Z" fill="#F3F7FA"/>
<path d="M836.97 392.278C835.37 398.317 829.887 402.057 829.887 402.057C829.887 402.057 827 396.006 828.6 389.967C830.201 383.928 835.684 380.188 835.684 380.188C835.684 380.188 838.571 386.239 836.97 392.278Z" fill="#AEDBD8"/>
<path d="M834.618 390.98C830.226 395.344 829.689 402.052 829.689 402.052C829.689 402.052 836.274 401.685 840.666 397.321C845.058 392.958 845.595 386.25 845.595 386.25C845.595 386.25 839.01 386.616 834.618 390.98Z" fill="#AEDBD8"/>
<path d="M793.085 306.555H739.982V332.671L744.726 334.185L760.505 339.212L785.262 333.359L809.99 327.51L823.048 324.423L829.568 321.961C824.144 314.365 814.28 308.391 793.085 306.555Z" fill="#2F5D7A"/>
<path d="M739.836 321.929V401.415H829.422C829.45 401.366 829.469 401.321 829.497 401.272V401.268C829.519 401.212 829.544 401.158 829.573 401.107C830.971 398.234 832.225 395.368 833.334 392.51C842.735 368.325 841.715 344.779 829.422 321.929H739.836Z" fill="#55ABE0"/>
<path d="M772.737 359.52H790.98V401.414H772.737V359.52Z" fill="#55ABE0"/>
<path d="M810.527 371.49V364.84H818.345V371.49H811.178H810.527Z" fill="#F3F7FA"/>
<path d="M811.178 376.809H818.345V383.46H810.527V376.809H811.178Z" fill="#F3F7FA"/>
<path d="M797.496 364.839H805.314V371.489H797.496V364.839Z" fill="#F3F7FA"/>
<path d="M797.496 376.809H805.314V383.459H797.496V376.809Z" fill="#F3F7FA"/>
<path d="M757.1 371.49V364.84H764.918V371.49H757.751H757.1Z" fill="#F3F7FA"/>
<path d="M757.751 376.809H764.918V383.46H757.1V376.809H757.751Z" fill="#F3F7FA"/>
<path d="M744.069 364.839H751.888V371.489H744.069V364.839Z" fill="#F3F7FA"/>
<path d="M744.069 376.809H751.888V383.459H744.069V376.809Z" fill="#F3F7FA"/>
<path d="M809.987 275.695H798.756C787.679 275.695 777.056 280.186 769.223 288.18C761.391 296.174 756.99 307.017 756.99 318.322H809.987V275.695Z" fill="#2F5D7A"/>
<path d="M756.844 334.25H809.841V350.21H756.844V334.25Z" fill="#F3F7FA"/>
<path d="M743.852 402.129C743.886 402.426 743.896 402.703 743.876 402.975H729.204C729.071 402.703 728.957 402.421 728.858 402.129C727.064 396.876 730.014 388.132 726.273 375.168C723.496 365.548 718.312 358.023 715.896 354.518C712.926 350.206 709.56 346.227 705.661 339.871C704.816 338.496 703.946 337.005 703.047 335.379C702.745 334.835 699.271 328.524 699.588 328.327C699.736 328.237 700.655 329.511 700.966 329.939C703.714 333.726 705.31 335.384 707.598 338.108C708.987 339.76 710.628 341.8 712.931 344.948C718.836 353.012 721.786 357.041 722.814 360.058C723.086 360.864 724.534 365.226 727.262 370.635C728.655 373.395 729.352 374.775 729.733 374.664C730.81 374.347 729.357 362.919 724.791 351.496C724.01 349.552 723.427 348.308 722.32 345.956C720.521 342.118 710.504 320.787 703.141 308.019C702.217 306.413 701.332 304.947 700.517 303.663C700.359 303.421 700.205 303.184 700.057 302.958C699.029 301.396 698.12 300.162 697.364 299.366C696.964 298.943 695.946 297.745 693.905 295.337C693.094 294.38 692.501 293.67 692.101 293.151C692.042 293.076 691.987 293 691.943 292.935C691.458 292.29 691.32 291.978 691.434 291.811C691.597 291.575 692.224 291.711 692.911 291.958C692.985 291.983 693.064 292.013 693.139 292.043C693.885 292.325 694.641 292.693 694.893 292.819C697.206 293.952 699.464 295.982 701.554 298.394C702.33 299.286 703.077 300.228 703.798 301.195C706.121 304.317 708.147 307.717 709.679 310.513C711.557 313.958 712.683 316.491 712.683 316.491C717.927 328.292 723.743 341.79 724.05 341.674C724.386 341.548 717.937 324.746 716.059 315.62C715.431 312.562 715.317 310.366 716.143 309.943C716.172 309.928 716.202 309.913 716.237 309.903C716.365 309.858 716.484 309.863 716.548 309.868C716.548 309.868 717.314 309.767 718.119 309.943C719.123 310.165 720.264 313.011 721.376 317.005C724.267 327.3 727.015 345.2 727.015 345.2C729.762 363.105 733.933 377.596 734.922 377.435C735.47 377.344 734.684 372.846 735.416 365.347C735.93 360.088 736.513 360.25 738.381 350.74C741.346 335.656 742.829 328.116 742.829 328.075C742.814 327.758 742.774 327.118 742.868 326.454C742.967 325.733 743.219 324.978 743.817 324.55C744.726 323.895 746.189 324.177 746.782 324.55C747.256 324.852 747.499 325.406 747.553 326.202C747.879 331.208 740.822 345.724 738.381 365.347C737.165 375.123 736.498 380.457 738.381 387.508C740.244 394.499 743.491 398.951 743.852 402.129Z" fill="#818EA1"/>
<path d="M763.598 276.266C759.544 275.514 754.508 278.28 754.208 281.303C753.961 283.791 756.962 286.062 756.679 286.339C756.415 286.598 754.556 283.868 752.232 283.821C748.72 283.75 744.505 289.812 745.807 293.391C746.853 296.264 751.332 297.203 751.243 297.42C751.16 297.624 747.747 295.395 744.325 295.909C739.425 296.645 734.733 302.973 735.924 306.99C737.254 311.478 745.864 312.868 745.807 313.034C745.747 313.209 737.141 308.718 733.947 311.523C731.805 313.404 732.112 317.788 733.453 320.589C736.251 326.433 744.982 328.504 749.267 325.625C752.598 323.387 750.351 320.098 753.714 313.034C757.844 304.359 765.026 301.349 765.08 294.902C765.085 294.315 765.101 292.427 764.092 291.88C762.48 291.005 759.369 294.153 759.15 293.894C758.913 293.614 763.077 290.548 765.575 285.332C766.36 283.691 768.147 279.959 766.563 277.777C765.756 276.666 764.409 276.416 763.598 276.266Z" fill="#AEDBD8"/>
<path d="M741.099 266.376C737.045 265.625 732.01 268.39 731.71 271.413C731.463 273.901 734.464 276.173 734.181 276.45C733.917 276.708 732.057 273.978 729.733 273.931C726.221 273.86 722.007 279.922 723.309 283.501C724.354 286.374 728.834 287.314 728.745 287.53C728.661 287.735 725.248 285.505 721.826 286.019C716.927 286.756 712.235 293.083 713.425 297.1C714.755 301.589 723.366 302.978 723.309 303.144C723.248 303.319 714.642 298.828 711.448 301.633C709.306 303.514 709.613 307.899 710.954 310.699C713.753 316.543 722.484 318.614 726.768 315.736C730.1 313.497 727.853 310.208 731.216 303.144C735.345 294.469 742.527 291.46 742.582 285.012C742.587 284.426 742.603 282.538 741.594 281.99C739.982 281.115 736.871 284.264 736.652 284.005C736.415 283.725 740.579 280.658 743.076 275.442C743.862 273.802 745.649 270.069 744.064 267.887C743.258 266.777 741.911 266.527 741.099 266.376Z" fill="#AEDBD8"/>
<path d="M713.339 255.513C717.181 257.029 720.059 262.068 718.766 264.805C717.702 267.059 713.979 267.399 714.078 267.786C714.171 268.147 717.155 266.808 719.162 268.005C722.193 269.813 722.682 277.226 719.738 279.585C717.374 281.479 713.073 279.897 713.037 280.129C713.004 280.348 717.057 280.262 719.712 282.522C723.513 285.758 724.273 293.651 721.2 296.443C717.766 299.563 709.71 296.166 709.674 296.338C709.636 296.519 719.276 297.269 720.563 301.361C721.427 304.105 718.918 307.681 716.34 309.356C710.959 312.851 702.452 309.971 700.273 305.236C698.578 301.554 702.18 299.944 702.931 292.13C703.853 282.534 699.27 276.145 702.527 270.617C702.823 270.115 703.776 268.496 704.918 268.566C706.741 268.678 707.781 273.018 708.1 272.914C708.446 272.801 706.466 267.97 707.008 262.193C707.179 260.376 707.567 256.241 710.036 255.224C711.293 254.706 712.57 255.209 713.339 255.513L713.339 255.513Z" fill="#AEDBD8"/>
<path d="M669.679 257.955C667.256 261.353 667.518 267.176 670.06 268.763C672.153 270.068 675.463 268.298 675.585 268.678C675.699 269.033 672.479 269.556 671.429 271.67C669.843 274.864 673.375 281.364 677.104 281.72C680.097 282.006 682.87 278.3 683.024 278.475C683.168 278.641 679.717 280.808 678.687 284.174C677.213 288.993 680.772 296.046 684.84 296.694C689.385 297.42 694.348 290.115 694.47 290.239C694.599 290.37 686.896 296.326 687.991 300.476C688.724 303.259 692.734 304.878 695.791 304.861C702.172 304.826 707.79 297.706 707.102 292.523C706.568 288.493 702.686 289.129 697.899 282.978C692.021 275.423 692.475 267.522 686.798 264.676C686.282 264.417 684.62 263.584 683.698 264.273C682.225 265.374 683.66 269.596 683.336 269.685C682.985 269.781 682.08 264.627 678.552 260.072C677.442 258.639 674.917 255.379 672.301 255.888C670.969 256.147 670.164 257.276 669.679 257.955L669.679 257.955Z" fill="#AEDBD8"/>
<path d="M673.139 295.227C670.716 298.624 670.977 304.448 673.519 306.034C675.612 307.34 678.922 305.569 679.044 305.949C679.158 306.304 675.938 306.827 674.889 308.941C673.303 312.136 676.834 318.635 680.563 318.991C683.556 319.277 686.33 315.571 686.483 315.747C686.627 315.912 683.176 318.079 682.147 321.445C680.673 326.264 684.232 333.317 688.3 333.966C692.845 334.691 697.808 327.386 697.929 327.51C698.058 327.642 690.356 333.597 691.45 337.747C692.184 340.53 696.194 342.15 699.251 342.133C705.631 342.097 711.249 334.977 710.562 329.794C710.028 325.764 706.145 326.401 701.358 320.249C695.48 312.694 695.934 304.793 690.257 301.947C689.741 301.688 688.079 300.855 687.157 301.544C685.684 302.645 687.119 306.867 686.795 306.956C686.444 307.053 685.54 301.899 682.011 297.343C680.901 295.91 678.376 292.65 675.76 293.159C674.429 293.418 673.623 294.547 673.139 295.227H673.139Z" fill="#AEDBD8"/>
<path d="M573.422 263.304H638.408V344.133H573.422V263.304Z" fill="#2F5D7A"/>
<path d="M573.421 262L525 344.133H623.117L573.421 262Z" fill="url(#paint5_linear_59_72)"/>
<path d="M573.421 271.126L530.097 344.133H618.02L573.421 271.126ZM530.097 344.133H618.02V371.511H530.097V344.133Z" fill="#478EBA"/>
<path d="M593.809 344.133H681.733V371.511H593.809V344.133Z" fill="#478EBA"/>
<path d="M549.211 350.652H567.05V363.689H549.211V350.652ZM652.425 350.652H670.264V363.689H652.425V350.652Z" fill="#F3F7FA"/>
<path d="M530.097 371.511H681.733V400.193H530.097V371.511Z" fill="url(#paint6_linear_59_72)"/>
<path d="M569.599 371.511H639.682V400.193H569.599V371.511Z" fill="#2F5D7A"/>
<path d="M610.375 323.274L582.341 371.511H639.682L610.375 323.274Z" fill="url(#paint7_linear_59_72)"/>
<path d="M597.632 323.274H610.375V335.007H597.632V323.274Z" fill="url(#paint8_linear_59_72)"/>
<path d="M597.632 323.274L569.599 371.511H626.94L597.632 323.274Z" fill="#2F5D7A"/>
<path d="M597.632 335.007L581.067 363.689H615.472L597.632 335.007Z" fill="url(#paint9_linear_59_72)"/>
<path d="M537.742 375.422H564.502V392.37H537.742V375.422ZM649.876 375.422H675.361V392.37H649.876V375.422Z" fill="#F3F7FA"/>
<path d="M569.599 370.207H626.94V400.193H569.599V370.207Z" fill="#2F5D7A"/>
<path d="M597.632 371.511C598.906 371.323 600.204 371.419 601.438 371.793C602.672 372.166 603.812 372.808 604.781 373.675C605.749 374.542 606.523 375.613 607.048 376.815C607.574 378.017 607.839 379.321 607.826 380.637V400.193H588.712V380.637C588.712 378.217 589.652 375.895 591.325 374.184C592.998 372.473 595.266 371.511 597.632 371.511Z" fill="url(#paint10_linear_59_72)"/>
<path d="M567.05 307.63H581.067V329.793H567.05V307.63Z" fill="#F3F7FA"/>
<path d="M77.3697 222.193C116.858 222.385 149 223 149 223C149 223 110.794 169.617 77.513 189.395C44.2317 209.173 6 222.305 6 222.305C6 222.305 37.8813 222.001 77.3697 222.193Z" fill="url(#paint11_linear_59_72)"/>
<path d="M28.4278 399.009C28.3916 399.32 28.3813 399.61 28.402 399.894H43.741C43.8805 399.61 43.9994 399.315 44.1027 399.009C45.9781 393.517 42.8937 384.376 46.8047 370.823C49.7082 360.766 55.1278 352.899 57.6542 349.234C60.7592 344.727 64.2775 340.567 68.3538 333.922C69.2372 332.484 70.1465 330.926 71.0868 329.225C71.4019 328.656 75.0339 322.059 74.7033 321.853C74.5483 321.759 73.5874 323.091 73.2619 323.538C70.3893 327.498 68.7206 329.23 66.3285 332.079C64.8768 333.806 63.1615 335.939 60.754 339.23C54.5801 347.66 51.4958 351.872 50.4212 355.026C50.137 355.869 48.6233 360.429 45.7714 366.084C44.3145 368.969 43.586 370.412 43.1882 370.296C42.062 369.965 43.5809 358.017 48.3546 346.075C49.1709 344.042 49.7806 342.742 50.9378 340.283C52.8184 336.27 63.2907 313.971 70.9886 300.623C71.9548 298.943 72.8795 297.411 73.732 296.068C73.8973 295.815 74.0575 295.568 74.2125 295.331C75.2871 293.698 76.2377 292.408 77.0282 291.576C77.4466 291.134 78.5109 289.881 80.6446 287.364C81.4919 286.363 82.1119 285.621 82.5304 285.079C82.5924 285 82.6492 284.921 82.6957 284.852C83.202 284.178 83.3467 283.852 83.2278 283.678C83.0573 283.431 82.4012 283.573 81.6831 283.831C81.6056 283.857 81.5229 283.889 81.4454 283.92C80.6653 284.215 79.8749 284.6 79.6114 284.731C77.1935 285.916 74.8324 288.038 72.6471 290.56C71.8359 291.492 71.0558 292.477 70.3015 293.488C67.8733 296.752 65.7551 300.307 64.1535 303.229C62.1903 306.831 61.0123 309.479 61.0123 309.479C55.5308 321.816 49.4499 335.928 49.1296 335.807C48.7783 335.675 55.5204 318.109 57.4837 308.568C58.1398 305.372 58.2586 303.076 57.3958 302.634C57.3648 302.618 57.3338 302.602 57.2977 302.592C57.1633 302.544 57.0393 302.55 56.9722 302.555C56.9722 302.555 56.1714 302.45 55.3293 302.634C54.2805 302.866 53.087 305.841 51.9246 310.016C48.9023 320.779 46.0297 339.493 46.0297 339.493C43.1572 358.212 38.7968 373.361 37.7635 373.192C37.19 373.098 38.0115 368.395 37.2469 360.555C36.7096 355.058 36.0999 355.226 34.147 345.285C31.0472 329.515 29.4973 321.632 29.4973 321.59C29.5128 321.258 29.5541 320.59 29.4559 319.894C29.3526 319.142 29.0891 318.352 28.464 317.904C27.5133 317.22 25.9841 317.514 25.3641 317.904C24.8682 318.22 24.615 318.799 24.5582 319.631C24.2172 324.865 31.5948 340.04 34.147 360.555C35.418 370.775 36.1154 376.352 34.147 383.723C32.1993 391.032 28.8049 395.687 28.4278 399.009Z" fill="#818EA1"/>
<path d="M3.66338 273.632C7.90176 272.846 13.166 275.737 13.4795 278.897C13.7377 281.499 10.6007 283.874 10.8963 284.163C11.1726 284.433 13.1164 281.579 15.5461 281.53C19.2175 281.456 23.6239 287.793 22.2624 291.535C21.1695 294.538 16.4866 295.521 16.5794 295.747C16.6669 295.961 20.2348 293.63 23.8123 294.168C28.9347 294.937 33.8397 301.552 32.5952 305.752C31.2047 310.444 22.2026 311.897 22.2624 312.07C22.3256 312.253 31.3227 307.559 34.6618 310.491C36.9014 312.457 36.5802 317.041 35.1784 319.969C32.2527 326.079 23.1252 328.244 18.6459 325.234C15.1631 322.894 17.5118 319.455 13.9962 312.07C9.67887 303.001 2.17037 299.855 2.11345 293.114C2.10828 292.501 2.0916 290.528 3.14674 289.955C4.83181 289.04 8.08396 292.332 8.31314 292.061C8.56105 291.768 4.20773 288.563 1.59681 283.11C0.775593 281.395 -1.09278 277.492 0.563534 275.212C1.40679 274.05 2.81535 273.789 3.66338 273.632Z" fill="#AEDBD8"/>
<path d="M27.4289 263.627C31.6673 262.841 36.9315 265.733 37.245 268.893C37.5032 271.494 34.3662 273.869 34.6618 274.158C34.9381 274.429 36.8819 271.575 39.3116 271.526C42.983 271.451 47.3894 277.789 46.0279 281.53C44.935 284.534 40.2521 285.516 40.3449 285.743C40.4324 285.956 44.0003 283.625 47.5778 284.163C52.7002 284.933 57.6052 291.548 56.3607 295.747C54.9702 300.44 45.9681 301.893 46.0279 302.066C46.0911 302.249 55.0882 297.554 58.4273 300.486C60.6669 302.453 60.3457 307.037 58.9439 309.964C56.0182 316.074 46.8907 318.239 42.4114 315.23C38.9286 312.89 41.2773 309.451 37.7617 302.066C33.4444 292.997 25.9359 289.85 25.879 283.11C25.8738 282.497 25.8571 280.523 26.9122 279.951C28.5973 279.036 31.8495 282.328 32.0786 282.057C32.3266 281.764 27.9732 278.559 25.3623 273.105C24.5411 271.39 22.6727 267.488 24.329 265.207C25.1723 264.046 26.5809 263.785 27.4289 263.627Z" fill="#AEDBD8"/>
<path d="M56.2066 251.936C52.1893 253.521 49.1811 258.788 50.5327 261.65C51.6452 264.006 55.5373 264.362 55.4334 264.766C55.3364 265.144 52.2164 263.744 50.1191 264.996C46.9499 266.886 46.4386 274.636 49.5167 277.102C51.9876 279.082 56.4846 277.428 56.5216 277.67C56.5565 277.899 52.3194 277.81 49.5437 280.172C45.5695 283.555 44.7753 291.807 47.9882 294.726C51.5783 297.988 60 294.436 60.0377 294.616C60.0776 294.806 49.9993 295.59 48.6537 299.867C47.7511 302.736 50.3737 306.475 53.0689 308.226C58.6945 311.879 67.5881 308.869 69.8663 303.918C71.6377 300.069 67.8729 298.386 67.0876 290.217C66.1232 280.185 70.9149 273.505 67.51 267.726C67.2003 267.201 66.2034 265.509 65.0101 265.582C63.1044 265.699 62.0172 270.237 61.6831 270.128C61.3216 270.01 63.3921 264.959 62.8249 258.919C62.6466 257.019 62.2407 252.697 59.6596 251.633C58.3455 251.092 57.0104 251.618 56.2066 251.936Z" fill="#AEDBD8"/>
<path d="M101.83 254.8C104.363 258.351 104.089 264.44 101.431 266.098C99.2437 267.463 95.7835 265.612 95.6559 266.009C95.5366 266.38 98.9029 266.928 100 269.138C101.658 272.477 97.9662 279.272 94.0678 279.645C90.9384 279.943 88.039 276.069 87.879 276.252C87.728 276.425 91.3361 278.691 92.4123 282.21C93.9532 287.248 90.2323 294.621 85.9797 295.299C81.228 296.057 76.0394 288.42 75.9123 288.55C75.7779 288.688 83.8302 294.914 82.6862 299.252C81.9189 302.162 77.7268 303.855 74.5308 303.837C67.8601 303.8 61.9874 296.357 62.7057 290.938C63.2641 286.725 67.3229 287.39 72.3273 280.959C78.473 273.061 77.9983 264.801 83.933 261.826C84.4727 261.555 86.2103 260.684 87.1742 261.404C88.7137 262.555 87.214 266.969 87.5527 267.062C87.9192 267.163 88.8651 261.775 92.5539 257.012C93.7142 255.514 96.354 252.106 99.0887 252.638C100.481 252.909 101.323 254.089 101.83 254.8L101.83 254.8Z" fill="#AEDBD8"/>
<path d="M98.2132 293.765C100.746 297.316 100.473 303.405 97.815 305.063C95.6272 306.428 92.1671 304.577 92.0395 304.974C91.9202 305.345 95.2864 305.893 96.3836 308.103C98.0415 311.442 94.3497 318.237 90.4513 318.61C87.322 318.908 84.4226 315.034 84.2625 315.217C84.1115 315.39 87.7197 317.656 88.7959 321.175C90.3368 326.213 86.6158 333.586 82.3633 334.264C77.6116 335.022 72.4229 327.386 72.2958 327.516C72.1614 327.653 80.2138 333.879 79.0698 338.218C78.3025 341.127 74.1103 342.82 70.9143 342.802C64.2437 342.765 58.371 335.322 59.0892 329.903C59.6477 325.69 63.7064 326.356 68.7109 319.924C74.8565 312.026 74.3818 303.766 80.3165 300.791C80.8562 300.52 82.5938 299.649 83.5578 300.369C85.0973 301.52 83.5975 305.934 83.9363 306.028C84.3027 306.128 85.2486 300.74 88.9375 295.977C90.0978 294.479 92.7375 291.071 95.4723 291.603C96.8646 291.874 97.7064 293.054 98.2132 293.765H98.2132Z" fill="#AEDBD8"/>
<path d="M774.63 214.193C735.142 214.385 703 215 703 215C703 215 741.206 161.617 774.487 181.395C807.768 201.173 846 214.305 846 214.305C846 214.305 814.119 214.001 774.63 214.193Z" fill="url(#paint12_linear_59_72)"/>
<path d="M446.153 171.496L446.154 171.504C446.156 171.512 446.163 171.511 446.171 171.509L446.153 171.496ZM417.915 115.963C417.914 116.16 417.906 116.359 417.906 116.556C417.906 116.359 417.914 116.16 417.922 115.962L417.915 115.963ZM418.087 123.207C418.111 123.503 418.134 123.798 418.164 124.093C418.134 123.798 418.11 123.503 418.095 123.206C418.085 123.152 418.079 123.098 418.077 123.043C418.078 123.098 418.086 123.152 418.087 123.207ZM446.154 171.504C446.156 171.512 446.163 171.511 446.171 171.509L446.153 171.496L446.154 171.504ZM417.915 115.963C417.914 116.16 417.906 116.359 417.906 116.556C417.906 116.359 417.914 116.16 417.922 115.962L417.915 115.963ZM418.164 124.093C418.134 123.798 418.11 123.503 418.095 123.206C418.085 123.152 418.079 123.098 418.077 123.043C418.078 123.098 418.086 123.152 418.087 123.207C418.111 123.503 418.134 123.798 418.164 124.093ZM676.197 228.309C676.024 228.174 675.843 228.05 675.654 227.938L675.645 227.932L632.794 201.77L631.686 201.094L627.472 198.521L626.416 197.876L620.41 194.208L618.767 193.206L615.365 191.128L613.626 190.063L597.22 180.054L587.814 174.314L586.551 173.544L558.834 156.623C559.123 156.026 559.405 155.43 559.677 154.828C559.896 154.329 560.115 153.837 560.334 153.338C560.356 153.28 560.385 153.22 560.407 153.161C560.534 152.873 560.652 152.579 560.771 152.292C560.841 152.14 560.903 151.988 560.957 151.838C561.049 151.626 561.14 151.407 561.223 151.189C561.307 150.979 561.39 150.761 561.472 150.543C561.865 149.56 562.225 148.573 562.569 147.582L562.602 147.49L562.873 146.683C563.046 146.191 563.21 145.692 563.366 145.195C563.374 145.183 563.377 145.169 563.375 145.154C563.538 144.648 563.699 144.134 563.845 143.623C563.852 143.614 563.849 143.599 563.856 143.59C564.045 142.953 564.226 142.318 564.397 141.669C564.444 141.52 564.484 141.372 564.523 141.224C564.682 140.6 564.841 139.968 564.992 139.338C565.148 138.691 565.295 138.038 565.435 137.385C565.574 136.733 565.712 136.073 565.837 135.424C566.071 134.181 566.279 132.941 566.462 131.701C566.468 131.631 566.478 131.561 566.491 131.492C566.583 130.832 566.667 130.18 566.751 129.521C566.801 129.095 566.845 128.679 566.888 128.255C566.918 127.951 566.948 127.646 566.971 127.344C566.991 127.222 566.997 127.111 567.009 126.991C567.046 126.583 567.077 126.185 567.107 125.778C567.113 125.714 567.117 125.643 567.123 125.579C567.181 124.758 567.23 123.931 567.266 123.114C567.287 122.701 567.3 122.29 567.313 121.878C567.332 121.056 567.351 120.233 567.347 119.415C567.349 119.028 567.343 118.643 567.337 118.258C567.337 117.912 567.329 117.566 567.323 117.229C567.316 116.789 567.303 116.357 567.281 115.92C567.211 114.19 567.089 112.476 566.913 110.763C566.863 110.251 566.806 109.74 566.748 109.221C566.678 108.626 566.601 108.039 566.515 107.446C566.445 106.953 566.374 106.452 566.296 105.96C566.062 104.477 565.791 103.007 565.481 101.536C564.984 99.1799 564.39 96.8501 563.698 94.546C557.79 74.8505 545.045 57.9378 527.793 46.8995C510.541 35.8612 489.934 31.4344 469.739 34.4284C449.544 37.4223 431.109 47.6371 417.805 63.2054C404.502 78.7738 397.216 98.656 397.282 119.218C397.286 119.737 397.291 120.264 397.303 120.79C397.342 122.674 397.446 124.556 397.615 126.436C397.658 126.957 397.708 127.469 397.766 127.988C399.145 141.128 403.528 153.774 410.57 164.935C417.612 176.096 427.123 185.469 438.356 192.317C440.45 193.594 442.575 194.771 444.731 195.849C444.74 195.856 444.748 195.855 444.756 195.861C445.478 196.22 446.198 196.571 446.924 196.913C448.079 197.44 449.239 197.951 450.401 198.429C450.492 198.462 450.585 198.502 450.676 198.535C451.679 198.944 452.686 199.329 453.69 199.698L453.698 199.697C457.435 201.059 461.263 202.15 465.153 202.964C476.567 205.347 488.339 205.35 499.744 202.975L499.767 202.971C513.078 200.202 525.525 194.248 536.059 185.612C537.59 184.362 539.088 183.047 540.536 181.668C540.897 181.328 541.264 180.979 541.616 180.632C542.05 180.209 542.481 179.771 542.912 179.332C542.92 179.331 542.919 179.323 542.926 179.322C542.958 179.286 542.992 179.251 543.027 179.22C543.316 178.914 543.611 178.608 543.893 178.311C543.967 178.236 544.041 178.162 544.114 178.079C544.134 178.06 544.152 178.039 544.167 178.016C544.336 177.847 544.495 177.665 544.663 177.488C544.83 177.312 544.989 177.13 545.156 176.946C545.185 176.92 545.212 176.892 545.236 176.862C545.422 176.652 545.609 176.449 545.795 176.239C545.988 176.027 546.173 175.809 546.351 175.599C546.537 175.389 546.715 175.18 546.899 174.962C547.058 174.779 547.224 174.587 547.38 174.389C547.434 174.334 547.479 174.271 547.531 174.208C547.551 174.182 547.574 174.157 547.598 174.134C547.816 173.88 548.025 173.618 548.234 173.357C548.286 173.293 548.331 173.231 548.384 173.168C548.704 172.77 549.025 172.373 549.336 171.962C549.407 171.872 549.486 171.773 549.557 171.683C549.629 171.593 549.693 171.504 549.765 171.414C549.855 171.289 549.954 171.171 550.043 171.047C550.277 170.742 550.502 170.431 550.734 170.119L551.755 170.745L552.127 170.97L552.135 170.969L552.249 171.046L552.655 171.289L558.696 174.984L558.826 175.066L558.928 175.12L559.612 175.54L560.981 176.38L562.347 177.212L562.546 177.331L568.906 181.212L569.788 181.75L575.923 185.493L607.681 204.881L608.789 205.557L652.254 232.086L663.399 238.891L667.544 241.42C668.424 241.958 669.4 242.318 670.418 242.477C671.435 242.635 672.473 242.591 673.472 242.346C674.471 242.1 675.412 241.659 676.241 241.047C677.07 240.434 677.77 239.663 678.302 238.777C678.749 238.042 679.068 237.235 679.247 236.391C679.579 234.893 679.467 233.329 678.925 231.893C678.383 230.456 677.434 229.21 676.197 228.309ZM427.067 84.9952C433.281 74.6501 442.279 66.2927 453.02 60.8886C463.762 55.4844 475.809 53.254 487.771 54.455C499.733 55.656 511.121 60.2394 520.62 67.6757C530.118 75.112 537.34 85.0978 541.45 96.4795C541.63 96.9788 541.802 97.4717 541.967 97.9734C542.57 99.7611 543.092 101.585 543.523 103.423C543.642 103.932 543.76 104.434 543.864 104.945C544.115 106.087 544.328 107.243 544.51 108.396C545.618 115.389 545.563 122.516 544.349 129.486L544.35 129.493C542.997 137.307 540.207 144.794 536.125 151.571C536.038 151.711 535.952 151.859 535.857 152C535.038 153.358 534.16 154.678 533.242 155.949C533.236 155.958 533.23 155.975 533.224 155.983C532.909 156.419 532.588 156.863 532.263 157.277C531.604 158.161 530.925 159.008 530.225 159.828C529.18 161.088 528.095 162.286 526.968 163.422C526.59 163.804 526.212 164.179 525.825 164.555C525.446 164.93 525.057 165.291 524.668 165.651C523.891 166.373 523.094 167.073 522.285 167.745C521.885 168.083 521.468 168.417 521.058 168.742C520.649 169.074 520.23 169.392 519.81 169.703C519.391 170.021 518.971 170.331 518.542 170.635C517.692 171.25 516.83 171.834 515.948 172.391C515.509 172.681 515.068 172.955 514.624 173.215C514.346 173.384 514.075 173.553 513.794 173.708C513.687 173.78 513.574 173.845 513.458 173.903C513.308 173.997 513.158 174.084 513.006 174.163C512.958 174.195 512.907 174.224 512.856 174.25C512.548 174.432 512.246 174.598 511.928 174.766C511.475 175.019 511.02 175.256 510.556 175.487C510.093 175.725 509.637 175.955 509.17 176.17C508.706 176.401 508.232 176.617 507.764 176.825C507.29 177.042 506.822 177.249 506.344 177.443C505.84 177.664 505.333 177.87 504.817 178.07C504.368 178.251 503.925 178.415 503.473 178.573C503.052 178.734 502.622 178.881 502.199 179.026C501.606 179.23 501.011 179.426 500.406 179.608C500.079 179.715 499.758 179.813 499.427 179.897C499.286 179.943 499.151 179.98 499.016 180.017C498.599 180.146 498.179 180.259 497.765 180.364C497.652 180.389 497.547 180.422 497.442 180.446C496.984 180.566 496.517 180.679 496.057 180.791C495.069 181.017 494.084 181.22 493.088 181.401C492.585 181.488 492.075 181.576 491.572 181.656C491.068 181.735 490.563 181.807 490.057 181.871C490.057 181.871 490.059 181.878 490.05 181.872C490.043 181.881 490.043 181.881 490.034 181.874L490.031 181.877L490.027 181.879L490.023 181.879L490.019 181.877C489.996 181.888 489.969 181.893 489.943 181.889C489.584 181.945 489.223 181.987 488.869 182.019C488.608 182.052 488.34 182.087 488.069 182.106C487.708 182.147 487.346 182.18 486.982 182.206C486.868 182.224 486.751 182.227 486.635 182.237C486.581 182.244 486.527 182.248 486.473 182.247C486.102 182.274 485.723 182.302 485.35 182.322C485.165 182.335 484.972 182.35 484.785 182.356C484.218 182.382 483.65 182.401 483.089 182.411C482.451 182.432 481.811 182.439 481.174 182.421C480.878 182.428 480.588 182.419 480.297 182.41C479.913 182.407 479.529 182.397 479.143 182.379C478.741 182.364 478.34 182.348 477.936 182.317C477.612 182.297 477.281 182.279 476.956 182.251C476.799 182.245 476.64 182.23 476.489 182.215C475.657 182.149 474.831 182.067 474.009 181.96C473.491 181.9 472.972 181.832 472.459 181.755C471.755 181.654 471.056 181.536 470.355 181.402C470.082 181.358 469.816 181.306 469.54 181.247C469.268 181.203 469 181.143 468.725 181.084C468.475 181.037 468.224 180.982 467.98 180.926C467.576 180.84 467.178 180.745 466.78 180.65C465.959 180.457 465.152 180.245 464.341 180.011C463.881 179.871 463.422 179.738 462.969 179.597C461.186 179.051 459.415 178.411 457.654 177.678C457.22 177.503 456.783 177.312 456.346 177.12C455.802 176.891 455.27 176.644 454.739 176.397C454.442 176.255 454.155 176.119 453.866 175.975C453.332 175.713 452.805 175.442 452.285 175.169C452.013 175.031 451.739 174.885 451.474 174.738C450.525 174.226 449.587 173.681 448.661 173.118C448.22 172.848 447.777 172.572 447.341 172.286C447.159 172.173 446.976 172.052 446.792 171.931C446.583 171.791 446.374 171.659 446.171 171.509L446.153 171.496C445.849 171.3 445.541 171.089 445.242 170.876C444.777 170.556 444.318 170.226 443.874 169.887C443.415 169.557 442.969 169.21 442.533 168.869C442.088 168.53 441.658 168.18 441.233 167.822C440.803 167.472 440.379 167.114 439.961 166.746C439.555 166.401 439.154 166.039 438.769 165.682C437.838 164.836 436.939 163.967 436.074 163.074C435.673 162.665 435.288 162.253 434.908 161.832C434.505 161.407 434.116 160.972 433.742 160.535C433.353 160.1 432.977 159.655 432.609 159.201C432.599 159.185 432.586 159.171 432.571 159.16C431.845 158.274 431.14 157.377 430.471 156.458C429.785 155.527 429.127 154.58 428.498 153.618C428.181 153.141 427.869 152.654 427.573 152.165C426.965 151.182 426.387 150.194 425.837 149.186C425.565 148.701 425.308 148.214 425.05 147.719C425.039 147.685 425.023 147.653 425.004 147.624C424.485 146.618 423.996 145.6 423.544 144.569C423.534 144.555 423.532 144.539 423.522 144.525C423.293 144.018 423.072 143.509 422.865 142.99C422.669 142.541 422.489 142.088 422.314 141.628C422.116 141.115 421.918 140.603 421.734 140.081C421.637 139.812 421.54 139.544 421.45 139.275C421.368 139.051 421.292 138.819 421.218 138.594C421.143 138.37 421.068 138.138 420.992 137.905C420.842 137.448 420.699 136.991 420.564 136.531C420.4 135.99 420.252 135.446 420.103 134.895C419.928 134.237 419.762 133.578 419.602 132.91C419.492 132.462 419.396 132.005 419.301 131.547C419.211 131.128 419.122 130.709 419.048 130.287C419.036 130.266 419.033 130.242 419.037 130.218L419.034 130.215L419.032 130.211L419.032 130.207L419.034 130.203C419.025 130.196 419.025 130.196 419.032 130.187L419.029 130.184L419.027 130.18L419.027 130.176L419.029 130.172C418.995 130.004 418.961 129.836 418.934 129.667C418.84 129.17 418.754 128.672 418.675 128.172C418.603 127.718 418.541 127.271 418.477 126.817C418.393 126.184 418.316 125.55 418.247 124.915C418.225 124.777 418.22 124.644 418.206 124.504C418.191 124.365 418.179 124.233 418.164 124.093C418.134 123.798 418.11 123.503 418.095 123.206C418.085 123.152 418.079 123.098 418.077 123.043C418.048 122.709 418.026 122.374 418.004 122.039C417.961 121.368 417.932 120.687 417.912 120.013C417.905 119.675 417.892 119.339 417.893 119C417.887 118.764 417.887 118.52 417.888 118.276C417.881 118.033 417.882 117.788 417.89 117.543C417.893 117.219 417.896 116.888 417.906 116.556C417.906 116.359 417.914 116.16 417.922 115.962C417.946 115.171 417.985 114.377 418.039 113.581C418.092 112.777 418.169 111.977 418.262 111.175C418.345 110.366 418.452 109.553 418.574 108.738C418.626 108.328 418.688 107.925 418.764 107.519C418.894 106.703 419.04 105.892 419.217 105.084C419.295 104.686 419.379 104.279 419.48 103.877C419.666 103.068 419.866 102.256 420.076 101.459C420.185 101.056 420.293 100.653 420.417 100.247C420.643 99.4476 420.884 98.6455 421.158 97.8539C421.414 97.0494 421.703 96.2554 422.002 95.4679C422.3 94.6804 422.613 93.8905 422.95 93.1047C423.101 92.7186 423.272 92.3213 423.454 91.9381C423.801 91.1587 424.17 90.3758 424.549 89.607C425.313 88.0526 426.157 86.5095 427.067 84.9952ZM418.087 123.207C418.111 123.503 418.134 123.798 418.164 124.093C418.134 123.798 418.11 123.503 418.095 123.206C418.085 123.152 418.079 123.098 418.077 123.043C418.078 123.098 418.086 123.152 418.087 123.207ZM417.915 115.963C417.914 116.16 417.906 116.359 417.906 116.556C417.906 116.359 417.914 116.16 417.922 115.962L417.915 115.963ZM446.153 171.496L446.154 171.504C446.156 171.512 446.163 171.511 446.171 171.509L446.153 171.496Z" fill="#5FBEFB"/>
<path d="M271.703 398.583C271.703 399.147 271.803 399.601 271.928 399.601H438.724C438.849 399.601 438.948 399.147 438.948 398.583C438.948 398.018 438.849 397.565 438.724 397.565H271.928C271.803 397.565 271.703 398.018 271.703 398.583Z" fill="url(#paint13_linear_59_72)"/>
<path d="M438.055 344.345V397.683H272.421V351.165L277.917 339.978H435.789L438.055 344.345Z" fill="#2F5D7A"/>
<path d="M447.982 363.466L438.055 356.35L420.471 343.747L394.378 364.046L272.421 364.742L265.73 364.779L272.421 351.165L277.917 339.978L284.617 313.59L428.412 313.01L435.789 339.978L438.055 344.345L447.982 363.466Z" fill="url(#paint14_linear_59_72)"/>
<path d="M375.659 356.34H309.859V327.922L342.759 315.62L375.659 327.922V356.34Z" fill="#2F5D7A"/>
<path d="M306.597 368.54H277.668V397.683H306.597V368.54Z" fill="white"/>
<path d="M370.128 368.54H317.658V397.683H370.128V368.54Z" fill="white"/>
<path d="M388.847 370.86H380.055V397.683H388.847V370.86Z" fill="white"/>
<path d="M427.008 364.778H409.119V383.278H427.008V364.778Z" fill="#F3F7FA"/>
<path d="M418.577 364.778H417.344V383.278H418.577V364.778Z" fill="#2F5D7A"/>
<path d="M370 332.881H352.111V351.381H370V332.881Z" fill="#F3F7FA"/>
<path d="M361.57 332.881H360.336V351.381H361.57V332.881Z" fill="#2F5D7A"/>
<path d="M337.1 332.881H319.211V351.381H337.1V332.881Z" fill="#F3F7FA"/>
<path d="M328.67 332.881H327.436V351.381H328.67V332.881Z" fill="#2F5D7A"/>
<path d="M422.041 349.772H413.673V358.327H422.041V349.772Z" fill="#478EBA"/>
<path d="M359.6 301.891H350.291V315.374H359.6V301.891Z" fill="#478EBA"/>
<path d="M279.215 398.845C279.25 399.147 279.26 399.428 279.24 399.704H264.337C264.202 399.428 264.086 399.142 263.986 398.845C262.164 393.509 265.16 384.628 261.361 371.46C258.54 361.689 253.274 354.046 250.82 350.485C247.803 346.106 244.385 342.065 240.424 335.608C239.566 334.212 238.683 332.697 237.769 331.045C237.463 330.493 233.934 324.082 234.255 323.883C234.406 323.791 235.34 325.085 235.656 325.52C238.447 329.367 240.068 331.05 242.392 333.818C243.802 335.496 245.469 337.568 247.808 340.765C253.806 348.956 256.803 353.048 257.847 356.113C258.123 356.931 259.594 361.361 262.365 366.856C263.78 369.659 264.488 371.061 264.874 370.948C265.969 370.626 264.493 359.018 259.855 347.416C259.062 345.441 258.469 344.177 257.345 341.788C255.518 337.89 245.343 316.224 237.864 303.256C236.926 301.624 236.027 300.135 235.199 298.831C235.038 298.585 234.883 298.345 234.732 298.114C233.688 296.529 232.765 295.275 231.997 294.467C231.59 294.037 230.556 292.82 228.483 290.374C227.66 289.402 227.057 288.681 226.651 288.154C226.591 288.077 226.535 288 226.49 287.934C225.998 287.279 225.858 286.962 225.973 286.793C226.139 286.553 226.776 286.691 227.474 286.942C227.549 286.967 227.63 286.998 227.705 287.028C228.463 287.315 229.231 287.688 229.487 287.816C231.836 288.967 234.13 291.029 236.253 293.48C237.041 294.385 237.799 295.342 238.532 296.324C240.891 299.496 242.949 302.949 244.505 305.788C246.413 309.287 247.557 311.861 247.557 311.861C252.883 323.847 258.791 337.557 259.102 337.44C259.443 337.312 252.893 320.246 250.985 310.976C250.348 307.87 250.232 305.64 251.071 305.21C251.101 305.195 251.131 305.179 251.166 305.169C251.297 305.123 251.417 305.128 251.482 305.133C251.482 305.133 252.26 305.031 253.078 305.21C254.097 305.435 255.257 308.326 256.386 312.382C259.323 322.839 262.114 341.021 262.114 341.021C264.904 359.208 269.141 373.926 270.145 373.762C270.702 373.67 269.904 369.102 270.647 361.484C271.169 356.143 271.761 356.307 273.658 346.648C276.67 331.326 278.176 323.668 278.176 323.627C278.161 323.305 278.121 322.655 278.216 321.98C278.316 321.248 278.572 320.481 279.18 320.046C280.103 319.381 281.589 319.667 282.192 320.046C282.673 320.353 282.919 320.916 282.975 321.724C283.306 326.809 276.138 341.553 273.658 361.484C272.424 371.414 271.746 376.832 273.658 383.994C275.551 391.095 278.849 395.617 279.215 398.845Z" fill="#818EA1"/>
<path d="M303.08 272.6C298.963 271.837 293.848 274.646 293.543 277.716C293.293 280.243 296.34 282.551 296.053 282.832C295.785 283.095 293.896 280.322 291.536 280.274C287.969 280.202 283.688 286.359 285.01 289.994C286.072 292.912 290.622 293.867 290.532 294.087C290.447 294.294 286.98 292.03 283.504 292.552C278.528 293.3 273.762 299.727 274.971 303.807C276.322 308.366 285.068 309.778 285.01 309.946C284.949 310.124 276.208 305.562 272.964 308.411C270.788 310.322 271.1 314.775 272.462 317.619C275.304 323.556 284.172 325.659 288.524 322.735C291.908 320.462 289.626 317.121 293.041 309.946C297.236 301.135 304.531 298.078 304.586 291.529C304.591 290.933 304.608 289.016 303.582 288.459C301.945 287.571 298.786 290.769 298.563 290.506C298.322 290.221 302.552 287.107 305.088 281.809C305.886 280.142 307.701 276.351 306.092 274.135C305.273 273.007 303.904 272.753 303.08 272.6Z" fill="#AEDBD8"/>
<path d="M279.991 262.88C275.873 262.117 270.758 264.926 270.454 267.996C270.203 270.523 273.251 272.831 272.964 273.112C272.695 273.375 270.807 270.602 268.446 270.554C264.879 270.482 260.598 276.639 261.921 280.274C262.983 283.192 267.532 284.147 267.442 284.367C267.357 284.574 263.891 282.31 260.415 282.832C255.438 283.58 250.673 290.007 251.882 294.087C253.233 298.646 261.979 300.057 261.921 300.226C261.859 300.403 253.118 295.842 249.874 298.691C247.698 300.602 248.01 305.055 249.372 307.899C252.215 313.836 261.082 315.939 265.434 313.015C268.818 310.742 266.536 307.401 269.952 300.226C274.146 291.414 281.441 288.358 281.497 281.809C281.502 281.213 281.518 279.296 280.493 278.739C278.856 277.851 275.696 281.049 275.473 280.786C275.232 280.501 279.462 277.387 281.999 272.089C282.797 270.422 284.612 266.631 283.003 264.415C282.183 263.287 280.815 263.033 279.991 262.88Z" fill="#AEDBD8"/>
<path d="M252.031 251.521C255.934 253.061 258.857 258.179 257.544 260.959C256.463 263.248 252.682 263.594 252.782 263.987C252.877 264.354 255.908 262.994 257.946 264.209C261.025 266.046 261.522 273.576 258.531 275.972C256.13 277.895 251.761 276.288 251.725 276.524C251.691 276.746 255.808 276.659 258.505 278.955C262.366 282.241 263.138 290.258 260.016 293.095C256.528 296.264 248.346 292.813 248.309 292.988C248.27 293.172 258.062 293.934 259.369 298.09C260.246 300.877 257.698 304.51 255.08 306.21C249.614 309.76 240.973 306.835 238.76 302.025C237.039 298.285 240.697 296.65 241.46 288.713C242.397 278.967 237.741 272.477 241.049 266.863C241.35 266.352 242.319 264.708 243.478 264.779C245.33 264.893 246.386 269.301 246.711 269.196C247.062 269.081 245.05 264.174 245.601 258.306C245.774 256.46 246.169 252.261 248.676 251.227C249.953 250.701 251.25 251.213 252.031 251.521Z" fill="#AEDBD8"/>
<path d="M207.706 254.304C205.245 257.754 205.51 263.669 208.092 265.281C210.218 266.607 213.58 264.809 213.704 265.194C213.82 265.555 210.549 266.087 209.483 268.234C207.872 271.478 211.459 278.08 215.247 278.442C218.287 278.732 221.104 274.968 221.26 275.146C221.406 275.314 217.901 277.516 216.855 280.934C215.358 285.829 218.973 292.992 223.105 293.652C227.721 294.388 232.763 286.968 232.886 287.095C233.017 287.228 225.193 293.278 226.305 297.492C227.05 300.319 231.123 301.964 234.228 301.947C240.709 301.911 246.415 294.679 245.717 289.414C245.175 285.321 241.231 285.968 236.369 279.719C230.398 272.046 230.859 264.021 225.093 261.13C224.569 260.867 222.881 260.02 221.944 260.72C220.449 261.839 221.906 266.127 221.577 266.218C221.221 266.315 220.302 261.081 216.718 256.453C215.59 254.998 213.026 251.687 210.369 252.203C209.016 252.466 208.198 253.613 207.706 254.304L207.706 254.304Z" fill="#AEDBD8"/>
<path d="M211.219 292.161C208.758 295.611 209.024 301.527 211.606 303.138C213.732 304.464 217.093 302.666 217.217 303.052C217.333 303.412 214.063 303.944 212.997 306.091C211.386 309.335 214.973 315.937 218.76 316.299C221.801 316.589 224.618 312.825 224.773 313.003C224.92 313.171 221.414 315.373 220.369 318.791C218.872 323.686 222.487 330.85 226.619 331.509C231.235 332.245 236.276 324.825 236.4 324.952C236.53 325.085 228.707 331.135 229.818 335.349C230.564 338.176 234.637 339.821 237.742 339.804C244.223 339.768 249.929 332.536 249.231 327.271C248.688 323.178 244.745 323.825 239.883 317.576C233.912 309.903 234.373 301.878 228.607 298.987C228.083 298.724 226.395 297.877 225.458 298.578C223.962 299.696 225.419 303.984 225.09 304.075C224.734 304.172 223.815 298.938 220.231 294.31C219.104 292.855 216.539 289.544 213.882 290.06C212.53 290.324 211.712 291.47 211.219 292.161H211.219Z" fill="#AEDBD8"/>
<path d="M472.873 398.724C472.837 399.031 472.827 399.317 472.847 399.598H488.006C488.144 399.317 488.262 399.025 488.364 398.724C490.217 393.296 487.169 384.262 491.034 370.868C493.903 360.928 499.259 353.154 501.756 349.532C504.825 345.078 508.302 340.967 512.33 334.399C513.203 332.979 514.102 331.438 515.031 329.758C515.343 329.196 518.932 322.675 518.605 322.472C518.452 322.379 517.503 323.695 517.181 324.137C514.342 328.051 512.693 329.763 510.329 332.578C508.894 334.285 507.199 336.392 504.82 339.645C498.718 347.976 495.67 352.139 494.608 355.256C494.327 356.089 492.831 360.595 490.013 366.184C488.573 369.036 487.853 370.462 487.46 370.347C486.347 370.019 487.848 358.212 492.566 346.41C493.372 344.401 493.975 343.116 495.119 340.686C496.977 336.72 507.327 314.682 514.934 301.49C515.889 299.83 516.803 298.316 517.646 296.989C517.809 296.739 517.967 296.495 518.12 296.261C519.182 294.647 520.122 293.372 520.903 292.55C521.317 292.113 522.368 290.875 524.477 288.387C525.315 287.399 525.927 286.665 526.341 286.129C526.402 286.051 526.458 285.973 526.504 285.905C527.005 285.239 527.147 284.916 527.03 284.745C526.862 284.5 526.213 284.64 525.503 284.895C525.427 284.921 525.345 284.953 525.269 284.984C524.498 285.275 523.716 285.655 523.456 285.785C521.066 286.956 518.733 289.053 516.573 291.546C515.772 292.467 515.001 293.44 514.255 294.439C511.856 297.666 509.762 301.178 508.179 304.066C506.239 307.626 505.075 310.243 505.075 310.243C499.658 322.436 493.648 336.382 493.332 336.262C492.984 336.132 499.647 318.772 501.588 309.343C502.236 306.184 502.354 303.915 501.501 303.478C501.47 303.463 501.44 303.447 501.404 303.437C501.271 303.39 501.149 303.395 501.082 303.4C501.082 303.4 500.291 303.296 499.459 303.478C498.422 303.707 497.243 306.647 496.094 310.774C493.107 321.411 490.268 339.905 490.268 339.905C487.429 358.405 483.12 373.376 482.099 373.209C481.532 373.116 482.344 368.469 481.588 360.72C481.057 355.287 480.455 355.454 478.525 345.629C475.461 330.044 473.929 322.254 473.929 322.212C473.945 321.884 473.986 321.223 473.889 320.536C473.786 319.792 473.526 319.012 472.908 318.569C471.969 317.893 470.457 318.184 469.845 318.569C469.355 318.882 469.104 319.454 469.048 320.276C468.711 325.449 476.002 340.446 478.525 360.72C479.781 370.821 480.47 376.332 478.525 383.617C476.6 390.84 473.245 395.44 472.873 398.724Z" fill="#818EA1"/>
<path d="M451.719 272.972C455.908 272.195 461.11 275.053 461.42 278.176C461.675 280.746 458.575 283.093 458.867 283.379C459.14 283.647 461.061 280.826 463.462 280.777C467.091 280.704 471.445 286.967 470.1 290.665C469.02 293.633 464.392 294.604 464.484 294.828C464.57 295.039 468.096 292.735 471.632 293.267C476.694 294.027 481.542 300.565 480.312 304.715C478.937 309.353 470.041 310.789 470.1 310.96C470.162 311.14 479.054 306.501 482.354 309.398C484.567 311.342 484.25 315.872 482.865 318.765C479.973 324.804 470.953 326.943 466.526 323.969C463.084 321.656 465.405 318.258 461.931 310.96C457.664 301.997 450.243 298.887 450.187 292.226C450.182 291.62 450.166 289.67 451.208 289.104C452.874 288.2 456.088 291.453 456.314 291.185C456.559 290.896 452.257 287.728 449.677 282.339C448.865 280.643 447.019 276.787 448.655 274.533C449.489 273.385 450.881 273.127 451.719 272.972Z" fill="#AEDBD8"/>
<path d="M474.964 262.754C479.153 261.977 484.355 264.835 484.665 267.958C484.92 270.528 481.82 272.876 482.112 273.162C482.385 273.429 484.306 270.608 486.707 270.56C490.336 270.486 494.69 276.749 493.345 280.447C492.265 283.415 487.637 284.386 487.729 284.61C487.815 284.821 491.341 282.517 494.877 283.049C499.939 283.81 504.786 290.347 503.557 294.497C502.182 299.135 493.286 300.571 493.345 300.742C493.407 300.923 502.299 296.283 505.599 299.181C507.812 301.124 507.495 305.654 506.11 308.547C503.218 314.586 494.198 316.726 489.771 313.751C486.329 311.439 488.65 308.04 485.176 300.742C480.909 291.779 473.488 288.67 473.432 282.008C473.427 281.402 473.411 279.452 474.453 278.886C476.119 277.982 479.333 281.235 479.559 280.967C479.804 280.678 475.502 277.51 472.922 272.121C472.11 270.426 470.264 266.569 471.9 264.315C472.734 263.167 474.126 262.909 474.964 262.754Z" fill="#AEDBD8"/>
<path d="M503.646 251.53C499.676 253.097 496.703 258.302 498.039 261.131C499.138 263.459 502.985 263.811 502.882 264.21C502.786 264.583 499.703 263.2 497.63 264.437C494.498 266.305 493.993 273.964 497.035 276.401C499.476 278.358 503.921 276.723 503.957 276.963C503.992 277.189 499.804 277.101 497.061 279.436C493.134 282.778 492.349 290.933 495.524 293.819C499.072 297.042 507.395 293.532 507.432 293.71C507.472 293.897 497.512 294.672 496.182 298.9C495.29 301.735 497.882 305.43 500.545 307.16C506.105 310.771 514.894 307.795 517.146 302.903C518.896 299.099 515.176 297.436 514.399 289.362C513.446 279.448 518.182 272.847 514.817 267.136C514.511 266.616 513.526 264.944 512.346 265.016C510.463 265.131 509.389 269.616 509.058 269.509C508.701 269.392 510.747 264.401 510.187 258.431C510.011 256.554 509.609 252.282 507.059 251.231C505.76 250.696 504.44 251.216 503.646 251.53L503.646 251.53Z" fill="#AEDBD8"/>
<path d="M548.755 254.053C551.258 257.563 550.988 263.58 548.361 265.219C546.199 266.568 542.779 264.739 542.653 265.132C542.535 265.498 545.862 266.039 546.947 268.223C548.585 271.524 544.936 278.239 541.084 278.607C537.991 278.902 535.126 275.073 534.968 275.254C534.818 275.425 538.384 277.665 539.448 281.142C540.971 286.121 537.293 293.408 533.091 294.078C528.395 294.827 523.267 287.28 523.141 287.408C523.008 287.544 530.966 293.698 529.836 297.985C529.077 300.86 524.934 302.534 521.776 302.516C515.183 302.479 509.38 295.123 510.089 289.768C510.641 285.604 514.652 286.262 519.598 279.906C525.672 272.101 525.203 263.938 531.068 260.997C531.601 260.73 533.318 259.869 534.271 260.581C535.793 261.718 534.31 266.08 534.645 266.172C535.007 266.272 535.942 260.947 539.588 256.24C540.734 254.76 543.343 251.391 546.046 251.917C547.422 252.185 548.254 253.351 548.755 254.053L548.755 254.053Z" fill="#AEDBD8"/>
<path d="M545.181 292.562C547.684 296.072 547.414 302.089 544.787 303.728C542.625 305.077 539.205 303.248 539.079 303.64C538.961 304.007 542.288 304.547 543.373 306.732C545.011 310.032 541.363 316.747 537.51 317.115C534.417 317.411 531.552 313.581 531.394 313.763C531.244 313.934 534.81 316.173 535.874 319.65C537.397 324.629 533.719 331.916 529.517 332.586C524.821 333.336 519.693 325.788 519.567 325.917C519.434 326.052 527.392 332.206 526.262 336.493C525.503 339.369 521.36 341.042 518.202 341.024C511.609 340.988 505.806 333.632 506.515 328.276C507.067 324.112 511.078 324.77 516.024 318.414C522.098 310.609 521.629 302.446 527.494 299.505C528.027 299.238 529.744 298.377 530.697 299.089C532.219 300.226 530.736 304.589 531.071 304.681C531.433 304.78 532.368 299.455 536.014 294.748C537.16 293.268 539.769 289.9 542.472 290.425C543.848 290.693 544.68 291.859 545.181 292.562H545.181Z" fill="#AEDBD8"/>
</g>
<defs>
<linearGradient id="paint0_linear_59_72" x1="98.0656" y1="282.11" x2="98.0656" y2="400" gradientUnits="userSpaceOnUse">
<stop stop-color="#5FBEFB"/>
<stop offset="1" stop-color="#55ABE0"/>
</linearGradient>
<linearGradient id="paint1_linear_59_72" x1="184.091" y1="332.173" x2="184.091" y2="400" gradientUnits="userSpaceOnUse">
<stop stop-color="#5FBEFB"/>
<stop offset="1" stop-color="#55ABE0"/>
</linearGradient>
<linearGradient id="paint2_linear_59_72" x1="167.517" y1="278.88" x2="167.517" y2="283.725" gradientUnits="userSpaceOnUse">
<stop stop-color="#5FBEFB"/>
<stop offset="1" stop-color="#55ABE0"/>
</linearGradient>
<linearGradient id="paint3_linear_59_72" x1="184.091" y1="324.098" x2="184.091" y2="332.173" gradientUnits="userSpaceOnUse">
<stop stop-color="#5FBEFB"/>
<stop offset="1" stop-color="#55ABE0"/>
</linearGradient>
<linearGradient id="paint4_linear_59_72" x1="218.816" y1="320.869" x2="218.816" y2="324.098" gradientUnits="userSpaceOnUse">
<stop stop-color="#5FBEFB"/>
<stop offset="1" stop-color="#55ABE0"/>
</linearGradient>
<linearGradient id="paint5_linear_59_72" x1="574.059" y1="262" x2="574.059" y2="344.133" gradientUnits="userSpaceOnUse">
<stop stop-color="#5FBEFB"/>
<stop offset="1" stop-color="#55ABE0"/>
</linearGradient>
<linearGradient id="paint6_linear_59_72" x1="605.915" y1="371.511" x2="605.915" y2="400.193" gradientUnits="userSpaceOnUse">
<stop stop-color="#5FBEFB"/>
<stop offset="1" stop-color="#55ABE0"/>
</linearGradient>
<linearGradient id="paint7_linear_59_72" x1="611.012" y1="323.274" x2="611.012" y2="371.511" gradientUnits="userSpaceOnUse">
<stop stop-color="#5FBEFB"/>
<stop offset="1" stop-color="#55ABE0"/>
</linearGradient>
<linearGradient id="paint8_linear_59_72" x1="604.003" y1="323.274" x2="604.003" y2="335.007" gradientUnits="userSpaceOnUse">
<stop stop-color="#5FBEFB"/>
<stop offset="1" stop-color="#55ABE0"/>
</linearGradient>
<linearGradient id="paint9_linear_59_72" x1="598.269" y1="335.007" x2="598.269" y2="363.689" gradientUnits="userSpaceOnUse">
<stop stop-color="#5FBEFB"/>
<stop offset="1" stop-color="#55ABE0"/>
</linearGradient>
<linearGradient id="paint10_linear_59_72" x1="598.269" y1="371.417" x2="598.269" y2="400.193" gradientUnits="userSpaceOnUse">
<stop stop-color="#5FBEFB"/>
<stop offset="1" stop-color="#55ABE0"/>
</linearGradient>
<linearGradient id="paint11_linear_59_72" x1="77.5" y1="185" x2="77.5" y2="223" gradientUnits="userSpaceOnUse">
<stop stop-color="#5FBEFB"/>
<stop offset="1" stop-color="#55ABE0"/>
</linearGradient>
<linearGradient id="paint12_linear_59_72" x1="774.5" y1="177" x2="774.5" y2="215" gradientUnits="userSpaceOnUse">
<stop stop-color="#5FBEFB"/>
<stop offset="1" stop-color="#55ABE0"/>
</linearGradient>
<linearGradient id="paint13_linear_59_72" x1="355.326" y1="397.565" x2="355.326" y2="399.601" gradientUnits="userSpaceOnUse">
<stop stop-color="#5FBEFB"/>
<stop offset="1" stop-color="#55ABE0"/>
</linearGradient>
<linearGradient id="paint14_linear_59_72" x1="356.856" y1="313.01" x2="356.856" y2="364.779" gradientUnits="userSpaceOnUse">
<stop stop-color="#5FBEFB"/>
<stop offset="1" stop-color="#55ABE0"/>
</linearGradient>
<clipPath id="clip0_59_72">
<rect width="845" height="400" fill="white"/>
</clipPath>
</defs>
</svg>
