<svg width="508" height="503" viewBox="0 0 508 503" fill="none" xmlns="http://www.w3.org/2000/svg">
<g filter="url(#filter0_d_101_444)">
<path fill-rule="evenodd" clip-rule="evenodd" d="M485.135 127.452C481.841 137.732 480.017 142.64 476.33 151.146C470.333 164.978 464.101 175.488 455.634 186.052C448.944 194.399 442.063 200.968 427.137 213.259C412.68 225.164 405.546 231.394 399.959 236.993C380.083 256.911 366.783 279.083 357.896 307.116C352.944 322.738 349.773 338.547 345.215 370.348C344.284 376.838 343.422 382.642 343.299 383.246C343.176 383.85 342.15 390.434 341.018 397.877C336.386 428.354 333.287 445.208 329.459 460.744C328.701 463.819 328.133 466.348 328.196 466.364C328.258 466.381 328.852 466.18 329.515 465.918L330.721 465.44L331.224 463.687C331.5 462.723 332.275 459.565 332.945 456.67C336.581 440.975 339.224 426.263 343.639 397.162C344.654 390.473 345.699 383.753 345.962 382.23C346.225 380.706 347.089 374.901 347.882 369.329C350.34 352.06 351.812 343.12 353.884 332.871C360.917 298.078 372.478 272.377 391.182 249.954C399.708 239.733 406.9 232.95 425.747 217.355C447.149 199.644 453.412 193.434 462.049 181.355C471.868 167.623 479.162 152.729 485.852 132.745C488.684 124.287 488.62 124.609 487.851 122.74L487.173 121.093L485.135 127.452ZM477.7 101.6L477.244 100.786L475.132 108.289C471.942 119.629 468.97 129.541 467.175 134.836C460.953 153.188 453.727 167.355 443.581 181.089C436.464 190.721 430.403 196.699 412.296 211.944C390.722 230.107 385.306 235.265 375.949 246.564C365.667 258.979 358.086 271.197 351.47 286.012C342.07 307.063 336.881 327.062 330.876 365.375C330.022 370.826 328.631 379.553 327.786 384.769C326.941 389.985 325.404 399.545 324.369 406.015C319.72 435.087 316.238 452.361 311.782 468.463C310.889 471.689 310.222 474.345 310.299 474.366C310.376 474.386 311.014 474.157 311.717 473.856L312.994 473.309L313.798 470.422C318.462 453.671 321.848 437.223 326.256 409.908C328.541 395.741 332.293 372.337 334.196 360.375C339.36 327.915 344.554 307.979 352.858 288.742C361.694 268.271 373.52 250.919 389.38 235.155C394.256 230.308 398.326 226.712 411.275 215.807C423.719 205.327 427.915 201.628 432.94 196.712C445.677 184.25 456.51 167.815 464.381 149.014C468.338 139.562 470.896 131.895 475.773 114.875C479.145 103.105 479.021 103.957 477.7 101.6ZM491.569 151.739C485.44 165.685 480.178 174.701 471.887 185.462C464.042 195.644 457.354 201.988 437.998 217.608C417.335 234.283 410.122 241.073 400.534 252.879C383.468 273.893 372.603 298.315 366.149 330.167C364.208 339.748 362.461 351.04 360.284 368.088C359.294 375.839 358.344 382.77 355.844 400.493C355.715 401.407 355.295 404.335 354.91 407C354.525 409.664 354.094 412.66 353.953 413.658C353.812 414.655 353.392 417.331 353.02 419.604C352.649 421.878 352.231 424.49 352.093 425.409C351.197 431.348 347.75 449.3 346.423 454.933L345.873 457.268L347.305 456.411L348.737 455.555L349.859 450.204C352.128 439.372 354.478 426.031 356.703 411.337C357.286 407.492 357.838 403.865 357.931 403.277C358.023 402.69 358.221 401.327 358.37 400.248C358.519 399.17 359.257 393.998 360.009 388.756C360.762 383.513 361.926 374.908 362.597 369.633C365.629 345.777 368.037 331.606 371.214 318.922C378.578 289.522 390.352 266.897 408.756 246.777C412.68 242.488 417.896 237.447 423.192 232.824C427.556 229.016 430.662 226.45 444.08 215.571C457.713 204.517 464.54 198.064 471.138 189.997C480.488 178.563 488.014 166.051 493.958 152.062L496.01 147.231L495.521 145.545L495.032 143.859L491.569 151.739ZM467.184 84.7446L466.379 83.6495L464.469 90.2564C463.419 93.8898 461.204 101.929 459.545 108.12C453.508 130.661 450.253 140.621 445.364 151.504C439.362 164.866 430.962 178.208 422.789 187.362C417.112 193.72 411.286 199.074 394.111 213.714C382.954 223.226 378.406 227.341 373.457 232.403C348.046 258.394 332.361 288.551 322.799 329.806C320.526 339.61 317.824 353.647 315.383 368.338C314.817 371.745 314.195 375.284 314.001 376.203C313.561 378.282 311.457 390.637 308.539 408.267C302.842 442.691 299.153 459.218 292.702 479.228L292.092 481.117L293.526 480.614L294.96 480.111L296.291 475.888C302.15 457.289 305.654 440.958 311.974 402.785C313.565 393.175 315.385 382.458 316.017 378.969C316.65 375.48 317.955 368.055 318.917 362.469C323.245 337.345 326.718 322.184 331.601 307.094C342.31 274.003 359.052 247.921 384.019 225.438C385.932 223.715 392.262 218.245 398.085 213.282C420.186 194.446 425.401 189.084 434.463 175.871C439.958 167.859 444.941 158.573 449.293 148.239C453.681 137.818 456.61 128.568 462.603 106.202C464.165 100.376 466.057 93.4738 466.808 90.8646C467.56 88.2554 468.133 86.0573 468.082 85.98C468.031 85.9028 467.627 85.3467 467.184 84.7446ZM499.839 166.976C499.712 167.157 498.793 168.707 497.796 170.422C491.786 180.76 483.801 191.195 475.917 199.014C470.399 204.488 465.049 209.06 451.304 220.049C430.817 236.428 424.145 242.565 415.048 253.398C396.406 275.596 385.437 300.933 379.406 335.723C377.943 344.165 376.505 355.004 374.857 370.003C372.085 395.253 368.319 421.9 364.911 440.391C364.317 443.615 363.899 446.272 363.982 446.294C364.066 446.317 364.671 445.959 365.328 445.5L366.522 444.664L367.601 438.731C370.503 422.779 374.551 394.706 376.317 378.29C377.359 368.6 379.318 352.217 379.744 349.64C379.924 348.545 380.19 346.768 380.335 345.692C381.724 335.336 384.846 320.241 387.506 311.023C391.444 297.373 396.721 284.929 403.249 273.899C410.669 261.36 420.767 249.135 432.206 238.84C437.343 234.217 441.847 230.473 452.77 221.746C471.992 206.388 478.576 200.32 486.422 190.733C491.027 185.107 495.284 179.058 498.979 172.891C500.725 169.977 500.73 169.963 500.484 168.511C500.175 166.693 500.123 166.569 499.839 166.976ZM455.846 70.0843C455.386 69.5827 454.956 69.3121 454.89 69.4829C454.396 70.7632 451.592 79.905 450.284 84.496C448.788 89.7512 447.755 93.7004 443.053 112.147C438.698 129.236 435.626 138.708 430.992 149.337C427.308 157.788 423.085 165.5 417.815 173.4C410.285 184.687 404.189 191.139 386.963 206.056C369.762 220.951 365.096 225.225 358.93 231.731C335.803 256.132 320.702 284.153 310.436 321.718C306.088 337.628 300.301 366.542 294.411 401.773C290.545 424.9 288.937 433.676 286.654 444.115C283.621 457.98 279.959 470.898 275.832 482.283C275.074 484.374 274.509 486.101 274.577 486.119C274.645 486.137 275.27 486.016 275.965 485.85L277.228 485.548L279.04 480.383C285.847 460.974 289.873 443.789 295.57 409.814C299.881 384.104 300.323 381.618 303.91 362.882C306.231 350.763 307.495 344.535 309.001 337.803C318.208 296.639 331.379 267.806 352.648 242.254C361.065 232.142 367.345 226.03 384.82 210.938C403.983 194.389 410.28 188.059 417.085 178.505C427.009 164.572 434.225 150.066 439.693 133.061C441.77 126.601 443.646 119.797 447.111 106.158C451.52 88.8066 453.26 82.4699 455.73 74.7836C456.346 72.8666 456.812 71.2304 456.766 71.1473C456.72 71.0643 456.306 70.5858 455.846 70.0843ZM499.548 190.597C491.8 200.066 484.272 206.959 465.892 221.413C454.355 230.486 451.46 232.822 446.678 236.923C428.447 252.556 415.279 270.031 406.416 290.354C404.555 294.622 402.558 299.692 401.678 302.384C397.918 313.884 395.624 323.415 393.509 336.329C391.991 345.594 390.771 355.768 388.927 374.544C387.193 392.204 386.428 398.997 384.84 410.826C383.919 417.69 381.764 432.045 381.431 433.537C381.251 434.342 381.255 434.346 381.815 433.88C382.127 433.62 382.769 433.116 383.242 432.758C384.077 432.128 384.13 431.939 384.991 426.422C387.51 410.294 388.263 403.906 392.849 359.745C394.261 346.142 396.002 334.466 398.094 324.552C404.938 292.119 418.081 267.476 439.886 246.192C446.307 239.925 451.253 235.76 466.634 223.675C486.005 208.453 493.159 201.938 501.086 192.298C502.774 190.245 502.827 190.136 502.779 188.81C502.752 188.057 502.692 187.322 502.646 187.177C502.6 187.032 501.206 188.571 499.548 190.597ZM444.204 57.6843L443.349 56.8117L442.652 58.521C439.039 67.3833 435.189 80.9079 429.594 104.397C424.388 126.249 421.764 134.93 416.887 146.43C413.189 155.15 410.371 160.613 405.586 168.343C397.261 181.791 391.825 187.649 369.363 207.378C351.931 222.688 346.036 228.531 337.139 239.315C324.469 254.672 314.896 270.597 306.83 289.735C299.046 308.202 293.571 327.29 287.757 356.234C286.772 361.142 285.603 366.797 285.16 368.802C283.982 374.136 281.545 387.515 278.758 403.94C274.276 430.363 272.128 441.203 268.881 453.795C265.818 465.671 262.636 475.513 258.701 485.283L256.744 490.143L258.082 489.918L259.419 489.692L261.057 485.765C265.406 475.336 269.561 461.895 273.061 446.935C275.796 435.246 277.37 426.988 281.543 402.439C284.193 386.853 286.607 373.671 287.859 367.96C288.29 365.991 289.471 360.266 290.483 355.238C297.73 319.237 305.658 294.949 317.324 273.007C323.466 261.456 330.317 251.231 338.951 240.729C347.812 229.951 353.644 224.175 371.18 208.805C393.165 189.535 399.066 183.156 407.671 169.355C416.788 154.734 422.905 140.188 428.007 120.997C428.804 117.999 430.488 111.221 431.749 105.935C436.728 85.0612 439.469 74.9544 442.734 65.4262C443.698 62.6119 444.616 59.915 444.773 59.4328C445.05 58.587 445.03 58.5262 444.204 57.6843ZM502.823 204.384C499.957 207.353 491.441 214.364 477.672 225.091C459.732 239.066 454.008 243.987 446.546 251.846C437.843 261.013 430.453 271.231 424.46 282.383C422.06 286.849 417.457 297.5 415.719 302.607C412.835 311.081 410.677 319.535 408.819 329.639C406.628 341.547 405.312 353.008 403.332 377.406C402.295 390.185 400.629 406.121 399.283 416.132C399.007 418.183 398.834 419.875 398.898 419.892C398.963 419.91 399.576 419.424 400.261 418.813L401.506 417.702L402.526 409.292C404.02 396.976 404.73 389.89 405.827 376.34C408.537 342.863 410.947 326.842 415.78 310.174C422.855 285.771 435.107 265.634 453.73 247.797C458.775 242.966 465.249 237.598 477.861 227.791C484.204 222.859 491.019 217.499 493.005 215.881C497.084 212.557 502.475 207.89 502.976 207.248C503.159 207.013 503.291 206.241 503.27 205.531C503.223 203.954 503.227 203.965 502.823 204.384ZM432.149 46.8808C431.74 46.5257 431.321 46.2803 431.218 46.3357C431.016 46.4447 428.556 52.5938 426.805 57.3698C423.113 67.4345 419.435 80.8127 415.723 97.6833C410.481 121.507 407.978 130.609 403.461 142.263C398.403 155.316 389.788 170.424 382.206 179.54C376.553 186.337 371.975 190.805 355.726 205.383C349.756 210.74 343.333 216.6 341.455 218.405C330.364 229.063 319.618 241.923 311.388 254.383C296.426 277.037 285.67 302.931 277.292 336.47C275.581 343.32 274.433 348.413 271.315 363.004C267.991 378.557 267.509 381.142 262.2 411.89C258.211 434.994 254.702 450.619 250.398 464.439C247.426 473.986 243.591 483.957 240.636 489.821C239.893 491.296 239.3 492.565 239.319 492.639C239.337 492.714 239.954 492.725 240.688 492.664L242.025 492.553L244.689 486.584C250.044 474.59 254.306 461.441 258.148 445.064C260.831 433.624 262.231 426.372 266.187 403.425C270.031 381.125 270.965 376.266 275.046 357.331C282.241 323.949 289.082 302.006 298.441 282.291C306.576 265.157 315.087 251.71 326.684 237.669C335.047 227.543 340.58 222.012 357.866 206.498C374.016 192.002 379.296 186.8 384.938 179.826C389.845 173.759 395.687 164.381 400.311 155.145C407.312 141.16 411.319 128.777 416.811 104.156C418.17 98.0627 419.697 91.2909 420.205 89.1075C423.671 74.2011 427.56 61.4199 431.742 51.1927C432.479 49.3885 433.04 47.8253 432.988 47.7195C432.936 47.6134 432.558 47.2362 432.149 46.8808ZM495.981 223.809C476.822 238.369 470.759 243.292 464.139 249.661C456.013 257.478 450.11 264.525 444.209 273.453C432.056 291.841 424.992 312.305 421.194 340.138C419.954 349.228 419.102 359.035 417.683 380.578C417.262 386.971 416.684 394.816 416.398 398.011C416.113 401.206 415.9 403.87 415.925 403.931C415.998 404.11 418.225 401.753 418.422 401.288C418.669 400.704 419.228 393.662 420.281 377.901C421.772 355.563 422.718 345.611 424.371 334.851C429.919 298.729 442.62 273.288 466.461 250.542C472.548 244.734 479.761 238.898 496.503 226.235L502.649 221.586L502.717 220.221C502.754 219.469 502.77 218.818 502.751 218.772C502.732 218.727 499.686 220.993 495.981 223.809ZM500.843 232.638C497.256 235.303 487.769 242.765 484.87 245.204C468.362 259.085 456.911 273.568 448.618 291.05C439.614 310.034 435.069 331.579 433.076 364.722C432.543 373.585 431.886 386.581 431.973 386.534C432.015 386.512 432.588 385.873 433.246 385.115C434.624 383.529 434.435 384.799 435.045 373.013C436.512 344.651 438.716 328.063 443.081 312.53C449.499 289.692 460.839 270.849 478.235 254.121C482.392 250.122 487.317 245.957 494.639 240.244L501.252 235.084L501.417 233.767C501.629 232.087 501.617 232.064 500.843 232.638ZM419.515 37.4605L418.634 36.8502L417.051 40.4639C409.956 56.6618 405.665 71.2726 400.355 97.3131C395.16 122.795 392.522 132.128 386.71 145.598C381.207 158.351 374.83 169.241 368.096 177.384C362.639 183.982 357.347 189.233 343.09 202.196C331.763 212.495 326.231 217.773 321.456 222.833C293.457 252.509 275.121 287.327 262.685 334.433C260.492 342.742 259.963 344.902 257.138 357.107C253.387 373.309 252.039 380.201 247.764 405.071C244.292 425.262 242.264 435.578 239.885 445.137C235.417 463.093 230.184 477.751 223.891 489.937L221.72 494.141L222.444 494.25C224.07 494.495 224.354 494.219 226.19 490.624C234.568 474.215 240.857 454.604 245.94 429.031C247.47 421.335 248.291 416.783 250.978 401.094C254.599 379.949 256.198 371.954 260.411 353.94C264.308 337.272 266.934 327.445 270.391 316.599C281.104 282.981 295.906 255.65 316.169 232.071C323.548 223.484 328.757 218.308 343.566 204.848C364.643 185.689 370.596 179.257 377.623 168.052C382.684 159.982 387.993 149.492 391.088 141.445C395.84 129.09 397.954 121.19 402.802 97.6695C408.142 71.7608 411.053 61.5057 417.817 44.7797C419.28 41.1607 420.459 38.1709 420.437 38.135C420.415 38.0996 420 37.796 419.515 37.4605ZM498.169 247.441C493.05 251.624 486.177 258.148 482.083 262.711C472.359 273.55 465.471 284.376 459.941 297.51C452.528 315.116 448.859 334.155 447.35 362.847C447.145 366.744 447.176 367.437 447.528 366.915C447.762 366.569 448.352 365.742 448.839 365.076C449.686 363.918 449.736 363.667 449.988 359.315C451.439 334.278 454.782 316.617 461.131 300.461C468.165 282.561 479.723 266.521 495.681 252.511C497.49 250.923 499.001 249.452 499.041 249.24C499.081 249.029 499.225 248.273 499.361 247.561L499.609 246.265L498.169 247.441ZM406.589 29.2468L405.774 28.7745L404.281 31.8745C401.297 38.0662 396.99 49.2964 394.573 57.1823C391.037 68.7229 389.077 77.2323 384.928 99.0692C380.934 120.087 378.078 130.518 373.01 142.594C370.344 148.95 368.101 153.627 365.268 158.745C357.149 173.41 352.336 179.015 330.08 199.724C315.542 213.252 310.299 218.472 303.571 226.116C290.61 240.844 280.139 256.299 270.467 274.977C267.151 281.383 259.485 299.075 256.746 306.645C252.69 317.858 248.581 331.374 245.223 344.545C239.039 368.808 237.929 374.074 232.945 402.819C228.346 429.346 226.291 439.132 222.577 452.192C218.088 467.981 213.275 479.754 206.178 492.31C205.517 493.479 204.99 494.467 205.007 494.507C205.06 494.637 207.215 494.576 207.473 494.437C207.611 494.363 208.49 492.926 209.427 491.244C217.592 476.583 223.487 460.46 228.416 439.315C230.812 429.034 232.163 421.968 236.183 398.695C240.297 374.878 242.168 366.173 248.2 342.8C260.885 293.652 278.696 257.783 305.545 227.314C312.208 219.753 316.478 215.51 331.762 201.263C351.33 183.022 357.366 176.396 363.453 166.47C370.576 154.854 376.013 143.078 379.97 130.693C382.761 121.954 384.743 113.497 387.774 97.395C391.397 78.1472 393.481 69.1487 396.967 57.7059C399.098 50.7105 400.76 46.2245 404.29 37.9402C406.123 33.6411 407.573 30.0325 407.513 29.9213C407.453 29.8102 407.038 29.5066 406.589 29.2468ZM495.511 264.339C495.221 264.495 490.239 270.411 488.338 272.855C485.553 276.439 480.834 283.652 478.486 287.915C470.407 302.586 465.213 320.299 462.987 340.77L462.626 344.092L464.069 341.612C465.245 339.591 465.566 338.756 465.804 337.094C467.699 323.862 469.852 314.56 473.159 305.311C474.86 300.555 478.298 292.923 480.638 288.709C484.026 282.608 489.316 274.9 493.347 270.192C494.453 268.899 494.768 268.293 495.215 266.597C495.727 264.651 495.787 264.19 495.511 264.339ZM393.412 22.3452L392.392 21.9586L390.341 26.2789C381.826 44.2133 376.514 61.4648 372.295 84.8847C371.462 89.5102 370.044 97.3721 369.145 102.355C367.308 112.532 365.852 119.074 363.969 125.603C360.699 136.939 356.053 147.992 349.989 158.861C342.556 172.184 337.842 177.584 314.37 199.662C299.945 213.23 294.517 218.879 286.053 229.132C271.717 246.498 261.248 263.177 250.926 285.096C242.626 302.722 235.812 322.273 228.859 348.415C223.783 367.497 222.583 373.212 217.609 402.007C214.513 419.929 212.651 429.556 210.677 437.85C205.862 458.073 199.458 474.906 191.42 488.461C190.362 490.245 189.261 492.111 188.973 492.607L188.451 493.51L189.443 493.679C189.989 493.772 190.591 493.765 190.781 493.663C190.971 493.561 191.961 492.099 192.981 490.414C201.62 476.138 208.31 458.646 213.355 437.134C215.568 427.699 217.08 419.822 220.396 400.465C224.504 376.474 226.676 365.971 230.324 352.437C231.196 349.203 232.483 344.427 233.183 341.822C245.216 297.091 262.748 261.151 286.988 231.526C294.881 221.88 300.138 216.323 312.206 204.868C332.729 185.388 336.211 181.894 341.703 175.274C348.543 167.03 354.549 156.589 360.358 142.845C366.281 128.831 368.884 118.877 373.264 93.4912C376.134 76.8598 378.054 67.9645 380.935 57.9481C383.968 47.3993 387.781 37.1936 392.037 28.2296C393.407 25.3425 394.507 22.9245 394.481 22.8562C394.454 22.7877 393.973 22.558 393.412 22.3452ZM379.594 16.3748L378.616 16.0556L376.523 20.3124C369.549 34.4966 364.523 48.7926 360.861 64.8607C359.072 72.7122 358.202 77.4651 355.983 91.5006C353.279 108.602 351.871 115.652 349.48 124.057C346.218 135.521 341.474 146.869 335.17 158.283C332.313 163.453 329.504 167.568 325.673 172.189C320.786 178.084 316.405 182.572 302.631 195.795C295.78 202.372 288.477 209.513 286.402 211.665C259.305 239.766 239.056 273.017 224.274 313.681C221.178 322.2 218.59 330.37 214.788 343.632C209.364 362.556 207.61 370.542 202.9 397.792C198.36 424.057 196.485 433.091 193.079 445.104C188.277 462.038 183.121 474.162 174.961 487.707L172.677 491.498L173.635 491.78C174.162 491.935 174.751 491.976 174.945 491.871C175.395 491.629 179.431 484.834 182.255 479.568C185.086 474.287 189.654 463.649 191.778 457.391C197.278 441.191 199.896 429.86 205.007 400.143C209.361 374.831 212.036 361.82 214.822 352.419C215.363 350.591 216.521 346.512 217.394 343.355C220.442 332.332 223.702 322.189 227.704 311.274C230.051 304.875 237.499 287.43 240.299 281.774C250.034 262.114 260.563 245.619 273.623 229.569C282.256 218.959 288.016 212.878 302.571 199.01C317.153 185.115 322.064 180.094 327.682 173.335C334.365 165.293 339.972 155.513 345.773 141.773C351.705 127.726 354.639 116.287 358.226 93.2225C361.573 71.7112 364.061 60.0947 367.956 47.8034C370.525 39.6963 375.125 28.4161 379.344 19.8804C380.106 18.3395 380.693 16.9922 380.65 16.8864C380.606 16.7806 380.131 16.5506 379.594 16.3748ZM365.617 11.3877C365.087 11.1895 364.551 11.0829 364.425 11.1507C363.977 11.3923 360 19.6217 357.128 26.2507C352.882 36.0502 350.124 44.0759 347.591 54.0073C344.861 64.708 343.718 71.1451 340.464 94.1435C337.092 117.968 332.867 132.532 324.273 149.945C316.436 165.823 311.89 171.451 288.369 194.393C277.605 204.892 275.519 206.99 270.857 212.002C251.616 232.689 235.637 256.075 222.193 283.219C219.044 289.576 211.854 306.305 209.211 313.426C206.356 321.117 203.812 328.61 201.73 335.467C200.837 338.404 199.626 342.387 199.038 344.316C195.043 357.418 192.166 370.735 187.601 397.245C184.334 416.223 183.526 420.456 181.367 429.92C177.347 447.545 172.197 462.324 165.989 474.046C164.271 477.29 161.27 482.452 158.729 486.533L157.403 488.662L158.579 488.956L159.754 489.25L162.303 485.124C170.147 472.426 175.345 460.679 179.913 445.334C183.524 433.205 185.701 422.934 190.196 396.823C195.108 368.291 197.16 359.079 202.827 340.123C213.171 305.527 226.342 276.587 243.709 250.299C251.252 238.881 258.149 229.792 266.68 220.025C273.178 212.586 276.348 209.314 289.846 196.114C308.539 177.835 314.205 171.562 319.85 162.892C323.441 157.376 329.124 145.88 332.297 137.711C337.98 123.081 340.348 113.047 343.601 89.7997C345.104 79.0585 346.418 70.8318 347.455 65.6667C349.273 56.6096 352.042 46.2843 354.589 39.067C356.483 33.7025 361.11 22.8303 363.88 17.2372C365.127 14.7185 366.245 12.4532 366.364 12.203C366.541 11.8319 366.404 11.6818 365.617 11.3877ZM350.765 7.36361L349.579 7.0671L347.577 11.0223C344.667 16.7715 338.688 30.7493 337.024 35.6934C332.33 49.6451 329.492 62.7385 327.156 81.2158C324.642 101.102 324.133 104.54 322.643 111.648C320.418 122.264 317.693 130.712 312.964 141.648C304.112 162.122 300.006 167.492 272.368 194.742C263.808 203.182 260.734 206.341 255.86 211.707C251.34 216.686 243.117 226.591 239.177 231.805C217.694 260.233 200.77 292.532 188.616 328.298C181.123 350.347 177.971 363.153 173.362 390.264C168.781 417.21 166.479 428.465 163.277 439.577C158.728 455.362 153.034 468.382 145.126 481.082L142.856 484.728L144.033 485.044L145.211 485.36L147.351 481.898C156.266 467.48 162.341 453.041 167.063 435.053C169.716 424.944 171.406 416.514 174.831 396.312C179.835 366.799 181.951 357.278 187.301 340.201C191.355 327.262 194.658 318.018 199.135 307.084C214.438 269.714 235.804 236.152 261.835 208.595C263.871 206.44 269.374 200.884 274.063 196.248C297.492 173.09 303.866 165.58 309.692 154.272C316.667 140.731 321.278 128.495 324.344 115.397C326.113 107.837 327.113 101.609 329.082 85.9012C329.804 80.1377 330.677 73.5738 331.021 71.315C332.975 58.5176 336.015 45.9392 339.787 35.042C341.573 29.8792 346.665 18.0533 349.483 12.5171C350.606 10.3122 351.62 8.31721 351.737 8.08415C351.904 7.75283 351.692 7.59562 350.765 7.36361ZM335.449 4.33734L334.409 4.19928L333.779 5.32548C330.853 10.5585 325.271 23.2402 322.647 30.6149C317.383 45.4105 314.584 59.0911 312.123 82.0611C309.981 102.056 308.54 110.528 305.434 121.403C303.102 129.57 298.916 140.23 294.602 148.989C291.968 154.336 290.806 156.373 288.425 159.814C283.038 167.595 276.827 174.507 260.064 191.373C244.099 207.436 235.775 216.748 226.367 229.071C208.649 252.278 194.421 276.665 182.538 304.196C175.775 319.865 169.112 338.765 165.55 352.389C162.817 362.837 160.842 372.627 157.73 391.153C155.378 405.148 154.082 412.355 152.836 418.359C147.846 442.416 141.251 459.891 131.065 476.048C128.629 479.912 128.614 479.991 130.268 480.34C130.972 480.489 130.988 480.474 132.337 478.385C142.251 463.039 149.079 446.009 154.046 424.236C155.947 415.905 157.113 409.703 159.998 392.6C162.78 376.102 164.017 369.624 166.156 360.367C168.289 351.139 169.823 345.684 172.822 336.672C177.524 322.543 180.55 314.669 186.291 301.629C199.202 272.302 215.279 245.966 234.907 221.994C242.247 213.03 248.294 206.441 259.807 194.859C279.231 175.318 285.399 168.448 291.124 159.97C296.695 151.719 303.99 135.05 307.879 121.684C310.769 111.75 312.349 102.705 314.288 84.9859C316.286 66.7366 317.321 59.921 319.63 49.8167C320.971 43.9462 322.713 37.763 324.543 32.3713C326.123 27.7176 332.213 13.5161 334.809 8.43038C335.816 6.45804 336.606 4.76127 336.564 4.65981C336.522 4.55812 336.02 4.41299 335.449 4.33734ZM319.748 2.34547C319.135 2.32122 318.553 2.38356 318.454 2.48429C318.008 2.93895 313.767 12.0166 311.577 17.2058C303.73 35.7965 300.011 51.8718 297.698 77.2028C295.535 100.886 294.288 108.713 290.736 120.905C287.553 131.83 281.552 146.317 277.158 153.681C272.145 162.084 264.103 171.493 248.197 187.568C233.239 202.685 226.322 210.304 217.193 221.721C190.668 254.892 169.965 292.326 156.261 331.895C149.76 350.667 147.445 360.497 142.321 391.084C138.248 415.393 136.062 425.537 132.348 437.361C128.624 449.215 123.66 460.25 117.508 470.351C116.326 472.291 115.379 473.932 115.402 473.996C115.426 474.06 115.911 474.29 116.481 474.508L117.515 474.905L119.947 470.807C127.435 458.188 131.855 447.906 136.129 433.159C139.061 423.041 141.331 412.149 144.599 392.508C150.313 358.177 153.149 346.858 162.115 322.622C164.546 316.049 172.624 297.488 175.958 290.812C188.499 265.7 202.383 243.899 219.326 222.715C228.528 211.21 233.659 205.587 252.18 186.708C268.269 170.309 275.538 161.526 280.612 152.358C281.388 150.955 283.665 146.03 285.672 141.414C290.677 129.902 293.187 122.456 295.507 112.237C297.567 103.159 298.066 99.4194 300.53 74.6028C302.202 57.7653 303.859 48.3066 307.198 36.5567C309.989 26.7345 314.76 14.7971 319.914 4.74082C320.5 3.59667 320.953 2.59948 320.921 2.52488C320.888 2.45042 320.36 2.36963 319.748 2.34547ZM303.523 1.41977L302.257 1.35722L301.12 3.58857C299.036 7.68265 294.308 18.8916 292.689 23.5791C287.108 39.739 284.591 53.4724 282.782 77.6378C281.206 98.6838 279.53 109.179 275.779 121.491C272.123 133.492 266.322 147.034 261.963 153.748C256.033 162.879 250.64 169.014 228.547 191.757C214.221 206.504 202.589 220.456 190.14 237.819C165.736 271.86 146.003 311.241 136.354 345.164C133.28 355.971 130.987 367.206 127.327 389.396C124.693 405.366 123.901 409.614 122.003 417.951C117.654 437.059 112.342 450.817 103.759 465.203L102.514 467.291L103.351 467.804C103.812 468.086 104.287 468.318 104.405 468.321C104.658 468.325 108.217 462.282 110.479 458.007C112.708 453.797 117.149 443.376 118.855 438.353C123.292 425.292 125.681 414.633 129.921 388.974C135.767 353.601 138.852 341.78 148.631 317.277C158.037 293.709 172.346 267.491 188.744 243.777C201.733 224.992 215.206 208.681 231.755 191.706C253.245 169.661 261.183 160.314 266.458 150.844C269.328 145.691 274.804 132.445 277.478 124.19C281.924 110.46 283.643 100.101 285.389 76.5115C286.103 66.8648 287.108 57.5158 288 52.2107C289.915 40.8253 292.866 29.6669 296.402 20.4389C297.843 16.6784 302.118 6.88554 303.83 3.42236L304.789 1.48242L303.523 1.41977ZM286.381 1.64532L285.13 1.69345L282.122 8.68736C277.577 19.2547 275.088 26.7971 272.788 36.9595C270.244 48.2107 269.065 57.7236 268.028 75.4009C266.615 99.4824 264.561 110.999 258.613 128.182C256.698 133.716 251.089 146.65 249.333 149.58C244.672 157.362 237.089 166.533 223.492 180.835C206.96 198.223 204.252 201.182 196.905 209.879C160.856 252.556 131.578 304.701 120.328 346.266C117.642 356.188 115.805 365.451 112.342 386.521C109.717 402.498 108.65 408.232 106.845 416.071C103.202 431.897 98.3199 445.001 91.4401 457.422L90.1728 459.71L91.0517 460.267C91.5351 460.574 91.9805 460.847 92.0418 460.874C92.2366 460.961 96.2121 453.525 98.2716 449.222C99.3631 446.941 100.998 443.126 101.904 440.744C107.661 425.616 110.4 414.061 115.097 385.1C119.709 356.662 122.689 344.252 128.921 327.534C143.336 288.856 168.424 247.126 199.075 210.84C205.045 203.773 210.022 198.277 218.819 189.04C236.982 169.969 242.424 163.768 248.016 155.775C252.22 149.766 254.478 145.383 258.147 136.105C262.053 126.228 264.391 118.857 266.357 110.223C268.53 100.679 269.553 92.1039 270.574 74.8661C272.36 44.7217 275.814 28.8258 285.216 7.49641C286.595 4.36731 287.703 1.75995 287.678 1.70222C287.653 1.64463 287.069 1.61887 286.381 1.64532ZM269.595 2.99635C269.02 3.04813 268.342 3.20231 268.089 3.33868C267.562 3.62282 264.123 12.0617 262.112 18.0069C257.334 32.1346 254.64 47.9489 253.787 66.8856C253.072 82.7583 252.921 85.2759 252.354 90.8569C250.749 106.67 247.608 119.018 240.856 136.074C239.67 139.069 238.005 142.824 237.157 144.417C232.142 153.838 224.122 163.748 205.794 183.17C194.581 195.053 188.981 201.348 180.666 211.422C144.354 255.411 115.711 305.64 105.271 343.634C102.499 353.726 100.778 362.406 97.3729 383.488C94.0247 404.216 92.3643 412.57 89.7608 421.791C86.8852 431.976 82.7579 442.565 78.8606 449.76L78.1917 450.994L79.1149 451.655C79.7715 452.125 80.1167 452.211 80.3107 451.951C81.0106 451.015 84.1572 444.397 85.9898 440.007C89.5115 431.571 92.4134 422.297 94.7075 412.145C96.3354 404.942 97.3197 399.514 99.6743 384.76C105.436 348.659 108.958 335.698 119.415 312.133C136.2 274.306 165.311 230.783 197.465 195.442C198.979 193.778 203.156 189.297 206.747 185.486C223.971 167.203 231.859 157.74 237.516 148.571C242.61 140.316 249.795 120.129 252.641 106.078C254.706 95.8848 255.336 89.2326 256.243 68.0743C257.284 43.7601 260.948 25.8465 268.57 7.80676L270.642 2.90207L269.595 2.99635ZM251.651 5.684L250.378 5.94329L249.246 8.8927C244.881 20.2633 241.735 33.9168 240.323 47.6212C239.627 54.3771 239.441 57.8669 239.078 71.0461C238.659 86.2239 238.035 93.3817 236.321 102.663C233.695 116.881 227.066 136.466 221.936 145.161C216.963 153.59 209.019 163.409 194.448 179.136C180.128 194.592 173.972 201.604 164.398 213.367C140.768 242.396 120.222 273.568 106.076 301.85C102.685 308.629 95.1791 326.223 93.5293 331.258C88.9307 345.295 86.4282 356.628 82.7352 380.138C79.0017 403.906 77.0458 413.212 73.4011 424.549C72.0842 428.645 69.2531 436.108 67.7281 439.503L66.9179 441.307L67.7052 442.028C68.1382 442.425 68.5537 442.773 68.6286 442.802C68.8861 442.901 72.5896 434.109 74.2989 429.34C78.7139 417.022 81.1557 406.157 84.9849 381.79C89.0273 356.068 91.6152 344.404 96.4187 330.259C98.4099 324.396 105.193 308.789 109.098 301.087C123.517 272.649 143.889 241.99 167.629 212.999C176.373 202.321 181.609 196.359 193.911 183.065C210.26 165.399 217.843 156.216 223.187 147.612C225.661 143.628 227.395 140.029 229.541 134.432C235.607 118.607 238.838 105.954 240.383 91.9794C241.131 85.204 241.293 82.316 241.655 69.2225C242.002 56.6578 242.292 51.8771 243.132 44.8144C244.552 32.8807 247.314 21.1707 251.251 10.3888C252.212 7.75801 252.981 5.56489 252.96 5.51507C252.94 5.46526 252.351 5.54119 251.651 5.684ZM234.102 9.54813L232.76 9.86225L232.346 10.9722C231.59 12.9936 229.724 19.644 228.868 23.3654C227.435 29.5897 226.508 35.1356 225.788 41.7767C224.97 49.3228 224.77 53.5368 224.634 66.1288C224.459 82.3021 223.995 89.4364 222.548 98.2435C220.514 110.625 216.201 125.396 211.372 136.517C206.527 147.677 199.715 156.545 176.315 182.156C167.495 191.81 161.946 198.162 154.362 207.288C127.549 239.555 104.377 273.812 89.7461 302.817C81.9239 318.325 77.1612 331.291 73.4192 347.264C71.2084 356.702 70.0286 363.274 67.0115 382.964C65.5818 392.296 63.9336 401.287 62.5821 407.129C60.8387 414.664 59.3703 419.59 56.1752 428.622L55.7017 429.961L56.5796 430.868L57.4575 431.774L58.5931 428.875C60.2321 424.691 62.8154 416.475 64.0966 411.372C66.2463 402.81 67.7231 394.799 70.6176 375.995C73.8762 354.827 76.4421 343.243 80.8399 329.845C82.5845 324.531 89.042 309.388 92.3463 302.863C110.08 267.845 141.332 223.984 174.624 187.388C191.666 168.655 196.888 162.697 201.488 156.738C208.858 147.19 212.274 141.446 215.165 133.74C221.35 117.255 224.583 104.425 226.066 90.4844C226.816 83.4293 227.011 79.0722 227.159 66.0472C227.295 54.0728 227.501 49.273 228.163 42.7298C229.215 32.3227 231.509 21.3407 234.65 11.6744L235.443 9.23378L234.102 9.54813ZM217.315 14.4065C217.054 14.471 216.419 14.676 215.904 14.8625L214.967 15.2014L213.939 19.8855C210.63 34.9575 209.972 43.3369 210.125 68.4375C210.193 79.5549 209.587 88.6461 208.218 97.0444C205.82 111.754 199.878 131.145 195.213 139.485C189.621 149.481 181.963 159.084 161.195 182.147C126.254 220.948 95.3619 263.096 77.0171 296.997C66.8875 315.716 61.4285 330.429 57.2614 350.241C55.8513 356.945 55.0088 361.872 52.7873 376.401C49.9315 395.079 48.3505 403.176 45.7556 412.417L44.6056 416.512L45.511 417.684L46.4167 418.856L48.0085 413.281C50.8366 403.376 52.3109 396.015 54.9912 378.416C59.0859 351.531 61.3652 340.889 65.8424 327.758C69.3285 317.533 74.1421 306.991 80.7981 295.006C99.4942 261.34 129.253 221 163.206 183.296C184.779 159.339 192.926 148.983 198.273 138.714C200.637 134.173 203.388 126.597 206.234 116.789C210.93 100.605 212.671 87.6923 212.641 69.2646C212.634 65.3416 212.626 59.7466 212.621 56.8314C212.602 42.6194 213.868 30.9355 216.757 18.6709C217.597 15.1061 217.701 14.3116 217.315 14.4065ZM199.999 20.5016C199.655 20.6874 199.023 20.9559 198.595 21.0982C197.856 21.3443 197.794 21.4914 197.352 24.0716C195.434 35.2613 195.04 43.6641 195.495 63.6908C195.964 84.3156 194.315 98.0522 189.237 115.806C185.171 130.019 182.855 135.532 177.529 143.667C171.885 152.288 165.303 160.296 145.98 182.05C111.506 220.862 80.2973 262.619 63.0002 293.076C53.102 310.505 47.5133 324.275 43.4605 341.219C41.2584 350.427 40.252 356.007 37.4659 374.463C35.6981 386.174 34.2532 394.68 33.5005 397.804C33.1454 399.279 33.2783 399.783 34.4989 401.597L35.0449 402.409L35.6973 399.416C36.9399 393.714 38.0324 387.363 40.0501 374.111C43.1789 353.563 44.3754 347.167 46.8463 337.776C51.3226 320.765 57.033 307.686 68.2239 288.814C81.7108 266.07 99.6999 241.075 123.535 211.964C134.069 199.097 139.966 192.192 151.45 179.274C160.917 168.627 164.265 164.764 168.245 159.9C177.896 148.106 184.284 138.193 186.959 130.862C192.355 116.072 196.181 99.9336 197.402 86.8123C198.134 78.9415 198.246 73.2453 197.946 59.0195C197.682 46.502 198 37.3424 198.945 30.2832C199.317 27.5057 200.159 22.3146 200.472 20.8752C200.617 20.2048 200.59 20.1833 199.999 20.5016ZM182.987 27.8447C181.326 28.4172 181.261 28.5749 180.949 32.7936C180.469 39.2751 180.449 45.3157 180.865 57.8012C181.528 77.699 181.1 85.8766 178.716 98.84C176.803 109.241 172.596 124.399 169.883 130.663C166.666 138.09 160.2 147.638 150.376 159.467C146.377 164.282 143.859 167.186 133.169 179.314C96.0258 221.453 64.5868 262.753 47.9195 291.302C38.1746 307.994 33.0578 320.136 28.9575 336.296C26.6923 345.224 25.2871 352.818 22.9904 368.542L21.736 377.13L22.7234 378.991L23.711 380.852L24.5897 374.819C27.3822 355.649 28.6276 348.394 30.5189 340.28C34.3964 323.646 39.5771 310.6 48.509 294.978C65.903 264.556 97.3299 223.273 138.85 176.305C153.605 159.614 160.216 151.37 166.088 142.339C170.517 135.527 172.495 131.373 174.835 123.965C180.599 105.716 183.395 90.176 183.706 74.6525C183.766 71.7031 183.633 63.9225 183.412 57.3623C182.967 44.1735 183.006 38.2237 183.578 31.8943C183.788 29.5698 183.948 27.6367 183.932 27.5985C183.916 27.5602 183.491 27.6711 182.987 27.8447ZM167.136 35.7051L165.836 36.406L165.893 41.1909C165.925 43.8225 166.152 49.9504 166.398 54.8081C166.645 59.6658 166.872 64.8825 166.905 66.4006C167.27 83.6707 165.149 98.794 159.67 117.982C156.974 127.425 154.767 132.281 149.548 140.258C144.535 147.918 136.023 158.758 125.632 170.712C82.1732 220.71 57.2095 252.243 38.9432 280.214C31.2249 292.033 26.4163 300.694 22.3073 310.179C18.3965 319.206 15.7622 327.282 13.4087 337.458C11.3584 346.324 11.3481 346.419 12.1171 349.279C12.4905 350.667 12.8521 351.818 12.921 351.836C12.99 351.855 13.402 349.893 13.8367 347.477C16.4943 332.701 20.9333 318.333 26.4162 306.756C39.395 279.353 70.9845 236.989 122.956 177.288C131.922 166.989 141.984 154.809 145.95 149.455C152.193 141.028 156.921 133.178 159.18 127.49C161.437 121.807 165.405 106.654 167.075 97.3403C168.536 89.1915 169.385 80.5009 169.485 72.6873C169.541 68.2521 169.408 63.9346 168.866 52.6404C168.611 47.3268 168.41 41.1851 168.419 38.9918L168.436 35.0044L167.136 35.7051ZM152.635 44.0807C151.427 44.7319 151.371 44.8037 151.418 45.6444C151.445 46.1291 151.68 49.7395 151.942 53.6676C153.095 71.0093 152.738 81.4394 150.535 94.768C148.761 105.503 144.934 120.587 142.609 126.001C137.796 137.213 129.274 148.867 106.984 174.719C72.854 214.304 53.2944 238.114 37.4143 259.409C22.6441 279.215 12.3994 295.553 7.23086 307.544C5.4468 311.683 5.4197 311.786 5.63607 313.59C5.75707 314.6 5.89084 315.721 5.933 316.082C5.9845 316.523 6.84024 314.747 8.53539 310.68C12.317 301.607 17.0842 292.965 24.5265 281.69C40.5599 257.398 62.2207 230.224 107.23 177.934C120.215 162.848 126.945 154.697 131.657 148.35C140.416 136.55 144.864 128.422 147.36 119.652C151.217 106.095 153.334 95.379 154.455 83.7212C155.404 73.8503 155.403 67.1889 154.447 52.669C154.142 48.0367 153.895 44.0557 153.897 43.8223C153.9 43.4786 153.661 43.5277 152.635 44.0807ZM139.1 52.7733C138.504 53.0943 137.955 53.5475 137.879 53.7802C137.804 54.0131 137.824 55.1269 137.925 56.2556C138.026 57.3843 138.193 60.8349 138.295 63.9235C138.828 79.9777 136.796 95.8976 131.75 115.212C129.3 124.589 125.146 132.601 116.638 144.361C110.044 153.476 104.818 159.822 82.2873 186.078C44.9626 229.574 29.0736 248.956 15.2223 267.885C8.68624 276.817 4.75421 282.682 4.7644 283.483C4.76927 283.868 4.75756 284.859 4.73866 285.685C4.71677 286.626 4.79612 287.06 4.95089 286.846C5.0865 286.657 5.82852 285.513 6.59931 284.303C8.90502 280.684 14.8746 272.187 19.3041 266.22C32.661 248.225 48.8728 228.52 84.0849 187.482C106.818 160.988 112.073 154.606 118.648 145.508C127.099 133.813 131.705 125.041 134.019 116.235C138.381 99.6354 140.643 85.1736 140.922 72.0966C141.007 68.0664 140.683 57.7365 140.356 54.12L140.182 52.1897L139.1 52.7733ZM125.727 62.3686C125.244 62.7255 124.686 63.1588 124.488 63.3313C124.262 63.5289 124.145 64.9926 124.173 67.286C124.32 79.5736 122.404 94.5109 118.62 110.566C116.415 119.918 114.27 124.967 108.743 133.81C101.024 146.159 92.512 156.72 58.9709 195.56C32.9142 225.732 18.5342 242.755 10.5083 252.929L7.1078 257.239L6.80926 259.425L6.51054 261.61L10.8096 256.199C21.1009 243.242 31.8791 230.449 58.1747 199.979C90.6696 162.324 96.7023 155.042 105.068 143.372C112.367 133.191 116.995 124.958 119.093 118.426C120.184 115.026 122.641 104.434 123.756 98.3159C125.934 86.3735 126.953 74.7937 126.692 64.9647L126.605 61.7194L125.727 62.3686ZM111.972 73.3949C111.821 73.5411 111.27 74.0244 110.748 74.4693L109.799 75.2781L109.062 82.4415C108.018 92.5735 105.99 104.151 103.702 113.032C101.187 122.794 92.6527 136.839 78.2289 154.953C69.8762 165.442 60.7635 176.111 36.0014 204.388C27.1401 214.508 18.1532 224.789 16.0305 227.236L12.171 231.684L11.5495 234.155L10.9279 236.626L12.042 235.352C12.6548 234.652 15.1242 231.799 17.5296 229.011C19.9351 226.224 28.1185 216.849 35.715 208.178C59.9844 180.476 66.7302 172.629 75.8568 161.485C91.0838 142.891 99.6156 130.148 104.061 119.362C107.41 111.236 111.347 90.163 112.175 75.9319C112.346 72.9965 112.349 73.0316 111.972 73.3949ZM95.5824 88.3208L94.1328 89.6974L93.6243 93.0524C92.8923 97.8818 91.3239 106.127 90.4142 109.928C86.5238 126.183 71.3606 147.268 29.6719 194.391L19.9716 205.356L19.1173 207.77C18.6475 209.098 18.2879 210.257 18.3185 210.345C18.3796 210.52 21.8129 206.715 33.0975 193.965C59.1712 164.505 74.742 145.058 83.1127 131.501C87.4633 124.455 90.7909 117.681 92.152 113.1C93.2849 109.287 95.6365 97.0859 96.6311 89.8594L97.0323 86.9442L95.5824 88.3208ZM78.1646 106.779C76.6762 108.522 76.421 109.001 75.4516 111.864C71.3083 124.102 58.6183 142.993 38.9185 166.249C34.2733 171.733 34.3289 171.648 31.3053 177.957L30.6293 179.367L31.9961 177.83C44.3353 163.953 58.447 146.047 66.041 134.63C73.5323 123.368 78.472 112.77 79.7444 105.23C79.7793 105.024 79.0683 105.721 78.1646 106.779Z" fill="url(#paint0_linear_101_444)"/>
</g>
<defs>
<filter id="filter0_d_101_444" x="0.734863" y="1.35742" width="506.538" height="501.221" filterUnits="userSpaceOnUse" color-interpolation-filters="sRGB">
<feFlood flood-opacity="0" result="BackgroundImageFix"/>
<feColorMatrix in="SourceAlpha" type="matrix" values="0 0 0 0 0 0 0 0 0 0 0 0 0 0 0 0 0 0 127 0" result="hardAlpha"/>
<feOffset dy="4"/>
<feGaussianBlur stdDeviation="2"/>
<feComposite in2="hardAlpha" operator="out"/>
<feColorMatrix type="matrix" values="0 0 0 0 0 0 0 0 0 0 0 0 0 0 0 0 0 0 0.25 0"/>
<feBlend mode="normal" in2="BackgroundImageFix" result="effect1_dropShadow_101_444"/>
<feBlend mode="normal" in="SourceGraphic" in2="effect1_dropShadow_101_444" result="shape"/>
</filter>
<linearGradient id="paint0_linear_101_444" x1="48.2852" y1="145.283" x2="454.271" y2="359.272" gradientUnits="userSpaceOnUse">
<stop stop-color="#1F4962"/>
<stop offset="1" stop-color="#20A3F0"/>
</linearGradient>
</defs>
</svg>
