<svg width="506" height="504" viewBox="0 0 506 504" fill="none" xmlns="http://www.w3.org/2000/svg">
<g filter="url(#filter0_d_101_443)">
<path fill-rule="evenodd" clip-rule="evenodd" d="M176.23 24.3536C186.099 27.02 190.76 28.545 198.732 31.7146C211.696 36.87 221.21 42.4644 230.33 50.2954C237.536 56.4829 242.882 62.971 252.473 77.1656C261.762 90.9144 266.71 97.6773 271.322 102.929C287.731 121.612 307.77 133.569 334.702 140.744C349.709 144.743 365.267 146.945 396.927 149.553C403.389 150.085 409.161 150.591 409.755 150.677C410.349 150.763 416.887 151.386 424.284 152.061C454.574 154.824 471.216 156.89 486.362 159.767C489.359 160.337 491.836 160.751 491.866 160.687C491.896 160.623 491.809 160.041 491.673 159.392L491.427 158.214L489.731 157.818C488.799 157.601 485.72 157.019 482.889 156.526C467.542 153.851 453.003 152.109 424.079 149.479C417.43 148.875 410.757 148.242 409.249 148.073C407.741 147.903 401.968 147.395 396.42 146.944C379.224 145.545 370.36 144.622 360.278 143.178C326.05 138.275 302.046 128.277 282.836 110.923C274.079 103.011 268.576 96.2248 256.388 78.3064C242.548 57.9577 237.445 52.0669 226.808 44.1588C214.715 35.1688 200.923 28.7803 181.796 23.3091C173.702 20.9934 174.019 21.0381 171.949 21.9234L170.125 22.7038L176.23 24.3536ZM148.253 33.3938L147.327 33.9011L154.589 35.5538C165.564 38.0517 175.12 40.4174 180.184 41.8895C197.734 46.9919 210.793 53.3582 222.822 62.6756C231.26 69.2109 236.165 74.914 248.141 92.1135C262.411 112.606 266.606 117.713 276.3 126.391C286.951 135.925 297.943 142.767 311.791 148.482C331.466 156.601 350.91 160.567 388.951 164.223C394.363 164.743 403.023 165.598 408.197 166.123C413.37 166.648 422.854 167.599 429.274 168.237C458.121 171.104 475.116 173.528 490.716 177C493.841 177.695 496.428 178.2 496.465 178.121C496.501 178.043 496.395 177.418 496.228 176.733L495.924 175.487L493.128 174.859C476.906 171.219 460.737 168.84 433.641 166.108C419.588 164.691 396.367 162.374 384.495 161.205C352.281 158.031 332.903 154.057 314.865 146.923C295.671 139.333 280.274 128.555 267.313 113.639C263.328 109.053 260.462 105.197 251.894 92.8982C243.66 81.0788 240.714 77.1027 236.688 72.3727C226.482 60.3812 211.824 50.5418 194.146 43.8151C185.259 40.4334 177.919 38.343 161.464 34.5069C150.084 31.8542 150.932 31.9255 148.253 33.3938ZM202.403 16.4125C215.457 21.693 223.636 26.4089 232.992 34.0509C241.846 41.2823 247.001 47.5907 259.111 66.0181C272.039 85.6902 277.545 92.4967 287.712 101.374C305.808 117.176 328.642 126.555 359.974 131.058C369.398 132.412 380.614 133.466 397.641 134.597C405.382 135.111 412.292 135.636 429.945 137.048C430.855 137.121 433.77 137.362 436.422 137.584C439.074 137.805 442.057 138.052 443.05 138.132C444.043 138.212 446.7 138.467 448.955 138.7C451.209 138.932 453.801 139.189 454.714 139.271C460.619 139.803 478.316 142.15 483.819 143.132L486.1 143.539L485.511 142.157L484.922 140.776L479.666 139.982C469.026 138.375 455.831 136.844 441.226 135.52C437.404 135.173 433.799 134.843 433.216 134.787C432.633 134.73 431.276 134.616 430.202 134.533C429.127 134.45 423.977 134.03 418.758 133.599C413.539 133.168 404.957 132.532 399.688 132.185C375.86 130.617 361.828 129.078 349.472 126.676C320.835 121.111 300.025 110.711 283.114 93.5135C279.508 89.8471 275.393 84.933 271.722 79.9128C268.698 75.7758 266.694 72.8225 258.247 60.0516C249.663 47.0756 244.426 40.6346 237.487 34.5226C227.654 25.8607 216.35 19.0919 203.214 13.9999L198.678 12.2414L196.852 12.8351L195.027 13.429L202.403 16.4125ZM128.872 44.9658L127.588 45.8403L133.972 47.346C137.483 48.1739 145.273 49.8984 151.282 51.1782C173.16 55.8372 182.708 58.4849 192.875 62.7119C205.356 67.9012 217.335 75.4938 225.069 83.1168C230.441 88.4122 234.754 93.9181 246.3 110.22C253.801 120.811 257.102 125.114 261.293 129.759C282.81 153.613 310.55 167.467 350.89 174.505C360.476 176.177 374.313 178.019 388.872 179.56C392.248 179.917 395.748 180.322 396.65 180.46C398.692 180.772 410.926 182.119 428.399 183.956C462.518 187.543 478.707 190.22 497.908 195.45L499.721 195.943L499.494 194.538L499.267 193.133L495.208 192.06C477.333 187.336 461.308 184.832 423.474 180.853C413.949 179.851 403.336 178.688 399.889 178.269C396.442 177.851 389.099 177.001 383.57 176.381C358.702 173.593 343.869 171.048 329.393 167.086C297.647 158.398 274.294 143.232 256.281 119.608C254.9 117.798 250.569 111.794 246.656 106.266C231.803 85.2874 227.358 80.3944 215.644 72.1307C208.541 67.1198 200.031 62.6994 190.319 58.977C180.526 55.2232 171.639 52.8591 149.932 48.233C144.278 47.0278 137.588 45.5574 135.066 44.9656C132.544 44.3737 130.407 43.9346 130.318 43.9903C130.229 44.046 129.578 44.485 128.872 44.9658ZM219.674 7.19025C219.834 7.30571 221.238 8.13098 222.794 9.02377C232.176 14.408 241.26 21.764 247.686 29.1791C252.184 34.3696 255.792 39.4473 264.286 52.5394C276.947 72.0527 281.892 78.3579 291.16 86.8034C310.153 104.11 333.904 113.537 368.331 117.435C376.684 118.381 387.499 119.154 402.532 119.88C427.841 121.102 454.382 123.233 472.639 125.508C475.822 125.905 478.46 126.16 478.499 126.075C478.539 125.99 478.295 125.405 477.956 124.776L477.34 123.631L471.48 122.916C455.721 120.991 427.777 118.666 411.315 117.908C401.598 117.461 385.209 116.507 382.655 116.24C381.569 116.126 379.803 115.97 378.73 115.891C368.399 115.138 353.564 112.94 344.656 110.843C331.464 107.739 319.777 103.219 309.791 97.3599C298.437 90.6988 287.944 81.3373 279.697 70.5122C275.994 65.6519 273.064 61.3705 266.319 50.9658C254.45 32.6574 249.558 26.4354 241.314 19.1667C236.476 14.9003 231.135 11.0083 225.561 7.6866C222.927 6.11702 222.913 6.11291 221.377 6.44947C219.452 6.87068 219.315 6.93054 219.674 7.19025ZM111.575 57.2265C110.968 57.7182 110.605 58.1658 110.766 58.2211C111.979 58.6371 120.78 60.8835 125.22 61.9103C130.303 63.0855 134.141 63.8769 152.092 67.4505C168.722 70.7609 177.808 73.2548 187.766 77.2418C195.682 80.4113 202.733 84.1669 209.767 88.9596C219.816 95.8071 225.2 101.516 237.018 117.852C248.819 134.166 252.259 138.576 257.684 144.353C278.032 166.016 303.701 179.417 340.119 187.387C355.543 190.762 383.999 194.779 418.906 198.508C441.82 200.957 450.488 202.027 460.722 203.671C474.316 205.854 486.813 208.728 497.646 212.16C499.636 212.791 501.291 213.25 501.324 213.181C501.356 213.111 501.358 212.493 501.328 211.807L501.272 210.56L496.345 209.064C477.831 203.44 461.035 200.466 427.377 196.852C401.906 194.117 399.448 193.828 380.975 191.388C369.028 189.81 362.902 188.928 356.308 187.834C315.99 181.146 289.101 169.729 267.201 149.997C258.535 142.188 253.536 136.274 241.589 119.699C228.488 101.522 223.269 95.6041 214.85 89.3762C202.572 80.2936 189.162 73.9582 172.841 69.5286C166.641 67.8458 160.048 66.3857 146.773 63.7545C129.884 60.4074 123.743 59.0541 116.365 57.0538C114.525 56.5549 112.943 56.1885 112.848 56.2399C112.754 56.291 112.181 56.7351 111.575 57.2265ZM243.814 6.02588C251.956 13.2044 257.504 20.3205 268.616 37.842C275.591 48.8398 277.403 51.5958 280.642 56.1337C292.992 73.4326 308.247 85.5472 327.283 93.1737C331.281 94.7754 336.074 96.4636 338.655 97.1793C349.679 100.237 358.982 101.947 371.786 103.271C380.972 104.221 391.149 104.816 410.013 105.507C427.755 106.156 434.56 106.504 446.359 107.366C453.205 107.865 467.477 109.14 468.938 109.382C469.727 109.513 469.732 109.508 469.367 108.976C469.163 108.68 468.776 108.068 468.505 107.615C468.027 106.818 467.844 106.777 462.366 106.254C446.35 104.724 439.958 104.364 395.641 102.49C381.989 101.913 370.378 100.889 360.643 99.404C328.794 94.5457 306.192 82.8978 288.772 62.3662C283.642 56.3208 280.371 51.6219 271.082 36.9596C259.383 18.4927 254.147 11.728 245.865 4.38035C244.102 2.81615 244 2.76952 242.632 2.8995C241.855 2.97335 241.09 3.07857 240.933 3.13365C240.775 3.18873 242.071 4.49021 243.814 6.02588ZM96.5317 69.6525L95.4659 70.563L97.0768 71.1556C105.429 74.2294 118.51 77.2525 141.447 81.4105C162.787 85.279 171.152 87.373 181.952 91.55C190.142 94.7177 195.171 97.2032 202.128 101.521C214.231 109.032 219.139 114.117 234.834 135.402C247.013 151.92 251.814 157.466 261.072 165.714C274.258 177.46 288.647 186.068 306.631 192.97C323.984 199.629 342.437 203.937 370.919 207.978C375.748 208.664 381.307 209.486 383.271 209.806C388.499 210.657 401.714 212.275 417.98 214.054C444.147 216.917 454.819 218.401 467.066 220.878C478.616 223.214 488.059 225.796 497.276 229.135L501.861 230.797L501.899 229.47L501.937 228.144L498.244 226.746C488.434 223.032 475.501 219.697 460.879 217.113C449.454 215.094 441.311 214.025 417.002 211.357C401.569 209.663 388.55 208.057 382.951 207.155C381.021 206.844 375.394 206.013 370.446 205.309C335.023 200.268 311.736 193.823 291.604 183.487C281.005 178.046 271.908 171.813 262.886 163.811C253.626 155.599 248.881 150.113 236.661 133.494C221.34 112.658 215.991 107.14 203.584 99.3699C190.439 91.1379 176.768 85.9065 158.134 81.9775C155.223 81.3638 148.618 80.0945 143.456 79.1568C123.074 75.4547 113.271 73.3318 104.167 70.6486C101.478 69.8557 98.8996 69.1026 98.4373 68.9746C97.6264 68.7499 97.5602 68.7734 96.5317 69.6525ZM258.595 1.89684C261.06 4.58439 266.53 12.6828 274.751 25.815C285.462 42.925 289.352 48.3564 295.903 55.3462C303.544 63.5002 312.526 70.2735 322.745 75.5893C326.838 77.7185 336.823 81.6739 341.706 83.1002C349.807 85.4667 358.034 87.1077 368.01 88.347C379.768 89.8077 391.245 90.4207 415.84 90.901C428.722 91.1527 444.712 91.8401 454.697 92.5713C456.743 92.7214 458.442 92.7904 458.472 92.7249C458.503 92.6594 458.128 92.0753 457.64 91.4269L456.752 90.2478L448.342 89.7438C436.026 89.0058 428.91 88.7312 415.25 88.467C381.501 87.8143 365.572 86.387 349.47 82.5727C325.894 76.9884 307.728 65.9564 293.199 48.3994C289.264 43.644 285.066 37.4891 277.556 25.46C273.778 19.4094 269.657 12.9129 268.399 11.0235C265.814 7.14196 262.116 2.02951 261.56 1.56703C261.356 1.39814 260.591 1.31278 259.86 1.37793C258.235 1.52238 258.247 1.51743 258.595 1.89684ZM83.0412 82.3937C82.5953 82.8256 82.2596 83.2603 82.2957 83.3598C82.3667 83.5556 88.1715 85.6406 92.7118 87.1014C102.28 90.1795 115.246 93.0391 131.782 95.7185C155.133 99.5021 163.954 101.449 174.984 105.256C187.339 109.519 201.084 117.218 208.898 124.251C214.725 129.496 218.382 133.806 230.049 149.185C234.336 154.836 239.048 160.908 240.52 162.679C249.209 173.132 260.222 183.105 271.332 190.581C291.531 204.174 315.895 213.352 348.569 219.679C355.242 220.972 360.228 221.807 374.549 224.032C389.813 226.404 392.365 226.727 422.795 230.152C445.661 232.724 460.962 235.277 474.255 238.737C483.437 241.126 492.88 244.354 498.293 246.952C499.655 247.606 500.835 248.122 500.916 248.098C500.996 248.075 501.131 247.457 501.216 246.725L501.371 245.393L495.793 243.091C484.582 238.466 471.969 235.007 455.964 232.167C444.785 230.184 437.637 229.228 414.925 226.679C392.854 224.202 388.063 223.566 369.487 220.645C336.736 215.493 315.633 209.992 297.319 201.831C281.402 194.738 269.337 187.041 257.285 176.288C248.593 168.534 244.04 163.333 231.621 146.973C220.018 131.688 215.751 126.719 209.74 121.497C204.512 116.955 196.079 111.681 187.547 107.618C174.628 101.466 162.749 98.2149 138.631 94.2303C132.662 93.2441 126.032 92.1314 123.897 91.7571C109.324 89.2034 97.0127 86.0949 87.3765 82.5361C85.6765 81.9083 84.1879 81.4427 84.0691 81.5017C83.9499 81.5606 83.4876 81.962 83.0412 82.3937ZM277.118 7.55361C288.183 25.8489 292.007 31.6188 297.201 37.8581C303.575 45.5162 309.608 50.9955 317.567 56.3563C333.96 67.3984 353.505 73.2131 381.253 75.3036C390.316 75.9862 400.191 76.2352 421.975 76.3294C428.439 76.3576 436.359 76.4536 439.575 76.5427C442.79 76.6318 445.477 76.6814 445.544 76.6526C445.742 76.5677 443.776 74.4821 443.338 74.3138C442.789 74.1026 435.688 73.9757 419.754 73.8924C397.171 73.7743 387.166 73.4404 376.476 72.4473C340.587 69.114 317.079 57.9586 298.57 35.478C293.844 29.7377 289.315 22.8718 279.709 6.88122L276.182 1.01107L274.797 1.02724C274.035 1.03585 273.37 1.06082 273.32 1.08236C273.27 1.104 274.979 4.01609 277.118 7.55361ZM287.141 2.13909C289.15 5.56871 294.887 14.6116 296.803 17.3663C307.704 33.0469 320.238 43.6261 336.48 50.8559C354.118 58.7065 375.274 61.9325 408.826 61.8872C417.798 61.8751 430.979 61.7327 430.949 61.6483C430.934 61.6076 430.395 61.073 429.751 60.4604C428.403 59.178 429.666 59.2891 417.715 59.4042C388.956 59.6815 372.406 58.4955 357.371 55.0799C335.266 50.0577 318.243 39.8587 304.603 23.463C301.343 19.5446 298.066 14.8685 293.685 7.88551L289.729 1.57912L288.412 1.4944C286.734 1.38622 286.708 1.3994 287.141 2.13909ZM70.8514 95.6295L70.049 96.55L73.4328 97.9128C88.5997 104.023 102.704 107.421 128.313 111.136C153.372 114.771 162.403 116.838 175.033 121.83C186.992 126.557 196.865 132.274 203.853 138.518C209.516 143.578 213.831 148.556 224.244 162.039C232.517 172.751 236.812 177.968 241.036 182.439C265.808 208.658 297.79 224.881 343.546 234.437C351.616 236.122 353.723 236.519 365.657 238.597C381.501 241.357 388.291 242.282 412.908 245.033C432.894 247.266 443.054 248.663 452.368 250.457C469.864 253.827 483.828 258.166 495.046 263.719L498.916 265.635L499.174 264.903C499.751 263.259 499.526 262.991 496.212 261.374C481.087 253.992 462.261 248.9 437.086 245.384C429.51 244.325 425.011 243.783 409.48 242.058C388.547 239.733 380.678 238.624 363.071 235.514C346.78 232.636 337.242 230.611 326.826 227.816C294.541 219.155 269.518 206.012 249.437 187.166C242.124 180.303 237.869 175.404 227.056 161.399C211.667 141.465 206.275 135.898 196.209 129.55C188.959 124.977 179.28 120.306 171.66 117.701C159.958 113.701 152.29 112.07 129.17 108.663C103.702 104.91 93.7823 102.625 78.0077 96.8803C74.5946 95.6374 71.7688 94.6402 71.7277 94.6646C71.6869 94.6891 71.2925 95.1231 70.8514 95.6295ZM301.768 3.90612C305.023 8.77637 310.325 15.2593 314.177 19.079C323.326 28.1523 333.031 34.3854 345.374 39.1159C361.919 45.457 380.686 47.9595 409.774 47.7036C413.725 47.6688 414.441 47.5958 413.977 47.2748C413.67 47.0621 412.941 46.5223 412.357 46.0752C411.341 45.2977 411.094 45.2631 406.686 45.2784C381.33 45.3677 363.911 43.1063 348.636 37.742C331.713 31.7988 317.605 21.2091 306.461 6.08586C305.198 4.37216 303.994 2.9484 303.786 2.9218C303.578 2.8952 302.832 2.79754 302.13 2.70472L300.852 2.53633L301.768 3.90612ZM59.8389 109.084L59.1912 109.929L62.0666 111.234C67.8097 113.841 78.448 117.465 86.0406 119.4C97.1519 122.232 105.475 123.67 127.011 126.482C147.738 129.188 157.85 131.406 169.202 135.738C175.177 138.018 179.518 139.976 184.191 142.499C197.582 149.729 202.356 154.205 219.097 175.224C230.032 188.954 234.326 193.884 240.804 200.152C253.286 212.229 267.013 221.766 284.203 230.303C290.098 233.231 306.682 239.821 313.886 242.097C324.557 245.47 337.576 248.754 350.394 251.306C374.006 256.007 379.178 256.794 407.622 260.016C433.872 262.989 443.484 264.445 456.116 267.36C471.388 270.885 482.48 274.98 493.916 281.316C494.981 281.906 495.888 282.373 495.931 282.354C496.075 282.293 496.446 280.138 496.356 279.888C496.307 279.754 495.012 278.962 493.477 278.127C480.1 270.852 464.769 265.939 444.099 262.305C434.048 260.538 427.081 259.62 404.048 257.026C380.477 254.373 371.936 253.034 349.205 248.431C301.407 238.752 268.243 223.12 242.428 198.101C236.022 191.892 232.533 187.876 221.011 173.444C206.259 154.966 200.684 149.328 191.739 143.842C181.273 137.422 170.302 132.701 158.409 129.501C150.019 127.242 141.754 125.778 125.868 123.733C106.879 121.29 98.0796 119.756 87.0582 116.97C80.3204 115.266 76.059 113.877 68.2823 110.851C64.2466 109.281 60.8414 108.05 60.7155 108.117C60.5897 108.183 60.1952 108.619 59.8389 109.084ZM318.543 5.52788C318.645 5.80921 323.704 10.4352 325.826 12.1883C328.937 14.7576 335.377 19.0403 339.273 21.1296C352.678 28.3193 369.779 32.4312 390.302 33.3996L393.632 33.5567L391.382 32.2641C389.548 31.2105 388.757 30.9409 387.103 30.8046C373.928 29.721 364.833 28.1376 356.022 25.3941C351.492 23.9834 344.365 21.0097 340.518 18.9249C334.949 15.9073 328.117 11.0826 324.104 7.33531C323.003 6.30625 322.445 6.02807 320.797 5.68552C318.907 5.29228 318.446 5.2602 318.543 5.52788ZM50.1199 122.709L49.5188 123.755L53.5322 125.543C70.1926 132.968 86.7973 137.226 109.941 140.01C114.512 140.559 122.28 141.495 127.204 142.089C137.26 143.302 143.669 144.358 149.979 145.842C160.934 148.419 171.323 152.392 181.238 157.797C193.393 164.423 197.976 168.812 215.875 190.964C226.874 204.578 231.57 209.668 240.372 217.515C255.28 230.806 270.261 240.266 290.64 249.255C307.028 256.484 325.687 262.105 351.069 267.46C369.596 271.369 375.21 272.219 403.707 275.428C421.444 277.425 430.932 278.697 439.032 280.164C458.781 283.741 474.736 289.12 487.007 296.337C488.622 297.287 490.312 298.275 490.762 298.532L491.582 299L491.954 297.996C492.159 297.443 492.273 296.841 492.207 296.657C492.141 296.473 490.842 295.571 489.321 294.653C476.433 286.878 459.859 281.255 438.837 277.526C429.617 275.89 421.851 274.86 402.687 272.732C378.937 270.094 368.614 268.565 355.484 265.744C352.346 265.07 347.712 264.076 345.185 263.534C301.781 254.236 268.487 238.887 243.012 216.43C234.718 209.119 230.081 204.195 220.773 192.812C204.943 173.454 202.064 170.18 196.387 165.087C189.316 158.743 179.827 153.37 166.916 148.397C153.75 143.327 144.077 141.333 118.952 138.509C102.492 136.658 93.7653 135.283 84.0835 133.015C73.8871 130.625 64.1987 127.435 55.8714 123.724C53.1894 122.529 50.9335 121.576 50.8581 121.607C50.7827 121.638 50.4508 122.133 50.1199 122.709ZM41.226 136.919L40.7026 137.917L44.6426 139.752C57.7708 145.865 71.4054 150.019 87.1296 152.697C94.8131 154.005 99.5071 154.584 113.439 155.943C130.414 157.598 137.354 158.574 145.483 160.452C156.571 163.012 167.242 167.066 177.667 172.678C182.39 175.221 186.04 177.782 190.004 181.335C195.06 185.866 198.777 189.978 209.554 202.962C214.914 209.42 220.762 216.296 222.549 218.241C245.889 243.654 275.88 261.89 314.566 274.192C322.67 276.769 330.519 278.858 343.341 281.849C361.636 286.118 369.465 287.382 396.432 290.422C422.426 293.352 431.303 294.674 442.925 297.346C459.307 301.112 470.691 305.53 482.926 312.87L486.35 314.925L486.831 313.948C487.096 313.411 487.257 312.818 487.188 312.63C487.031 312.195 480.882 308.569 476.054 306.066C471.213 303.555 461.234 299.634 455.25 297.892C439.761 293.381 428.679 291.456 399.264 288.166C374.21 285.365 361.42 283.486 352.349 281.275C350.586 280.845 346.64 279.937 343.58 279.256C332.902 276.882 323.166 274.241 312.789 270.905C306.706 268.948 290.332 262.562 285.101 260.105C266.919 251.564 252.138 242.033 238.321 229.939C229.188 221.945 224.116 216.549 212.835 202.824C201.532 189.073 197.376 184.463 191.581 179.252C184.687 173.052 175.795 168.038 162.886 163.073C149.688 157.997 138.56 155.762 115.654 153.589C94.2903 151.562 82.8905 149.785 71.0822 146.641C63.2937 144.567 52.6629 140.653 44.767 136.953C43.3416 136.285 42.0796 135.779 41.9624 135.829C41.8453 135.879 41.5141 136.37 41.226 136.919ZM33.3077 151.226C32.9982 151.769 32.7811 152.313 32.8253 152.435C32.9826 152.869 40.6134 156.346 46.8268 158.815C56.012 162.465 63.6792 164.733 73.3437 166.659C83.7567 168.734 90.1212 169.483 113.027 171.326C136.755 173.235 150.825 176.571 166.935 184.107C181.625 190.979 186.477 195.187 205.25 217.335C213.842 227.471 215.572 229.431 219.769 233.793C237.094 251.792 257.838 266.359 282.941 278.154C288.821 280.916 304.513 287.088 311.277 289.297C318.581 291.683 325.746 293.77 332.351 295.434C335.181 296.146 339.017 297.114 340.875 297.585C353.494 300.779 366.557 302.841 392.797 305.781C411.581 307.885 415.755 308.433 425.016 310.013C442.263 312.954 456.367 317.203 467.128 322.699C470.106 324.221 474.791 326.909 478.46 329.203L480.375 330.4L480.912 329.204L481.45 328.009L477.735 325.709C466.304 318.634 455.316 314.15 440.514 310.52C428.815 307.65 418.731 306.102 392.886 303.207C364.646 300.045 355.621 298.556 337.342 294.047C303.981 285.817 276.982 274.406 253.543 258.628C243.364 251.775 235.439 245.427 227.148 237.482C220.834 231.431 218.119 228.458 207.311 215.749C192.343 198.15 187.056 192.861 179.309 187.741C174.38 184.482 163.746 179.498 156.016 176.822C142.172 172.031 132.368 170.277 109.208 168.45C98.5065 167.606 90.3431 166.797 85.2603 166.077C76.3476 164.813 66.3271 162.675 59.4456 160.568C54.3308 159.002 44.1235 155.037 38.9506 152.606C36.6212 151.512 34.5254 150.532 34.2931 150.428C33.9485 150.273 33.7671 150.42 33.3077 151.226ZM26.1997 166.352L25.6577 167.558L29.3069 169.32C34.6114 171.881 47.7284 177.009 52.4589 178.371C65.8074 182.214 78.6498 184.251 97.1085 185.452C116.974 186.746 120.394 187.045 127.376 188.099C137.804 189.673 145.91 191.883 156.163 195.946C175.357 203.553 180.032 207.335 202.392 233.342C209.316 241.397 211.935 244.281 216.453 248.833C220.644 253.055 229.138 260.681 233.687 264.307C258.491 284.075 288.176 299.04 322.371 309.011C343.452 315.159 355.937 317.528 382.783 320.475C409.466 323.404 420.533 325.016 431.272 327.539C446.528 331.124 458.722 336.026 470.142 343.165L473.42 345.215L473.98 344.016L474.541 342.817L471.425 340.886C458.447 332.844 444.877 327.647 427.399 324.026C417.577 321.991 409.281 320.817 389.274 318.63C360.047 315.436 350.718 313.903 334.301 309.596C321.86 306.332 313.055 303.592 302.755 299.781C267.548 286.753 237.463 267.418 214.466 243.04C212.667 241.133 208.082 235.963 204.276 231.551C185.262 209.508 178.85 203.586 168.436 198.447C155.968 192.294 144.36 188.428 131.558 186.164C124.17 184.858 117.99 184.239 102.295 183.235C96.5363 182.867 89.9877 182.396 87.7431 182.19C75.026 181.021 62.7517 178.752 52.3468 175.644C47.4172 174.173 36.3261 169.801 31.2214 167.318C29.1884 166.33 27.3486 165.436 27.1334 165.334C26.8274 165.187 26.6237 165.409 26.1997 166.352ZM20.0207 181.881L19.6703 182.931L20.6974 183.493C25.4699 186.101 37.339 190.912 44.3663 193.086C58.4648 197.448 71.9166 199.409 94.9525 200.459C115.005 201.374 123.394 202.295 133.91 204.736C141.807 206.569 151.886 210.106 159.991 213.888C164.94 216.197 166.793 217.236 169.839 219.409C176.727 224.325 182.56 230.122 196.467 245.874C209.713 260.878 217.579 268.642 228.312 277.308C248.524 293.626 270.646 306.376 296.459 316.584C311.151 322.394 329.173 327.904 342.413 330.633C352.567 332.727 362.199 334.102 380.552 336.079C394.416 337.573 401.538 338.427 407.438 339.305C431.079 342.822 447.655 348.352 462.158 357.56C465.627 359.762 465.705 359.772 466.395 358.094C466.689 357.38 466.676 357.365 464.808 356.142C451.08 347.156 435.007 341.366 413.701 337.731C405.549 336.34 399.431 335.554 382.49 333.718C366.148 331.947 359.761 331.107 350.708 329.534C341.684 327.967 336.404 326.765 327.775 324.316C314.247 320.477 306.789 317.93 294.584 312.983C267.137 301.857 243.39 287.374 222.779 269.188C215.071 262.388 209.537 256.737 199.986 245.917C183.874 227.663 178.075 221.909 170.541 216.696C163.209 211.623 147.6 205.342 134.689 202.27C125.093 199.987 116.146 198.962 98.3839 198.11C80.0908 197.233 73.3169 196.616 63.4302 194.926C57.6861 193.944 51.702 192.58 46.5466 191.079C42.097 189.783 28.773 184.557 24.0851 182.27C22.2671 181.382 20.6876 180.696 20.5753 180.744C20.4627 180.792 20.2132 181.304 20.0207 181.881ZM14.824 197.732C14.676 198.347 14.6229 198.926 14.7063 199.019C15.0823 199.438 23.529 203.127 28.4046 205.001C45.8716 211.717 61.5916 214.451 87.0758 215.208C110.902 215.916 118.669 216.683 130.445 219.491C140.997 222.006 154.631 227.125 161.292 231.073C168.892 235.577 176.915 243.053 190.184 257.996C202.662 272.049 209.077 278.509 218.937 286.951C247.586 311.478 281.772 329.911 319.552 341.2C337.476 346.556 347.08 348.27 377.384 351.519C401.467 354.101 411.419 355.666 422.785 358.658C434.179 361.659 444.486 365.951 453.597 371.491C455.347 372.556 456.837 373.404 456.907 373.376C456.978 373.348 457.311 372.848 457.649 372.265L458.263 371.204L454.554 369.02C443.133 362.296 433.488 358.503 419.24 355.129C409.465 352.815 398.763 351.213 379.3 349.148C345.28 345.54 334.255 343.396 311.23 335.908C304.985 333.877 287.595 326.929 281.426 324.001C258.222 312.984 238.68 300.419 220.385 284.752C210.449 276.243 205.72 271.45 190.104 254.06C176.539 238.953 169.002 232.212 160.63 227.695C159.35 227.004 154.762 225.026 150.437 223.3C139.65 218.995 132.526 216.94 122.525 215.246C113.639 213.741 109.909 213.471 84.9817 212.532C68.0693 211.894 58.713 210.816 47.3475 208.195C37.8467 206.005 26.577 201.961 17.3113 197.418C16.2571 196.901 15.3266 196.509 15.2437 196.546C15.1608 196.583 14.9719 197.117 14.824 197.732ZM10.6142 214.042L10.2957 215.314L12.353 216.315C16.128 218.151 26.6601 222.196 31.1365 223.529C46.5689 228.124 60.1316 229.8 84.523 230.124C105.766 230.406 116.181 231.438 128.039 234.437C139.598 237.36 152.305 242.337 158.305 246.29C166.467 251.668 171.668 256.692 190.525 277.422C202.752 290.864 214.706 301.658 229.991 313.058C259.957 335.407 296.332 352.748 329.144 360.325C339.596 362.738 350.645 364.343 372.64 366.642C388.471 368.297 392.663 368.829 400.821 370.216C419.522 373.396 432.548 377.87 445.559 385.581L447.448 386.7L448.142 385.829C448.524 385.351 448.857 384.861 448.883 384.742C448.939 384.489 443.464 381.296 439.539 379.293C435.674 377.32 425.892 373.513 421.089 372.113C408.601 368.473 398.162 366.737 372.73 364.07C337.668 360.392 326.179 358.03 303.044 349.744C280.792 341.773 256.81 329.055 235.813 314.09C219.181 302.235 205.18 289.744 191.117 274.212C172.855 254.043 164.875 246.667 156.234 241.966C151.532 239.409 139.064 234.739 131.145 232.569C117.974 228.961 107.708 227.878 83.8933 227.581C74.1547 227.46 64.7795 227.03 59.5243 226.463C48.2461 225.246 37.4085 222.977 28.6662 220.003C25.1035 218.791 15.9309 215.113 12.7274 213.611L10.9329 212.77L10.6142 214.042ZM7.39945 231.199L7.1973 232.449L13.7572 235.031C23.6689 238.933 30.8948 240.963 40.8431 242.64C51.8573 244.496 61.3655 245.09 79.2657 245.04C103.651 244.972 115.035 246.321 131.442 251.22C136.726 252.798 148.848 257.62 151.497 259.198C158.532 263.388 166.403 270.42 178.32 283.159C192.809 298.648 195.296 301.179 202.728 308.002C239.2 341.485 286.732 367.601 327.05 376.31C336.675 378.389 345.795 379.659 366.683 381.83C382.522 383.476 388.182 384.191 395.849 385.516C411.329 388.191 423.771 392.274 435.112 398.401L437.202 399.529L437.949 398.614C438.36 398.111 438.729 397.648 438.77 397.585C438.898 397.385 432.08 393.861 428.086 392.063C425.968 391.11 422.389 389.707 420.13 388.946C405.791 384.111 394.504 382.079 365.781 379.158C337.576 376.289 325.462 374.069 309.588 368.857C272.865 356.798 235.16 334.238 204.149 305.77C198.11 300.225 193.481 295.578 185.786 287.335C169.9 270.315 164.642 265.245 157.578 260.136C152.268 256.295 148.232 254.303 139.465 251.199C130.132 247.895 123.051 246.007 114.601 244.569C105.262 242.98 96.6829 242.484 79.2296 242.523C48.7085 242.591 33.1191 240.11 13.1591 232.006C10.2309 230.817 7.7826 229.868 7.71844 229.896C7.65437 229.925 7.51068 230.511 7.39945 231.199ZM5.40916 247.931C5.34649 248.504 5.36813 249.174 5.45697 249.419C5.6421 249.929 13.5958 252.853 19.2819 254.502C32.7937 258.418 48.4524 260.143 67.6798 259.831C83.7961 259.569 86.3449 259.565 91.9482 259.789C107.825 260.424 119.843 262.809 135.957 268.522C138.787 269.526 142.299 270.962 143.761 271.713C152.403 276.156 160.943 283.58 177.155 300.743C187.073 311.244 192.397 316.465 201.045 324.175C238.808 357.839 284.505 383.438 321.327 391.555C331.108 393.71 339.655 394.899 360.566 397.012C381.128 399.089 389.352 400.238 398.275 402.278C408.129 404.531 418.148 408.013 424.734 411.474L425.864 412.068L426.727 411.102C427.341 410.416 427.498 410.065 427.271 409.886C426.452 409.243 420.306 406.498 416.177 404.933C408.242 401.925 399.325 399.589 389.387 397.917C382.336 396.73 376.973 396.078 362.332 394.628C326.508 391.081 313.94 388.35 291.901 379.327C256.525 364.843 217.792 338.363 188.052 308.331C186.651 306.917 182.901 303.009 179.718 299.646C164.452 283.519 156.343 276.2 148.088 271.098C140.656 266.504 121.421 260.55 107.598 258.564C97.5715 257.124 90.8837 256.902 69.3912 257.297C44.6929 257.752 27.0787 255.185 10.1308 248.662L5.52294 246.888L5.40916 247.931ZM4.55516 265.741L4.56501 266.999L7.3588 267.952C18.1295 271.623 31.4838 273.934 45.2387 274.504C52.0195 274.786 55.5572 274.757 68.985 274.309C84.4491 273.793 91.6562 273.978 100.82 275.123C114.857 276.878 133.587 282.312 141.463 286.915C149.098 291.377 157.56 298.73 170.742 312.358C183.696 325.75 189.642 331.484 199.767 340.351C224.755 362.233 252.557 380.894 278.686 393.323C284.949 396.302 301.463 402.737 306.29 404.079C319.744 407.821 330.851 409.63 354.192 411.881C377.79 414.157 386.929 415.543 397.81 418.496C401.742 419.562 408.818 421.939 411.99 423.257L413.674 423.958L414.572 423.125C415.065 422.666 415.505 422.229 415.55 422.152C415.703 421.888 407.441 418.72 402.9 417.301C391.168 413.637 380.529 411.861 356.337 409.526C330.799 407.061 319.371 405.187 305.847 401.246C300.241 399.613 285.617 393.779 278.512 390.342C252.278 377.65 224.966 359.132 200.04 337.136C190.859 329.035 185.803 324.158 174.659 312.653C159.848 297.364 151.965 290.333 144.225 285.511C140.641 283.278 137.303 281.762 132.001 279.958C117.009 274.856 104.696 272.399 90.6915 271.712C83.9013 271.38 80.9751 271.396 67.635 271.84C54.8335 272.265 49.9943 272.27 42.9282 271.863C30.9886 271.176 19.548 269.131 9.29442 265.851C6.79255 265.051 4.70055 264.415 4.6454 264.439C4.59025 264.462 4.54956 265.048 4.55516 265.741ZM4.98589 283.082L5.03803 284.406L6.09171 284.753C8.01064 285.385 14.4481 286.845 18.0882 287.474C24.1765 288.525 29.6712 289.113 36.3298 289.424C43.8957 289.779 48.1723 289.719 61.0441 289.081C77.5769 288.26 84.7922 288.285 93.5234 289.192C105.798 290.467 120.063 293.878 130.485 298.029C140.943 302.196 148.658 308.473 170.19 330.335C178.306 338.576 183.698 343.743 191.523 350.778C219.187 375.65 249.622 396.752 276.394 409.621C290.708 416.501 303.032 420.474 318.644 423.238C327.867 424.871 334.363 425.648 353.927 427.458C363.198 428.315 372.078 429.412 377.791 430.406C385.159 431.689 389.911 432.856 398.52 435.5L399.797 435.892L400.902 434.957L402.008 434.022L399.266 433.063C395.309 431.679 387.412 429.597 382.442 428.628C374.103 427.002 366.193 426.016 347.512 424.275C326.483 422.314 315.132 420.458 302.291 416.878C297.198 415.457 282.983 409.921 276.964 407.013C244.656 391.406 206.006 362.802 175.21 331.708C159.445 315.79 154.391 310.926 149.212 306.685C140.912 299.89 135.715 296.822 128.402 294.401C112.758 289.22 100.265 286.772 86.282 286.146C79.2055 285.829 74.7812 285.902 61.4681 286.556C49.2288 287.158 44.3535 287.246 37.7836 286.987C27.334 286.574 16.5451 284.952 7.27433 282.401L4.9335 281.757L4.98589 283.082ZM6.58848 299.598C6.60208 299.855 6.68439 300.479 6.77185 300.983L6.93074 301.901L11.5224 302.642C26.2971 305.028 34.7487 305.171 60.4927 303.472C71.895 302.719 81.0863 302.767 89.4143 303.621C104.001 305.116 122.671 309.874 130.276 314.034C139.392 319.019 147.691 326.099 167.141 345.482C199.865 378.094 236.832 406.442 267.873 422.73C285.013 431.724 298.987 436.286 318.445 439.24C325.029 440.24 329.907 440.78 344.344 442.111C362.904 443.821 370.881 444.906 379.825 446.936L383.79 447.836L385.172 446.857L386.554 445.877L381.163 444.626C371.586 442.403 364.34 441.38 346.851 439.779C320.133 437.333 309.69 435.705 297.138 432.029C287.364 429.167 277.533 424.995 266.593 419.065C235.864 402.411 200.521 375.086 168.723 343.397C148.518 323.262 139.546 315.74 130.102 311.016C125.925 308.927 118.718 306.638 109.242 304.391C93.6067 300.684 80.7292 299.736 61.8456 300.901C57.8256 301.149 52.0923 301.503 49.1051 301.686C34.5424 302.581 22.8278 302.033 10.8447 299.894C7.36176 299.272 6.56876 299.217 6.58848 299.598ZM9.35145 316.568C9.47248 316.902 9.62045 317.518 9.68028 317.938C9.78377 318.663 9.92208 318.716 12.4763 319C23.5536 320.232 32.0822 320.109 52.6892 318.42C73.9117 316.679 87.6519 317.486 104.819 321.479C118.561 324.675 123.743 326.656 131.005 331.49C138.703 336.613 145.583 342.713 163.983 360.729C196.813 392.872 233.315 421.562 261.039 437.013C276.903 445.854 289.886 450.605 306.429 453.621C315.418 455.259 320.933 455.924 339.279 457.578C350.921 458.627 359.343 459.551 362.393 460.112C363.832 460.377 364.375 460.213 366.479 458.879L367.42 458.282L364.485 457.812C358.894 456.919 352.607 456.216 339.438 455.011C319.017 453.142 312.705 452.338 303.582 450.441C287.056 447.005 274.806 442.09 257.723 432.043C237.135 419.933 215.146 403.453 190.116 381.371C179.053 371.611 173.164 366.129 162.24 355.42C153.235 346.594 149.952 343.478 145.769 339.79C135.627 330.85 126.756 325.06 119.784 322.833C105.717 318.338 89.9544 315.5 76.7583 315.085C68.8427 314.836 63.0299 315.076 48.3965 316.252C35.5205 317.288 26.2014 317.533 19.1598 317.022C16.3892 316.82 11.2408 316.296 9.82907 316.072C9.17163 315.967 9.14405 315.996 9.35145 316.568ZM13.454 333.157C13.7066 334.786 13.855 334.841 18.1139 334.894C24.6571 334.976 30.841 334.624 43.7149 333.438C64.2316 331.548 72.5227 331.473 85.3233 333.062C95.5931 334.338 110.276 337.619 116.147 339.951C123.109 342.715 131.59 348.604 141.733 357.717C145.862 361.426 148.331 363.769 158.606 373.731C194.307 408.342 230.295 437.291 256.19 452.229C271.33 460.962 282.739 465.34 298.47 468.452C307.161 470.171 314.658 471.111 330.303 472.443L338.849 473.171L340.954 472.067L343.059 470.963L337.055 470.454C317.979 468.838 310.797 468.037 302.865 466.642C286.605 463.783 274.282 459.397 260.074 451.412C232.406 435.862 196.433 406.924 156.665 368.225C142.533 354.474 135.416 348.359 127.346 343.033C121.257 339.016 117.399 337.29 110.281 335.403C92.7461 330.752 77.3885 328.909 61.5487 329.553C58.5392 329.676 50.542 330.288 43.7773 330.914C30.1772 332.171 24.0901 332.499 17.7212 332.316C15.3823 332.248 13.4339 332.208 13.3917 332.226C13.3492 332.244 13.3774 332.663 13.454 333.157ZM18.3198 348.551L18.7764 349.811L23.6897 349.458C26.3918 349.264 32.715 348.659 37.7407 348.113C42.7665 347.568 48.1562 347.018 49.7179 346.892C67.4829 345.462 82.549 346.655 101.104 350.962C110.235 353.081 114.767 354.993 121.889 359.73C128.728 364.279 138.122 372.138 148.279 381.81C190.761 422.264 218.045 445.329 243.027 461.904C253.583 468.907 261.489 473.19 270.379 476.722C278.84 480.084 286.583 482.225 296.535 483.956C305.205 485.464 305.301 485.468 308.385 484.522C309.882 484.062 311.133 483.629 311.166 483.559C311.199 483.488 309.272 483.197 306.884 482.91C292.282 481.158 278.455 477.596 267.698 472.817C242.235 461.504 205.187 432.47 154.477 384.087C145.728 375.74 135.274 366.41 130.587 362.767C123.21 357.032 116.118 352.779 110.745 350.867C105.378 348.956 90.6522 345.915 81.4468 344.816C73.3928 343.855 64.6609 343.539 56.6767 343.921C52.1446 344.137 47.6949 344.537 36.0161 345.775C30.5216 346.358 24.1896 346.938 21.9446 347.064L17.8633 347.292L18.3198 348.551ZM23.9848 362.561C24.4091 363.731 24.4714 363.783 25.3419 363.685C25.8438 363.628 29.5897 363.169 33.6663 362.665C51.663 360.442 62.2759 360.157 75.487 361.542C86.1272 362.658 100.81 365.563 105.889 367.558C116.407 371.689 126.632 379.508 148.635 400.244C182.325 431.994 202.784 450.121 221.406 464.717C238.727 478.292 253.404 487.548 264.649 491.987C268.53 493.519 268.63 493.54 270.522 493.212C271.581 493.029 272.756 492.826 273.135 492.761C273.596 492.682 271.949 491.935 268.123 490.487C259.589 487.258 251.695 483.015 241.64 476.254C219.979 461.689 196.496 441.665 151.977 399.8C139.133 387.722 132.137 381.482 126.582 377.153C116.255 369.105 108.822 365.15 100.34 363.191C87.2279 360.161 76.6755 358.702 64.9585 358.297C55.0375 357.954 48.2133 358.366 33.147 360.217C28.3403 360.808 24.2125 361.301 23.9738 361.313C23.6223 361.331 23.6245 361.568 23.9848 362.561ZM30.1687 375.584C30.3778 376.161 30.7317 376.683 30.9548 376.745C31.1782 376.806 32.3233 376.717 33.4998 376.547C34.6764 376.376 38.2447 375.996 41.4293 375.703C57.9823 374.181 73.8824 375.236 92.6537 379.101C101.767 380.977 109.14 384.645 119.476 392.443C127.488 398.488 132.939 403.331 155.307 424.283C192.361 458.993 209.022 473.716 225.629 486.425C233.465 492.422 238.682 495.999 239.504 495.94C239.9 495.911 240.913 495.862 241.756 495.83C242.715 495.794 243.175 495.688 242.987 495.546C242.821 495.422 241.798 494.749 240.714 494.051C237.47 491.964 229.966 486.508 224.743 482.438C208.994 470.167 192.067 455.141 157.106 422.396C134.535 401.256 129.054 396.385 121.055 390.36C110.774 382.614 102.714 378.54 94.1578 376.765C78.03 373.418 63.6699 372.043 50.3297 372.569C46.2185 372.732 35.5712 373.693 31.8008 374.243L29.7885 374.536L30.1687 375.584ZM37.3099 388.389C37.5784 388.851 37.9102 389.383 38.0472 389.571C38.204 389.785 39.6799 389.812 42.0349 389.643C54.6521 388.738 69.5687 389.738 85.2554 392.54C94.3924 394.172 99.1333 396.01 107.081 401.002C118.18 407.973 127.287 415.85 160.332 447.056C186.003 471.299 200.551 484.655 209.359 492.068L213.091 495.209L215.27 495.373L217.449 495.538L212.77 491.565C201.566 482.054 190.627 472.045 164.699 447.581C132.658 417.35 126.411 411.755 116.137 404.094C107.175 397.41 99.672 393.281 93.4021 391.582C90.1386 390.698 79.7815 388.89 73.7384 388.149C61.9423 386.703 50.2848 386.395 40.1634 387.263L36.8215 387.549L37.3099 388.389ZM45.8404 401.489C45.9596 401.631 46.3441 402.153 46.6949 402.649L47.3328 403.549L54.5227 403.847C64.6921 404.268 76.1441 405.587 84.7826 407.332C94.2773 409.249 106.949 416.933 122.606 430.266C131.672 437.987 140.769 446.458 164.759 469.521C173.344 477.774 182.07 486.143 184.15 488.119L187.931 491.711L190.337 492.182L192.743 492.652L191.662 491.614C191.068 491.044 188.641 488.746 186.27 486.508C183.898 484.27 175.939 476.65 168.584 469.575C145.084 446.97 138.402 440.696 128.82 432.24C112.833 418.132 101.495 410.37 91.339 406.582C83.6875 403.728 62.892 401.082 48.48 401.129C45.5074 401.139 45.5439 401.134 45.8404 401.489ZM57.8358 416.987L58.9547 418.354L62.2892 418.657C67.0894 419.093 75.2201 420.156 78.9315 420.833C94.8012 423.729 113.352 437.62 153.245 476.477L162.528 485.519L164.83 486.226C166.096 486.615 167.21 486.904 167.306 486.868C167.498 486.795 164.29 483.591 153.497 473.072C128.559 448.768 111.769 434.368 99.5631 426.818C93.2194 422.894 86.9491 419.978 82.5302 418.897C78.8519 417.997 66.8257 416.393 59.6228 415.842L56.7171 415.619L57.8358 416.987ZM73.2437 433.298C74.7299 434.681 75.1688 434.908 77.9071 435.702C89.6107 439.099 106.412 450.647 126.276 468.948C130.959 473.264 130.883 473.213 136.738 475.853L138.047 476.444L136.747 475.169C125.013 463.664 109.506 450.631 99.3369 443.727C89.3055 436.916 79.4422 432.621 71.9738 431.811C71.7699 431.788 72.3414 432.458 73.2437 433.298Z" fill="url(#paint0_linear_101_443)"/>
</g>
<defs>
<filter id="filter0_d_101_443" x="0.554688" y="1.01123" width="505.383" height="502.929" filterUnits="userSpaceOnUse" color-interpolation-filters="sRGB">
<feFlood flood-opacity="0" result="BackgroundImageFix"/>
<feColorMatrix in="SourceAlpha" type="matrix" values="0 0 0 0 0 0 0 0 0 0 0 0 0 0 0 0 0 0 127 0" result="hardAlpha"/>
<feOffset dy="4"/>
<feGaussianBlur stdDeviation="2"/>
<feComposite in2="hardAlpha" operator="out"/>
<feColorMatrix type="matrix" values="0 0 0 0 0 0 0 0 0 0 0 0 0 0 0 0 0 0 0.25 0"/>
<feBlend mode="normal" in2="BackgroundImageFix" result="effect1_dropShadow_101_443"/>
<feBlend mode="normal" in="SourceGraphic" in2="effect1_dropShadow_101_443" result="shape"/>
</filter>
<linearGradient id="paint0_linear_101_443" x1="106.68" y1="460.857" x2="337.852" y2="5.62173" gradientUnits="userSpaceOnUse">
<stop stop-color="#21638A"/>
<stop offset="1" stop-color="#3090C9"/>
</linearGradient>
</defs>
</svg>
