<svg width="180" height="181" viewBox="0 0 180 181" fill="none" xmlns="http://www.w3.org/2000/svg">
<g clip-path="url(#clip0_86_629)">
<path d="M27.4205 118.226L22.64 113.794C17.6653 126.306 12.6907 138.817 7.71606 151.328C20.1889 145.857 28.1134 130.654 27.4205 118.226Z" fill="#5FBEFB"/>
<path d="M34.3391 115.322C31.1309 122.995 34.9198 133.078 42.2314 136.325C49.5431 139.572 58.9975 135.369 61.925 127.572C63.305 123.896 68.5528 123.375 71.4008 125.937C74.2487 128.498 75.0005 132.883 74.6165 136.817C74.2325 140.751 72.9176 144.522 72.3808 148.437C71.844 152.351 72.2292 156.718 74.7571 159.632C77.1014 154.158 78.3757 148.24 78.5034 142.232C78.6311 136.224 77.6097 130.25 75.5004 124.671C73.9392 120.606 68.6948 118.716 65.1137 120.927C55.4072 126.921 41.7664 124.393 34.3391 115.322Z" fill="#5FBEFB"/>
<path d="M42.693 52.125C41.0569 52.1679 41.0611 54.7043 42.6931 54.7519C44.3292 54.709 44.325 52.1726 42.693 52.125Z" fill="black"/>
<path d="M67.9884 51.7373C66.3523 51.7802 66.3566 54.3166 67.9885 54.3642C69.6247 54.3213 69.6204 51.7849 67.9884 51.7373Z" fill="black"/>
<path d="M50.7898 37.1771C50.3251 36.0345 49.636 35.0097 48.7682 34.1707C47.9004 33.3317 46.8738 32.6977 45.7567 32.3108C44.0078 31.8184 42.0734 31.7727 40.3665 32.462C37.7614 33.5332 36.1398 36.1367 34.7939 38.5955C36.5503 36.4318 38.4613 34.2781 40.6447 33.5655C41.7617 33.2174 42.208 33.2078 43.4025 33.1972C45.0084 33.1398 46.5919 33.6077 47.9372 34.5372C49.0688 35.2729 50.044 36.2486 50.8014 37.403C50.872 37.5005 50.9393 37.6007 51.0082 37.6995C50.938 37.5242 50.8657 37.3498 50.7898 37.1771Z" fill="black"/>
<path d="M80.4407 36.5979C80.2897 35.4543 79.9295 34.3527 79.3803 33.3548C78.2814 31.1959 75.9712 30.1997 73.7487 30.0783C71.7581 29.8695 69.7502 30.2055 67.9177 31.0543C66.228 31.7156 64.8934 33.0588 63.7758 34.5166C62.6909 35.9902 61.8131 37.6221 61.1697 39.3616C62.8947 36.6483 64.7936 34.3005 67.409 32.854C68.5745 32.3254 69.7956 31.9466 71.0464 31.7255C72.9314 31.5484 76.472 31.2792 78.3399 33.4424C79.3171 34.509 79.9243 35.8071 80.4319 37.3358C80.7645 38.4868 80.4885 37.0109 80.4407 36.5979Z" fill="black"/>
<path d="M50.8619 11.2403C49.5163 8.59208 47.6399 4.43386 44.8698 3.34085C40.9246 2.19921 37.0761 5.84644 35.0477 9.09088C32.5293 13.3972 30.7374 18.1252 28.7118 22.7012C26.6466 27.6542 24.3715 32.5064 22.2222 37.4191C20.2645 41.9452 17.9555 46.2977 16.135 50.8891C14.5514 55.2043 14.2823 58.9817 15.7878 63.3833C16.4075 65.3252 17.2605 67.1695 18.0391 69.0429C19.2579 72.1288 20.6432 75.198 22.7622 77.7165C24.3249 79.3802 26.1034 80.9448 28.1794 81.8208C27.1862 81.1765 26.283 80.3885 25.496 79.4796C24.6279 78.5724 23.8552 77.5684 23.1913 76.4852C21.3639 73.3149 20.704 70.782 19.4842 67.2843C17.838 62.9832 16.454 58.8633 17.1901 55.5951C18.0764 50.8795 20.136 47.5295 22.1874 42.8529C23.8751 39.1914 25.4765 35.4864 27.0859 31.786C28.2688 29.1243 29.4928 26.4826 30.5554 23.7632C32.6438 18.9926 35.047 12.4375 37.5405 9.02697C39.7678 6.36147 42.1182 4.79031 44.3261 5.42723C45.0909 5.66342 46.5282 7.34366 47.5209 8.90377C51.2361 14.3737 52.6284 17.886 52.895 24.5858C53.3771 19.8578 53.001 15.5048 50.8619 11.2403Z" fill="black"/>
<path d="M100.551 59.1459C100.437 55.1548 100.106 51.174 99.5596 47.2232C98.8749 42.1221 97.9204 37.0692 96.7936 32.0578C96.1158 28.9966 95.6191 25.8573 94.4907 22.9353C92.9293 19.1707 90.8685 15.661 88.3706 12.5121C85.1724 8.43471 79.9989 6.65613 75.095 7.17542C71.0066 7.56088 66.9734 8.56419 63.0562 9.84152C60.5994 10.6862 58.1281 11.6429 56.0064 13.2352C54.8736 14.171 53.8314 15.2234 52.895 16.377C54.1184 15.316 55.3018 14.3081 56.7305 13.5388C58.3902 12.7312 60.1266 12.1132 61.9101 11.6951C65.7626 10.7492 69.6602 10.0228 73.5862 9.51892C76.2776 9.28777 78.1966 9.15307 80.3013 9.82385C83.0043 10.649 84.5194 11.6094 86.4734 13.9412C88.7631 16.5877 91.5854 21.8006 92.6814 24.9787C93.4234 27.4665 93.9282 30.0223 94.4698 32.5648C95.0121 35.1135 95.6063 37.6505 96.091 40.2124C97.0998 45.7852 97.752 49.7799 98.0739 55.2426C98.2724 57.7917 98.2951 60.3527 98.1418 62.9053C97.5021 69.4146 95.6629 76.4331 90.5763 80.8498C89.4651 81.8871 86.3739 83.6682 84.1342 84.6459C82.0965 85.5364 78.3837 86.8686 75.5511 87.3447C75.1562 87.4251 74.7606 87.5013 74.3641 87.5732C74.5841 87.5772 74.8041 87.5793 75.0241 87.5795C79.5137 87.6407 83.9694 86.7496 88.1283 84.9587C94.8605 82.241 98.2039 75.642 99.6595 68.5344C100.291 65.4506 100.59 62.301 100.551 59.1459V59.1459Z" fill="black"/>
<path d="M51.4135 80.9475C51.5944 81.0006 51.7726 81.0638 51.9471 81.137C54.2174 82.1073 56.1491 83.7958 57.4781 85.9718C57.8664 86.6122 58.1784 87.301 58.4071 88.0225C58.3161 87.8842 58.172 87.6855 58.0986 87.5859C57.3671 86.6329 56.5334 85.773 55.6143 85.0236C54.275 83.9896 51.7839 82.1439 49.7158 81.8285C47.8583 81.5777 45.9761 81.6167 44.1293 81.9444C45.434 81.3993 46.7574 80.8894 48.1685 80.7838C49.2273 80.6195 50.3059 80.669 51.3473 80.9297" fill="black"/>
<path d="M52.2204 65.3504C52.7292 64.0435 53.5788 62.9167 54.6702 62.1016C53.724 62.4536 52.8797 63.0584 52.2192 63.8571C51.5588 64.6559 51.1044 65.6216 50.9003 66.6607C50.6615 68.1824 51.2957 69.96 52.7184 70.5533C53.0255 70.6917 53.3422 70.8052 53.6655 70.8928C53.3766 70.7015 53.0941 70.4984 52.8235 70.279C51.223 69.047 51.5832 66.6195 52.2204 65.3504Z" fill="black"/>
<path d="M84.0373 158.267C84.1583 157.256 84.2724 156.243 84.3688 155.228C84.8918 149.456 85.5069 143.658 85.2844 137.851C85.0561 134.304 84.4789 130.791 83.5621 127.37C82.0306 122.065 78.6205 117.086 73.567 115.13C71.8408 114.31 69.9849 113.839 68.095 113.741C66.8625 113.703 65.6291 113.759 64.4042 113.908C63.8662 111.937 62.0261 110.295 60.4729 109.18C59.9211 108.765 59.3274 108.416 58.7028 108.141C58.7624 108.184 58.8222 108.228 58.882 108.271C60.9565 110.027 63.8614 113.33 62.9481 115.724C62.0366 117.606 58.5127 116.99 55.3405 117.28C53.5172 117.39 51.6941 117.541 49.8667 117.54C47.6351 117.511 45.4075 117.331 43.1976 117.001C40.8472 116.64 38.4817 116.329 36.203 115.592C34.4831 115.025 32.884 114.388 31.7838 112.879C31.5077 112.55 31.3438 112.132 31.3181 111.693C31.2704 111.056 31.3705 110.503 31.7591 110.21C32.4379 109.683 33.3238 109.655 34.1444 109.71C35.0606 109.77 35.9752 109.856 36.89 109.935C36.8754 110.343 36.8629 110.751 36.8528 111.159C36.8546 111.24 36.8243 111.491 36.8672 111.325C37.0073 110.875 37.1379 110.422 37.2664 109.968C37.3239 109.973 37.3813 109.978 37.4387 109.983C37.3845 109.967 37.3302 109.951 37.276 109.935C37.2972 109.86 37.321 109.786 37.3418 109.712C37.9404 107.545 38.4207 105.345 38.7802 103.12C39.2626 100.096 39.4055 97.0287 39.5732 93.9694C41.1088 94.9242 42.7612 95.6509 44.484 96.129C47.6979 97.0016 51.0149 97.3734 54.3302 97.2326C56.0038 97.2302 57.6751 97.1026 59.3317 96.8508C58.5067 100.908 57.97 105.683 58.2817 109.161C59.4102 105.15 59.8982 100.967 59.7257 96.7864C61.9236 96.4346 64.0555 95.7191 66.0432 94.6662C70.1379 92.4494 73.3966 88.8503 76.3116 85.1516C78.7054 81.8264 81.0143 78.3779 82.7247 74.5983C83.372 73.1305 83.8867 71.6013 84.2618 70.031C84.5212 68.487 84.5907 66.9139 84.4684 65.351C84.4316 64.7668 84.416 65.8062 84.3807 66.002C84.0983 68.1209 83.6695 70.0731 82.7517 71.7977C81.3944 74.8627 78.3044 78.9833 77.2798 80.3857C74.6954 83.9537 71.919 87.4024 68.6563 90.2993C68.0487 90.7978 67.4301 91.2787 66.7834 91.7196C65.7862 92.3813 64.7434 92.9627 63.6638 93.4588C62.6062 93.8652 61.5233 94.194 60.4229 94.4428C58.5071 94.929 56.8024 95.0235 54.3303 95.0659C51.3986 95.1203 49.1194 94.9791 46.788 94.4706C45.5967 94.2136 44.4221 93.8762 43.2715 93.4607C42.0148 92.9172 40.8069 92.2551 39.6624 91.4823C39.3966 91.3068 39.1408 91.1148 38.8965 90.9072C36.1609 88.4398 33.9152 85.8409 32.3026 83.1404C29.3968 78.6143 27.8114 74.0172 27.4854 68.8621C27.3366 67.3588 27.2623 65.8482 27.2629 64.3367C27.3206 62.9988 27.6176 61.7477 27.8639 60.376C27.461 61.6445 27.0072 62.9052 26.7902 64.2282C26.5732 66.1258 26.4809 68.037 26.514 69.9482C26.4601 75.5898 28.4227 81.0402 31.4861 85.6022C33.3078 88.3101 35.473 90.7397 37.9208 92.8227C38.3519 93.1581 38.7996 93.4712 39.2573 93.7679C37.7521 98.9672 37.0967 104.396 36.8946 109.824C36.015 109.566 35.1352 109.309 34.2469 109.088C33.259 108.827 32.1663 108.744 31.2449 109.28C30.9473 109.457 30.6922 109.705 30.4992 110.003C30.3062 110.301 30.1805 110.642 30.1318 111C25.8593 109.375 20.8501 108.303 16.9958 111.506C14.2053 113.787 12.3465 117.116 10.9505 120.49C9.33941 124.389 7.94975 128.386 6.78896 132.461C5.41776 137.791 4.17096 143.158 2.86893 148.508C1.14969 155.966 0.344803 163.645 0.144565 171.312C0.104183 172.304 0.0586496 173.295 0 174.286C0.0666683 174.012 0.132376 173.737 0.197128 173.462C0.737306 170.795 1.29127 168.131 1.85902 165.47C5.6489 166.869 9.59635 167.693 13.4171 168.973C14.5926 169.416 15.7443 169.927 16.8671 170.504C16.5827 173.19 16.3286 175.88 16.0128 178.562C15.995 178.88 15.8798 179.525 16.0685 178.82C16.8882 176.314 17.5621 173.763 18.1568 171.19C18.4084 171.328 18.6656 171.472 18.9313 171.624C19.2725 171.819 19.6093 172.023 19.9453 172.227C19.7369 172.019 19.5259 171.814 19.3123 171.612C18.9744 171.297 18.6261 170.992 18.2729 170.693C18.6516 169.023 18.9979 167.345 19.328 165.663C20.0271 162.193 20.4953 158.685 20.8987 155.166C21.2141 155.227 21.5284 155.294 21.8447 155.351C22.2791 155.435 22.7133 155.52 23.1472 155.608C22.8808 155.484 22.6141 155.36 22.3463 155.24C21.8872 155.022 21.4254 154.815 20.9623 154.613C21.3821 150.891 21.7381 147.157 22.2251 143.446C21.1293 146.909 20.2179 150.431 19.452 153.989C14.8291 152.128 9.91395 151.215 4.96866 151.299C6.28971 145.476 7.6528 139.663 9.05794 133.862C10.9498 127.143 14.0284 117.248 18.2175 113.181C21.0395 110.312 25.5091 110.307 30.1075 111.127C30.0573 111.427 30.0339 111.73 30.0376 112.035C30.2079 114 31.7369 115.497 33.2672 116.438C36.285 118.289 39.792 118.862 43.1954 119.384C45.7463 119.786 48.3236 119.973 50.9026 119.942C53.5547 119.877 56.1846 119.47 58.8208 119.189C60.8542 118.952 63.4646 118.647 64.3424 116.362C64.5959 115.609 64.6268 114.792 64.4312 114.019C66.4206 114.186 68.2003 114.322 70.1097 115.081C71.5918 115.555 74.5361 117.539 75.0471 117.954C76.1056 118.759 77.5988 120.623 77.8079 120.962C80.2606 124.651 81.2052 127.541 81.9961 132.125C82.5745 135.038 82.8239 138.015 82.739 140.991C82.6608 146.537 82.0066 152.037 81.4299 157.544C79.532 157.065 77.5775 156.666 75.8427 156.379C72.1427 155.853 68.9808 155.593 64.803 154.501C69.9415 157.234 75.6126 158.199 81.2961 158.839C81.1078 160.689 80.9336 162.54 80.7993 164.394C80.6233 166.42 80.5482 168.45 80.5317 170.481C75.7169 169.238 70.6767 169.28 65.7497 169.527C68.7309 170.185 71.7522 170.622 74.7912 170.832C76.7034 170.946 78.6176 170.88 80.5312 170.876C80.5179 173.917 80.6307 176.959 80.7477 179.997C80.7547 180.265 80.76 180.532 80.7638 180.799C80.7881 180.673 80.8135 180.547 80.8374 180.421C81.3659 177.516 81.7162 174.579 82.1275 171.655C82.7228 167.476 83.41 163.309 83.9351 159.119C85.0688 159.234 86.1999 159.345 87.3241 159.463C86.2506 158.999 85.1532 158.6 84.0373 158.267ZM19.276 154.841C18.6229 157.975 18.0717 161.131 17.6225 164.309C17.3642 166.084 17.1519 167.865 16.9578 169.649C15.6266 168.651 14.1646 167.864 12.6181 167.314C9.12212 166.259 5.4618 165.967 1.87261 165.406C2.85773 160.764 3.8744 156.129 4.9226 151.502C9.73881 152.455 14.473 153.819 19.276 154.841H19.276Z" fill="black"/>
<path d="M61.2538 163.233C60.8959 167.438 61.0347 171.66 61.1472 175.874C61.9563 172.847 62.4391 168.022 62.852 164.888C63.4777 159.324 63.6693 153.716 64.2762 148.148C62.7019 153.03 61.6872 158.095 61.2538 163.233V163.233Z" fill="black"/>
<path d="M77.8536 132.227C75.8393 131.606 73.8989 130.736 71.8621 130.193C69.2667 129.502 66.6103 129.126 63.9887 128.569C61.3188 128.013 58.679 127.302 55.998 126.807C52.5719 126.198 49.1113 125.81 45.6489 125.523C39.1515 125.152 32.6369 125.251 26.1372 124.891C23.7862 124.808 20.7486 124.595 18.7819 124.328C16.7549 123.991 14.7503 123.52 12.7352 123.113C15.0466 123.924 17.3303 124.861 19.717 125.4C23.8478 126.339 28.0675 126.789 32.2762 127.126C36.8539 127.471 41.4538 127.278 46.0281 127.69C49.1904 127.972 51.972 128.327 54.475 128.751C57.1386 129.23 59.7698 129.896 62.4418 130.326C66.4967 131.031 70.5593 130.978 74.2872 131.826C75.9593 132.218 77.6571 132.441 79.3442 132.741C78.8518 132.556 78.3528 132.39 77.8536 132.227Z" fill="black"/>
<path d="M80.951 141.319C77.5255 140.765 74.0942 140.246 70.6851 139.585C68.518 139.148 66.3908 138.511 64.2165 138.112C60.1324 137.295 55.9668 137.255 51.8261 137.114C44.2205 136.769 36.6832 135.595 29.1276 134.692C25.9622 134.37 22.7756 134.409 19.6048 134.176C16.2013 133.931 12.8236 133.399 9.42175 133.13C12.8417 133.918 16.2249 134.895 19.6831 135.484C23.6536 136.112 27.1247 136.339 30.5846 136.86C37.9694 137.987 48.2753 139.309 56.7175 139.507C61.5142 139.761 64.9246 140.351 69.5126 141.048C72.4288 141.389 75.3692 141.448 78.3008 141.493C79.5873 141.512 80.875 141.487 82.1607 141.548C81.7594 141.461 81.3557 141.387 80.951 141.319Z" fill="black"/>
<path d="M60.4132 156.569C57.1817 154.979 53.7425 153.919 50.2716 153.097C47.3299 152.367 44.3424 151.861 41.332 151.583C35.2228 151.154 28.954 151.508 22.991 150.494C28.3481 152.328 33.974 152.932 39.5518 153.507C43.3022 153.934 47.4968 154.506 49.4564 154.785C52.4745 155.206 56.2883 155.748 59.8393 156.66C60.393 156.805 60.9442 156.963 61.4855 157.153C61.1331 156.948 60.7757 156.754 60.4132 156.569Z" fill="black"/>
<path d="M58.2945 172.21C56.5723 170.626 54.4217 169.725 52.3302 168.831C49.988 167.791 47.5458 167.023 45.0466 166.542C41.672 165.896 38.2312 165.857 34.8114 165.866C31.9758 165.831 29.14 165.783 26.3044 165.853C29.0782 166.301 31.8452 166.797 34.6229 167.217C40.0258 167.956 43.5502 168.245 49.1824 169.65C51.9796 170.433 55.1537 170.999 57.5786 172.187C58.2556 172.548 58.9072 172.96 59.5283 173.419C59.1307 173.001 58.7211 172.595 58.2945 172.21Z" fill="black"/>
</g>
<g clip-path="url(#clip1_86_629)">
<path d="M162.868 120.975C164.065 127.391 158.71 134.23 152.521 134.191C148.41 134.166 144.32 134.873 140.21 134.874C136.099 134.874 131.804 134.079 128.55 131.425C125.297 128.771 123.43 123.888 125.061 119.901C116.535 135.705 111.156 153.183 109.254 171.263C109.182 171.951 109.355 172.643 109.738 173.204C110.121 173.766 110.687 174.158 111.328 174.303C111.968 174.449 112.637 174.338 113.205 173.993C113.773 173.648 114.199 173.092 114.402 172.434L125.776 135.445C124.049 137.5 126.341 140.719 128.792 141.637C131.243 142.556 134.203 142.699 135.842 144.833C141.988 152.836 154.489 154.183 162.037 147.655C169.586 141.128 170.807 127.914 162.868 120.975Z" fill="#5FBEFB"/>
<path d="M136.28 48.0889C134.6 48.1329 134.604 50.7334 136.28 50.7822C137.96 50.7382 137.955 48.1377 136.28 48.0889Z" fill="black"/>
<path d="M160.441 47.6899C158.761 47.7339 158.766 50.3345 160.441 50.3833C162.122 50.3393 162.117 47.7387 160.441 47.6899Z" fill="black"/>
<path d="M130.428 36.0729C132.345 36.2666 134.279 36.1328 136.156 35.6767C134.239 35.5236 132.31 35.657 130.428 36.0729V36.0729Z" fill="black"/>
<path d="M153.835 35.0759C156.54 35.5297 159.836 35.6858 162.29 35.2443C159.508 34.6129 156.637 34.5557 153.835 35.0759Z" fill="black"/>
<path d="M148.927 61.8008C147.68 63.1767 146.533 65.0488 147.382 66.9792C147.134 65.079 148.22 63.4517 148.927 61.8008Z" fill="black"/>
<path d="M155.659 83.6399C154.966 82.4928 154.136 81.444 153.192 80.5189C150.286 77.7841 146.805 76.3524 142.726 76.6117C140.698 76.7044 138.726 77.4426 136.76 78.1042C138.515 76.9469 140.329 75.8056 142.379 75.3581C147.265 74.2109 151.755 76.2361 154.479 80.6427C155.074 81.6933 155.54 82.8199 155.865 83.9951C155.796 83.8771 155.728 83.7579 155.659 83.6399Z" fill="black"/>
<path d="M174.139 61.2305C174.125 61.1283 174.111 61.0261 174.097 60.924C174.065 61.6191 174.02 62.3134 173.966 63.007C173.79 65.1933 173.559 67.366 173.316 69.0952C172.273 78.1614 170.427 82.176 164.576 88.154C161.745 91.1445 158.859 92.8877 154.796 94.9547C152.985 95.8568 149.46 96.9081 147.098 96.819C144.912 96.8048 143.559 96.396 140.953 95.7208C136.929 94.3608 133.586 92.9643 129.866 89.9808C129.14 89.3355 128.443 88.6597 127.778 87.9452C126.748 86.8492 125.776 85.6937 124.868 84.484C123.956 83.2318 123.245 81.8297 122.763 80.3337C121.228 75.1654 120.35 71.2761 120.346 66.454C120.351 63.9769 120.518 61.4721 121.556 59.208C120.395 61.0706 119.673 63.1992 119.448 65.4166C118.693 69.6842 119.144 74.0546 119.961 78.2741C120.368 80.1946 120.858 82.1244 121.725 83.8763C122.701 85.6419 123.869 87.2805 125.207 88.7583C128.662 92.9809 133.269 95.642 138.174 97.5366C145.176 100.224 150.195 100.109 156.119 97.3467C155.596 99.9926 155.159 102.658 154.886 105.346C154.583 108.992 154.465 112.653 154.532 116.313C156.1 110.5 156.55 103.579 156.533 97.1516C157.621 96.6255 158.741 96.0128 159.912 95.3116C163.02 93.5581 165.724 91.1125 168.131 88.4139C171.865 84.5525 174.305 79.8631 174.585 74.2786C174.845 69.9244 174.696 65.5536 174.139 61.2305Z" fill="black"/>
<path d="M179.905 35.463C179.951 34.5541 180.113 33.6511 179.867 32.7557C179.532 31.2349 179.361 31.0414 178.802 29.4721C178.406 28.3932 177.899 27.3398 177.657 26.2075C177.836 25.7027 178.329 24.2154 178.272 22.8594C178.108 20.9196 177.798 20.6901 178.462 18.7858C178.692 17.5163 178.887 16.1076 178.319 14.9079C176.869 12.4672 174.184 11.3311 172.079 9.63912C167.988 6.09037 171.694 6.07134 163.298 5.26318C161.673 5.04753 160.768 5.07391 160.071 4.63335C160.062 4.62772 160.057 4.62474 160.049 4.61973C159.006 3.67384 157.761 3.00802 156.422 2.67885C154.601 2.33083 152.735 2.40434 150.901 2.15607C150.581 2.12143 150.263 2.06291 149.951 1.98093C149.642 1.93231 149.345 1.82373 149.074 1.6607C147.942 0.806764 146.466 0.645045 145.125 0.924589C142.058 1.96834 139.024 4.47474 136.638 5.17666C136.469 5.23062 136.297 5.27414 136.123 5.30702C136.058 5.31192 135.993 5.31258 135.928 5.30899C135.837 5.29061 135.747 5.26607 135.658 5.23551C134.642 4.7154 133.52 4.46645 132.392 4.51043C130.859 4.49563 129.412 5.22822 128.277 6.28328C126.945 7.56408 126.184 9.34423 125.552 11.0916C124.028 15.27 124.23 19.8845 125.127 24.1938C125.163 24.3576 125.282 25.0006 125.335 25.2723C124.754 26.0156 124.475 26.5138 123.544 28.2154C121.95 30.8632 121.018 33.7017 120.231 36.7121C120.111 37.1108 120.142 37.5431 120.316 37.9186C120.315 37.9451 120.318 37.9717 120.323 37.9977C120.323 38.1685 120.303 38.3388 120.262 38.5041C119.991 39.5666 119.78 40.6453 119.632 41.7346C119.54 42.582 119.395 43.5003 119.717 44.3093C120.454 45.3797 121.705 44.1716 122.507 43.7693C121.779 44.0079 120.291 44.9842 120.049 43.9806C119.993 42.1363 120.85 40.4199 121.385 38.7052C121.505 38.346 121.548 37.9633 121.511 37.5844C121.505 37.495 121.479 37.4086 121.434 37.3324C121.856 35.8388 122.315 35.0305 122.961 33.4435C123.404 32.1134 123.987 31.2298 124.922 29.7276C125.248 29.2147 125.565 28.6951 125.888 28.1797C124.734 32.3058 123.807 36.4988 123.111 40.7378C122.266 46.8664 121.914 53.0591 121.381 59.2238C123.362 52.2124 124.601 45.0032 125.489 37.7542C125.791 35.3127 126.4 30.9009 126.721 26.9326C127.093 26.5326 127.537 26.148 127.52 25.533C127.513 24.2323 127.056 22.9721 126.915 21.6813C126.703 20.1893 126.617 18.6803 126.659 17.1722C126.664 16.5843 126.729 16.0007 126.789 15.4169C127.393 12.0615 128.266 9.37623 130.074 7.71206C130.473 7.35747 130.935 7.09052 131.433 6.9268C131.93 6.76309 132.454 6.70591 132.973 6.7586C134.327 6.85019 133.736 6.79667 135.184 7.35338C136.372 7.69435 137.536 7.11074 138.6 6.60763C140.262 5.79306 141.848 4.823 143.464 3.91237C145.061 3.09445 145.115 2.84771 146.613 2.92129C146.643 2.92431 146.672 2.9287 146.702 2.93222C146.88 2.95813 147.055 2.99643 147.228 3.04686C147.296 3.06605 147.363 3.09178 147.429 3.11759C147.293 3.06402 147.211 2.99683 147.429 3.11763C147.45 3.12581 147.472 3.13119 147.493 3.13999C147.471 3.13335 147.45 3.12567 147.429 3.11765L147.445 3.12632C148.329 3.76879 149.357 4.15535 150.427 4.24752C152.822 4.58682 155.729 4.50801 156.665 5.0603C157.174 5.32126 157.663 5.62466 158.127 5.96764C158.423 6.27932 158.756 6.54983 159.118 6.77264C160.152 7.35322 161.361 7.25294 162.49 7.4312C164.713 7.70896 165.467 7.72237 167.582 8.20311C167.672 8.22947 167.761 8.26266 167.85 8.29659C167.876 8.31074 167.902 8.32559 167.928 8.34113C168.088 8.51175 168.068 8.59791 168.554 9.20923C170.01 11.0651 171.992 12.3202 173.854 13.6658C174.849 14.3525 175.055 14.5596 176.127 15.7327C176.154 15.7744 176.172 15.8015 176.188 15.8225C176.237 15.9038 176.282 15.9882 176.321 16.0753C176.336 16.1271 176.355 16.1944 176.369 16.2633C176.366 17.5442 176.403 17.6319 176.214 18.3853C175.652 19.7185 175.827 21.1634 175.97 22.5661C175.983 22.78 175.978 22.9946 175.956 23.2077C175.88 23.7493 175.773 24.2856 175.637 24.8138C175.411 25.4579 175.236 26.1308 175.417 26.8146C176.012 28.9609 177.481 31.2914 178.01 33.6361C178.028 33.7203 178.047 33.8046 178.064 33.8893C178.074 34.0816 178.057 34.2743 178.059 34.4667C178.072 35.1043 178.118 35.7406 178.199 36.3726C178.346 37.7118 178.584 39.0364 178.829 40.3585C178.916 41.0967 178.903 41.8444 178.789 42.5786C178.376 43.459 177.336 43.6547 176.533 43.9568C176.02 44.1264 175.51 44.304 174.998 44.4751C175.231 44.4426 175.464 44.4113 175.697 44.3813C177.173 44.1633 179.415 44.2147 179.728 42.2488C179.948 41.3569 180.023 40.4321 179.951 39.5137C179.883 38.165 179.861 36.8129 179.905 35.463Z" fill="black"/>
<path d="M173.327 27.5315C173.557 27.5232 173.786 27.5141 174.015 27.507C174.755 27.4877 174.034 27.4547 173.68 27.3957C173.556 27.3781 173.433 27.3609 173.309 27.3441C173.283 27.0743 173.257 26.8042 173.231 26.5345C173.2 26.248 173.169 25.9616 173.136 25.6752C173.079 26.2154 173.031 26.7567 172.979 27.2975C172.34 27.2178 171.707 27.0957 171.083 26.9321C170.598 26.7625 170.128 26.5494 169.636 26.3989C168.597 26.0391 167.488 26.0071 166.451 25.6322C164.738 25.0726 163.646 24.3485 161.745 23.7183C157.693 22.5249 153.438 21.7003 149.226 22.2272C147.757 22.4839 146.365 23.0886 144.902 23.3855C143.518 23.7673 141.067 23.5296 138.986 24.1392C134.797 25.4192 132.866 26.1547 128.507 24.7486C131.69 26.3397 133.886 26.6522 137.351 25.9846C139.114 25.6732 139.945 25.4175 141.806 25.4841C143.247 25.6139 144.697 25.5429 146.12 25.2728C147.243 25.0785 148.334 24.717 149.456 24.5275C151.178 24.4058 152.905 24.4008 154.627 24.5124C157.424 24.7011 159.016 24.9938 161.915 25.5824C164.129 26.239 166.321 27.0859 168.653 27.0595C169.393 27.11 170.132 27.3303 171.059 27.4997C171.689 27.5566 172.323 27.5707 172.955 27.5422C172.826 28.9007 172.708 30.2604 172.612 31.622C172.15 37.7731 172.319 43.9504 172.796 50.0941C173.039 54.0007 173.299 57.9072 173.701 61.7997C174.163 56.9508 174.611 52.0862 174.585 47.208C174.517 40.6328 173.964 34.0704 173.327 27.5315Z" fill="black"/>
<path d="M143.697 87.7551C146.56 87.6728 149.393 87.1168 152.093 86.1074C149.23 86.1898 146.397 86.7458 143.697 87.7551V87.7551Z" fill="black"/>
<path d="M158.839 116.572C157.93 116.095 156.946 115.798 155.936 115.695C156.309 115.816 156.822 116.045 157.089 116.159C159.813 117.412 161.05 120.036 159.365 122.478C157.364 125.107 151.917 126.052 149.131 126.349C146.059 126.558 142.977 126.548 139.906 126.319C137.017 126.115 135.45 126.026 132.864 125.386C131.14 124.906 130.279 124.677 128.943 123.909C128.538 123.714 128.187 123.413 127.923 123.035C127.66 122.656 127.492 122.212 127.436 121.746C127.394 121.345 127.431 120.939 127.546 120.555C127.662 120.171 127.852 119.816 128.105 119.514C128.523 119.591 128.938 119.673 129.351 119.74C128.997 119.591 128.652 119.45 128.313 119.32C129.558 118.569 131.009 118.84 132.378 119.002C132.375 119.051 132.372 119.1 132.368 119.15C132.383 119.102 132.397 119.054 132.412 119.006C132.552 119.023 132.691 119.038 132.828 119.051C132.699 119.013 132.568 118.972 132.436 118.932C132.46 118.855 132.484 118.779 132.507 118.702C134.614 112.166 135.606 105.287 135.436 98.3843C134.301 103.806 133.115 109.232 132.693 114.78C132.576 116.157 132.488 117.537 132.385 118.916C130.873 118.448 129.223 117.907 127.751 118.723C127.634 118.807 127.523 118.9 127.418 119.001C125.471 118.367 123.67 118.236 121.541 119.39C118.874 120.676 116.97 123.108 115.577 125.768C113.661 129.273 112.379 133.109 111.399 137.011C109.769 143.471 108.419 150.015 107.182 156.571C106.663 159.751 106.307 163.891 105.959 166.215C105.42 170.389 104.706 174.533 104.129 178.7C104.091 178.979 104.056 179.258 104.02 179.536C104.142 179.122 104.268 178.709 104.394 178.296C105.946 173.478 107.392 168.616 108.384 163.63C109.6 156.867 110.931 150.129 112.377 143.415C113.674 137.44 115.169 131.62 117.412 126.8C118.483 124.542 119.179 123.11 120.799 121.622C121.881 120.628 123.122 119.749 124.534 119.399C125.381 119.221 126.251 119.204 127.104 119.349C126.576 120.052 126.288 120.923 126.286 121.821C126.284 122.719 126.569 123.591 127.095 124.297C129.039 126.537 132.693 127.564 135.453 128.122C138.748 128.706 142.1 128.8 145.435 128.833C148.334 128.863 151.253 128.563 154.016 127.593C156.153 126.883 158.313 125.893 159.924 124.205C162.158 121.778 161.723 118.159 158.839 116.572Z" fill="black"/>
<path d="M168.886 121.258C168.199 120.249 167.446 119.177 166.358 118.632C164.636 117.817 162.724 117.563 160.865 117.902C162.692 117.902 164.479 118.472 166.002 119.54C166.688 120.105 167.118 120.947 167.539 121.735C169.599 125.595 168.33 132.428 167.896 137.374C167.386 142.433 166.746 147.481 166.454 152.562C166.145 158.474 166.168 164.399 166.109 170.319C166.107 170.658 166.106 170.997 166.103 171.335C166.14 171.144 166.178 170.954 166.215 170.763C167.49 164.345 168.238 157.832 168.961 151.324C169.501 146.614 169.92 141.888 170.453 137.176C170.914 132.286 171.603 125.503 168.886 121.258Z" fill="black"/>
<path d="M126.175 151.23C122.217 160.166 119.09 169.597 118.049 179.443C120.243 172.852 122.879 166.409 124.489 159.617C125.217 156.694 125.791 153.732 126.401 150.781C126.487 150.444 126.231 151.132 126.175 151.23Z" fill="black"/>
<path d="M156.492 150.632C154.865 155.357 153.688 160.242 152.977 165.214C152.315 170.306 152.227 175.461 152.389 180.591C154.086 172.175 155.342 164.861 156.061 156.717C156.262 154.608 156.389 152.492 156.62 150.386C156.672 150.057 156.543 150.524 156.492 150.632Z" fill="black"/>
<path d="M154.58 141.727C153.599 143.843 151.944 145.726 150.302 146.366C148.741 146.96 147.43 146.814 147.094 146.417C147.245 143.432 147.741 139.566 147.824 136.273C147.16 139.048 146.506 141.828 145.927 144.624C145.809 145.417 145.481 146.279 145.768 147.063C146.5 148.585 148.477 148.603 149.846 148.197C153.834 147.021 155.255 142.33 156.147 138.522C156.187 138.344 156.224 138.166 156.259 137.987C155.751 139.258 155.193 140.508 154.58 141.727Z" fill="black"/>
</g>
<defs>
<clipPath id="clip0_86_629">
<rect width="100.559" height="177.672" fill="white" transform="translate(0 3.12695)"/>
</clipPath>
<clipPath id="clip1_86_629">
<rect width="75.9799" height="179.793" fill="white" transform="translate(104.02 0.798828)"/>
</clipPath>
</defs>
</svg>
