<svg width="180" height="180" viewBox="0 0 180 180" fill="none" xmlns="http://www.w3.org/2000/svg">
<g clip-path="url(#clip0_85_602)">
<path d="M25.3405 70.3724C62.1498 65.5763 99.1438 60.5797 136.13 57.1686C151.77 58.0168 150.57 88.567 149.118 100.214C146.818 118.853 141.328 137.483 143.498 156.465C143.261 162.181 150.683 172.974 140.783 172.077C104.223 176.183 67.4389 177.738 30.6784 176.732C26.1465 177.579 29.204 173.483 29.5161 170.616C33.5769 154.78 37.3248 138.689 38.2815 122.302C39.3539 103.797 36.7016 84.4551 27.358 68.413C35.9095 83.9616 38.3394 102.609 37.1167 120.588C35.7945 140.319 30.153 159.934 24.8619 178.991C57.1286 180.689 89.4669 180.251 121.68 177.678C132.302 174.997 156.187 181.234 148.233 162.331C142.892 138.612 152.336 114.887 153.135 91.157C153.351 77.47 151.305 51.5404 132.88 54.6187C97.6886 58.9667 57.024 64.9816 25.3405 70.3724Z" fill="black"/>
<path d="M84.6516 54.6282C89.3433 55.2288 105.217 47.3357 101.417 54.9442C94.3176 81.306 95.9269 67.373 83.5104 54.9485C88.493 62.6119 92.7275 71.451 96.2479 80.0722C103.708 57.4158 117.872 38.467 84.6516 54.6282Z" fill="black"/>
<path d="M71.7298 50.6512C70.6348 50.9373 69.4794 50.8407 68.4427 50.3764C67.406 49.912 66.5459 49.1059 65.9958 48.0829C65.4457 47.0599 65.2363 45.8772 65.4001 44.7183C65.5639 43.5593 66.0917 42.4887 66.9017 41.6725C68.5546 40.007 71.2521 39.5087 72.3748 37.4212C73.0539 36.1585 72.9688 34.6136 72.7673 33.1829C72.1079 28.5 70.4208 24.0418 69.4503 19.4176C68.4799 14.7933 68.2915 9.72081 70.4754 5.56572C72.6594 1.41062 77.8186 -1.30568 81.9755 0.644391C85.999 2.53183 87.4632 7.57692 88.4807 12.0342L91.1188 23.5896C91.2404 24.3399 91.5055 25.0574 91.8985 25.6998C93.4916 27.9496 96.9216 26.7197 99.526 27.4226C103.051 28.3742 104.546 33.1488 103.287 36.695C102.029 40.2412 98.8822 42.6755 95.6913 44.4983C87.9694 48.9093 79.0894 50.9418 70.2741 50.9605" fill="#5FBEFB"/>
<path d="M78.8664 54.6766C93.284 59.4212 133.237 36.5227 103.655 29.0011C97.2867 20.3568 97.1845 -11.1184 78.7675 7.16304C69.8725 18.4207 86.417 33.1541 79.2825 43.1918C73.484 44.913 73.0829 54.3758 80.0269 53.121C66.4136 50.0802 85.8158 43.7936 83.0388 37.0018C81.7078 27.0609 72.9501 8.58474 87.5459 5.61679C97.4131 7.60978 95.0748 22.4837 98.9053 29.9626C129.772 38.4415 93.7011 55.044 78.8664 54.6766Z" fill="black"/>
<path d="M95.9076 82.7459C95.6758 81.2564 98.4427 79.9455 97.0809 79.4661C96.9228 81.834 93.3564 81.0532 95.2748 82.9273C95.4798 82.6235 95.7689 82.3917 96.1039 82.2623C96.4389 82.133 96.8038 82.1124 97.1504 82.2032C96.4262 81.4866 96.4851 81.9753 95.8181 82.33C96.3645 83.4464 96.2755 83.7741 97.7485 83.1863C98.1532 83.3118 97.362 83.6826 97.8341 83.3053C97.5881 83.2499 96.6363 81.7612 96.7022 82.6353C96.3019 82.3813 96.2625 82.0821 95.9755 81.7607C96.1444 82.0697 95.6856 82.6338 96.0882 82.4394C98.4558 84.9577 96.1566 80.098 96.3211 81.5866C96.9392 81.6623 97.7229 81.6361 97.1832 80.9829C95.3901 78.7939 96.096 81.0333 94.1734 80.8981C95.2296 82.7767 94.334 80.9656 95.13 79.9599C96.0014 78.0125 99.6779 78.0936 100.137 80.2347C99.9637 83.2966 96.0603 85.8091 93.4576 84.2623C92.62 80.5808 94.6825 77.2508 92.6318 82.9716C92.9229 88.0961 100.901 85.1729 101.774 81.4564C103.64 73.8566 90.4566 74.7142 91.6658 82.2282C93.3781 87.1595 100.957 82.5679 99.1626 77.8828C94.1165 75.4421 91.0793 84.9973 97.0006 84.547C104.81 80.2394 93.0619 76.2503 93.8481 83.4328C97.8305 88.8849 101.291 77.6602 95.3779 80.8991C94.6981 81.2199 94.7545 83.7726 95.0157 83.1401C94.9386 82.6518 95.2003 82.088 95.3394 81.6303C96.5706 80.8501 96.9841 82.8369 98.5143 80.3562C101.646 81.1389 94.2076 77.7187 93.9373 84.4569C102.435 86.878 97.2277 73.858 93.2822 83.584C95.9755 83.5247 98.2311 81.4309 97.8627 78.5767C96.6541 79.6101 95.7532 81.2578 95.9076 82.7459Z" fill="black"/>
<path d="M72.9212 93.6927C89.9976 84.8381 113.345 92.5499 122.198 109.969C131.051 127.388 123.865 151.476 107.031 160.808C90.1969 170.14 66.6521 163.089 57.338 145.925C48.0239 128.762 54.0423 103.482 72.9212 93.6927Z" fill="#5FBEFB"/>
<path d="M114.327 113.406C112.868 107.651 109.666 102.522 105.182 98.7602C106.074 95.8885 106.985 93.0229 107.965 90.1826C106.338 92.5196 104.835 94.9452 103.462 97.4487C101.011 95.7367 98.2354 94.5766 95.317 94.0445C92.3302 93.6727 89.1103 93.2447 86.2357 94.3767C81.7771 96.5741 78.5447 100.844 75.9053 105.043C74.4351 106.167 73.1432 107.517 72.0756 109.047C66.8408 117.186 68.6406 127.709 71.3142 136.474C75.514 151.785 94.3274 168.352 107.625 152.946C111.343 148.402 113.335 142.681 114.57 136.952C116.626 127.722 116.11 121.041 114.327 113.406ZM107.436 135.428C105.579 142.235 104.285 145.708 100.223 149.642C97.437 151.996 92.9243 153.218 86.287 148.083C84.0866 146.484 82.0931 144.604 80.3545 142.488C78.6418 139.993 77.1631 137.336 75.9381 134.555C72.8017 126.838 70.095 118.156 73.4592 110.271C75.1424 106.589 78.3918 104.082 81.1041 101.238C79.5187 102.427 77.829 103.529 76.2524 104.759C77.9155 102.888 79.7789 101.215 81.8071 99.7734C83.5682 98.518 85.4273 97.1675 87.5956 96.844C90.0681 96.7555 92.5325 97.1792 94.8421 98.09C97.1517 99.0008 99.2592 100.38 101.039 102.145L101.034 102.156C97.2113 109.88 94.341 118.063 92.489 126.517C89.9247 122.962 87.1108 119.604 84.0697 116.47C85.932 120.025 87.838 123.558 89.538 127.201C90.6492 129.059 91.3418 133.644 94.2964 132.153C95.3572 131.416 95.6074 130.013 96.0363 128.854C96.6395 126.972 97.2446 125.09 97.8514 123.209C99.8217 117.109 101.572 110.939 103.373 104.785C104.813 106.699 106.027 108.783 106.988 110.991C108.299 114.836 108.967 118.881 108.965 122.954C108.989 128.737 108.76 129.665 107.436 135.428V135.428Z" fill="black"/>
<g clip-path="url(#clip1_85_602)">
<path d="M115.777 72.5146C114.256 74.0404 114.453 76.8041 115.852 78.4479C117.251 80.0918 119.523 80.7255 121.649 80.6088C123.775 80.4922 125.809 79.7238 127.697 79.268L127.327 73.135C123.231 73.1771 119.136 73.2193 115.777 72.5146Z" fill="#5FBEFB"/>
<path d="M127.623 71.1792C127.701 71.1062 127.778 71.0317 127.856 70.9581C126.943 71.3381 126.03 71.7191 125.134 72.1384C124.753 72.3102 124.38 72.4954 124.007 72.6823C123.76 71.3838 123.507 70.0865 123.271 68.7871C123.109 70.2477 123.033 71.717 123.045 73.187C121.794 73.8647 120.58 74.61 119.388 75.3941C119.25 74.6705 119.11 73.9474 118.968 73.2249C118.858 72.6119 118.728 72.0029 118.623 71.389C118.62 71.3804 118.618 71.3716 118.616 71.3627C118.613 71.1587 118.673 70.8655 118.504 70.8051C118.491 70.8067 118.479 70.8122 118.469 70.8208C118.46 70.8295 118.452 70.841 118.449 70.8538C118.318 72.5799 118.306 74.3134 118.414 76.0413C117.121 76.9161 115.845 77.8192 114.559 78.7005C115.903 78.2995 117.222 77.8142 118.508 77.2475C118.599 78.2319 118.733 79.2123 118.899 80.1865C117.716 80.9257 116.589 81.7545 115.527 82.6659C116.728 82.2499 117.93 81.8189 119.114 81.3424C119.44 82.9653 119.871 84.5644 120.403 86.1291C120.524 86.4113 120.735 87.2247 120.643 86.479C120.535 84.6086 120.439 82.736 120.23 80.8743C121.473 80.3422 122.68 79.7247 123.842 79.0261C124.224 80.4378 124.705 81.8236 125.208 83.1926C125.249 83.3044 125.291 83.4164 125.332 83.5285C125.318 82.3765 125.284 81.2236 125.171 80.0768C125.11 79.4838 125.036 78.8928 124.956 78.3028C125.696 77.8064 126.415 77.2792 127.113 76.7211C127.013 76.7482 126.912 76.7748 126.812 76.8023C126.141 76.973 125.479 77.1709 124.824 77.3903C124.654 76.2507 124.459 75.115 124.25 73.9815C125.439 73.1318 126.566 72.1953 127.623 71.1792ZM120.061 79.4971C119.942 78.5698 119.8 77.6462 119.636 76.7261C120.831 76.1465 121.99 75.4921 123.106 74.7665C123.149 75.3781 123.211 75.9881 123.301 76.5951C123.372 77.0165 123.459 77.4343 123.552 77.8505C122.353 78.3172 121.187 78.8674 120.061 79.4971V79.4971Z" fill="black"/>
<path d="M136.482 81.3296C135.557 81.0645 134.676 80.8512 133.816 80.6782C134.225 76.956 134.5 75.4638 135.024 70.5028C135.145 69.4272 135.345 66.8948 135.363 66.5266C135.603 65.7331 134.676 64.9981 134.023 65.5476C133.836 65.661 133.767 65.8747 133.68 66.0655C132.594 68.1764 131.555 70.3118 130.532 72.455C131.289 71.6502 132.039 70.8334 132.759 69.9913C132.067 73.3388 131.662 76.7416 131.547 80.1612C131.267 80.1846 130.987 80.2076 130.706 80.2215C130.65 80.2163 130.594 80.2098 130.538 80.2049C129.585 80.14 129.026 81.3796 129.82 81.9923C130.2 82.3003 130.739 82.2551 131.195 82.3488C132.021 82.4875 133.223 82.558 133.646 81.694C134.439 81.6141 135.268 81.5458 136.095 81.4765C136.334 81.4267 137.172 81.4755 136.482 81.3296Z" fill="black"/>
<path d="M139.148 78.9448C137.166 78.9951 137.171 81.9694 139.148 82.0252C141.131 81.9749 141.126 79.0006 139.148 78.9448Z" fill="black"/>
</g>
</g>
<defs>
<clipPath id="clip0_85_602">
<rect width="180" height="180" fill="white"/>
</clipPath>
<clipPath id="clip1_85_602">
<rect width="26.0747" height="21.4286" fill="white" transform="translate(114.559 65.3569)"/>
</clipPath>
</defs>
</svg>
