<svg width="160" height="160" viewBox="0 0 160 160" fill="none" xmlns="http://www.w3.org/2000/svg">
<g id="undraw_handcrafts_add_village" clip-path="url(#clip0_94_490)">
<path id="Vector" d="M130.453 17.8775C131.38 11.8547 124.676 6.38933 118.554 7.42012C112.431 8.45091 108.058 14.5985 107.984 20.6891C107.898 27.8015 112.592 34.6385 111.233 41.6253C108.631 54.9936 86.9006 58.0223 84.5733 71.4391C83.5196 77.5135 87.3893 83.7491 92.8851 86.7368C98.3809 89.7245 105.12 89.8601 111.221 88.3837C117.322 86.9072 122.928 83.9513 128.426 80.9681C135.311 77.2328 142.229 73.348 147.861 67.9607C154.181 61.916 158.729 53.9206 159.778 45.3253C160.827 36.73 158.147 27.5923 151.969 21.4088C145.791 15.2252 136.059 12.4164 127.662 15.0905" fill="#5FBEFB"/>
<path id="Vector_2" d="M151.422 160C109.706 108.939 96.6726 152.523 51.9997 152.897C41.6795 151.424 33.2206 143.648 22.5497 143.478C12.4788 142.753 1.57788 149.123 0 159.327C2.68209 147.044 17.8341 142.219 28.9868 146.413C83.8413 181.01 100.241 102.133 151.422 160Z" fill="#1C1C1C"/>
<path id="Vector_3" d="M73.7954 84.4211C86.3762 99.8786 100.898 119.099 94.1908 139.66C104.937 119.718 89.6301 96.4452 73.7954 84.4211Z" fill="#1C1C1C"/>
<path id="Vector_4" d="M144.079 28.4524C144.776 101.965 99.7082 72.286 105.291 134.586C107.62 122.081 104.219 105.505 115.482 96.4198C138.978 82.2627 148.258 54.1827 144.079 28.4524Z" fill="#1C1C1C"/>
<path id="Vector_5" d="M145.112 28.3362C150.744 3.80315 107.232 -12.175 97.4885 11.9361C102.108 50.9074 73.3281 47.2319 70.4321 77.2942C70.944 87.2359 77.4663 97.0461 87.1681 100.361C77.6385 96.4972 71.5471 86.0413 72.0775 75.9759C75.7866 52.425 107.373 45.1711 99.8226 16.717C103.091 -10.0961 149.896 4.42977 145.112 28.3362Z" fill="#1C1C1C"/>
<path id="Vector_6" d="M72.2656 42.947C79.15 50.2121 81.831 60.916 89.7561 67.6953C85.3924 59.77 81.8982 46.4779 72.2656 42.947Z" fill="#1C1C1C"/>
<path id="Vector_7" d="M83.8233 41.3177C80.5173 43.577 80.7861 45.9259 81.7807 49.4214C83.893 47.5829 85.0752 43.8854 83.8233 41.3177Z" fill="#1C1C1C"/>
<path id="Vector_8" d="M69.498 50.7229C71.8489 53.7465 73.8035 53.1689 77.1677 52.1418C75.4744 50.1263 71.7849 49.2101 69.498 50.7229Z" fill="#1C1C1C"/>
<path id="Vector_9" d="M79.6389 34.2931C76.8695 36.3056 78.6816 37.3542 80.0452 39.3314C81.643 38.0628 81.5579 35.3051 79.6389 34.2931Z" fill="#1C1C1C"/>
<path id="Vector_10" d="M66.5815 44.1384C67.2981 47.6096 69.559 47.418 72.4299 46.2834C71.2481 44.5085 68.8645 43.4323 66.5815 44.1384Z" fill="#1C1C1C"/>
<path id="Vector_11" d="M70.1912 35.9952C68.4876 38.7453 70.5083 38.6307 72.8913 38.396C73.1599 36.9888 72.1819 35.8714 70.1912 35.9952Z" fill="#1C1C1C"/>
<path id="Vector_12" d="M116.603 81.038C113.498 79.914 113.789 81.8631 114.341 84.2398C115.883 84.2144 116.968 83.0028 116.603 81.038Z" fill="#1C1C1C"/>
<path id="Vector_13" d="M129.847 60.6553C126.209 62.9546 125.898 65.5225 125.892 69.5209C128.61 67.8499 130.746 63.7355 129.847 60.6553Z" fill="#1C1C1C"/>
<path id="Vector_14" d="M132.795 41.8943C129.566 43.9272 130.154 46.3897 132.047 49.1817C133.545 47.1979 134.052 44.1507 132.795 41.8943Z" fill="#1C1C1C"/>
<path id="Vector_15" d="M128.127 19.0405C126.22 22.4073 127.481 24.001 129.674 26.7933C130.994 24.4439 130.473 20.5901 128.127 19.0405Z" fill="#1C1C1C"/>
<path id="Vector_16" d="M113.715 21.399C111.262 23.9666 112.764 25.5941 115.374 27.1557C116.147 25.2189 115.637 22.7562 113.715 21.399Z" fill="#1C1C1C"/>
<path id="Vector_17" d="M111.89 34.8513C108.086 36.4502 107.702 39.3719 108.667 42.9745C110.827 41.0219 112.368 37.6643 111.89 34.8513Z" fill="#1C1C1C"/>
<path id="Vector_18" d="M119.227 46.0452C115.875 47.8302 116.282 49.7155 116.928 53.0266C119.136 51.7165 120.473 48.373 119.227 46.0452Z" fill="#1C1C1C"/>
<path id="Vector_19" d="M111.988 61.281C107.89 62.849 106.976 66.0227 107.441 70.0193C109.96 67.969 112.053 64.3646 111.988 61.281Z" fill="#1C1C1C"/>
<path id="Vector_20" d="M88.5635 78.283C87.6784 81.8624 89.8324 83.0395 93.0945 83.5808C92.7814 81.253 91.0252 78.9044 88.5635 78.283Z" fill="#1C1C1C"/>
<path id="Vector_21" d="M98.1681 64.1757C95.1128 66.4136 95.915 68.7831 98.026 71.3804C99.3535 69.3246 99.6069 66.2978 98.1681 64.1757Z" fill="#1C1C1C"/>
<path id="Vector_22" d="M101.163 48.3575C98.7104 50.9253 100.213 52.5525 102.822 54.1142C103.595 52.1775 103.086 49.7147 101.163 48.3575Z" fill="#1C1C1C"/>
<path id="Vector_23" d="M83.3126 74.1241C81.4146 77.1544 83.1906 78.5698 86.0862 79.704C86.4625 77.5921 85.473 75.1696 83.3126 74.1241Z" fill="#1C1C1C"/>
<path id="Vector_24" d="M122.75 108.102C125.123 116.635 125.525 125.877 122.722 134.349C129.051 127.456 129.436 114.781 122.75 108.102Z" fill="#1C1C1C"/>
<path id="Vector_25" d="M138.085 105.233C136.948 112.062 134.19 118.829 129.088 123.733C136.56 121.834 141.742 112.051 138.085 105.233Z" fill="#1C1C1C"/>
<path id="Vector_26" d="M122.143 119.212C122.844 116.103 121.064 117.144 119.117 118.274C119.282 119.585 120.448 120.135 122.143 119.212Z" fill="#1C1C1C"/>
<path id="Vector_27" d="M116.383 104.082C114.172 107.007 115.937 109.026 118.967 110.136C119.229 107.865 118.339 105.478 116.383 104.082Z" fill="#1C1C1C"/>
<path id="Vector_28" d="M126.253 99.319C122.735 99.434 122.59 102.886 124.934 104.766C126.215 103.127 126.594 101.457 126.253 99.319Z" fill="#1C1C1C"/>
<path id="Vector_29" d="M129.893 105.797C126.695 105.681 128.655 106.808 130.294 107.889C131.399 107.643 131.414 106.817 129.893 105.797Z" fill="#1C1C1C"/>
<path id="Vector_30" d="M134.51 104.002C131.379 105.561 132.41 107.404 134.407 109.504C135.087 108.748 135.47 107.779 135.489 106.772C135.508 105.764 135.161 104.782 134.51 104.002V104.002Z" fill="#1C1C1C"/>
<path id="Vector_31" d="M144.22 99.9407C141.772 97.8742 142.068 99.9316 142.312 102.054C143.497 102.529 144.394 101.803 144.22 99.9407Z" fill="#1C1C1C"/>
<path id="Vector_32" d="M147.202 109.892C144.393 108.144 144.149 110.097 144.089 112.582C145.648 112.877 147.057 111.907 147.202 109.892Z" fill="#1C1C1C"/>
<path id="Vector_33" d="M144.213 119.832C143.086 116.878 142.49 118.923 141.823 120.879C142.575 121.825 143.589 121.572 144.213 119.832Z" fill="#1C1C1C"/>
<path id="Vector_34" d="M26.3625 29.0533C68.0166 10.8919 42.7924 77.7136 24.0504 40.373C22.0923 35.0724 25.0925 27.8938 31.3067 27.2367C18.1217 28.6762 21.0535 46.5373 29.7134 52.1807C60.9877 64.645 58.281 7.49246 26.3625 29.0533Z" fill="#1C1C1C"/>
<path id="Vector_35" d="M18.305 98.1683C16.0366 112.468 18.1527 127.432 23.2776 140.788C21.8968 128.2 20.2176 110.224 18.305 98.1683Z" fill="#1C1C1C"/>
<path id="Vector_36" d="M44.6798 75.5383C34.8292 80.6566 26.8335 88.3262 20.5454 97.1608C28.9801 91.3303 39.3522 82.2978 44.6798 75.5383Z" fill="#1C1C1C"/>
<path id="Vector_37" d="M65.2755 98.7787C63.0967 89.619 55.8449 82.493 46.8501 79.5593C53.407 85.2063 59.6628 92.3322 65.2755 98.7787Z" fill="#1C1C1C"/>
<path id="Vector_38" d="M68.2559 152.599C68.2011 134.983 66.4983 117.204 64.2482 99.8987C62.7268 116.16 64.1324 137.807 68.2559 152.599Z" fill="#1C1C1C"/>
<path id="Vector_39" d="M34.8118 99.3428C32.3822 114.292 33.1125 129.759 35.88 144.469C36.8445 130.279 36.5869 111.123 34.8118 99.3428Z" fill="#1C1C1C"/>
<path id="Vector_40" d="M65.3162 98.856C51.0113 95.8371 35.6377 99.0071 21.165 99.478C35.6921 102.638 50.865 100.14 65.3162 98.856Z" fill="#1C1C1C"/>
<path id="Vector_41" d="M31.7681 85.8564C33.5145 79.4072 33.3639 72.4772 31.7171 65.9995C31.0375 66.5047 29.4191 67.7511 28.7174 68.1674C28.0879 68.5415 27.4255 68.8596 26.7381 69.118C22.5915 69.6126 26.3489 75.7103 26.1568 78.6497C28.0871 92.7161 28.0319 79.6555 27.9045 72.6844C27.5253 71.5254 28.9911 71.7812 29.5998 71.148C30.9181 75.6516 31.3344 81.3998 31.7681 85.8564Z" fill="#1C1C1C"/>
<path id="Vector_42" d="M54.0383 154.652C54.506 148.178 55.3743 141.459 55.0765 135.108C51.6121 135.739 44.0603 136.751 45.3764 141.553C45.4994 142.226 45.9116 143.992 46.0526 144.682C47.5675 152.775 46.9946 143.98 47.2449 140.349C48.7078 139.649 50.2453 139.11 51.8293 138.742C52.389 143.297 52.5087 150.09 54.0383 154.652Z" fill="#1C1C1C"/>
<path id="Vector_43" d="M40.4927 111.324C45.104 110.321 49.8189 109.848 54.5418 109.916C54.497 110.53 54.538 111.705 54.5484 112.342C51.6352 113.015 47.0872 115.157 43.5308 115.342C41.8268 115.022 40.2547 113.161 40.979 111.376C39.8421 113.388 41.5208 115.825 43.5891 116.418C47.2172 115.994 59.7312 117.039 57.6834 112.769C57.6601 110.844 57.6289 108.861 57.5872 106.94C51.9756 106.74 44.8566 108.585 40.4927 111.324Z" fill="#1C1C1C"/>
<path id="Vector_44" d="M17.4585 144.93C20.7453 137.789 10.2492 128.954 6.73613 138.228C1.053 137.313 0.288699 144.058 4.67601 146.724C2.36694 143.089 2.71385 140.076 7.53821 141.149C13.0174 134.163 15.8446 137.535 17.4585 144.93Z" fill="#1C1C1C"/>
<path id="Vector_45" d="M92.8832 142.591C92.6026 130.43 79.6765 130.964 79.2326 142.186C74.6983 142.227 76.3803 148.125 76.7058 145.616C77.32 142.823 80.2238 145.074 81.6981 145.857C80.6272 141.715 82.8372 138.407 86.3306 136.129C89.2932 136.669 91.8094 139.941 92.8832 142.591Z" fill="#1C1C1C"/>
<path id="Vector_46" d="M70.5037 19.384C66.3279 17.2568 60.5651 25.6246 65.1595 26.5154C59.1987 20.9458 65.7473 31.8975 66.2271 34.2607C66.2058 29.4397 65.2956 22.2164 70.5037 19.384Z" fill="#1C1C1C"/>
<path id="Vector_47" d="M57.2457 59.3559C54.8017 58.5634 50.5022 59.1412 50.2571 62.074C49.3702 63.2007 46.6365 59.2526 47.5531 61.7141C49.9909 71.2102 51.8663 61.6842 57.2457 59.3559Z" fill="#1C1C1C"/>
<path id="Vector_48" d="M150.775 78.1045C141.795 75.4742 145.814 86.3155 141.686 80.3594C141.232 82.3339 143.758 86.2704 145.149 88.5284C147.018 91.5702 143.419 80.2717 150.775 78.1045Z" fill="#1C1C1C"/>
</g>
<defs>
<clipPath id="clip0_94_490">
<rect width="160" height="160" fill="white"/>
</clipPath>
</defs>
</svg>
