<svg width="160" height="160" viewBox="0 0 160 160" fill="none" xmlns="http://www.w3.org/2000/svg">
<g clip-path="url(#clip0_94_584)">
<path d="M61.7317 141.704L64.071 140.202L63.2749 139.594C62.7596 140.298 62.2452 141.001 61.7317 141.704Z" fill="#5FBEFB"/>
<path d="M91.808 86.1242C93.8979 77.3019 94.5363 67.8155 92.0461 59.125C89.5566 50.4331 83.5635 42.6809 75.674 40.197C67.7838 37.7144 58.2576 41.5412 54.7652 49.796C52.1512 55.9752 52.5706 64.3368 47.4848 68.1642C41.3782 72.7597 33.2349 66.6433 25.9007 67.4865C19.1229 68.2646 13.8626 75.4316 13.0886 82.9636C12.3135 90.4948 15.2987 98.0245 19.6803 103.831C24.0627 109.636 29.7545 114 35.3726 118.289C44.6736 125.392 53.9743 132.493 63.275 139.594C75.15 123.333 87.0182 106.328 91.808 86.1242Z" fill="#5FBEFB"/>
<path d="M78.8094 118.179C74.0078 127.229 69.5098 136.484 65.2627 145.87C75.5653 129.559 85.1697 117.369 96.8155 101.113C100.587 95.8018 104.093 90.2646 107.319 84.526C119.752 81.8024 131.004 74.737 140.483 65.4681C129.151 70.4658 118.638 77.38 107.821 83.5746C110.788 78.194 113.278 72.5062 115.257 66.5909C117.633 59.6055 119.759 52.2175 119.308 44.661C118.402 33.4595 115.671 24.314 107.072 17.1714C99.3109 11.7483 89.8677 14.0977 83.3651 20.7401C77.884 25.6279 74.1883 32.2504 71.4572 39.3397C67.5048 31.6696 60.3035 24.3591 49.5293 29.4941C39.5008 33.6805 31.9536 42.9676 27.0294 53.317C21.5898 64.6248 21.2484 78.0416 24.3031 90.2349C27.5623 104.478 35.2272 116.649 43.2064 128.112C46.8074 133.508 52.293 140.778 55.2043 144.94C58.6399 149.939 61.9235 155.066 65.4359 160C59.8646 148.041 53.8811 136.354 47.5819 124.851C41.4114 113.171 36.0597 103.348 33.599 92.4373C31.2422 83.4337 30.7289 74.3473 31.8033 67.9385C33.9366 53.9192 43.0397 41.6595 51.2279 38.4618C57.9193 35.4277 60.7907 37.5294 64.5324 44.8931C65.3093 46.7464 64.9373 45.6545 65.927 48.9009C66.4551 50.96 67.0738 53.166 68.8149 54.3388C71.242 56.0289 74.4906 54.6998 75.7537 51.964C76.2882 50.6925 76.6945 49.3591 76.965 47.9881C76.9739 47.9716 76.9814 47.9543 76.9877 47.9364C77.826 45.2653 78.6547 42.5899 79.6138 39.9687C80.145 38.7056 81.5111 35.505 81.9843 34.8917C82.2629 34.4449 82.5418 33.9979 82.8209 33.5507C82.8812 33.4654 82.9451 33.3755 83.0127 33.282C86.8659 28.0445 89.9508 25.7993 92.7841 24.5143C97.0148 22.9168 98.2032 24.1627 100.559 24.7817C103.115 26.396 102.244 25.6363 104.664 28.5645C110.655 38.2038 111.311 47.6727 107.878 59.4671C102.906 78.5089 89.6509 98.4112 78.8094 118.179Z" fill="#1C1C1C"/>
<path d="M53.3487 60.8312C45.9381 61.0354 45.9576 73.1142 53.349 73.341C60.76 73.1367 60.7405 61.058 53.3487 60.8312Z" fill="#1C1C1C"/>
<path d="M83.3874 55.1022C75.9768 55.3066 75.996 67.3854 83.3877 67.612C90.7984 67.4075 90.7791 55.3289 83.3874 55.1022Z" fill="#1C1C1C"/>
<path d="M72.7192 93.1182C70.6703 94.7558 68.4927 96.1841 66.2128 97.3858C62.8644 98.8171 59.2946 99.4626 55.7969 100.278C63.2511 101.166 68.8863 99.9103 73.6227 92.9837C75.2211 90.7324 73.8695 92.2724 72.7192 93.1182Z" fill="#1C1C1C"/>
<path d="M158.112 50.3692C156.646 48.5682 154.715 47.4441 154.197 46.8061C154.19 46.792 154.182 46.7784 154.174 46.7653C153.649 45.0939 152.556 43.7173 151.131 42.9297C149.705 42.1421 148.06 42.0059 146.545 42.5502C143.836 43.7092 141.956 46.4379 140.414 49.0639C137.519 54.0899 137.514 60.3139 137.356 66.0854C139.073 60.5861 139.649 57.1072 142.358 52.7003C144.24 50.0527 146.519 47.9953 147.711 47.5239C148.593 47.5177 148.371 47.4519 149.008 47.8396L149.015 47.8461C149.058 47.8938 149.107 47.9514 149.151 48.0037C149.192 48.0789 149.229 48.1534 149.258 48.2126C149.757 50.3196 151.288 51.7558 152.918 52.8371C153.1 52.9595 153.46 53.251 153.697 53.4447C154.11 53.8011 154.495 54.1951 154.849 54.6227C154.861 54.6387 154.865 54.6446 154.876 54.6583C155.713 56.0115 155.343 57.2881 154.726 59.3071C153.436 62.5934 150.818 64.5003 148.577 66.1492C146.146 67.8793 143.428 68.9848 140.8 70.2738C141.159 70.2268 141.519 70.1806 141.878 70.1327C147.1 69.6034 152.482 68.126 156.481 64.1445C159.787 60.754 161.597 54.3499 158.112 50.3692Z" fill="#1C1C1C"/>
<path d="M136.954 15.3412C129.543 15.5454 129.562 27.6242 136.954 27.851C144.365 27.6465 144.345 15.568 136.954 15.3412Z" fill="#1C1C1C"/>
<path d="M60.7073 0C53.2967 0.20444 53.3163 12.2832 60.7077 12.5098C68.1183 12.3053 68.0991 0.226582 60.7073 0Z" fill="#1C1C1C"/>
<path d="M5.55077 130.85C-1.85986 131.055 -1.84065 143.133 5.55077 143.36C12.9617 143.156 12.9425 131.077 5.55077 130.85Z" fill="#1C1C1C"/>
<path d="M64.8187 76.5107C62.475 77.9206 61.018 80.9995 61.9373 83.9594C62.178 84.6556 62.5645 85.278 63.0646 85.7748C63.5648 86.2716 64.1643 86.6285 64.8132 86.816C65.9535 87.2392 64.2251 86.3575 63.9705 85.9642C62.3542 84.2911 62.5347 81.205 64.0858 79.5544C64.7751 78.6805 65.6557 78.5423 66.3334 77.4231C66.9929 74.0311 66.9065 70.4177 67.0705 66.9406C66.1289 70.0613 65.7058 73.4178 64.8187 76.5107Z" fill="#1C1C1C"/>
</g>
<defs>
<clipPath id="clip0_94_584">
<rect width="160" height="160" fill="white"/>
</clipPath>
</defs>
</svg>
