<svg width="160" height="160" viewBox="0 0 161 160" fill="none" xmlns="http://www.w3.org/2000/svg">
<path d="M24.0493 70.2439C13.4664 82.485 14.8404 104.659 24.573 117.847C34.3056 131.035 50.1132 136.12 64.906 135.184C79.6989 134.248 93.8484 128.083 106.987 124.426L104.41 75.2209C75.9144 75.559 47.419 75.8972 24.0493 70.2439Z" fill="#5FBEFB"/>
<path d="M91.2563 34.7899C91.7992 34.2037 92.3345 33.6062 92.8729 33.016C86.5222 36.0643 80.1715 39.1216 73.9346 42.4852C71.2852 43.8641 68.687 45.3499 66.0958 46.8493C64.3796 36.4313 62.6193 26.0233 60.9778 15.5979C59.8482 27.3161 59.3218 39.1044 59.4015 50.8979C50.6972 56.3357 42.2516 62.3147 33.9612 68.6058C33.0012 62.8003 32.0272 56.9992 31.0391 51.2026C30.2739 46.2844 29.3657 41.3986 28.6376 36.4726C28.6164 36.4039 28.5991 36.3336 28.5859 36.2621C28.5661 34.6251 28.9819 32.2727 27.8098 31.7885C27.7203 31.8012 27.636 31.8451 27.5678 31.9146C27.4995 31.9841 27.4503 32.0761 27.4266 32.1788C26.5148 46.0278 26.4342 59.9356 27.1852 73.798C18.1871 80.8172 9.30652 88.0625 0.358887 95.1335C9.7108 91.9156 18.8865 88.0224 27.8341 83.4758C28.4715 91.3736 29.3989 99.2391 30.5556 107.055C22.3259 112.986 14.4834 119.635 7.09404 126.948C15.4521 123.61 23.8179 120.153 32.0534 116.329C34.3226 129.35 37.3188 142.179 41.0221 154.733C41.8626 156.997 43.331 163.523 42.6904 157.54C41.9425 142.534 41.2724 127.51 39.8143 112.574C48.4647 108.305 56.8611 103.351 64.9461 97.7455C67.6063 109.072 70.9544 120.19 74.4494 131.173C74.7387 132.071 75.0257 132.969 75.3104 133.868C75.2133 124.626 74.977 115.376 74.192 106.175C73.7679 101.418 73.2525 96.6765 72.6949 91.9426C77.8448 87.9599 82.8484 83.7298 87.7057 79.2523C87.0089 79.4697 86.3096 79.6832 85.6127 79.9038C80.945 81.2738 76.3362 82.8616 71.7815 84.6212C70.5935 75.4788 69.2376 66.3663 67.7845 57.2725C76.0567 50.4556 83.9011 42.9418 91.2563 34.7899ZM38.6435 101.524C37.8145 94.0848 36.8271 86.6744 35.6812 79.2929C43.9958 74.6427 52.0598 69.3921 59.8275 63.5708C60.1239 68.4774 60.5595 73.3719 61.1841 78.2415C61.6766 81.6221 62.2802 84.9742 62.9316 88.3133C54.5901 92.0582 46.4752 96.472 38.6435 101.524Z" fill="#1C1C1C"/>
<path d="M131.334 128.149C124.897 126.022 118.768 124.311 112.782 122.923C115.628 93.0597 117.545 81.0876 121.186 41.2855C122.032 32.6559 123.424 12.3384 123.546 9.38456C125.218 3.01819 118.764 -2.87922 114.226 1.52937C112.925 2.43933 112.445 4.15409 111.833 5.68492C104.282 22.6205 97.0508 39.7527 89.9356 56.9479C95.2024 50.4907 100.417 43.9375 105.429 37.182C100.616 64.0388 97.7944 91.3396 96.9945 118.775C95.0465 118.962 93.0978 119.147 91.1453 119.259C90.7544 119.217 90.3648 119.164 89.9739 119.125C83.3454 118.605 79.4563 128.55 84.9831 133.466C87.6222 135.937 91.3765 135.574 94.5458 136.326C100.292 137.439 108.66 138.005 111.602 131.073C117.117 130.431 122.885 129.884 128.638 129.328C130.304 128.928 136.134 129.32 131.334 128.149Z" fill="#1C1C1C"/>
<path d="M150.026 120.976C136.233 121.379 136.269 145.242 150.027 145.69C163.821 145.286 163.785 121.423 150.026 120.976Z" fill="#1C1C1C"/>
</svg>
