<svg width="500" height="500" viewBox="0 0 500 500" fill="none" xmlns="http://www.w3.org/2000/svg">
<path d="M250.679 130.173C260.096 130.173 267.73 122.748 267.73 113.587C267.73 104.427 260.096 97.0007 250.679 97.0007C241.261 97.0007 233.627 104.427 233.627 113.587C233.627 122.748 241.261 130.173 250.679 130.173Z" fill="#478EBA"/>
<path d="M233.839 218.769L214.571 219.027L206.846 135.241C206.658 133.207 207.334 131.151 208.699 129.599L227.646 108.068C230.298 105.054 234.808 104.511 238.136 106.804L261.867 123.159C263.803 124.493 265.003 126.58 265.158 128.883L269.424 192.011L280.157 204.369L280.18 204.395L282.926 218.11L233.839 218.769V218.769Z" fill="#818EA1"/>
<path d="M229.803 127.55L229.493 123.661C229.411 122.635 230.203 121.735 231.258 121.655L236.876 121.231C237.931 121.151 238.856 121.922 238.938 122.948L239.248 126.837C239.33 127.864 238.538 128.763 237.483 128.843L231.866 129.267C230.811 129.347 229.885 128.577 229.803 127.55V127.55Z" fill="#55ABE0"/>
<path d="M220.338 158.632L219.19 144.244C219.108 143.217 219.9 142.317 220.956 142.238L229.271 141.61C230.327 141.53 231.252 142.301 231.334 143.327L232.482 157.715C232.564 158.742 231.772 159.642 230.716 159.721L222.401 160.349C221.345 160.429 220.42 159.659 220.338 158.632V158.632Z" fill="#162D3B"/>
<path d="M241.822 190.893C240.814 190.934 239.941 190.202 239.833 189.227L238.303 175.351C238.238 174.759 238.458 174.187 238.907 173.782C239.356 173.378 239.959 173.208 240.561 173.316L240.99 173.394C241.844 173.548 242.487 174.243 242.554 175.085L243.655 188.883C243.696 189.393 243.526 189.884 243.178 190.267C242.844 190.632 242.39 190.851 241.892 190.889C241.869 190.891 241.846 190.892 241.822 190.893V190.893Z" fill="#162D3B"/>
<path d="M224.222 190.291L223.07 175.861C222.989 174.843 223.744 173.963 224.789 173.859L232.333 173.109C233.379 173.016 234.325 173.749 234.437 174.769L236.038 189.345C236.093 189.851 235.94 190.345 235.605 190.737C235.271 191.128 234.799 191.366 234.278 191.405L226.284 192.008C225.229 192.088 224.304 191.318 224.222 190.291V190.291Z" fill="#162D3B"/>
<path d="M269.681 196.779L276.423 206.576L278.022 218.045L282.762 217.981L280.054 204.453L269.292 192.062C268.571 193.594 268.718 195.38 269.681 196.779V196.779Z" fill="#F3F7FA"/>
<path d="M277.569 214.762L258.363 216.469L258.388 216.732L277.594 215.025L277.569 214.762Z" fill="#162D3B"/>
<path d="M276.218 212.534L258 214.048L258.023 214.311L276.241 212.796L276.218 212.534Z" fill="#162D3B"/>
<path d="M275.083 210.238L257.672 211.885L257.698 212.148L275.109 210.5L275.083 210.238Z" fill="#162D3B"/>
<path d="M274.354 207.925L257.651 209.729L257.681 209.991L274.384 208.186L274.354 207.925Z" fill="#162D3B"/>
<path d="M273.377 205.889L257.332 207.654L257.362 207.916L273.408 206.151L273.377 205.889Z" fill="#162D3B"/>
<path d="M272.155 204.126L256.484 205.309L256.505 205.571L272.176 204.388L272.155 204.126Z" fill="#162D3B"/>
<path d="M271.197 202.345L255.981 203.668L256.006 203.93L271.221 202.607L271.197 202.345Z" fill="#162D3B"/>
<path d="M270.238 200.571L255.519 202.161L255.549 202.423L270.268 200.832L270.238 200.571Z" fill="#162D3B"/>
<path d="M269.555 198.783L255.002 200.132L255.028 200.394L269.58 199.045L269.555 198.783Z" fill="#162D3B"/>
<path d="M268.328 197.047L254.409 198.524L254.439 198.786L268.358 197.309L268.328 197.047Z" fill="#162D3B"/>
<path d="M267.664 195.486L253.844 196.662L253.868 196.924L267.687 195.749L267.664 195.486Z" fill="#162D3B"/>
<path d="M252.392 191.201L250.972 173.401C250.89 172.374 251.682 171.474 252.737 171.395L261.592 170.726C262.648 170.646 263.573 171.417 263.655 172.443L265.075 190.244C265.157 191.27 264.365 192.17 263.31 192.25L254.454 192.919C253.399 192.998 252.474 192.228 252.392 191.201V191.201Z" fill="#55ABE0"/>
<path d="M233.839 218.769L218.086 218.981L217.959 218.983L217.018 207.182C216.899 205.69 218.05 204.381 219.584 204.265L235.068 203.096C236.602 202.981 237.947 204.101 238.066 205.593L239.086 218.373L238.951 218.383L233.839 218.769V218.769Z" fill="#F3F7FA"/>
<path d="M250.896 158.834L249.811 145.233C249.729 144.207 250.521 143.307 251.576 143.227L254.495 143.007C255.55 142.927 256.475 143.698 256.557 144.724L257.642 158.325C257.724 159.351 256.932 160.251 255.877 160.331L252.958 160.551C251.903 160.631 250.978 159.861 250.896 158.834V158.834Z" fill="#162D3B"/>
<path d="M258.62 218.219L256.889 206.73L253.58 195.889L252.665 192.922C251.206 192.109 249.42 193.27 249.634 194.893L249.803 196.174L253.111 207.016L254.842 218.504" fill="#F3F7FA"/>
<path d="M166.311 219.641L147.043 219.9L139.318 136.113C139.13 134.08 139.806 132.023 141.171 130.472L160.118 108.941C162.77 105.927 167.28 105.383 170.608 107.677L194.339 124.032C196.275 125.366 197.475 127.452 197.63 129.755L201.896 192.883L212.629 205.241L212.652 205.267L215.398 218.983L166.311 219.641V219.641Z" fill="#818EA1"/>
<path d="M162.276 128.423L161.965 124.534C161.883 123.507 162.675 122.607 163.731 122.528L169.348 122.104C170.403 122.024 171.328 122.794 171.41 123.821L171.72 127.71C171.802 128.736 171.01 129.636 169.955 129.716L164.338 130.14C163.283 130.219 162.357 129.449 162.276 128.423V128.423Z" fill="#55ABE0"/>
<path d="M152.811 159.505L151.663 145.116C151.581 144.09 152.373 143.19 153.428 143.11L161.744 142.482C162.799 142.403 163.724 143.173 163.806 144.2L164.954 158.588C165.036 159.614 164.244 160.514 163.189 160.594L154.873 161.222C153.818 161.301 152.892 160.531 152.811 159.505V159.505Z" fill="#162D3B"/>
<path d="M171.563 174.848C171.177 175.196 170.988 175.687 171.044 176.196L172.574 190.071C172.667 190.909 173.417 191.538 174.283 191.502C174.738 191.486 175.148 191.293 175.447 190.964C175.747 190.636 175.893 190.214 175.858 189.776L174.757 175.978C174.699 175.255 174.147 174.657 173.413 174.525L172.984 174.448C172.839 174.422 172.693 174.414 172.551 174.425C172.186 174.452 171.841 174.598 171.563 174.848V174.848Z" fill="#162D3B"/>
<path d="M148.755 193.169C148.349 192.844 148.104 192.384 148.063 191.874L146.962 178.076C146.895 177.234 147.42 176.451 148.239 176.17L148.651 176.029C149.228 175.833 149.852 175.909 150.36 176.242C150.868 176.575 151.176 177.107 151.206 177.701L151.894 191.64C151.943 192.62 151.196 193.475 150.193 193.585C150.17 193.588 150.147 193.59 150.124 193.591C149.626 193.629 149.142 193.48 148.755 193.169H148.755Z" fill="#162D3B"/>
<path d="M202.153 197.652L208.895 207.449L210.494 218.918L215.234 218.853L212.526 205.326L201.764 192.935C201.043 194.466 201.19 196.252 202.153 197.652H202.153Z" fill="#F3F7FA"/>
<path d="M210.042 215.635L190.835 217.342L190.86 217.604L210.066 215.897L210.042 215.635Z" fill="#162D3B"/>
<path d="M208.69 213.406L190.472 214.921L190.495 215.183L208.713 213.669L208.69 213.406Z" fill="#162D3B"/>
<path d="M207.555 211.11L190.144 212.758L190.17 213.02L207.581 211.372L207.555 211.11Z" fill="#162D3B"/>
<path d="M206.826 208.797L190.124 210.602L190.153 210.864L206.856 209.059L206.826 208.797Z" fill="#162D3B"/>
<path d="M205.849 206.762L189.804 208.527L189.835 208.789L205.88 207.024L205.849 206.762Z" fill="#162D3B"/>
<path d="M204.627 204.998L188.957 206.181L188.977 206.444L204.648 205.261L204.627 204.998Z" fill="#162D3B"/>
<path d="M203.669 203.218L188.454 204.541L188.478 204.803L203.693 203.48L203.669 203.218Z" fill="#162D3B"/>
<path d="M202.71 201.443L187.991 203.034L188.021 203.296L202.74 201.705L202.71 201.443Z" fill="#162D3B"/>
<path d="M202.027 199.656L187.475 201.005L187.5 201.267L202.053 199.918L202.027 199.656Z" fill="#162D3B"/>
<path d="M200.8 197.92L186.881 199.397L186.911 199.659L200.83 198.181L200.8 197.92Z" fill="#162D3B"/>
<path d="M200.136 196.359L186.316 197.534L186.34 197.796L200.159 196.621L200.136 196.359Z" fill="#162D3B"/>
<path d="M184.864 192.074L183.444 174.273C183.362 173.247 184.154 172.347 185.209 172.267L194.065 171.599C195.12 171.519 196.045 172.289 196.127 173.316L197.547 191.117C197.629 192.143 196.837 193.043 195.782 193.123L186.926 193.791C185.871 193.871 184.946 193.1 184.864 192.074Z" fill="#55ABE0"/>
<path d="M166.311 219.641L150.558 219.853L150.431 219.855L149.49 208.054C149.371 206.562 150.522 205.254 152.057 205.138L167.54 203.969C169.074 203.853 170.419 204.973 170.538 206.466L171.558 219.246L171.423 219.256L166.311 219.641Z" fill="#F3F7FA"/>
<path d="M183.367 159.707L182.282 146.106C182.2 145.079 182.992 144.179 184.048 144.1L186.966 143.879C188.021 143.8 188.947 144.57 189.028 145.597L190.114 159.197C190.196 160.224 189.404 161.124 188.348 161.204L185.43 161.424C184.374 161.504 183.449 160.733 183.367 159.707V159.707Z" fill="#162D3B"/>
<path d="M191.092 219.091L189.361 207.603L186.053 196.762L185.137 193.794C183.678 192.982 181.892 194.143 182.106 195.765L182.275 197.047L185.583 207.888L187.314 219.376" fill="#F3F7FA"/>
<path d="M98.7835 220.514L79.5152 220.772L71.79 136.986C71.6026 134.952 72.2779 132.896 73.643 131.345L92.5902 109.813C95.2423 106.799 99.7523 106.256 103.08 108.55L126.811 124.904C128.747 126.239 129.947 128.325 130.102 130.628L134.369 193.756L145.102 206.114L145.124 206.14L147.87 219.855L98.7835 220.514L98.7835 220.514Z" fill="#818EA1"/>
<path d="M94.7477 129.295L94.4375 125.406C94.3556 124.38 95.1475 123.48 96.2029 123.4L101.82 122.976C102.875 122.896 103.8 123.667 103.882 124.693L104.193 128.582C104.274 129.609 103.482 130.509 102.427 130.588L96.8103 131.012C95.7548 131.092 94.8296 130.322 94.7477 129.295V129.295Z" fill="#55ABE0"/>
<path d="M85.2827 160.377L84.1347 145.989C84.0528 144.963 84.8448 144.063 85.9002 143.983L94.2157 143.355C95.2709 143.276 96.1961 144.046 96.278 145.072L97.426 159.461C97.5079 160.487 96.7159 161.387 95.6608 161.467L87.3452 162.095C86.2898 162.174 85.3646 161.404 85.2827 160.377V160.377Z" fill="#162D3B"/>
<path d="M80.7565 177.167L81.1683 177.026C82.2949 176.641 83.4849 177.42 83.5423 178.58L84.2313 192.519C84.2765 193.433 83.5847 194.224 82.6501 194.327C81.6463 194.437 80.7484 193.716 80.6702 192.737L79.5694 178.939C79.5068 178.155 79.9939 177.428 80.7565 177.167V177.167V177.167Z" fill="#162D3B"/>
<path d="M89.1656 192.036L88.0143 177.606C87.933 176.588 88.6879 175.708 89.7331 175.604L97.2768 174.854C98.3285 174.758 99.2687 175.494 99.3808 176.514L100.982 191.09C101.037 191.596 100.884 192.09 100.549 192.482C100.215 192.873 99.7431 193.111 99.2214 193.15L91.2281 193.753C90.1727 193.833 89.2475 193.063 89.1656 192.036H89.1656Z" fill="#162D3B"/>
<path d="M134.626 198.524L141.367 208.321L142.966 219.79L147.706 219.726L144.998 206.199L134.236 193.808C133.515 195.339 133.662 197.125 134.626 198.524H134.626Z" fill="#F3F7FA"/>
<path d="M142.514 216.508L123.308 218.215L123.332 218.477L142.538 216.77L142.514 216.508Z" fill="#162D3B"/>
<path d="M141.162 214.279L122.944 215.794L122.967 216.056L141.186 214.541L141.162 214.279Z" fill="#162D3B"/>
<path d="M140.027 211.983L122.616 213.631L122.642 213.893L140.054 212.245L140.027 211.983Z" fill="#162D3B"/>
<path d="M139.298 209.67L122.596 211.475L122.626 211.736L139.328 209.931L139.298 209.67Z" fill="#162D3B"/>
<path d="M138.322 207.635L122.276 209.399L122.307 209.661L138.352 207.896L138.322 207.635Z" fill="#162D3B"/>
<path d="M137.099 205.871L121.429 207.054L121.45 207.316L137.12 206.133L137.099 205.871Z" fill="#162D3B"/>
<path d="M136.141 204.09L120.926 205.413L120.95 205.676L136.165 204.352L136.141 204.09Z" fill="#162D3B"/>
<path d="M135.182 202.316L120.463 203.906L120.493 204.168L135.212 202.577L135.182 202.316Z" fill="#162D3B"/>
<path d="M134.499 200.528L119.947 201.878L119.972 202.14L134.525 200.791L134.499 200.528Z" fill="#162D3B"/>
<path d="M133.273 198.792L119.354 200.27L119.383 200.531L133.302 199.054L133.273 198.792Z" fill="#162D3B"/>
<path d="M132.608 197.232L118.789 198.407L118.812 198.669L132.632 197.494L132.608 197.232Z" fill="#162D3B"/>
<path d="M117.336 192.947L115.916 175.146C115.834 174.119 116.626 173.219 117.681 173.14L126.537 172.471C127.592 172.392 128.517 173.162 128.599 174.189L130.019 191.989C130.101 193.016 129.309 193.915 128.254 193.995L119.399 194.664C118.343 194.743 117.418 193.973 117.336 192.947H117.336Z" fill="#55ABE0"/>
<path d="M98.7835 220.514L83.0304 220.726L82.9036 220.728L81.9621 208.927C81.843 207.435 82.9944 206.126 84.5287 206.01L100.012 204.841C101.546 204.726 102.891 205.846 103.01 207.338L104.03 220.118L103.895 220.128L98.7835 220.514V220.514Z" fill="#F3F7FA"/>
<path d="M115.839 160.579L114.754 146.978C114.672 145.952 115.464 145.052 116.52 144.972L119.438 144.752C120.494 144.672 121.419 145.443 121.501 146.469L122.586 160.07C122.668 161.097 121.876 161.996 120.821 162.076L117.902 162.296C116.847 162.376 115.921 161.606 115.839 160.579V160.579Z" fill="#162D3B"/>
<path d="M123.564 219.964L121.833 208.475L118.525 197.634L117.609 194.667C116.15 193.854 114.364 195.015 114.578 196.638L114.747 197.92L118.055 208.761L119.786 220.249" fill="#F3F7FA"/>
<path d="M301.088 217.74L54.3262 220.87L54.3331 221.397L301.095 218.266L301.088 217.74Z" fill="#F3F7FA"/>
<path d="M136.201 327.816C135.648 326.91 133.259 327.88 132.82 327.058C132.382 326.239 134.602 324.991 135.87 322.139C136.099 321.625 137.54 318.385 136.473 317.385C134.451 315.49 125.196 323.311 121.957 320.751C121.246 320.19 120.749 319.068 118.598 317.248C117.742 316.524 117.225 316.197 116.724 316.318C116.013 316.491 115.957 317.416 115.195 319.235C114.052 321.963 113.376 321.799 112.71 323.975C112.216 325.591 112.329 326.53 111.747 326.713C110.924 326.972 110.166 325.258 109.123 325.412C108.059 325.569 107.415 327.564 107.212 329.058C106.831 331.862 107.889 333.712 108.476 335.657C109.113 337.771 109.492 340.986 108.019 345.537L93.4463 385.477C96.6636 377.281 105.979 354.815 109.894 346.467C111.024 344.057 112.271 341.613 114.833 340.648C117.3 339.719 120.687 340.273 125.006 339.261C125.51 339.143 126.91 338.797 127.086 337.996C127.231 337.334 126.408 336.965 126.535 336.345C126.704 335.513 128.323 335.503 130.313 334.543C131.716 333.867 132.59 333.062 133.341 332.37C133.568 332.161 136.936 329.022 136.201 327.816H136.201V327.816Z" fill="#478EBA"/>
<path d="M78.8656 348.842C78.2491 348.844 78.0491 350.265 77.5076 350.237C76.9679 350.21 76.9787 348.79 75.906 347.362C75.7125 347.104 74.4934 345.481 73.681 345.702C72.1412 346.121 73.4171 352.796 71.1912 353.604C70.7027 353.781 69.9936 353.695 68.4543 354.196C67.8419 354.396 67.5276 354.549 67.4445 354.823C67.3266 355.212 67.7771 355.506 68.4751 356.394C69.5219 357.727 69.2437 358.002 70.1498 358.948C70.8225 359.65 71.3291 359.868 71.2536 360.198C71.1468 360.666 70.0634 360.533 69.8399 361.075C69.6118 361.629 70.4329 362.512 71.1281 363.04C72.4327 364.031 73.6716 364.059 74.8225 364.34C76.0731 364.646 77.8046 365.393 79.6762 367.409L95.6238 385.89C92.4169 381.99 83.769 371.06 80.686 366.783C79.796 365.548 78.9226 364.247 79.175 362.745C79.418 361.3 80.6752 359.843 81.4106 357.489C81.4965 357.214 81.7256 356.446 81.3724 356.131C81.0804 355.87 80.6564 356.157 80.38 355.917C80.0093 355.596 80.4713 354.82 80.5611 353.594C80.6245 352.729 80.4707 352.079 80.3384 351.521C80.2985 351.353 79.6862 348.839 78.8656 348.842V348.842H78.8656V348.842Z" fill="#478EBA"/>
<path d="M91.1639 351.527L90.7925 348.302L90.9622 348.058C91.7474 346.927 92.1476 345.823 92.1524 344.775C92.1532 344.608 92.1452 344.442 92.1372 344.272C92.1052 343.599 92.0652 342.763 92.5134 341.788C92.7648 341.245 93.4708 339.987 94.5322 340.142C94.8179 340.181 95.034 340.309 95.1981 340.459C95.2221 340.421 95.247 340.384 95.2734 340.343C95.6039 339.853 95.8657 339.643 96.1178 339.44C96.3115 339.284 96.5117 339.124 96.8254 338.744C96.9631 338.577 97.0704 338.431 97.1608 338.308C97.4354 337.936 97.794 337.492 98.4263 337.5C99.1019 337.531 99.4557 338.074 99.6902 338.434C100.109 339.076 100.299 339.538 100.424 339.845C100.47 339.957 100.522 340.083 100.548 340.122C100.766 340.434 102.536 340.142 103.203 340.037C104.7 339.794 105.996 339.583 106.53 340.502C106.913 341.159 106.628 342.028 105.66 343.154C105.358 343.504 105.037 343.771 104.752 343.979C104.988 344.116 105.2 344.327 105.285 344.657C105.487 345.438 104.796 346.222 103.233 346.988C102.845 347.179 102.322 347.435 101.59 347.558C101.245 347.615 100.934 347.629 100.668 347.637C100.663 347.787 100.627 347.949 100.533 348.115C100.259 348.606 99.687 348.839 98.8258 348.783C97.878 348.735 97.0976 348.559 96.4092 348.405C95.8081 348.271 95.2902 348.157 94.8836 348.184C94.1296 348.243 93.5484 348.83 92.8665 349.592L91.1639 351.527H91.1639V351.527Z" fill="#478EBA"/>
<path d="M92.8866 332.326L89.7737 333.493L89.4876 333.395C88.1642 332.943 86.9648 332.847 85.9214 333.108C85.7555 333.15 85.5918 333.2 85.4251 333.25C84.7642 333.451 83.9428 333.701 82.8597 333.526C82.2555 333.427 80.8252 333.082 80.7109 332.044C80.6771 331.765 80.7493 331.53 80.8563 331.337C80.813 331.324 80.7696 331.31 80.7226 331.296C80.151 331.109 79.8755 330.916 79.6103 330.73C79.4063 330.588 79.196 330.44 78.7386 330.241C78.538 330.154 78.3652 330.09 78.2199 330.036C77.7802 329.872 77.2479 329.647 77.0953 329.05C76.9549 328.407 77.4056 327.936 77.7038 327.624C78.2356 327.068 78.6474 326.772 78.9206 326.576C79.0205 326.504 79.1327 326.423 79.1648 326.389C79.4192 326.105 78.6808 324.514 78.4063 323.913C77.7849 322.566 77.2471 321.4 78.0254 320.664C78.5818 320.138 79.5179 320.184 80.8832 320.81C81.3082 321.005 81.6544 321.24 81.9342 321.455C82.0106 321.198 82.166 320.946 82.4726 320.782C83.1988 320.393 84.1529 320.845 85.3113 322.121C85.6003 322.438 85.9868 322.865 86.2949 323.523C86.4397 323.833 86.5324 324.122 86.6076 324.37C86.7577 324.337 86.9278 324.33 87.1173 324.376C87.6747 324.51 88.052 324.988 88.2147 325.813C88.4071 326.717 88.43 327.496 88.4513 328.182C88.4706 328.782 88.489 329.298 88.6184 329.674C88.8685 330.368 89.5997 330.766 90.53 331.215L92.8866 332.326L92.8866 332.326V332.326Z" fill="#478EBA"/>
<path d="M91.1639 322.825L90.7925 319.6L90.9622 319.355C91.7474 318.225 92.1476 317.121 92.1524 316.073C92.1532 315.906 92.1452 315.739 92.1372 315.57C92.1052 314.897 92.0652 314.061 92.5134 313.086C92.7648 312.543 93.4708 311.284 94.5322 311.44C94.8179 311.479 95.034 311.607 95.1981 311.756C95.2221 311.719 95.247 311.681 95.2734 311.641C95.6039 311.15 95.8657 310.94 96.1178 310.738C96.3115 310.582 96.5117 310.422 96.8254 310.042C96.9631 309.875 97.0704 309.729 97.1608 309.606C97.4354 309.233 97.794 308.79 98.4263 308.797C99.1019 308.829 99.4557 309.372 99.6902 309.732C100.109 310.373 100.299 310.836 100.424 311.143C100.47 311.255 100.522 311.381 100.548 311.42C100.766 311.731 102.536 311.44 103.203 311.334C104.7 311.091 105.996 310.881 106.53 311.8C106.913 312.457 106.628 313.326 105.66 314.452C105.358 314.802 105.037 315.068 104.752 315.277C104.988 315.414 105.2 315.624 105.285 315.954C105.487 316.736 104.796 317.519 103.233 318.285C102.845 318.477 102.322 318.732 101.59 318.855C101.245 318.913 100.934 318.927 100.668 318.935C100.663 319.084 100.627 319.246 100.533 319.413C100.259 319.903 99.687 320.137 98.8258 320.081C97.878 320.033 97.0976 319.857 96.4092 319.703C95.8081 319.569 95.2902 319.455 94.8836 319.481C94.1296 319.541 93.5484 320.128 92.8665 320.889L91.1639 322.825H91.1639V322.825Z" fill="#478EBA"/>
<path d="M94.5559 385.424L93.8611 385.001L93.693 384.22L93.8611 385.001L93.0511 385.091C93.0383 385.018 92.9943 384.85 92.9278 384.586C92.5652 383.144 91.4598 378.756 90.5377 371.845C89.8941 367.021 89.5299 362.061 89.4547 357.102C89.3794 352.134 89.6212 348.374 89.8149 345.351C89.9614 343.071 90.1391 340.901 90.3136 338.786C90.7778 333.136 91.2157 327.8 90.8899 321.892C90.8178 320.573 90.6665 317.828 89.0176 314.906C88.0611 313.212 86.7436 311.708 85.1011 310.437L86.1224 309.188C87.9354 310.593 89.393 312.259 90.4552 314.14C92.2835 317.379 92.4484 320.371 92.5276 321.808C92.859 327.82 92.4163 333.208 91.9473 338.912C91.7744 341.019 91.5967 343.18 91.451 345.451C91.2589 348.445 91.0196 352.173 91.094 357.077C91.1676 361.977 91.5278 366.876 92.1626 371.64C93.0735 378.463 94.1629 382.786 94.5207 384.206C94.7112 384.965 94.7512 385.124 94.5559 385.424V385.424H94.5559V385.424Z" fill="#478EBA"/>
<path d="M82.0948 312.971C82.0276 312.971 81.9595 312.969 81.8907 312.965C80.4947 312.891 79.202 312.078 78.0478 310.549C77.5067 309.83 77.2297 309.009 76.6774 307.373C76.5918 307.12 76.1755 305.84 75.9226 304.079C75.7569 302.928 75.7777 302.447 76.0122 302.022C76.2724 301.549 76.6934 301.219 77.1673 300.996C77.1465 300.843 77.1633 300.686 77.2313 300.526C77.5107 299.861 78.2535 299.948 78.6553 299.99C78.8586 300.015 79.1124 300.048 79.3861 300.034C79.8168 300.013 80.0481 299.889 80.3987 299.702C80.7341 299.523 81.1511 299.3 81.7698 299.177C82.9897 298.929 84.0119 299.266 84.3489 299.376C86.1218 299.951 86.9959 301.292 88.0077 302.844C88.2094 303.156 88.9018 304.289 89.3588 305.843C89.6886 306.965 89.6422 307.463 89.5429 307.834C89.3412 308.595 88.865 309.031 87.6555 309.993C86.3924 311.001 85.7584 311.505 85.2141 311.812C83.947 312.524 83.1514 312.971 82.0948 312.971V312.971H82.0948Z" fill="#478EBA"/>
<path d="M338.458 215.735C338.458 215.735 317.957 218.133 321.415 202.367C324.873 186.6 344.48 157.477 344.48 157.477L355.607 163.547L342.833 192.918L348.332 197.138L338.458 215.735V215.735L338.458 215.735Z" fill="#A0616A"/>
<path d="M405.641 196.54L402.752 219.651L330.363 219.306L344.901 194.729L405.641 196.54Z" fill="#478EBA"/>
<path d="M362.622 158.705C367.052 152.687 367.407 145.555 363.416 142.775C359.424 139.995 352.597 142.62 348.167 148.638C343.737 154.656 343.382 161.788 347.373 164.568C351.365 167.348 358.192 164.723 362.622 158.705Z" fill="#A0616A"/>
<path d="M403.125 284.652H398.68V384.951H403.125V284.652Z" fill="#162D3B"/>
<path d="M381.791 284.652H377.346V384.951H381.791V284.652Z" fill="#162D3B"/>
<path d="M262.233 221.532H257.789V384.951H262.233V221.532Z" fill="#818EA1"/>
<path d="M333.79 284.652H329.345V384.951H333.79V284.652Z" fill="#162D3B"/>
<path d="M316.782 284.652H312.337V384.951H316.782V284.652Z" fill="#162D3B"/>
<path d="M394.68 282.49H308.852L292.387 305.207L377.791 310.159L394.68 282.49Z" fill="#162D3B"/>
<path d="M237.519 204.769L237.909 188.295L186.109 192.17L185.844 203.333L237.519 204.769Z" fill="#A0616A"/>
<path d="M202.461 190.202L199.984 196L196.426 196.11C196.426 196.11 200.592 197.351 201.749 204.715L198.33 205.712C198.33 205.712 195.047 208.691 188.91 208.402L172.454 207.063L172.391 201.483L183.764 200.205C183.764 200.205 186.298 198.583 173.753 191.916C173.753 191.916 169.597 189.444 173.335 177.237C173.848 175.559 175.4 174.354 177.199 174.316C178.192 174.295 179.123 174.642 179.494 175.842C180.44 178.896 179.483 181.94 182.081 183.846C184.68 185.753 202.461 190.202 202.461 190.202L202.461 190.202V190.202Z" fill="#1C1C1C"/>
<path d="M388.257 267.751C388.257 267.751 370.383 297.32 329.94 291.991C320.316 290.723 311.849 285.157 307.025 276.957C297.701 261.109 283.542 233.36 288.132 217.647L219.731 204.948L214.342 188.79L288.369 179.436C294.917 178.609 301.332 181.706 304.613 187.28L340.673 248.537L351.423 249.679L388.257 267.751V267.751V267.751Z" fill="#1C1C1C"/>
<path d="M238.87 211.512L237.896 195.061L186.584 202.978L187.243 214.126L238.87 211.512Z" fill="#A0616A"/>
<path d="M202.72 199.737L200.73 205.71L197.193 206.098C197.193 206.098 201.448 207.009 203.211 214.258L199.886 215.519C199.886 215.519 196.859 218.746 190.718 218.938L174.205 218.892L173.68 213.335L184.911 211.17C184.911 211.17 187.303 209.355 174.247 203.691C174.247 203.691 169.9 201.552 172.616 189.093C172.989 187.38 174.436 186.058 176.227 185.879C177.215 185.781 178.171 186.054 178.64 187.22C179.835 190.19 179.133 193.3 181.881 194.996C184.628 196.693 202.72 199.737 202.72 199.737L202.72 199.737H202.72Z" fill="#1C1C1C"/>
<path d="M394.328 262.494C394.328 262.494 378.958 293.366 338.205 291.219C328.507 290.709 319.607 285.823 314.12 278.028C303.516 262.961 287.108 236.41 290.384 220.388L221.154 213.084L214.446 197.399L287.46 182.283C293.918 180.946 300.568 183.531 304.299 188.83L345.309 247.066L356.119 247.363L394.328 262.494H394.328V262.494Z" fill="#1C1C1C"/>
<path d="M347.477 132.13L343.921 134.724L362.588 159.798L366.144 158.934L347.477 132.13Z" fill="#162D3B"/>
<path d="M396.013 187.811L416.458 186.947L425.347 225.856C425.347 225.856 406.68 294.163 384.458 291.569C384.458 291.569 370.68 281.625 370.68 278.167C370.68 274.708 352.013 266.062 352.013 266.062L347.568 251.363L360.902 231.476C360.902 231.476 366.235 215.912 384.013 207.266L396.013 187.811L396.013 187.811V187.811Z" fill="#478EBA"/>
<path d="M279.122 218.074H97.3413V222.397H186.232V384.951H190.676V222.397H279.122V218.074Z" fill="#818EA1"/>
<path d="M406.68 184.353C419.935 184.353 430.681 173.9 430.681 161.007C430.681 148.114 419.935 137.662 406.68 137.662C393.425 137.662 382.68 148.114 382.68 161.007C382.68 173.9 393.425 184.353 406.68 184.353Z" fill="#A0616A"/>
<path d="M322.997 190.837L306.234 197.322L339.123 239.69L350.679 231.044L322.997 190.837Z" fill="#818EA1"/>
<path d="M388.458 272.114C388.458 272.114 382.235 291.266 368.902 281.69C355.568 272.114 336.401 242.716 336.401 242.716L346.679 235.367L368.902 258.815L375.124 255.686L388.458 272.114L388.458 272.114V272.114Z" fill="#A0616A"/>
<path d="M398.236 204.672L418.681 216.777L388.458 280.761L368.902 254.821L398.236 204.672Z" fill="#478EBA"/>
<path d="M344.235 243.082C348.486 240.695 348.849 233.563 345.044 227.153C341.239 220.743 334.708 217.482 330.457 219.869C326.205 222.257 325.843 229.389 329.648 235.799C333.452 242.209 339.983 245.47 344.235 243.082Z" fill="#A0616A"/>
<path d="M409.305 231.69C415.464 212.048 422.075 205.832 429.024 209.724C434.314 212.686 435.906 219.429 432.806 224.543C424.904 237.58 408.622 267.449 412.014 287.246C412.014 287.246 417.347 314.915 374.68 314.915C332.012 314.915 291.123 305.403 291.123 305.403L313.345 301.945L363.882 305.456C375.428 306.258 385.16 296.648 383.617 285.489C383.566 285.12 383.506 284.748 383.436 284.371C380.902 270.818 409.305 231.69 409.305 231.69V231.69V231.69Z" fill="#162D3B"/>
<path d="M397.685 151.33C395.724 156.669 400.032 162.214 405.849 161.837L405.987 161.828C409.897 166.582 410.005 173.307 406.25 178.177C405.941 184.455 406.952 190.727 409.221 196.612L415.595 213.145L425.407 208.691L430.064 220.781L457.462 207.052L440.857 170.711L435.79 150.995C432.185 136.968 417.475 128.525 403.109 132.237L392.087 135.085C383.379 137.335 378.367 146.203 381.08 154.56V154.56L397.685 151.329" fill="#1C1C1C"/>
</svg>
