<svg width="500" height="500" viewBox="0 0 500 500" fill="none" xmlns="http://www.w3.org/2000/svg">
<path d="M144.316 333.375C159.084 333.375 171.056 321.584 171.056 307.039C171.056 292.494 159.084 280.703 144.316 280.703C129.548 280.703 117.576 292.494 117.576 307.039C117.576 321.584 129.548 333.375 144.316 333.375Z" fill="#478EBA"/>
<path opacity="0.2" d="M124.572 289.449C122.078 295.195 121.739 301.628 123.617 307.597C125.495 313.566 129.467 318.684 134.824 322.034C140.18 325.385 146.571 326.751 152.856 325.887C159.14 325.024 164.908 321.988 169.129 317.322C167.605 320.833 165.325 323.975 162.446 326.532C159.566 329.088 156.157 330.998 152.454 332.128C148.751 333.258 144.843 333.582 141.001 333.076C137.158 332.571 133.473 331.249 130.201 329.202C126.928 327.155 124.147 324.432 122.049 321.221C119.952 318.01 118.588 314.389 118.053 310.607C117.517 306.826 117.823 302.975 118.949 299.322C120.074 295.668 121.993 292.299 124.572 289.449Z" fill="#1C1C1C"/>
<path d="M144.39 307.039H144.463L145.785 381.705H142.994L144.39 307.039Z" fill="#478EBA"/>
<path d="M90.2132 284.262C119.988 284.262 144.126 260.489 144.126 231.164C144.126 201.839 119.988 178.066 90.2132 178.066C60.4379 178.066 36.3003 201.839 36.3003 231.164C36.3003 260.489 60.4379 284.262 90.2132 284.262Z" fill="#478EBA"/>
<path opacity="0.2" d="M50.4057 195.699C45.3769 207.284 44.6947 220.254 48.481 232.289C52.2674 244.324 60.2756 254.641 71.0746 261.397C81.8737 268.152 94.7598 270.906 107.43 269.165C120.101 267.425 131.73 261.304 140.241 251.896C137.169 258.974 132.571 265.31 126.766 270.465C120.961 275.619 114.087 279.469 106.621 281.748C99.1555 284.026 91.2761 284.679 83.5288 283.66C75.7815 282.642 68.3517 279.977 61.754 275.849C55.1564 271.722 49.5487 266.232 45.3196 259.758C41.0904 253.284 38.3408 245.983 37.2613 238.359C36.1819 230.735 36.7983 222.97 39.068 215.604C41.3376 208.238 45.2062 201.446 50.4057 195.699Z" fill="#1C1C1C"/>
<path d="M90.3613 231.164H90.5097L93.1758 381.705H87.5474L90.3613 231.164Z" fill="#478EBA"/>
<path d="M445.662 303.786H198.549V375.934H445.662V303.786Z" fill="#F3F7FA"/>
<path d="M336.512 318.697H307.699V375.934H336.512V318.697Z" fill="#478EBA"/>
<path d="M431.255 218.652H212.956V285.028H431.255V218.652Z" fill="#F3F7FA"/>
<path d="M453.072 222.74H190.509C190.07 222.74 189.642 222.611 189.279 222.37C188.915 222.128 188.634 221.785 188.47 221.384C188.306 220.984 188.268 220.544 188.36 220.122C188.452 219.7 188.67 219.315 188.986 219.016L260.744 151.083V121.493C260.745 120.919 260.977 120.369 261.389 119.964C261.801 119.558 262.359 119.33 262.942 119.329H277.105C277.687 119.329 278.246 119.558 278.658 119.963C279.07 120.369 279.302 120.919 279.302 121.493V133.515L284.722 128.384C293.592 119.987 305.359 115.208 317.66 115.007C329.961 114.805 341.883 119.196 351.031 127.298L454.541 218.966C454.872 219.259 455.104 219.644 455.208 220.069C455.312 220.495 455.283 220.942 455.124 221.351C454.964 221.76 454.683 222.111 454.317 222.359C453.95 222.607 453.516 222.74 453.072 222.74Z" fill="#818EA1"/>
<path d="M270.583 235.486C272.411 235.486 274.221 235.841 275.909 236.53C277.598 237.219 279.132 238.228 280.425 239.501C281.717 240.774 282.742 242.285 283.442 243.949C284.141 245.612 284.501 247.394 284.501 249.194V267.712H256.665V249.194C256.665 247.394 257.025 245.612 257.724 243.949C258.423 242.285 259.449 240.774 260.741 239.501C262.034 238.228 263.568 237.219 265.257 236.53C266.945 235.841 268.755 235.486 270.583 235.486Z" fill="white"/>
<path d="M322.105 235.727C325.797 235.727 329.337 237.171 331.947 239.742C334.557 242.313 336.024 245.799 336.024 249.435V267.953H308.187V249.435C308.187 245.799 309.653 242.313 312.264 239.742C314.874 237.171 318.414 235.727 322.105 235.727Z" fill="white"/>
<path d="M373.628 235.967C377.32 235.967 380.86 237.412 383.47 239.982C386.08 242.553 387.547 246.04 387.547 249.675V268.193H359.71V249.675C359.71 246.04 361.176 242.553 363.787 239.982C366.397 237.412 369.937 235.967 373.628 235.967Z" fill="white"/>
<path d="M394.14 317.975C397.831 317.975 401.371 319.419 403.981 321.99C406.592 324.561 408.058 328.048 408.058 331.683V350.201H380.221V331.683C380.221 328.048 381.688 324.561 384.298 321.99C386.908 319.419 390.448 317.975 394.14 317.975Z" fill="white"/>
<path d="M256.42 317.975C260.112 317.975 263.652 319.419 266.262 321.99C268.872 324.561 270.339 328.048 270.339 331.683V350.201H242.502V331.683C242.502 329.883 242.862 328.1 243.561 326.437C244.261 324.774 245.286 323.263 246.579 321.99C247.871 320.717 249.405 319.707 251.094 319.019C252.783 318.33 254.593 317.975 256.42 317.975Z" fill="white"/>
<path d="M481.449 304.912L435.094 284.711C434.845 284.602 434.575 284.546 434.303 284.546H213.38C213.128 284.546 212.878 284.594 212.644 284.688L162.186 304.889C161.766 305.057 161.419 305.364 161.203 305.756C160.988 306.149 160.918 306.603 161.005 307.041C161.091 307.479 161.33 307.873 161.68 308.157C162.03 308.44 162.469 308.596 162.922 308.596H176.013V374.971H174.548V381.705H469.033V374.971H466.591V308.595H480.659C481.107 308.595 481.541 308.444 481.889 308.166C482.237 307.888 482.478 307.501 482.57 307.069C482.663 306.638 482.602 306.188 482.398 305.795C482.194 305.402 481.859 305.091 481.449 304.912ZM462.684 374.971H179.92V308.595H462.684V374.971Z" fill="#818EA1"/>
<path d="M287.92 265.067H252.269V270.838H287.92V265.067Z" fill="#818EA1"/>
<path d="M340.175 265.067H304.524V270.838H340.175V265.067Z" fill="#818EA1"/>
<path d="M392.431 265.067H356.78V270.838H392.431V265.067Z" fill="#818EA1"/>
<path d="M411.965 348.277H376.314V354.049H411.965V348.277Z" fill="#818EA1"/>
<path d="M273.757 348.277H238.106V354.049H273.757V348.277Z" fill="#818EA1"/>
<path d="M402.655 217.662C402.655 218.04 402.649 218.423 402.643 218.8C402.637 219.254 402.625 219.702 402.607 220.155C402.589 220.55 402.571 220.939 402.548 221.328C402.476 222.631 402.362 223.928 402.206 225.23C402.17 225.56 402.129 225.885 402.081 226.215C402.045 226.468 402.009 226.727 401.967 226.987C401.925 227.276 401.883 227.564 401.835 227.853C401.74 228.466 401.632 229.079 401.512 229.692C401.452 229.999 401.393 230.305 401.327 230.611C401.201 231.219 401.063 231.832 400.92 232.439C400.908 232.486 400.896 232.539 400.884 232.586C400.812 232.887 400.74 233.181 400.662 233.482C400.638 233.57 400.621 233.653 400.591 233.741C400.537 233.965 400.477 234.189 400.417 234.413C400.333 234.726 400.249 235.032 400.16 235.344C400.016 235.828 399.872 236.305 399.723 236.788C399.704 236.839 399.688 236.89 399.675 236.942C399.388 237.855 399.082 238.757 398.747 239.653C398.574 240.125 398.388 240.602 398.203 241.073C398.017 241.545 397.826 242.017 397.628 242.482C397.437 242.936 397.239 243.39 397.042 243.838C396.994 243.944 396.946 244.05 396.892 244.156C396.683 244.622 396.467 245.075 396.246 245.529C396.24 245.535 396.24 245.547 396.234 245.553C396.06 245.918 395.875 246.284 395.689 246.643C395.689 246.654 395.685 246.665 395.677 246.673C395.498 247.026 395.312 247.38 395.121 247.728L394.815 248.299L394.78 248.364C394.397 249.066 394.002 249.761 393.583 250.451C393.493 250.604 393.403 250.757 393.314 250.905C393.224 251.058 393.128 251.211 393.032 251.359C392.972 251.465 392.907 251.571 392.835 251.677C392.709 251.877 392.583 252.083 392.452 252.284C392.428 252.325 392.398 252.366 392.374 252.408C392.146 252.755 391.919 253.097 391.692 253.445C391.41 253.863 391.123 254.276 390.83 254.689L384.331 264.932L384.049 264.703L383.972 264.632H383.966L383.708 264.42L383.002 263.83C382.787 264.037 382.577 264.243 382.362 264.443C382.278 264.526 382.188 264.602 382.104 264.685C382.039 264.744 381.979 264.803 381.913 264.862C370.677 275.668 355.731 281.926 340.033 282.396H340.015C328.132 282.718 316.369 279.984 305.886 274.463C305.652 274.345 305.425 274.227 305.197 274.092C303.833 273.361 302.499 272.589 301.188 271.764C301.182 271.758 301.176 271.758 301.17 271.752C299.65 270.691 298.166 269.559 296.717 268.357C288.948 261.907 282.801 253.772 278.759 244.59C274.717 235.408 272.889 225.428 273.42 215.434C273.438 215.039 273.462 214.65 273.492 214.255C273.587 212.829 273.735 211.409 273.934 209.994C273.988 209.599 274.048 209.204 274.108 208.815H402.045C402.296 210.619 402.47 212.432 402.565 214.255C402.625 215.393 402.655 216.525 402.655 217.662Z" fill="#F3F7FA"/>
<path d="M402.044 208.816C399.741 193.73 392.018 179.959 380.279 170.006C368.541 160.054 353.565 154.58 338.076 154.58C322.587 154.58 307.612 160.054 295.873 170.006C284.134 179.959 276.411 193.73 274.108 208.816C274.048 209.205 273.988 209.599 273.934 209.994C273.737 211.409 273.589 212.829 273.491 214.256H402.565C402.469 212.434 402.296 210.621 402.044 208.816Z" fill="#55ABE0"/>
<path d="M342.267 274.461H305.2V245.258C305.884 231.913 317.466 230.835 328.348 231.551C330.176 231.551 331.986 231.905 333.675 232.594C335.363 233.283 336.898 234.293 338.19 235.566C339.483 236.838 340.508 238.35 341.207 240.013C341.907 241.676 342.267 243.458 342.267 245.258V274.461Z" fill="#55ABE0"/>
<path d="M305.197 253.699V253.705C305.197 253.711 305.203 253.711 305.209 253.711L305.197 253.699ZM290.29 208.816C290.266 208.963 290.236 209.11 290.212 209.258C290.236 209.11 290.266 208.963 290.296 208.816H290.29ZM289.548 214.256C289.53 214.48 289.512 214.704 289.5 214.928C289.512 214.704 289.53 214.48 289.554 214.256C289.553 214.214 289.555 214.173 289.56 214.132C289.554 214.173 289.554 214.215 289.548 214.256ZM305.197 253.705C305.197 253.711 305.203 253.711 305.209 253.711L305.197 253.699V253.705ZM290.29 208.816C290.266 208.963 290.236 209.11 290.212 209.258C290.236 209.11 290.266 208.963 290.296 208.816H290.29ZM289.5 214.928C289.512 214.704 289.53 214.48 289.554 214.256C289.553 214.214 289.555 214.173 289.56 214.132C289.554 214.173 289.554 214.215 289.548 214.256C289.53 214.48 289.512 214.704 289.5 214.928ZM474.385 323.355C474.269 323.233 474.145 323.119 474.014 323.013L474.009 323.007L444.373 298.376L443.607 297.739L440.693 295.316L439.963 294.709L435.809 291.256L434.672 290.312L432.32 288.356L431.118 287.354L419.771 277.929L413.266 272.524L412.392 271.799L393.224 255.868C393.517 255.455 393.804 255.043 394.085 254.624C394.313 254.276 394.54 253.935 394.768 253.587C394.791 253.546 394.821 253.504 394.845 253.463C394.977 253.263 395.103 253.056 395.228 252.856C395.3 252.75 395.366 252.644 395.426 252.538C395.522 252.39 395.617 252.237 395.707 252.084C395.797 251.936 395.887 251.783 395.976 251.63C396.395 250.94 396.79 250.245 397.173 249.544L397.209 249.479L397.514 248.907C397.706 248.559 397.892 248.206 398.071 247.852C398.079 247.844 398.083 247.833 398.083 247.822C398.269 247.463 398.454 247.097 398.628 246.732C398.634 246.726 398.634 246.714 398.64 246.708C398.861 246.255 399.076 245.801 399.286 245.335C399.34 245.229 399.388 245.123 399.436 245.017C399.633 244.569 399.831 244.115 400.022 243.661C400.219 243.196 400.411 242.724 400.597 242.253C400.782 241.781 400.968 241.304 401.141 240.832C401.47 239.93 401.78 239.027 402.069 238.121C402.082 238.069 402.098 238.018 402.117 237.968C402.266 237.484 402.41 237.007 402.554 236.524C402.643 236.211 402.727 235.905 402.811 235.592C402.871 235.368 402.93 235.144 402.984 234.92C403.014 234.832 403.032 234.749 403.056 234.661C403.134 234.36 403.206 234.066 403.278 233.765C403.29 233.718 403.302 233.665 403.314 233.618C403.457 233.011 403.595 232.398 403.72 231.791C403.786 231.484 403.846 231.178 403.906 230.871C404.02 230.258 404.133 229.645 404.229 229.032C404.277 228.743 404.319 228.455 404.361 228.166C404.403 227.907 404.439 227.647 404.474 227.394C404.522 227.064 404.564 226.739 404.6 226.409C404.756 225.107 404.869 223.81 404.941 222.508C404.965 222.119 404.983 221.73 405.001 221.335C405.019 220.881 405.031 220.433 405.037 219.979C405.043 219.602 405.049 219.219 405.049 218.841C405.049 217.704 405.019 216.572 404.959 215.435C404.863 213.613 404.69 211.8 404.439 209.994C402.294 194.561 394.582 180.402 382.712 170.107C370.842 159.812 355.607 154.068 339.791 153.925C323.975 153.782 308.635 159.25 296.574 169.328C284.514 179.407 276.539 193.423 274.108 208.816C274.048 209.205 273.988 209.6 273.934 209.994C273.737 211.409 273.589 212.829 273.492 214.256C273.462 214.651 273.438 215.04 273.42 215.435C272.889 225.429 274.717 235.408 278.759 244.59C282.801 253.772 288.948 261.907 296.717 268.357C298.166 269.56 299.65 270.691 301.17 271.752C301.176 271.758 301.182 271.758 301.188 271.764C301.697 272.118 302.205 272.465 302.72 272.807C303.54 273.338 304.366 273.856 305.197 274.351C305.263 274.387 305.329 274.428 305.395 274.464C306.113 274.888 306.837 275.295 307.561 275.689H307.567C310.263 277.149 313.061 278.418 315.94 279.485C324.387 282.615 333.395 284.007 342.409 283.576H342.427C352.948 283.074 363.192 280.089 372.296 274.87C373.618 274.116 374.923 273.308 376.198 272.448C376.515 272.236 376.838 272.017 377.149 271.799C377.532 271.534 377.915 271.257 378.298 270.98C378.304 270.98 378.304 270.974 378.31 270.974C378.339 270.951 378.369 270.929 378.4 270.909C378.657 270.715 378.921 270.52 379.172 270.332C379.238 270.285 379.304 270.237 379.369 270.184C379.387 270.172 379.403 270.159 379.417 270.143C379.567 270.037 379.711 269.919 379.86 269.807C380.01 269.695 380.153 269.577 380.303 269.459C380.328 269.444 380.352 269.426 380.375 269.406C380.542 269.271 380.71 269.141 380.877 269.006C381.051 268.87 381.219 268.729 381.38 268.593C381.548 268.457 381.709 268.322 381.877 268.18C382.021 268.062 382.17 267.939 382.314 267.809C382.362 267.774 382.404 267.732 382.452 267.691C382.47 267.674 382.49 267.658 382.511 267.644C382.709 267.479 382.9 267.308 383.092 267.137C383.14 267.096 383.182 267.055 383.23 267.013C383.523 266.754 383.816 266.495 384.103 266.224C384.169 266.165 384.241 266.1 384.307 266.041C384.373 265.982 384.432 265.923 384.498 265.864C384.582 265.782 384.672 265.705 384.755 265.622C384.971 265.422 385.18 265.216 385.396 265.009L386.102 265.599L386.359 265.811H386.365L386.443 265.882L386.724 266.112L390.902 269.589L390.991 269.666L391.063 269.719L391.536 270.114L392.482 270.903L393.427 271.687L393.565 271.799L397.963 275.454L398.574 275.961L402.817 279.485L424.78 297.739L425.546 298.376L455.606 323.355L463.314 329.761L466.181 332.143C466.789 332.65 467.493 333.034 468.252 333.273C469.012 333.512 469.811 333.601 470.606 333.535C471.4 333.469 472.173 333.25 472.881 332.89C473.589 332.529 474.219 332.035 474.733 331.435C475.163 330.937 475.505 330.372 475.744 329.761C476.179 328.68 476.281 327.496 476.04 326.357C475.799 325.219 475.223 324.175 474.385 323.355ZM301.032 186.725C307.036 179.718 314.93 174.526 323.803 171.75C332.675 168.975 342.164 168.727 351.173 171.038C360.182 173.348 368.344 178.121 374.715 184.806C381.086 191.491 385.408 199.815 387.179 208.816C387.257 209.211 387.329 209.6 387.395 209.994C387.64 211.403 387.82 212.829 387.927 214.256C387.957 214.651 387.987 215.04 388.005 215.435C388.059 216.319 388.083 217.209 388.083 218.093C388.086 223.456 387.184 228.782 385.414 233.854V233.859C383.435 239.546 380.397 244.819 376.455 249.408C376.371 249.502 376.287 249.602 376.198 249.697C375.408 250.616 374.576 251.5 373.72 252.343C373.714 252.349 373.708 252.361 373.702 252.367C373.409 252.656 373.11 252.95 372.81 253.221C372.2 253.805 371.578 254.359 370.943 254.889C369.992 255.709 369.016 256.477 368.017 257.194C367.682 257.436 367.347 257.671 367.005 257.907C366.67 258.143 366.329 258.367 365.988 258.591C365.306 259.039 364.612 259.469 363.911 259.876C363.564 260.082 363.205 260.282 362.852 260.477C362.499 260.677 362.14 260.866 361.781 261.049C361.422 261.237 361.063 261.42 360.698 261.597C359.974 261.956 359.244 262.292 358.501 262.605C358.13 262.77 357.759 262.923 357.388 263.064C357.155 263.159 356.927 263.253 356.694 263.336C356.603 263.377 356.509 263.413 356.413 263.442C356.287 263.495 356.162 263.542 356.036 263.583C355.995 263.601 355.953 263.617 355.91 263.63C355.653 263.73 355.401 263.819 355.138 263.907C354.761 264.043 354.384 264.167 354.001 264.285C353.618 264.408 353.241 264.526 352.858 264.632C352.475 264.75 352.086 264.856 351.703 264.956C351.314 265.063 350.931 265.163 350.542 265.251C350.129 265.357 349.716 265.452 349.297 265.54C348.932 265.623 348.573 265.693 348.208 265.758C347.867 265.829 347.52 265.888 347.179 265.947C346.7 266.029 346.221 266.106 345.737 266.171C345.473 266.212 345.216 266.247 344.953 266.271C344.839 266.288 344.731 266.3 344.623 266.312C344.288 266.359 343.953 266.395 343.624 266.424C343.534 266.43 343.45 266.442 343.367 266.448C343.002 266.483 342.631 266.513 342.265 266.542C341.482 266.595 340.704 266.63 339.92 266.648C339.525 266.654 339.124 266.66 338.729 266.66C338.334 266.66 337.939 266.654 337.544 266.642C337.544 266.642 337.544 266.648 337.538 266.642C337.532 266.648 337.532 266.648 337.526 266.642L337.523 266.644L337.52 266.645L337.516 266.644L337.514 266.642C337.494 266.648 337.473 266.648 337.454 266.642C337.173 266.642 336.891 266.63 336.616 266.613C336.413 266.607 336.203 266.601 335.994 266.583C335.713 266.571 335.431 266.554 335.15 266.53C335.06 266.53 334.97 266.518 334.881 266.513C334.839 266.512 334.797 266.508 334.755 266.501C334.468 266.477 334.174 266.454 333.887 266.424C333.744 266.412 333.594 266.401 333.45 266.383C333.013 266.336 332.577 266.283 332.146 266.224C331.655 266.165 331.164 266.094 330.679 266.006C330.452 265.976 330.231 265.935 330.009 265.894C329.716 265.846 329.423 265.793 329.13 265.735C328.824 265.676 328.519 265.617 328.214 265.546C327.968 265.493 327.717 265.44 327.472 265.381C327.352 265.357 327.232 265.328 327.119 265.298C326.49 265.151 325.868 264.992 325.251 264.815C324.863 264.709 324.473 264.597 324.09 264.479C323.564 264.32 323.043 264.149 322.523 263.966C322.319 263.901 322.122 263.831 321.918 263.754C321.715 263.689 321.517 263.613 321.314 263.536C321.128 263.471 320.943 263.4 320.763 263.33C320.464 263.218 320.171 263.1 319.877 262.982C319.273 262.74 318.68 262.487 318.088 262.216C317.753 262.057 317.418 261.903 317.089 261.744C315.79 261.125 314.511 260.438 313.252 259.681C312.941 259.499 312.63 259.304 312.319 259.11C311.93 258.874 311.553 258.626 311.176 258.379C310.966 258.237 310.763 258.102 310.559 257.96C310.182 257.701 309.811 257.436 309.446 257.17C309.255 257.035 309.063 256.893 308.878 256.752C308.214 256.257 307.561 255.738 306.921 255.208C306.616 254.954 306.311 254.695 306.011 254.43C305.886 254.324 305.76 254.212 305.634 254.1C305.491 253.97 305.347 253.846 305.209 253.711L305.197 253.699C304.988 253.516 304.778 253.322 304.575 253.127C304.258 252.832 303.947 252.532 303.647 252.225C303.336 251.925 303.037 251.612 302.744 251.306C302.445 250.999 302.157 250.687 301.876 250.369C301.589 250.056 301.307 249.738 301.032 249.414C300.763 249.107 300.5 248.789 300.248 248.477C299.638 247.734 299.055 246.978 298.501 246.208C298.243 245.854 297.998 245.5 297.759 245.141C297.501 244.775 297.256 244.404 297.023 244.033C296.777 243.661 296.544 243.284 296.316 242.901C296.311 242.888 296.302 242.876 296.292 242.866C295.844 242.117 295.413 241.363 295.012 240.596C294.599 239.818 294.21 239.033 293.845 238.239C293.659 237.844 293.48 237.443 293.312 237.042C292.965 236.235 292.642 235.427 292.343 234.608C292.193 234.213 292.055 233.818 291.918 233.417C291.913 233.391 291.905 233.365 291.894 233.341C291.618 232.527 291.367 231.708 291.146 230.883C291.14 230.871 291.14 230.86 291.134 230.848C291.02 230.441 290.912 230.034 290.817 229.622C290.721 229.262 290.637 228.903 290.559 228.537C290.47 228.13 290.38 227.724 290.302 227.311C290.26 227.099 290.218 226.887 290.182 226.675C290.146 226.498 290.116 226.315 290.086 226.138C290.057 225.962 290.027 225.779 289.997 225.596C289.937 225.237 289.883 224.877 289.835 224.518C289.775 224.093 289.727 223.669 289.68 223.238C289.626 222.726 289.578 222.213 289.536 221.694C289.506 221.346 289.488 220.993 289.47 220.639C289.452 220.315 289.434 219.991 289.428 219.667C289.422 219.649 289.422 219.631 289.428 219.614L289.426 219.611L289.426 219.608L289.426 219.605L289.428 219.602C289.422 219.596 289.422 219.596 289.428 219.59L289.426 219.587L289.426 219.584L289.426 219.581L289.428 219.578C289.422 219.449 289.416 219.319 289.416 219.189C289.404 218.806 289.398 218.423 289.398 218.04C289.398 217.692 289.404 217.35 289.41 217.003C289.422 216.519 289.44 216.036 289.464 215.553C289.464 215.447 289.476 215.346 289.482 215.24C289.488 215.134 289.494 215.034 289.5 214.928C289.512 214.704 289.53 214.48 289.554 214.256C289.553 214.214 289.555 214.173 289.56 214.132C289.578 213.879 289.602 213.625 289.626 213.372C289.674 212.865 289.733 212.352 289.799 211.845C289.835 211.592 289.865 211.338 289.907 211.085C289.931 210.908 289.961 210.725 289.991 210.543C290.015 210.36 290.045 210.177 290.081 209.995C290.122 209.753 290.164 209.505 290.212 209.258C290.236 209.11 290.266 208.963 290.296 208.816C290.41 208.226 290.535 207.637 290.673 207.048C290.811 206.452 290.966 205.863 291.134 205.273C291.295 204.678 291.475 204.083 291.666 203.488C291.756 203.187 291.852 202.892 291.96 202.598C292.157 202.002 292.367 201.413 292.6 200.829C292.708 200.541 292.821 200.246 292.947 199.957C293.186 199.374 293.438 198.79 293.695 198.218C293.827 197.929 293.959 197.641 294.102 197.352C294.371 196.78 294.653 196.208 294.958 195.648C295.251 195.077 295.568 194.517 295.891 193.963C296.215 193.409 296.55 192.855 296.903 192.307C297.064 192.035 297.244 191.758 297.429 191.493C297.789 190.951 298.166 190.409 298.549 189.878C299.321 188.805 300.153 187.75 301.032 186.725ZM289.548 214.256C289.53 214.48 289.512 214.704 289.5 214.928C289.512 214.704 289.53 214.48 289.554 214.256C289.553 214.214 289.555 214.173 289.56 214.132C289.554 214.173 289.554 214.215 289.548 214.256ZM290.29 208.816C290.266 208.963 290.236 209.11 290.212 209.258C290.236 209.11 290.266 208.963 290.296 208.816H290.29ZM305.197 253.699V253.705C305.197 253.711 305.203 253.711 305.209 253.711L305.197 253.699Z" fill="#1C1C1C"/>
<path opacity="0.3" d="M306.922 255.207C297.456 247.34 291.34 236.254 289.789 224.152C288.238 212.049 291.365 199.814 298.549 189.877C297.605 190.813 296.693 191.793 295.812 192.817C291.634 197.695 288.471 203.335 286.506 209.416C284.54 215.497 283.81 221.9 284.357 228.259C284.904 234.618 286.718 240.809 289.694 246.478C292.67 252.146 296.751 257.182 301.703 261.298C311.705 269.61 324.649 273.668 337.689 272.58C350.729 271.492 362.796 265.347 371.235 255.496C372.114 254.471 372.941 253.42 373.717 252.345C364.98 260.992 353.261 266.085 340.886 266.616C328.512 267.146 316.388 263.073 306.922 255.207Z" fill="#1C1C1C"/>
</svg>
