<svg width="846" height="307" viewBox="0 0 846 307" fill="none" xmlns="http://www.w3.org/2000/svg">
<g id="undraw empty street" clip-path="url(#clip0_312_669)">
<g id="Group">
<path id="Vector" d="M509.54 308.381H318.541V65.3692C318.541 33.7432 344.319 8.01343 376.005 8.01343H452.076C483.761 8.01343 509.54 33.7432 509.54 65.3692V308.381Z" fill="#55ABE0"/>
<path id="Vector_2" d="M444.27 62.6927H384.642C379.855 62.6927 375.96 58.8055 375.96 54.0271V38.1074C375.96 33.329 379.855 29.4418 384.642 29.4418H444.27C449.057 29.4418 452.952 33.329 452.952 38.1074V54.0271C452.952 58.8055 449.057 62.6927 444.27 62.6927V62.6927Z" fill="#F3F7FA"/>
<path id="Vector_3" d="M415.891 131.781V12.8163H415.151V131.781H415.891Z" fill="#55ABE0"/>
<path id="Vector_4" d="M487.152 263.307H471.962C467.577 263.307 464.011 259.747 464.011 255.371V209.175C464.011 204.799 467.577 201.239 471.962 201.239H487.152C491.537 201.239 495.104 204.799 495.104 209.175V255.371C495.104 259.747 491.537 263.307 487.152 263.307V263.307Z" fill="#F3F7FA"/>
<path id="Vector_5" d="M387.952 295.819H346.11C341.726 295.819 338.159 292.259 338.159 287.883V206.219C338.159 201.843 341.726 198.283 346.11 198.283H387.952C392.336 198.283 395.903 201.843 395.903 206.219V287.883C395.903 292.259 392.336 295.819 387.952 295.819V295.819Z" fill="#F3F7FA"/>
<path id="Vector_6" d="M396.927 204.564H337.175C334.926 204.564 333.025 203.184 332.331 201.049C331.638 198.914 332.366 196.683 334.187 195.365L364.383 173.524C366.19 172.219 368.608 172.231 370.401 173.556L399.956 195.397C401.754 196.726 402.463 198.954 401.762 201.074C401.061 203.194 399.164 204.564 396.927 204.564V204.564Z" fill="#2F5D7A"/>
<path id="Vector_7" d="M493.376 205.302H465.778C463.53 205.302 461.628 203.923 460.935 201.788C460.241 199.652 460.97 197.422 462.79 196.104L476.738 186.016C478.544 184.71 480.962 184.723 482.755 186.048L496.406 196.136C498.204 197.464 498.913 199.692 498.212 201.812C497.511 203.932 495.613 205.302 493.376 205.302V205.302Z" fill="#2F5D7A"/>
<g id="Group_2">
<path id="Vector_8" d="M481.066 162.076H463.983C460.12 162.076 456.978 158.94 456.978 155.084V107C456.978 103.145 460.12 100.008 463.983 100.008H481.066C484.929 100.008 488.071 103.145 488.071 107V155.084C488.071 158.94 484.929 162.076 481.066 162.076Z" fill="#F3F7FA"/>
<path id="Vector_9" d="M422.581 162.076H405.499C401.636 162.076 398.494 158.94 398.494 155.084V107C398.494 103.145 401.636 100.008 405.499 100.008H422.581C426.444 100.008 429.586 103.145 429.586 107V155.084C429.586 158.94 426.444 162.076 422.581 162.076Z" fill="#F3F7FA"/>
<path id="Vector_10" d="M363.357 162.076H346.275C342.412 162.076 339.27 158.94 339.27 155.084V107C339.27 103.145 342.412 100.008 346.275 100.008H363.357C367.22 100.008 370.362 103.145 370.362 107V155.084C370.362 158.94 367.22 162.076 363.357 162.076Z" fill="#F3F7FA"/>
<path id="Vector_11" d="M486.221 105.55H341.859C339.273 105.55 337.69 103.722 337.268 101.911C336.846 100.099 337.459 97.7622 339.78 96.6235L412.735 60.8405C414.05 60.1961 415.617 60.2019 416.928 60.8585L488.336 96.6416C490.359 97.6561 491.329 99.7322 490.807 101.931C490.285 104.129 488.485 105.55 486.221 105.55V105.55Z" fill="#2F5D7A"/>
</g>
<path id="Vector_12" d="M509.169 308.011H325.971V289.454C325.971 274.833 347.656 262.938 374.311 262.938H509.169V308.011V308.011Z" fill="#2F5D7A"/>
<path id="Vector_13" d="M438.1 236.706H428.476V272.174H438.1V236.706Z" fill="#2F5D7A"/>
<path id="Vector_14" d="M509.169 236.706H499.545V272.174H509.169V236.706Z" fill="#2F5D7A"/>
<path id="Vector_15" d="M502.507 239.662H436.62V240.401H502.507V239.662Z" fill="#2F5D7A"/>
<path id="Vector_16" d="M495.104 131.042H335.198V131.781H495.104V131.042Z" fill="#55ABE0"/>
<path id="Vector_17" d="M502.507 251.484H436.62V252.223H502.507V251.484Z" fill="#2F5D7A"/>
<path id="Vector_18" d="M502.507 257.396H436.62V258.135H502.507V257.396Z" fill="#2F5D7A"/>
<path id="Vector_19" d="M451.428 32.5952H376.653C375.489 32.5952 374.505 31.8815 374.146 30.776C373.787 29.6713 374.164 28.5167 375.107 27.8348L412.895 0.502348C413.83 -0.172339 415.082 -0.168011 416.009 0.518943L452.996 27.8514C453.926 28.5384 454.293 29.6915 453.931 30.789C453.568 31.8858 452.585 32.5952 451.428 32.5952V32.5952Z" fill="#2F5D7A"/>
<path id="Vector_20" d="M354.446 247.79H341.12V249.268H354.446V247.79Z" fill="#55ABE0"/>
</g>
<g id="Group_3">
<path id="Vector_21" d="M292.754 308.381H101.755V65.3692C101.755 33.7432 127.534 8.01343 159.219 8.01343H235.29C266.976 8.01343 292.754 33.7432 292.754 65.3692V308.381Z" fill="#55ABE0"/>
<path id="Vector_22" d="M227.484 62.6927H167.856C163.069 62.6927 159.174 58.8055 159.174 54.0271V38.1074C159.174 33.329 163.069 29.4418 167.856 29.4418H227.484C232.271 29.4418 236.166 33.329 236.166 38.1074V54.0271C236.166 58.8055 232.271 62.6927 227.484 62.6927V62.6927Z" fill="#F3F7FA"/>
<path id="Vector_23" d="M199.105 131.781V12.8163H198.365V131.781H199.105Z" fill="#55ABE0"/>
<path id="Vector_24" d="M270.367 263.307H255.176C250.792 263.307 247.225 259.747 247.225 255.371V209.175C247.225 204.799 250.792 201.239 255.176 201.239H270.367C274.751 201.239 278.318 204.799 278.318 209.175V255.371C278.318 259.747 274.751 263.307 270.367 263.307V263.307Z" fill="#F3F7FA"/>
<path id="Vector_25" d="M171.166 295.819H129.325C124.94 295.819 121.374 292.259 121.374 287.883V206.219C121.374 201.843 124.94 198.283 129.325 198.283H171.166C175.551 198.283 179.117 201.843 179.117 206.219V287.883C179.117 292.259 175.551 295.819 171.166 295.819V295.819Z" fill="#F3F7FA"/>
<path id="Vector_26" d="M180.141 204.564H120.389C118.141 204.564 116.239 203.184 115.546 201.049C114.852 198.914 115.581 196.683 117.402 195.365L147.597 173.524C149.404 172.219 151.823 172.231 153.615 173.556L183.171 195.397C184.969 196.726 185.677 198.954 184.977 201.074C184.276 203.194 182.378 204.564 180.141 204.564V204.564Z" fill="#2F5D7A"/>
<path id="Vector_27" d="M276.591 205.302H248.993C246.744 205.302 244.843 203.923 244.149 201.788C243.455 199.652 244.184 197.422 246.005 196.104L259.952 186.016C261.759 184.71 264.177 184.723 265.969 186.048L279.621 196.136C281.418 197.464 282.127 199.692 281.427 201.812C280.726 203.932 278.827 205.302 276.591 205.302V205.302Z" fill="#2F5D7A"/>
<g id="Group_4">
<path id="Vector_28" d="M264.28 162.076H247.197C243.335 162.076 240.192 158.94 240.192 155.084V107C240.192 103.145 243.335 100.008 247.197 100.008H264.28C268.143 100.008 271.285 103.145 271.285 107V155.084C271.285 158.94 268.143 162.076 264.28 162.076V162.076Z" fill="#F3F7FA"/>
<path id="Vector_29" d="M205.796 162.076H188.713C184.85 162.076 181.708 158.94 181.708 155.084V107C181.708 103.145 184.85 100.008 188.713 100.008H205.796C209.658 100.008 212.801 103.145 212.801 107V155.084C212.801 158.94 209.658 162.076 205.796 162.076Z" fill="#F3F7FA"/>
<path id="Vector_30" d="M146.572 162.076H129.489C125.626 162.076 122.484 158.94 122.484 155.084V107C122.484 103.145 125.626 100.008 129.489 100.008H146.572C150.434 100.008 153.577 103.145 153.577 107V155.084C153.577 158.94 150.434 162.076 146.572 162.076Z" fill="#F3F7FA"/>
<path id="Vector_31" d="M269.436 105.55H125.073C122.487 105.55 120.904 103.722 120.483 101.911C120.061 100.099 120.674 97.7622 122.995 96.6235L195.95 60.8405C197.264 60.1961 198.832 60.2019 200.143 60.8585L271.55 96.6416C273.574 97.6561 274.544 99.7322 274.022 101.931C273.499 104.129 271.7 105.55 269.436 105.55V105.55Z" fill="#2F5D7A"/>
</g>
<path id="Vector_32" d="M292.384 308.011H192.073V289.454C192.073 274.833 203.946 262.938 218.541 262.938H292.384V308.011V308.011Z" fill="#2F5D7A"/>
<path id="Vector_33" d="M221.314 236.706H211.69V272.174H221.314V236.706Z" fill="#2F5D7A"/>
<path id="Vector_34" d="M292.384 236.706H282.76V272.174H292.384V236.706Z" fill="#2F5D7A"/>
<path id="Vector_35" d="M285.721 239.662H219.834V240.401H285.721V239.662Z" fill="#2F5D7A"/>
<path id="Vector_36" d="M278.318 131.042H118.412V131.781H278.318V131.042Z" fill="#55ABE0"/>
<path id="Vector_37" d="M285.721 251.484H219.834V252.223H285.721V251.484Z" fill="#2F5D7A"/>
<path id="Vector_38" d="M285.721 257.396H219.834V258.135H285.721V257.396Z" fill="#2F5D7A"/>
<path id="Vector_39" d="M234.642 32.5952H159.867C158.703 32.5952 157.719 31.8815 157.36 30.776C157.002 29.6713 157.379 28.5167 158.321 27.8348L196.109 0.502348C197.044 -0.172339 198.296 -0.168011 199.223 0.518943L236.21 27.8514C237.141 28.5384 237.507 29.6915 237.145 30.789C236.782 31.8858 235.8 32.5952 234.642 32.5952V32.5952Z" fill="#2F5D7A"/>
<path id="Vector_40" d="M137.66 247.79H124.334V249.268H137.66V247.79Z" fill="#55ABE0"/>
</g>
<g id="Group_5">
<path id="Vector_41" d="M719.332 308.381H528.333V65.3692C528.333 33.7432 554.112 8.01343 585.797 8.01343H661.868C693.553 8.01343 719.332 33.7432 719.332 65.3692V308.381Z" fill="#55ABE0"/>
<path id="Vector_42" d="M654.062 62.6927H594.434C589.647 62.6927 585.752 58.8055 585.752 54.0271V38.1074C585.752 33.329 589.647 29.4418 594.434 29.4418H654.062C658.849 29.4418 662.744 33.329 662.744 38.1074V54.0271C662.744 58.8055 658.849 62.6927 654.062 62.6927Z" fill="#F3F7FA"/>
<path id="Vector_43" d="M625.683 131.781V12.8163H624.943V131.781H625.683Z" fill="#55ABE0"/>
<path id="Vector_44" d="M696.945 263.307H681.754C677.37 263.307 673.803 259.747 673.803 255.371V209.175C673.803 204.799 677.37 201.239 681.754 201.239H696.945C701.329 201.239 704.896 204.799 704.896 209.175V255.371C704.896 259.747 701.329 263.307 696.945 263.307V263.307Z" fill="#F3F7FA"/>
<path id="Vector_45" d="M597.744 295.819H555.902C551.518 295.819 547.951 292.259 547.951 287.883V206.219C547.951 201.843 551.518 198.283 555.902 198.283H597.744C602.128 198.283 605.695 201.843 605.695 206.219V287.883C605.695 292.259 602.128 295.819 597.744 295.819Z" fill="#F3F7FA"/>
<path id="Vector_46" d="M606.719 204.564H546.967C544.719 204.564 542.817 203.184 542.124 201.049C541.43 198.914 542.159 196.683 543.979 195.365L574.175 173.524C575.982 172.219 578.401 172.231 580.193 173.556L609.749 195.397C611.547 196.726 612.255 198.954 611.555 201.074C610.854 203.194 608.956 204.564 606.719 204.564V204.564Z" fill="#2F5D7A"/>
<path id="Vector_47" d="M703.168 205.302H675.57C673.322 205.302 671.42 203.923 670.727 201.788C670.033 199.652 670.762 197.422 672.582 196.104L686.529 186.016C688.336 184.71 690.754 184.723 692.547 186.048L706.198 196.136C707.996 197.464 708.705 199.692 708.004 201.812C707.303 203.932 705.405 205.302 703.168 205.302V205.302Z" fill="#2F5D7A"/>
<g id="Group_6">
<path id="Vector_48" d="M690.858 162.076H673.775C669.912 162.076 666.77 158.94 666.77 155.084V107C666.77 103.145 669.912 100.008 673.775 100.008H690.858C694.721 100.008 697.863 103.145 697.863 107V155.084C697.863 158.94 694.721 162.076 690.858 162.076Z" fill="#F3F7FA"/>
<path id="Vector_49" d="M632.374 162.076H615.291C611.428 162.076 608.286 158.94 608.286 155.084V107C608.286 103.145 611.428 100.008 615.291 100.008H632.374C636.237 100.008 639.379 103.145 639.379 107V155.084C639.379 158.94 636.237 162.076 632.374 162.076Z" fill="#F3F7FA"/>
<path id="Vector_50" d="M573.15 162.076H556.067C552.204 162.076 549.062 158.94 549.062 155.084V107C549.062 103.145 552.204 100.008 556.067 100.008H573.15C577.012 100.008 580.155 103.145 580.155 107V155.084C580.155 158.94 577.012 162.076 573.15 162.076Z" fill="#F3F7FA"/>
<path id="Vector_51" d="M696.014 105.55H551.651C549.065 105.55 547.482 103.722 547.061 101.911C546.639 100.099 547.252 97.7622 549.572 96.6235L622.527 60.8405C623.842 60.1961 625.41 60.2019 626.721 60.8585L698.128 96.6416C700.151 97.6561 701.122 99.7322 700.6 101.931C700.077 104.129 698.277 105.55 696.014 105.55V105.55Z" fill="#2F5D7A"/>
</g>
<path id="Vector_52" d="M718.962 308.011H618.65V289.454C618.65 274.833 630.524 262.938 645.119 262.938H718.962V308.011V308.011Z" fill="#2F5D7A"/>
<path id="Vector_53" d="M647.892 236.706H638.269V272.174H647.892V236.706Z" fill="#2F5D7A"/>
<path id="Vector_54" d="M718.962 236.706H709.338V272.174H718.962V236.706Z" fill="#2F5D7A"/>
<path id="Vector_55" d="M712.299 239.662H646.412V240.401H712.299V239.662Z" fill="#2F5D7A"/>
<path id="Vector_56" d="M704.896 131.042H544.99V131.781H704.896V131.042Z" fill="#55ABE0"/>
<path id="Vector_57" d="M712.299 251.484H646.412V252.223H712.299V251.484Z" fill="#2F5D7A"/>
<path id="Vector_58" d="M712.299 257.396H646.412V258.135H712.299V257.396Z" fill="#2F5D7A"/>
<path id="Vector_59" d="M661.22 32.5952H586.445C585.281 32.5952 584.297 31.8815 583.938 30.776C583.579 29.6713 583.956 28.5167 584.899 27.8348L622.687 0.502348C623.622 -0.172339 624.874 -0.168011 625.801 0.518943L662.788 27.8514C663.718 28.5384 664.085 29.6915 663.723 30.789C663.36 31.8858 662.377 32.5952 661.22 32.5952V32.5952Z" fill="#2F5D7A"/>
<path id="Vector_60" d="M564.238 247.79H550.913V249.268H564.238V247.79Z" fill="#55ABE0"/>
</g>
<g id="Group_7">
<path id="Vector_61" d="M133.722 305.789C133.783 306.304 133.801 306.784 133.766 307.255H107.813C107.577 306.784 107.376 306.295 107.201 305.789C104.028 296.689 109.246 281.543 102.629 259.085C97.7166 242.42 88.5469 229.385 84.2724 223.313C79.0189 215.844 73.066 208.952 66.1691 197.941C64.6743 195.559 63.1358 192.976 61.5449 190.158C61.0117 189.216 54.8665 178.284 55.426 177.943C55.6882 177.786 57.3141 179.994 57.8648 180.735C62.725 187.297 65.5485 190.167 69.5957 194.887C72.052 197.749 74.9542 201.283 79.0276 206.736C89.4735 220.704 94.6921 227.684 96.5103 232.91C96.9911 234.306 99.5523 241.862 104.378 251.233C106.843 256.014 108.075 258.404 108.748 258.212C110.654 257.663 108.084 237.866 100.007 218.078C98.6257 214.71 97.5942 212.555 95.6362 208.481C92.4543 201.832 74.7356 164.882 61.711 142.765C60.0764 139.981 58.5117 137.442 57.0693 135.218C56.7896 134.799 56.5186 134.389 56.2564 133.996C54.4382 131.291 52.8298 129.154 51.4923 127.775C50.7843 127.042 48.9836 124.966 45.3734 120.795C43.9398 119.138 42.8908 117.907 42.1828 117.009C42.0779 116.878 41.9818 116.747 41.9031 116.634C41.0464 115.517 40.8017 114.976 41.0027 114.688C41.2912 114.278 42.4013 114.513 43.6164 114.941C43.7475 114.985 43.8874 115.037 44.0185 115.089C45.3385 115.578 46.6759 116.215 47.1217 116.433C51.2126 118.396 55.2074 121.912 58.905 126.091C60.2774 127.636 61.5973 129.267 62.8736 130.942C66.982 136.352 70.566 142.241 73.2758 147.084C76.5975 153.051 78.5905 157.44 78.5905 157.44C87.8651 177.882 98.1537 201.265 98.6956 201.064C99.2901 200.846 87.8826 171.74 84.5609 155.931C83.4507 150.635 83.2497 146.83 84.7095 146.098C84.7619 146.071 84.8144 146.045 84.8756 146.028C85.1029 145.949 85.3126 145.958 85.4263 145.967C85.4263 145.967 86.7812 145.792 88.206 146.098C89.9805 146.481 91.9998 151.411 93.9666 158.33C99.0803 176.164 103.94 207.172 103.94 207.172C108.801 238.189 116.178 263.29 117.927 263.011C118.897 262.854 117.507 255.063 118.801 242.071C119.71 232.963 120.741 233.242 124.046 216.769C129.29 190.638 131.913 177.577 131.913 177.507C131.887 176.958 131.817 175.849 131.983 174.698C132.158 173.45 132.603 172.141 133.661 171.4C135.269 170.266 137.857 170.754 138.906 171.4C139.745 171.923 140.173 172.883 140.27 174.262C140.846 182.934 128.364 208.079 124.046 242.071C121.895 259.006 120.715 268.246 124.046 280.461C127.341 292.571 133.084 300.284 133.722 305.789V305.789Z" fill="#2F5D7A"/>
<path id="Vector_62" d="M170.197 87.2163C163.026 85.914 154.119 90.7051 153.589 95.9412C153.152 100.251 158.46 104.187 157.959 104.666C157.492 105.114 154.203 100.385 150.092 100.304C143.88 100.18 136.425 110.681 138.728 116.881C140.578 121.858 148.501 123.485 148.344 123.861C148.196 124.215 142.159 120.352 136.106 121.243C127.439 122.519 119.14 133.48 121.246 140.438C123.598 148.214 138.83 150.621 138.728 150.908C138.621 151.211 123.399 143.432 117.749 148.291C113.96 151.549 114.503 159.145 116.875 163.995C121.825 174.119 137.269 177.707 144.847 172.72C150.74 168.843 146.766 163.145 152.715 150.908C160.019 135.881 172.723 130.667 172.82 119.498C172.828 118.483 172.857 115.212 171.071 114.263C168.22 112.748 162.718 118.202 162.33 117.753C161.911 117.268 169.276 111.957 173.694 102.921C175.083 100.079 178.244 93.613 175.442 89.8337C174.015 87.9096 171.632 87.4768 170.197 87.2163Z" fill="#AEDBD8"/>
<path id="Vector_63" d="M128.854 70.6272C121.682 69.3249 112.775 74.1161 112.245 79.3521C111.808 83.6623 117.116 87.5975 116.616 88.077C116.148 88.5251 112.859 83.796 108.748 83.7146C102.537 83.5914 95.081 94.0921 97.3846 100.292C99.2338 105.269 107.157 106.896 107 107.272C106.852 107.626 100.815 103.763 94.7622 104.654C86.0954 105.93 77.7963 116.89 79.9019 123.849C82.2547 131.624 97.4858 134.032 97.3846 134.319C97.2777 134.622 82.055 126.843 76.4054 131.701C72.6161 134.96 73.1595 142.556 75.5313 147.406C80.4816 157.53 95.9248 161.118 103.504 156.131C109.396 152.254 105.423 146.556 111.371 134.319C118.676 119.292 131.38 114.078 131.476 102.909C131.485 101.894 131.513 98.6234 129.728 97.6744C126.877 96.1588 121.374 101.613 120.986 101.164C120.567 100.679 127.932 95.3679 132.35 86.332C133.74 83.4899 136.901 77.0239 134.098 73.2447C132.672 71.3206 130.288 70.8878 128.854 70.6272Z" fill="#AEDBD8"/>
<path id="Vector_64" d="M80.1624 51.2544C86.9596 53.8812 92.0493 62.6094 89.7625 67.3514C87.8802 71.255 81.2949 71.8449 81.4706 72.5145C81.6349 73.1403 86.9137 70.8212 90.4624 72.8943C95.8245 76.0267 96.6895 88.8679 91.4815 92.9547C87.3009 96.2353 79.692 93.4942 79.6294 93.8961C79.5705 94.2752 86.7395 94.1274 91.4358 98.042C98.16 103.647 99.5038 117.32 94.0676 122.157C87.9934 127.562 73.7441 121.677 73.6803 121.975C73.6129 122.289 90.665 123.588 92.9417 130.676C94.4688 135.43 90.0316 141.625 85.4713 144.526C75.953 150.58 60.9054 145.591 57.0508 137.388C54.0536 131.01 60.4235 128.222 61.7523 114.685C63.384 98.0623 55.2767 86.995 61.0376 77.4193C61.5615 76.5486 63.2482 73.7448 65.2672 73.8659C68.4917 74.0592 70.3311 81.5786 70.8965 81.3981C71.5081 81.2029 68.0049 72.8344 68.9645 62.8259C69.2663 59.6778 69.9529 52.5158 74.3201 50.7532C76.5435 49.8559 78.8024 50.7288 80.1624 51.2544L80.1624 51.2544Z" fill="#AEDBD8"/>
<path id="Vector_65" d="M2.97035 56.0002C-1.31532 61.8849 -0.852792 71.9733 3.64405 74.7212C7.3457 76.9833 13.2001 73.9164 13.4161 74.5742C13.6179 75.189 7.92235 76.0958 6.06593 79.7578C3.26082 85.2912 9.50716 96.5504 16.1031 97.1673C21.3978 97.6626 26.3036 91.2426 26.5744 91.5465C26.8298 91.8331 20.7249 95.5874 18.9041 101.418C16.2969 109.766 22.5926 121.983 29.7878 123.107C37.8275 124.363 46.6065 111.709 46.8216 111.924C47.0489 112.152 33.4246 122.469 35.3603 129.657C36.6585 134.478 43.7514 137.284 49.1589 137.254C60.4454 137.193 70.3818 124.86 69.1666 115.881C68.2217 108.899 61.3544 110.002 52.8871 99.3455C42.4889 86.2588 43.2921 72.5722 33.2508 67.6418C32.3377 67.1935 29.3977 65.7498 27.7667 66.9439C25.162 68.8507 27.6995 76.1649 27.1263 76.3191C26.5063 76.4859 24.9059 67.5581 18.6645 59.6664C16.7013 57.1842 12.235 51.5369 7.60788 52.4183C5.25209 52.867 3.82783 54.8227 2.97034 56.0002L2.97035 56.0002Z" fill="#AEDBD8"/>
<path id="Vector_66" d="M9.08949 120.564C4.80382 126.449 5.26635 136.537 9.76319 139.285C13.4648 141.547 19.3193 138.481 19.5352 139.138C19.737 139.753 14.0415 140.66 12.1851 144.322C9.37996 149.855 15.6263 161.115 22.2222 161.732C27.517 162.227 32.4227 155.807 32.6935 156.111C32.9489 156.397 26.8441 160.152 25.0232 165.982C22.416 174.33 28.7118 186.547 35.9069 187.671C43.9466 188.927 52.7256 176.273 52.9407 176.488C53.1681 176.716 39.5438 187.033 41.4794 194.221C42.7777 199.043 49.8706 201.848 55.2781 201.818C66.5646 201.757 76.501 189.424 75.2857 180.445C74.3408 173.463 67.4736 174.566 59.0062 163.91C48.6081 150.823 49.4112 137.136 39.3699 132.206C38.4568 131.758 35.5168 130.314 33.8858 131.508C31.2811 133.415 33.8186 140.729 33.2455 140.883C32.6255 141.05 31.025 132.122 24.7836 124.231C22.8205 121.748 18.3541 116.101 13.727 116.982C11.3712 117.431 9.94697 119.387 9.08948 120.564H9.08949Z" fill="#AEDBD8"/>
</g>
<g id="Group_8">
<path id="Vector_67" d="M338.27 306.042C338.331 306.557 338.349 307.037 338.314 307.508H312.361C312.125 307.037 311.924 306.548 311.749 306.042C308.576 296.942 313.794 281.796 307.177 259.338C302.264 242.673 293.095 229.638 288.82 223.566C283.567 216.097 277.614 209.205 270.717 198.194C269.222 195.812 267.684 193.229 266.093 190.411C265.56 189.469 259.414 178.537 259.974 178.196C260.236 178.039 261.862 180.247 262.413 180.988C267.273 187.549 270.096 190.42 274.144 195.14C276.6 198.002 279.502 201.535 283.575 206.989C294.021 220.957 299.24 227.937 301.058 233.163C301.539 234.559 304.1 242.115 308.925 251.485C311.39 256.267 312.623 258.657 313.296 258.465C315.202 257.916 312.632 238.119 304.555 218.331C303.174 214.963 302.142 212.808 300.184 208.734C297.002 202.085 279.283 165.135 266.259 143.018C264.624 140.234 263.06 137.695 261.617 135.471C261.337 135.052 261.066 134.642 260.804 134.249C258.986 131.544 257.378 129.407 256.04 128.028C255.332 127.295 253.531 125.219 249.921 121.048C248.488 119.391 247.439 118.16 246.731 117.262C246.626 117.131 246.53 117 246.451 116.887C245.594 115.77 245.35 115.229 245.551 114.941C245.839 114.531 246.949 114.766 248.164 115.194C248.295 115.238 248.435 115.29 248.566 115.342C249.886 115.831 251.224 116.468 251.67 116.686C255.76 118.649 259.755 122.165 263.453 126.344C264.825 127.889 266.145 129.52 267.421 131.195C271.53 136.605 275.114 142.494 277.824 147.336C281.145 153.304 283.138 157.693 283.138 157.693C292.413 178.135 302.702 201.518 303.244 201.317C303.838 201.099 292.43 171.993 289.109 156.183C287.999 150.887 287.798 147.083 289.257 146.351C289.31 146.324 289.362 146.298 289.423 146.281C289.651 146.202 289.86 146.211 289.974 146.22C289.974 146.22 291.329 146.045 292.754 146.351C294.528 146.734 296.548 151.664 298.514 158.583C303.628 176.416 308.488 207.425 308.488 207.425C313.349 238.442 320.726 263.543 322.474 263.264C323.445 263.107 322.055 255.316 323.349 242.324C324.258 233.216 325.289 233.495 328.593 217.022C333.838 190.891 336.461 177.83 336.461 177.76C336.434 177.21 336.364 176.102 336.531 174.951C336.705 173.703 337.151 172.394 338.209 171.653C339.817 170.518 342.405 171.007 343.454 171.653C344.293 172.176 344.721 173.136 344.817 174.514C345.394 183.187 332.912 208.332 328.593 242.324C326.443 259.259 325.263 268.499 328.593 280.714C331.889 292.824 337.632 300.537 338.27 306.042V306.042Z" fill="#2F5D7A"/>
<path id="Vector_68" d="M373.612 87.4575C366.441 86.1552 357.534 90.9463 357.003 96.1824C356.567 100.493 361.874 104.428 361.374 104.907C360.906 105.355 357.618 100.626 353.507 100.545C347.295 100.422 339.839 110.922 342.143 117.122C343.992 122.099 351.915 123.727 351.758 124.102C351.61 124.456 345.574 120.594 339.521 121.485C330.854 122.76 322.555 133.721 324.66 140.679C327.013 148.455 342.244 150.862 342.143 151.149C342.036 151.452 326.813 143.674 321.164 148.532C317.374 151.79 317.918 159.386 320.29 164.237C325.24 174.361 340.683 177.948 348.262 172.961C354.155 169.084 350.181 163.386 356.129 151.149C363.434 136.122 376.138 130.909 376.234 119.74C376.243 118.724 376.271 115.454 374.486 114.505C371.635 112.989 366.132 118.443 365.745 117.995C365.325 117.509 372.691 112.198 377.108 103.162C378.498 100.32 381.659 93.8542 378.857 90.0749C377.43 88.1508 375.047 87.718 373.612 87.4575V87.4575Z" fill="#AEDBD8"/>
<path id="Vector_69" d="M333.401 70.8801C326.23 69.5779 317.323 74.369 316.793 79.605C316.356 83.9152 321.664 87.8504 321.163 88.3299C320.696 88.7781 317.407 84.049 313.296 83.9675C307.084 83.8444 299.629 94.3451 301.932 100.545C303.782 105.521 311.705 107.149 311.548 107.525C311.4 107.879 305.363 104.016 299.31 104.907C290.643 106.183 282.344 117.143 284.45 124.102C286.803 131.877 302.034 134.285 301.932 134.572C301.826 134.875 286.603 127.096 280.953 131.954C277.164 135.213 277.707 142.809 280.079 147.659C285.029 157.783 300.473 161.371 308.051 156.384C313.944 152.507 309.97 146.809 315.919 134.572C323.223 119.545 335.927 114.331 336.024 103.162C336.033 102.147 336.061 98.8763 334.276 97.9273C331.424 96.4117 325.922 101.866 325.534 101.417C325.115 100.932 332.48 95.6208 336.898 86.585C338.287 83.7429 341.449 77.2768 338.646 73.4976C337.219 71.5735 334.836 71.1407 333.401 70.8801Z" fill="#AEDBD8"/>
<path id="Vector_70" d="M284.71 51.5073C291.507 54.1341 296.597 62.8623 294.31 67.6044C292.428 71.5079 285.843 72.0978 286.018 72.7674C286.183 73.3933 291.462 71.0741 295.01 73.1472C300.372 76.2797 301.237 89.1208 296.029 93.2076C291.849 96.4883 284.24 93.7471 284.177 94.149C284.118 94.5281 291.287 94.3803 295.984 98.2949C302.708 103.9 304.052 117.573 298.616 122.41C292.541 127.815 278.292 121.93 278.228 122.228C278.161 122.542 295.213 123.841 297.49 130.929C299.017 135.683 294.579 141.878 290.019 144.779C280.501 150.833 265.453 145.844 261.599 137.641C258.601 131.263 264.971 128.474 266.3 114.938C267.932 98.3152 259.825 87.2479 265.585 77.6723C266.109 76.8015 267.796 73.9978 269.815 74.1188C273.04 74.3122 274.879 81.8315 275.444 81.651C276.056 81.4558 272.553 73.0873 273.512 63.0788C273.814 59.9308 274.501 52.7687 278.868 51.0062C281.091 50.1088 283.35 50.9818 284.71 51.5073Z" fill="#AEDBD8"/>
<path id="Vector_71" d="M207.518 56.2531C203.233 62.1378 203.695 72.2262 208.192 74.9742C211.894 77.2362 217.748 74.1693 217.964 74.8271C218.166 75.4419 212.47 76.3488 210.614 80.0107C207.809 85.5441 214.055 96.8033 220.651 97.4202C225.946 97.9155 230.851 91.4955 231.122 91.7994C231.378 92.0861 225.273 95.8403 223.452 101.671C220.845 110.019 227.14 122.236 234.336 123.36C242.375 124.616 251.154 111.962 251.369 112.177C251.597 112.405 237.972 122.722 239.908 129.91C241.206 134.731 248.299 137.537 253.707 137.507C264.993 137.446 274.93 125.112 273.714 116.134C272.77 109.152 265.902 110.255 257.435 99.5985C247.037 86.5118 247.84 72.8252 237.799 67.8947C236.886 67.4464 233.946 66.0028 232.315 67.1968C229.71 69.1037 232.247 76.4178 231.674 76.572C231.054 76.7388 229.454 67.811 223.212 59.9193C221.249 57.4371 216.783 51.7898 212.156 52.6712C209.8 53.1199 208.376 55.0757 207.518 56.2531L207.518 56.2531Z" fill="#AEDBD8"/>
<path id="Vector_72" d="M213.637 120.817C209.352 126.702 209.814 136.79 214.311 139.538C218.013 141.8 223.867 138.734 224.083 139.391C224.285 140.006 218.589 140.913 216.733 144.575C213.928 150.108 220.174 161.368 226.77 161.984C232.065 162.48 236.971 156.06 237.241 156.364C237.497 156.65 231.392 160.405 229.571 166.235C226.964 174.583 233.26 186.8 240.455 187.924C248.494 189.18 257.273 176.526 257.489 176.741C257.716 176.969 244.092 187.286 246.027 194.474C247.326 199.296 254.418 202.101 259.826 202.071C271.112 202.01 281.049 189.677 279.834 180.698C278.889 173.716 272.021 174.819 263.554 164.163C253.156 151.076 253.959 137.389 243.918 132.459C243.005 132.011 240.065 130.567 238.434 131.761C235.829 133.668 238.366 140.982 237.793 141.136C237.173 141.303 235.573 132.375 229.331 124.484C227.368 122.001 222.902 116.354 218.275 117.235C215.919 117.684 214.495 119.64 213.637 120.817H213.637Z" fill="#AEDBD8"/>
</g>
<g id="Group_9">
<path id="Vector_73" d="M712.278 306.042C712.216 306.557 712.199 307.037 712.234 307.508H738.187C738.423 307.037 738.624 306.548 738.799 306.042C741.972 296.942 736.753 281.796 743.371 259.338C748.283 242.673 757.453 229.638 761.727 223.566C766.981 216.097 772.934 209.205 779.831 198.194C781.325 195.812 782.864 193.229 784.455 190.411C784.988 189.469 791.133 178.537 790.574 178.196C790.312 178.039 788.686 180.247 788.135 180.988C783.275 187.549 780.451 190.42 776.404 195.14C773.948 198.002 771.046 201.535 766.972 206.989C756.526 220.957 751.308 227.937 749.489 233.163C749.009 234.559 746.448 242.115 741.622 251.485C739.157 256.267 737.925 258.657 737.252 258.465C735.346 257.916 737.916 238.119 745.993 218.331C747.374 214.963 748.406 212.808 750.364 208.734C753.545 202.085 771.264 165.135 784.289 143.018C785.923 140.234 787.488 137.695 788.93 135.471C789.21 135.052 789.481 134.642 789.743 134.249C791.562 131.544 793.17 129.407 794.507 128.028C795.216 127.295 797.016 125.219 800.626 121.048C802.06 119.391 803.109 118.16 803.817 117.262C803.922 117.131 804.018 117 804.097 116.887C804.953 115.77 805.198 115.229 804.997 114.941C804.709 114.531 803.598 114.766 802.383 115.194C802.252 115.238 802.112 115.29 801.981 115.342C800.661 115.831 799.324 116.468 798.878 116.686C794.787 118.649 790.792 122.165 787.095 126.344C785.722 127.889 784.402 129.52 783.126 131.195C779.018 136.605 775.434 142.494 772.724 147.336C769.402 153.304 767.409 157.693 767.409 157.693C758.135 178.135 747.846 201.518 747.304 201.317C746.71 201.099 758.117 171.993 761.439 156.183C762.549 150.887 762.75 147.083 761.29 146.351C761.238 146.324 761.185 146.298 761.124 146.281C760.897 146.202 760.687 146.211 760.574 146.22C760.574 146.22 759.219 146.045 757.794 146.351C756.019 146.734 754 151.664 752.033 158.583C746.92 176.416 742.059 207.425 742.059 207.425C737.199 238.442 729.822 263.543 728.073 263.264C727.103 263.107 728.493 255.316 727.199 242.324C726.29 233.216 725.259 233.495 721.954 217.022C716.709 190.891 714.087 177.83 714.087 177.76C714.113 177.21 714.183 176.102 714.017 174.951C713.842 173.703 713.397 172.394 712.339 171.653C710.73 170.518 708.143 171.007 707.094 171.653C706.255 172.176 705.826 173.136 705.73 174.514C705.153 183.187 717.636 208.332 721.954 242.324C724.105 259.259 725.285 268.499 721.954 280.714C718.659 292.824 712.916 300.537 712.278 306.042V306.042Z" fill="#2F5D7A"/>
<path id="Vector_74" d="M676.936 87.4575C684.107 86.1552 693.014 90.9463 693.545 96.1824C693.982 100.493 688.674 104.428 689.174 104.907C689.642 105.355 692.93 100.626 697.041 100.545C703.253 100.422 710.709 110.922 708.405 117.122C706.556 122.099 698.633 123.727 698.79 124.102C698.938 124.456 704.974 120.594 711.028 121.485C719.694 122.76 727.993 133.721 725.888 140.679C723.535 148.455 708.304 150.862 708.405 151.149C708.512 151.452 723.735 143.674 729.384 148.532C733.174 151.79 732.63 159.386 730.259 164.237C725.308 174.361 709.865 177.948 702.286 172.961C696.393 169.084 700.367 163.386 694.419 151.149C687.114 136.122 674.41 130.909 674.314 119.74C674.305 118.724 674.277 115.454 676.062 114.505C678.913 112.989 684.416 118.443 684.804 117.995C685.223 117.509 677.857 112.198 673.44 103.162C672.05 100.32 668.889 93.8542 671.691 90.0749C673.118 88.1508 675.501 87.718 676.936 87.4575V87.4575Z" fill="#AEDBD8"/>
<path id="Vector_75" d="M717.146 70.8801C724.318 69.5779 733.225 74.369 733.755 79.605C734.192 83.9152 728.884 87.8504 729.384 88.3299C729.852 88.7781 733.141 84.049 737.252 83.9675C743.463 83.8444 750.919 94.3451 748.615 100.545C746.766 105.521 738.843 107.149 739 107.525C739.148 107.879 745.185 104.016 751.238 104.907C759.905 106.183 768.204 117.143 766.098 124.102C763.745 131.877 748.514 134.285 748.615 134.572C748.722 134.875 763.945 127.096 769.595 131.954C773.384 135.213 772.841 142.809 770.469 147.659C765.518 157.783 750.075 161.371 742.496 156.384C736.604 152.507 740.577 146.809 734.629 134.572C727.324 119.545 714.62 114.331 714.524 103.162C714.515 102.147 714.487 98.8763 716.272 97.9273C719.123 96.4117 724.626 101.866 725.014 101.417C725.433 100.932 718.068 95.6208 713.65 86.585C712.26 83.7429 709.099 77.2768 711.902 73.4976C713.328 71.5735 715.712 71.1407 717.146 70.8801V70.8801Z" fill="#AEDBD8"/>
<path id="Vector_76" d="M765.837 51.5073C759.04 54.1341 753.951 62.8623 756.237 67.6044C758.12 71.5079 764.705 72.0978 764.529 72.7674C764.365 73.3933 759.086 71.0741 755.538 73.1472C750.175 76.2797 749.31 89.1208 754.518 93.2076C758.699 96.4883 766.308 93.7471 766.37 94.149C766.429 94.5281 759.26 94.3804 754.564 98.2949C747.84 103.9 746.496 117.573 751.932 122.41C758.006 127.815 772.256 121.93 772.32 122.228C772.387 122.542 755.335 123.841 753.058 130.929C751.531 135.683 755.968 141.878 760.529 144.779C770.047 150.833 785.094 145.844 788.949 137.641C791.946 131.263 785.576 128.474 784.248 114.938C782.616 98.3152 790.723 87.2479 784.962 77.6723C784.438 76.8015 782.752 73.9978 780.733 74.1188C777.508 74.3122 775.669 81.8315 775.103 81.651C774.492 81.4558 777.995 73.0873 777.035 63.0788C776.734 59.9308 776.047 52.7687 771.68 51.0062C769.456 50.1088 767.197 50.9818 765.837 51.5073V51.5073Z" fill="#AEDBD8"/>
<path id="Vector_77" d="M843.03 56.2531C847.315 62.1378 846.853 72.2262 842.356 74.9742C838.654 77.2362 832.8 74.1693 832.584 74.8271C832.382 75.4419 838.078 76.3488 839.934 80.0107C842.739 85.5441 836.493 96.8033 829.897 97.4202C824.602 97.9155 819.696 91.4955 819.426 91.7994C819.17 92.0861 825.275 95.8403 827.096 101.671C829.703 110.019 823.407 122.236 816.212 123.36C808.172 124.616 799.393 111.962 799.178 112.177C798.951 112.405 812.575 122.722 810.64 129.91C809.341 134.731 802.249 137.537 796.841 137.507C785.555 137.446 775.618 125.112 776.833 116.134C777.778 109.152 784.646 110.255 793.113 99.5985C803.511 86.5118 802.708 72.8252 812.749 67.8947C813.662 67.4464 816.602 66.0028 818.233 67.1968C820.838 69.1037 818.3 76.4178 818.874 76.572C819.494 76.7388 821.094 67.811 827.336 59.9193C829.299 57.4371 833.765 51.7898 838.392 52.6712C840.748 53.1199 842.172 55.0757 843.03 56.2531L843.03 56.2531Z" fill="#AEDBD8"/>
<path id="Vector_78" d="M836.911 120.817C841.196 126.702 840.734 136.79 836.237 139.538C832.535 141.8 826.681 138.734 826.465 139.391C826.263 140.006 831.959 140.913 833.815 144.575C836.62 150.108 830.374 161.368 823.778 161.984C818.483 162.48 813.578 156.06 813.307 156.364C813.051 156.65 819.156 160.405 820.977 166.235C823.584 174.583 817.288 186.8 810.093 187.924C802.054 189.18 793.275 176.526 793.06 176.741C792.832 176.969 806.456 187.286 804.521 194.474C803.223 199.296 796.13 202.101 790.722 202.071C779.436 202.01 769.499 189.677 770.714 180.698C771.659 173.716 778.527 174.819 786.994 164.163C797.392 151.076 796.589 137.389 806.63 132.459C807.543 132.011 810.483 130.567 812.114 131.761C814.719 133.668 812.182 140.982 812.755 141.136C813.375 141.303 814.975 132.375 821.217 124.484C823.18 122.001 827.646 116.354 832.273 117.235C834.629 117.684 836.053 119.64 836.911 120.817H836.911Z" fill="#AEDBD8"/>
</g>
</g>
<defs>
<clipPath id="clip0_312_669">
<rect width="846" height="307" fill="white"/>
</clipPath>
</defs>
</svg>
