<svg width="906" height="651" viewBox="0 0 906 651" fill="none" xmlns="http://www.w3.org/2000/svg">
<g id="undraw empty street" clip-path="url(#clip0_40_201)">
<g id="Group">
<path id="Vector" d="M509.54 652.381H318.541V409.369C318.541 377.743 344.319 352.013 376.005 352.013H452.076C483.761 352.013 509.54 377.743 509.54 409.369V652.381Z" fill="#55ABE0"/>
<path id="Vector_2" d="M444.27 406.693H384.642C379.855 406.693 375.96 402.806 375.96 398.027V382.107C375.96 377.329 379.855 373.442 384.642 373.442H444.27C449.057 373.442 452.952 377.329 452.952 382.107V398.027C452.952 402.806 449.057 406.693 444.27 406.693V406.693Z" fill="#F3F7FA"/>
<path id="Vector_3" d="M415.891 475.781V356.816H415.151V475.781H415.891Z" fill="#55ABE0"/>
<path id="Vector_4" d="M487.152 607.307H471.962C467.577 607.307 464.011 603.747 464.011 599.371V553.175C464.011 548.799 467.577 545.239 471.962 545.239H487.152C491.537 545.239 495.104 548.799 495.104 553.175V599.371C495.104 603.747 491.537 607.307 487.152 607.307V607.307Z" fill="#F3F7FA"/>
<path id="Vector_5" d="M387.952 639.819H346.11C341.726 639.819 338.159 636.259 338.159 631.883V550.219C338.159 545.843 341.726 542.283 346.11 542.283H387.952C392.336 542.283 395.903 545.843 395.903 550.219V631.883C395.903 636.259 392.336 639.819 387.952 639.819V639.819Z" fill="#F3F7FA"/>
<path id="Vector_6" d="M396.927 548.564H337.175C334.926 548.564 333.025 547.184 332.331 545.049C331.638 542.914 332.366 540.683 334.187 539.365L364.383 517.524C366.19 516.219 368.608 516.231 370.401 517.556L399.956 539.397C401.754 540.726 402.463 542.954 401.762 545.074C401.061 547.194 399.164 548.564 396.927 548.564V548.564Z" fill="#2F5D7A"/>
<path id="Vector_7" d="M493.376 549.303H465.778C463.53 549.303 461.628 547.923 460.935 545.788C460.241 543.652 460.97 541.422 462.79 540.104L476.738 530.017C478.544 528.71 480.962 528.723 482.755 530.048L496.406 540.136C498.204 541.464 498.913 543.692 498.212 545.812C497.511 547.932 495.613 549.303 493.376 549.303V549.303Z" fill="#2F5D7A"/>
<g id="Group_2">
<path id="Vector_8" d="M481.066 506.076H463.983C460.12 506.076 456.978 502.94 456.978 499.084V451C456.978 447.145 460.12 444.008 463.983 444.008H481.066C484.929 444.008 488.071 447.145 488.071 451V499.084C488.071 502.94 484.929 506.076 481.066 506.076Z" fill="#F3F7FA"/>
<path id="Vector_9" d="M422.581 506.076H405.499C401.636 506.076 398.494 502.94 398.494 499.084V451C398.494 447.145 401.636 444.008 405.499 444.008H422.581C426.444 444.008 429.586 447.145 429.586 451V499.084C429.586 502.94 426.444 506.076 422.581 506.076Z" fill="#F3F7FA"/>
<path id="Vector_10" d="M363.357 506.076H346.275C342.412 506.076 339.27 502.94 339.27 499.084V451C339.27 447.145 342.412 444.008 346.275 444.008H363.357C367.22 444.008 370.362 447.145 370.362 451V499.084C370.362 502.94 367.22 506.076 363.357 506.076Z" fill="#F3F7FA"/>
<path id="Vector_11" d="M486.221 449.55H341.859C339.273 449.55 337.69 447.722 337.268 445.911C336.846 444.099 337.459 441.762 339.78 440.624L412.735 404.84C414.05 404.196 415.617 404.202 416.928 404.859L488.336 440.642C490.359 441.656 491.329 443.732 490.807 445.931C490.285 448.129 488.485 449.55 486.221 449.55V449.55Z" fill="#2F5D7A"/>
</g>
<path id="Vector_12" d="M509.169 652.011H325.971V633.454C325.971 618.833 347.656 606.938 374.311 606.938H509.169V652.011V652.011Z" fill="#2F5D7A"/>
<path id="Vector_13" d="M438.1 580.706H428.476V616.174H438.1V580.706Z" fill="#2F5D7A"/>
<path id="Vector_14" d="M509.169 580.706H499.545V616.174H509.169V580.706Z" fill="#2F5D7A"/>
<path id="Vector_15" d="M502.507 583.662H436.62V584.401H502.507V583.662Z" fill="#2F5D7A"/>
<path id="Vector_16" d="M495.104 475.042H335.198V475.781H495.104V475.042Z" fill="#55ABE0"/>
<path id="Vector_17" d="M502.507 595.484H436.62V596.223H502.507V595.484Z" fill="#2F5D7A"/>
<path id="Vector_18" d="M502.507 601.396H436.62V602.135H502.507V601.396Z" fill="#2F5D7A"/>
<path id="Vector_19" d="M451.428 376.595H376.653C375.489 376.595 374.505 375.882 374.146 374.776C373.787 373.671 374.164 372.517 375.107 371.835L412.895 344.502C413.83 343.828 415.082 343.832 416.009 344.519L452.996 371.851C453.926 372.538 454.293 373.691 453.931 374.789C453.568 375.886 452.585 376.595 451.428 376.595V376.595Z" fill="#2F5D7A"/>
<path id="Vector_20" d="M354.446 591.79H341.12V593.268H354.446V591.79Z" fill="#55ABE0"/>
</g>
<g id="Group_3">
<path id="Vector_21" d="M292.754 652.381H101.755V409.369C101.755 377.743 127.534 352.013 159.219 352.013H235.29C266.976 352.013 292.754 377.743 292.754 409.369V652.381Z" fill="#55ABE0"/>
<path id="Vector_22" d="M227.484 406.693H167.856C163.069 406.693 159.174 402.806 159.174 398.027V382.107C159.174 377.329 163.069 373.442 167.856 373.442H227.484C232.271 373.442 236.166 377.329 236.166 382.107V398.027C236.166 402.806 232.271 406.693 227.484 406.693V406.693Z" fill="#F3F7FA"/>
<path id="Vector_23" d="M199.105 475.781V356.816H198.365V475.781H199.105Z" fill="#55ABE0"/>
<path id="Vector_24" d="M270.367 607.307H255.176C250.792 607.307 247.225 603.747 247.225 599.371V553.175C247.225 548.799 250.792 545.239 255.176 545.239H270.367C274.751 545.239 278.318 548.799 278.318 553.175V599.371C278.318 603.747 274.751 607.307 270.367 607.307V607.307Z" fill="#F3F7FA"/>
<path id="Vector_25" d="M171.166 639.819H129.325C124.94 639.819 121.374 636.259 121.374 631.883V550.219C121.374 545.843 124.94 542.283 129.325 542.283H171.166C175.551 542.283 179.117 545.843 179.117 550.219V631.883C179.117 636.259 175.551 639.819 171.166 639.819V639.819Z" fill="#F3F7FA"/>
<path id="Vector_26" d="M180.141 548.564H120.389C118.141 548.564 116.239 547.184 115.546 545.049C114.852 542.914 115.581 540.683 117.402 539.365L147.597 517.524C149.404 516.219 151.823 516.231 153.615 517.556L183.171 539.397C184.969 540.726 185.677 542.954 184.977 545.074C184.276 547.194 182.378 548.564 180.141 548.564V548.564Z" fill="#2F5D7A"/>
<path id="Vector_27" d="M276.591 549.303H248.993C246.744 549.303 244.843 547.923 244.149 545.788C243.455 543.652 244.184 541.422 246.005 540.104L259.952 530.017C261.759 528.71 264.177 528.723 265.969 530.048L279.621 540.136C281.418 541.464 282.127 543.692 281.427 545.812C280.726 547.932 278.827 549.303 276.591 549.303V549.303Z" fill="#2F5D7A"/>
<g id="Group_4">
<path id="Vector_28" d="M264.28 506.076H247.197C243.335 506.076 240.192 502.94 240.192 499.084V451C240.192 447.145 243.335 444.008 247.197 444.008H264.28C268.143 444.008 271.285 447.145 271.285 451V499.084C271.285 502.94 268.143 506.076 264.28 506.076V506.076Z" fill="#F3F7FA"/>
<path id="Vector_29" d="M205.796 506.076H188.713C184.85 506.076 181.708 502.94 181.708 499.084V451C181.708 447.145 184.85 444.008 188.713 444.008H205.796C209.658 444.008 212.801 447.145 212.801 451V499.084C212.801 502.94 209.658 506.076 205.796 506.076Z" fill="#F3F7FA"/>
<path id="Vector_30" d="M146.572 506.076H129.489C125.626 506.076 122.484 502.94 122.484 499.084V451C122.484 447.145 125.626 444.008 129.489 444.008H146.572C150.434 444.008 153.577 447.145 153.577 451V499.084C153.577 502.94 150.434 506.076 146.572 506.076Z" fill="#F3F7FA"/>
<path id="Vector_31" d="M269.436 449.55H125.073C122.487 449.55 120.904 447.722 120.483 445.911C120.061 444.099 120.674 441.762 122.995 440.624L195.95 404.84C197.264 404.196 198.832 404.202 200.143 404.859L271.55 440.642C273.574 441.656 274.544 443.732 274.022 445.931C273.499 448.129 271.7 449.55 269.436 449.55V449.55Z" fill="#2F5D7A"/>
</g>
<path id="Vector_32" d="M292.384 652.011H192.073V633.454C192.073 618.833 203.946 606.938 218.541 606.938H292.384V652.011V652.011Z" fill="#2F5D7A"/>
<path id="Vector_33" d="M221.314 580.706H211.69V616.174H221.314V580.706Z" fill="#2F5D7A"/>
<path id="Vector_34" d="M292.384 580.706H282.76V616.174H292.384V580.706Z" fill="#2F5D7A"/>
<path id="Vector_35" d="M285.721 583.662H219.834V584.401H285.721V583.662Z" fill="#2F5D7A"/>
<path id="Vector_36" d="M278.318 475.042H118.412V475.781H278.318V475.042Z" fill="#55ABE0"/>
<path id="Vector_37" d="M285.721 595.484H219.834V596.223H285.721V595.484Z" fill="#2F5D7A"/>
<path id="Vector_38" d="M285.721 601.396H219.834V602.135H285.721V601.396Z" fill="#2F5D7A"/>
<path id="Vector_39" d="M234.642 376.595H159.867C158.703 376.595 157.719 375.882 157.36 374.776C157.002 373.671 157.379 372.517 158.321 371.835L196.109 344.502C197.044 343.828 198.296 343.832 199.223 344.519L236.21 371.851C237.141 372.538 237.507 373.691 237.145 374.789C236.782 375.886 235.8 376.595 234.642 376.595V376.595Z" fill="#2F5D7A"/>
<path id="Vector_40" d="M137.66 591.79H124.334V593.268H137.66V591.79Z" fill="#55ABE0"/>
</g>
<g id="Group_5">
<path id="Vector_41" d="M719.332 652.381H528.333V409.369C528.333 377.743 554.112 352.013 585.797 352.013H661.868C693.553 352.013 719.332 377.743 719.332 409.369V652.381Z" fill="#55ABE0"/>
<path id="Vector_42" d="M654.062 406.693H594.434C589.647 406.693 585.752 402.806 585.752 398.027V382.107C585.752 377.329 589.647 373.442 594.434 373.442H654.062C658.849 373.442 662.744 377.329 662.744 382.107V398.027C662.744 402.806 658.849 406.693 654.062 406.693Z" fill="#F3F7FA"/>
<path id="Vector_43" d="M625.683 475.781V356.816H624.943V475.781H625.683Z" fill="#55ABE0"/>
<path id="Vector_44" d="M696.945 607.307H681.754C677.37 607.307 673.803 603.747 673.803 599.371V553.175C673.803 548.799 677.37 545.239 681.754 545.239H696.945C701.329 545.239 704.896 548.799 704.896 553.175V599.371C704.896 603.747 701.329 607.307 696.945 607.307V607.307Z" fill="#F3F7FA"/>
<path id="Vector_45" d="M597.744 639.819H555.902C551.518 639.819 547.951 636.259 547.951 631.883V550.219C547.951 545.843 551.518 542.283 555.902 542.283H597.744C602.128 542.283 605.695 545.843 605.695 550.219V631.883C605.695 636.259 602.128 639.819 597.744 639.819Z" fill="#F3F7FA"/>
<path id="Vector_46" d="M606.719 548.564H546.967C544.719 548.564 542.817 547.184 542.124 545.049C541.43 542.914 542.159 540.683 543.979 539.365L574.175 517.524C575.982 516.219 578.401 516.231 580.193 517.556L609.749 539.397C611.547 540.726 612.255 542.954 611.555 545.074C610.854 547.194 608.956 548.564 606.719 548.564V548.564Z" fill="#2F5D7A"/>
<path id="Vector_47" d="M703.168 549.303H675.57C673.322 549.303 671.42 547.923 670.727 545.788C670.033 543.652 670.762 541.422 672.582 540.104L686.529 530.017C688.336 528.71 690.754 528.723 692.547 530.048L706.198 540.136C707.996 541.464 708.705 543.692 708.004 545.812C707.303 547.932 705.405 549.303 703.168 549.303V549.303Z" fill="#2F5D7A"/>
<g id="Group_6">
<path id="Vector_48" d="M690.858 506.076H673.775C669.912 506.076 666.77 502.94 666.77 499.084V451C666.77 447.145 669.912 444.008 673.775 444.008H690.858C694.721 444.008 697.863 447.145 697.863 451V499.084C697.863 502.94 694.721 506.076 690.858 506.076Z" fill="#F3F7FA"/>
<path id="Vector_49" d="M632.374 506.076H615.291C611.428 506.076 608.286 502.94 608.286 499.084V451C608.286 447.145 611.428 444.008 615.291 444.008H632.374C636.237 444.008 639.379 447.145 639.379 451V499.084C639.379 502.94 636.237 506.076 632.374 506.076Z" fill="#F3F7FA"/>
<path id="Vector_50" d="M573.15 506.076H556.067C552.204 506.076 549.062 502.94 549.062 499.084V451C549.062 447.145 552.204 444.008 556.067 444.008H573.15C577.012 444.008 580.155 447.145 580.155 451V499.084C580.155 502.94 577.012 506.076 573.15 506.076Z" fill="#F3F7FA"/>
<path id="Vector_51" d="M696.014 449.55H551.651C549.065 449.55 547.482 447.722 547.061 445.911C546.639 444.099 547.252 441.762 549.572 440.624L622.527 404.84C623.842 404.196 625.41 404.202 626.721 404.859L698.128 440.642C700.151 441.656 701.122 443.732 700.6 445.931C700.077 448.129 698.277 449.55 696.014 449.55V449.55Z" fill="#2F5D7A"/>
</g>
<path id="Vector_52" d="M718.962 652.011H618.65V633.454C618.65 618.833 630.524 606.938 645.119 606.938H718.962V652.011V652.011Z" fill="#2F5D7A"/>
<path id="Vector_53" d="M647.892 580.706H638.269V616.174H647.892V580.706Z" fill="#2F5D7A"/>
<path id="Vector_54" d="M718.962 580.706H709.338V616.174H718.962V580.706Z" fill="#2F5D7A"/>
<path id="Vector_55" d="M712.299 583.662H646.412V584.401H712.299V583.662Z" fill="#2F5D7A"/>
<path id="Vector_56" d="M704.896 475.042H544.99V475.781H704.896V475.042Z" fill="#55ABE0"/>
<path id="Vector_57" d="M712.299 595.484H646.412V596.223H712.299V595.484Z" fill="#2F5D7A"/>
<path id="Vector_58" d="M712.299 601.396H646.412V602.135H712.299V601.396Z" fill="#2F5D7A"/>
<path id="Vector_59" d="M661.22 376.595H586.445C585.281 376.595 584.297 375.882 583.938 374.776C583.579 373.671 583.956 372.517 584.899 371.835L622.687 344.502C623.622 343.828 624.874 343.832 625.801 344.519L662.788 371.851C663.718 372.538 664.085 373.691 663.723 374.789C663.36 375.886 662.377 376.595 661.22 376.595V376.595Z" fill="#2F5D7A"/>
<path id="Vector_60" d="M564.238 591.79H550.913V593.268H564.238V591.79Z" fill="#55ABE0"/>
</g>
<g id="Group_7">
<path id="Vector_61" d="M133.722 649.789C133.783 650.304 133.801 650.784 133.766 651.255H107.813C107.577 650.784 107.376 650.295 107.201 649.789C104.028 640.689 109.246 625.543 102.629 603.085C97.7166 586.42 88.5469 573.385 84.2724 567.313C79.0189 559.844 73.066 552.952 66.1691 541.941C64.6743 539.559 63.1358 536.976 61.5449 534.158C61.0117 533.216 54.8665 522.284 55.426 521.943C55.6882 521.786 57.3141 523.994 57.8648 524.735C62.725 531.296 65.5485 534.167 69.5957 538.887C72.052 541.749 74.9542 545.282 79.0276 550.736C89.4735 564.704 94.6921 571.684 96.5103 576.91C96.9911 578.306 99.5523 585.862 104.378 595.233C106.843 600.014 108.075 602.404 108.748 602.212C110.654 601.663 108.084 581.866 100.007 562.078C98.6257 558.71 97.5942 556.555 95.6362 552.481C92.4543 545.832 74.7356 508.882 61.711 486.765C60.0764 483.981 58.5117 481.442 57.0693 479.218C56.7896 478.799 56.5186 478.389 56.2564 477.996C54.4382 475.291 52.8298 473.154 51.4923 471.775C50.7843 471.042 48.9836 468.966 45.3734 464.795C43.9398 463.138 42.8908 461.907 42.1828 461.009C42.0779 460.878 41.9818 460.747 41.9031 460.634C41.0464 459.517 40.8017 458.976 41.0027 458.688C41.2912 458.278 42.4013 458.513 43.6164 458.941C43.7475 458.985 43.8874 459.037 44.0185 459.089C45.3385 459.578 46.6759 460.215 47.1217 460.433C51.2126 462.396 55.2074 465.912 58.905 470.091C60.2774 471.636 61.5973 473.267 62.8736 474.942C66.982 480.352 70.566 486.241 73.2758 491.083C76.5975 497.051 78.5905 501.44 78.5905 501.44C87.8651 521.882 98.1537 545.265 98.6956 545.064C99.2901 544.846 87.8826 515.74 84.5609 499.93C83.4507 494.634 83.2497 490.83 84.7095 490.098C84.7619 490.071 84.8144 490.045 84.8756 490.028C85.1029 489.949 85.3126 489.958 85.4263 489.967C85.4263 489.967 86.7812 489.792 88.206 490.098C89.9805 490.481 91.9998 495.411 93.9666 502.33C99.0803 520.163 103.94 551.172 103.94 551.172C108.801 582.189 116.178 607.29 117.927 607.011C118.897 606.854 117.507 599.063 118.801 586.071C119.71 576.963 120.741 577.242 124.046 560.769C129.29 534.638 131.913 521.577 131.913 521.507C131.887 520.957 131.817 519.849 131.983 518.698C132.158 517.45 132.603 516.141 133.661 515.4C135.269 514.265 137.857 514.754 138.906 515.4C139.745 515.923 140.173 516.883 140.27 518.261C140.846 526.934 128.364 552.079 124.046 586.071C121.895 603.006 120.715 612.246 124.046 624.461C127.341 636.571 133.084 644.284 133.722 649.789V649.789Z" fill="#2F5D7A"/>
<path id="Vector_62" d="M170.197 431.216C163.026 429.914 154.119 434.705 153.589 439.941C153.152 444.251 158.46 448.187 157.959 448.666C157.492 449.114 154.203 444.385 150.092 444.304C143.88 444.18 136.425 454.681 138.728 460.881C140.578 465.858 148.501 467.485 148.344 467.861C148.196 468.215 142.159 464.352 136.106 465.243C127.439 466.519 119.14 477.479 121.246 484.438C123.598 492.213 138.83 494.621 138.728 494.908C138.621 495.211 123.399 487.432 117.749 492.29C113.96 495.549 114.503 503.145 116.875 507.995C121.825 518.119 137.269 521.707 144.847 516.72C150.74 512.843 146.766 507.145 152.715 494.908C160.019 479.881 172.723 474.667 172.82 463.498C172.828 462.483 172.857 459.212 171.071 458.263C168.22 456.748 162.718 462.202 162.33 461.753C161.911 461.268 169.276 455.957 173.694 446.921C175.083 444.079 178.244 437.613 175.442 433.834C174.015 431.91 171.632 431.477 170.197 431.216Z" fill="#AEDBD8"/>
<path id="Vector_63" d="M128.854 414.627C121.682 413.325 112.775 418.116 112.245 423.352C111.808 427.662 117.116 431.597 116.616 432.077C116.148 432.525 112.859 427.796 108.748 427.715C102.537 427.591 95.081 438.092 97.3846 444.292C99.2338 449.269 107.157 450.896 107 451.272C106.852 451.626 100.815 447.763 94.7622 448.654C86.0954 449.93 77.7963 460.89 79.9019 467.849C82.2547 475.624 97.4858 478.032 97.3846 478.319C97.2777 478.622 82.055 470.843 76.4054 475.701C72.6161 478.96 73.1595 486.556 75.5313 491.406C80.4816 501.53 95.9248 505.118 103.504 500.131C109.396 496.254 105.423 490.556 111.371 478.319C118.676 463.292 131.38 458.078 131.476 446.909C131.485 445.894 131.513 442.623 129.728 441.674C126.877 440.159 121.374 445.613 120.986 445.164C120.567 444.679 127.932 439.368 132.35 430.332C133.74 427.49 136.901 421.024 134.098 417.245C132.672 415.321 130.288 414.888 128.854 414.627Z" fill="#AEDBD8"/>
<path id="Vector_64" d="M80.1624 395.254C86.9596 397.881 92.0493 406.609 89.7625 411.351C87.8802 415.255 81.2949 415.845 81.4706 416.514C81.6349 417.14 86.9137 414.821 90.4624 416.894C95.8245 420.027 96.6895 432.868 91.4815 436.955C87.3009 440.235 79.692 437.494 79.6294 437.896C79.5705 438.275 86.7395 438.127 91.4358 442.042C98.16 447.647 99.5038 461.32 94.0676 466.157C87.9934 471.562 73.7441 465.677 73.6803 465.975C73.6129 466.289 90.665 467.588 92.9417 474.676C94.4688 479.43 90.0316 485.625 85.4713 488.526C75.953 494.58 60.9054 489.591 57.0508 481.388C54.0536 475.01 60.4235 472.221 61.7523 458.685C63.384 442.062 55.2767 430.995 61.0376 421.419C61.5615 420.549 63.2482 417.745 65.2672 417.866C68.4917 418.059 70.3311 425.579 70.8965 425.398C71.5081 425.203 68.0049 416.834 68.9645 406.826C69.2663 403.678 69.9529 396.516 74.3201 394.753C76.5435 393.856 78.8024 394.729 80.1624 395.254L80.1624 395.254Z" fill="#AEDBD8"/>
<path id="Vector_65" d="M2.97035 400C-1.31532 405.885 -0.852792 415.973 3.64405 418.721C7.3457 420.983 13.2001 417.916 13.4161 418.574C13.6179 419.189 7.92235 420.096 6.06593 423.758C3.26082 429.291 9.50716 440.55 16.1031 441.167C21.3978 441.662 26.3036 435.243 26.5744 435.546C26.8298 435.833 20.7249 439.587 18.9041 445.418C16.2969 453.766 22.5926 465.983 29.7878 467.107C37.8275 468.363 46.6065 455.709 46.8216 455.924C47.0489 456.152 33.4246 466.469 35.3603 473.657C36.6585 478.478 43.7514 481.284 49.1589 481.254C60.4454 481.193 70.3818 468.859 69.1666 459.881C68.2217 452.899 61.3544 454.002 52.8871 443.345C42.4889 430.259 43.2921 416.572 33.2508 411.642C32.3377 411.193 29.3977 409.75 27.7667 410.944C25.162 412.851 27.6995 420.165 27.1263 420.319C26.5063 420.486 24.9059 411.558 18.6645 403.666C16.7013 401.184 12.235 395.537 7.60788 396.418C5.25209 396.867 3.82783 398.823 2.97034 400L2.97035 400Z" fill="#AEDBD8"/>
<path id="Vector_66" d="M9.08949 464.564C4.80382 470.449 5.26635 480.537 9.76319 483.285C13.4648 485.547 19.3193 482.481 19.5352 483.138C19.737 483.753 14.0415 484.66 12.1851 488.322C9.37996 493.855 15.6263 505.115 22.2222 505.731C27.517 506.227 32.4227 499.807 32.6935 500.111C32.9489 500.397 26.8441 504.152 25.0232 509.982C22.416 518.33 28.7118 530.547 35.9069 531.671C43.9466 532.927 52.7256 520.273 52.9407 520.488C53.1681 520.716 39.5438 531.033 41.4794 538.221C42.7777 543.043 49.8706 545.848 55.2781 545.818C66.5646 545.757 76.501 533.424 75.2857 524.445C74.3408 517.463 67.4736 518.566 59.0062 507.91C48.6081 494.823 49.4112 481.136 39.3699 476.206C38.4568 475.758 35.5168 474.314 33.8858 475.508C31.2811 477.415 33.8186 484.729 33.2455 484.883C32.6255 485.05 31.025 476.122 24.7836 468.231C22.8205 465.748 18.3541 460.101 13.727 460.982C11.3712 461.431 9.94697 463.387 9.08948 464.564H9.08949Z" fill="#AEDBD8"/>
</g>
<g id="Group_8">
<path id="Vector_67" d="M338.27 650.042C338.331 650.557 338.349 651.037 338.314 651.508H312.361C312.125 651.037 311.924 650.548 311.749 650.042C308.576 640.942 313.794 625.796 307.177 603.338C302.264 586.673 293.095 573.638 288.82 567.566C283.567 560.097 277.614 553.205 270.717 542.194C269.222 539.812 267.684 537.229 266.093 534.411C265.56 533.469 259.414 522.537 259.974 522.196C260.236 522.039 261.862 524.247 262.413 524.988C267.273 531.55 270.096 534.42 274.144 539.14C276.6 542.002 279.502 545.536 283.575 550.989C294.021 564.957 299.24 571.937 301.058 577.163C301.539 578.559 304.1 586.115 308.925 595.486C311.39 600.267 312.623 602.657 313.296 602.465C315.202 601.916 312.632 582.119 304.555 562.331C303.174 558.963 302.142 556.808 300.184 552.734C297.002 546.085 279.283 509.135 266.259 487.018C264.624 484.234 263.06 481.695 261.617 479.471C261.337 479.052 261.066 478.642 260.804 478.249C258.986 475.544 257.378 473.407 256.04 472.028C255.332 471.295 253.531 469.219 249.921 465.048C248.488 463.391 247.439 462.16 246.731 461.262C246.626 461.131 246.53 461 246.451 460.887C245.594 459.77 245.35 459.229 245.551 458.941C245.839 458.531 246.949 458.766 248.164 459.194C248.295 459.238 248.435 459.29 248.566 459.342C249.886 459.831 251.224 460.468 251.67 460.686C255.76 462.649 259.755 466.165 263.453 470.344C264.825 471.889 266.145 473.52 267.421 475.195C271.53 480.605 275.114 486.494 277.824 491.337C281.145 497.304 283.138 501.693 283.138 501.693C292.413 522.135 302.702 545.518 303.244 545.317C303.838 545.099 292.43 515.993 289.109 500.184C287.999 494.888 287.798 491.083 289.257 490.351C289.31 490.324 289.362 490.298 289.423 490.281C289.651 490.202 289.86 490.211 289.974 490.22C289.974 490.22 291.329 490.045 292.754 490.351C294.528 490.734 296.548 495.664 298.514 502.583C303.628 520.417 308.488 551.425 308.488 551.425C313.349 582.442 320.726 607.543 322.474 607.264C323.445 607.107 322.055 599.316 323.349 586.324C324.258 577.216 325.289 577.495 328.593 561.022C333.838 534.891 336.461 521.83 336.461 521.76C336.434 521.211 336.364 520.102 336.531 518.951C336.705 517.703 337.151 516.394 338.209 515.653C339.817 514.519 342.405 515.007 343.454 515.653C344.293 516.176 344.721 517.136 344.817 518.515C345.394 527.187 332.912 552.332 328.593 586.324C326.443 603.259 325.263 612.499 328.593 624.714C331.889 636.824 337.632 644.537 338.27 650.042V650.042Z" fill="#2F5D7A"/>
<path id="Vector_68" d="M373.612 431.458C366.441 430.155 357.534 434.946 357.003 440.182C356.567 444.493 361.874 448.428 361.374 448.907C360.906 449.355 357.618 444.626 353.507 444.545C347.295 444.422 339.839 454.923 342.143 461.122C343.992 466.099 351.915 467.727 351.758 468.102C351.61 468.456 345.574 464.594 339.521 465.485C330.854 466.76 322.555 477.721 324.66 484.679C327.013 492.455 342.244 494.862 342.143 495.149C342.036 495.453 326.813 487.674 321.164 492.532C317.374 495.79 317.918 503.386 320.29 508.237C325.24 518.361 340.683 521.948 348.262 516.962C354.155 513.084 350.181 507.386 356.129 495.149C363.434 480.122 376.138 474.909 376.234 463.74C376.243 462.724 376.271 459.454 374.486 458.505C371.635 456.989 366.132 462.443 365.745 461.995C365.325 461.509 372.691 456.198 377.108 447.162C378.498 444.32 381.659 437.854 378.857 434.075C377.43 432.151 375.047 431.718 373.612 431.458V431.458Z" fill="#AEDBD8"/>
<path id="Vector_69" d="M333.401 414.88C326.23 413.578 317.323 418.369 316.793 423.605C316.356 427.915 321.664 431.851 321.163 432.33C320.696 432.778 317.407 428.049 313.296 427.968C307.084 427.844 299.629 438.345 301.932 444.545C303.782 449.522 311.705 451.149 311.548 451.525C311.4 451.879 305.363 448.016 299.31 448.907C290.643 450.183 282.344 461.144 284.45 468.102C286.803 475.878 302.034 478.285 301.932 478.572C301.826 478.875 286.603 471.096 280.953 475.955C277.164 479.213 277.707 486.809 280.079 491.659C285.029 501.783 300.473 505.371 308.051 500.384C313.944 496.507 309.97 490.809 315.919 478.572C323.223 463.545 335.927 458.331 336.024 447.162C336.033 446.147 336.061 442.876 334.276 441.927C331.424 440.412 325.922 445.866 325.534 445.417C325.115 444.932 332.48 439.621 336.898 430.585C338.287 427.743 341.449 421.277 338.646 417.498C337.219 415.574 334.836 415.141 333.401 414.88Z" fill="#AEDBD8"/>
<path id="Vector_70" d="M284.71 395.507C291.507 398.134 296.597 406.862 294.31 411.604C292.428 415.508 285.843 416.098 286.018 416.768C286.183 417.393 291.462 415.074 295.01 417.147C300.372 420.28 301.237 433.121 296.029 437.208C291.849 440.488 284.24 437.747 284.177 438.149C284.118 438.528 291.287 438.38 295.984 442.295C302.708 447.9 304.052 461.573 298.616 466.41C292.541 471.815 278.292 465.93 278.228 466.228C278.161 466.542 295.213 467.841 297.49 474.929C299.017 479.683 294.579 485.878 290.019 488.779C280.501 494.833 265.453 489.844 261.599 481.641C258.601 475.263 264.971 472.475 266.3 458.938C267.932 442.315 259.825 431.248 265.585 421.672C266.109 420.802 267.796 417.998 269.815 418.119C273.04 418.312 274.879 425.832 275.444 425.651C276.056 425.456 272.553 417.087 273.512 407.079C273.814 403.931 274.501 396.769 278.868 395.006C281.091 394.109 283.35 394.982 284.71 395.507Z" fill="#AEDBD8"/>
<path id="Vector_71" d="M207.518 400.253C203.233 406.138 203.695 416.226 208.192 418.974C211.894 421.236 217.748 418.169 217.964 418.827C218.166 419.442 212.47 420.349 210.614 424.011C207.809 429.544 214.055 440.803 220.651 441.42C225.946 441.916 230.851 435.496 231.122 435.799C231.378 436.086 225.273 439.84 223.452 445.671C220.845 454.019 227.14 466.236 234.336 467.36C242.375 468.616 251.154 455.962 251.369 456.177C251.597 456.405 237.972 466.722 239.908 473.91C241.206 478.731 248.299 481.537 253.707 481.507C264.993 481.446 274.93 469.113 273.714 460.134C272.77 453.152 265.902 454.255 257.435 443.599C247.037 430.512 247.84 416.825 237.799 411.895C236.886 411.446 233.946 410.003 232.315 411.197C229.71 413.104 232.247 420.418 231.674 420.572C231.054 420.739 229.454 411.811 223.212 403.919C221.249 401.437 216.783 395.79 212.156 396.671C209.8 397.12 208.376 399.076 207.518 400.253L207.518 400.253Z" fill="#AEDBD8"/>
<path id="Vector_72" d="M213.637 464.817C209.352 470.702 209.814 480.79 214.311 483.538C218.013 485.8 223.867 482.734 224.083 483.391C224.285 484.006 218.589 484.913 216.733 488.575C213.928 494.108 220.174 505.368 226.77 505.985C232.065 506.48 236.971 500.06 237.241 500.364C237.497 500.65 231.392 504.405 229.571 510.235C226.964 518.583 233.26 530.8 240.455 531.924C248.494 533.18 257.273 520.526 257.489 520.741C257.716 520.969 244.092 531.286 246.027 538.474C247.326 543.296 254.418 546.101 259.826 546.071C271.112 546.01 281.049 533.677 279.834 524.698C278.889 517.716 272.021 518.819 263.554 508.163C253.156 495.076 253.959 481.389 243.918 476.459C243.005 476.011 240.065 474.567 238.434 475.761C235.829 477.668 238.366 484.982 237.793 485.136C237.173 485.303 235.573 476.375 229.331 468.484C227.368 466.001 222.902 460.354 218.275 461.235C215.919 461.684 214.495 463.64 213.637 464.817H213.637Z" fill="#AEDBD8"/>
</g>
<g id="Group_9">
<path id="Vector_73" d="M712.278 650.042C712.216 650.557 712.199 651.037 712.234 651.508H738.187C738.423 651.037 738.624 650.548 738.799 650.042C741.972 640.942 736.753 625.796 743.371 603.338C748.283 586.673 757.453 573.638 761.727 567.566C766.981 560.097 772.934 553.205 779.831 542.194C781.325 539.812 782.864 537.229 784.455 534.411C784.988 533.469 791.133 522.537 790.574 522.196C790.312 522.039 788.686 524.247 788.135 524.988C783.275 531.55 780.451 534.42 776.404 539.14C773.948 542.002 771.046 545.536 766.972 550.989C756.526 564.957 751.308 571.937 749.489 577.163C749.009 578.559 746.448 586.115 741.622 595.486C739.157 600.267 737.925 602.657 737.252 602.465C735.346 601.916 737.916 582.119 745.993 562.331C747.374 558.963 748.406 556.808 750.364 552.734C753.545 546.085 771.264 509.135 784.289 487.018C785.923 484.234 787.488 481.695 788.93 479.471C789.21 479.052 789.481 478.642 789.743 478.249C791.562 475.544 793.17 473.407 794.507 472.028C795.216 471.295 797.016 469.219 800.626 465.048C802.06 463.391 803.109 462.16 803.817 461.262C803.922 461.131 804.018 461 804.097 460.887C804.953 459.77 805.198 459.229 804.997 458.941C804.709 458.531 803.598 458.766 802.383 459.194C802.252 459.238 802.112 459.29 801.981 459.342C800.661 459.831 799.324 460.468 798.878 460.686C794.787 462.649 790.792 466.165 787.095 470.344C785.722 471.889 784.402 473.52 783.126 475.195C779.018 480.605 775.434 486.494 772.724 491.337C769.402 497.304 767.409 501.693 767.409 501.693C758.135 522.135 747.846 545.518 747.304 545.317C746.71 545.099 758.117 515.993 761.439 500.184C762.549 494.888 762.75 491.083 761.29 490.351C761.238 490.324 761.185 490.298 761.124 490.281C760.897 490.202 760.687 490.211 760.574 490.22C760.574 490.22 759.219 490.045 757.794 490.351C756.019 490.734 754 495.664 752.033 502.583C746.92 520.417 742.059 551.425 742.059 551.425C737.199 582.442 729.822 607.543 728.073 607.264C727.103 607.107 728.493 599.316 727.199 586.324C726.29 577.216 725.259 577.495 721.954 561.022C716.709 534.891 714.087 521.83 714.087 521.76C714.113 521.211 714.183 520.102 714.017 518.951C713.842 517.703 713.397 516.394 712.339 515.653C710.73 514.519 708.143 515.007 707.094 515.653C706.255 516.176 705.826 517.136 705.73 518.515C705.153 527.187 717.636 552.332 721.954 586.324C724.105 603.259 725.285 612.499 721.954 624.714C718.659 636.824 712.916 644.537 712.278 650.042V650.042Z" fill="#2F5D7A"/>
<path id="Vector_74" d="M676.936 431.458C684.107 430.155 693.014 434.946 693.545 440.182C693.982 444.493 688.674 448.428 689.174 448.907C689.642 449.355 692.93 444.626 697.041 444.545C703.253 444.422 710.709 454.923 708.405 461.122C706.556 466.099 698.633 467.727 698.79 468.102C698.938 468.456 704.974 464.594 711.028 465.485C719.694 466.76 727.993 477.721 725.888 484.679C723.535 492.455 708.304 494.862 708.405 495.149C708.512 495.453 723.735 487.674 729.384 492.532C733.174 495.79 732.63 503.386 730.259 508.237C725.308 518.361 709.865 521.948 702.286 516.962C696.393 513.084 700.367 507.386 694.419 495.149C687.114 480.122 674.41 474.909 674.314 463.74C674.305 462.724 674.277 459.454 676.062 458.505C678.913 456.989 684.416 462.443 684.804 461.995C685.223 461.509 677.857 456.198 673.44 447.162C672.05 444.32 668.889 437.854 671.691 434.075C673.118 432.151 675.501 431.718 676.936 431.458V431.458Z" fill="#AEDBD8"/>
<path id="Vector_75" d="M717.146 414.88C724.318 413.578 733.225 418.369 733.755 423.605C734.192 427.915 728.884 431.851 729.384 432.33C729.852 432.778 733.141 428.049 737.252 427.968C743.463 427.844 750.919 438.345 748.615 444.545C746.766 449.522 738.843 451.149 739 451.525C739.148 451.879 745.185 448.016 751.238 448.907C759.905 450.183 768.204 461.144 766.098 468.102C763.745 475.878 748.514 478.285 748.615 478.572C748.722 478.875 763.945 471.096 769.595 475.955C773.384 479.213 772.841 486.809 770.469 491.659C765.518 501.783 750.075 505.371 742.496 500.384C736.604 496.507 740.577 490.809 734.629 478.572C727.324 463.545 714.62 458.331 714.524 447.162C714.515 446.147 714.487 442.876 716.272 441.927C719.123 440.412 724.626 445.866 725.014 445.417C725.433 444.932 718.068 439.621 713.65 430.585C712.26 427.743 709.099 421.277 711.902 417.498C713.328 415.574 715.712 415.141 717.146 414.88V414.88Z" fill="#AEDBD8"/>
<path id="Vector_76" d="M765.837 395.507C759.04 398.134 753.951 406.862 756.237 411.604C758.12 415.508 764.705 416.098 764.529 416.768C764.365 417.393 759.086 415.074 755.538 417.147C750.175 420.28 749.31 433.121 754.518 437.208C758.699 440.488 766.308 437.747 766.37 438.149C766.429 438.528 759.26 438.38 754.564 442.295C747.84 447.9 746.496 461.573 751.932 466.41C758.006 471.815 772.256 465.93 772.32 466.228C772.387 466.542 755.335 467.841 753.058 474.929C751.531 479.683 755.968 485.878 760.529 488.779C770.047 494.833 785.094 489.844 788.949 481.641C791.946 475.263 785.576 472.475 784.248 458.938C782.616 442.315 790.723 431.248 784.962 421.672C784.438 420.802 782.752 417.998 780.733 418.119C777.508 418.312 775.669 425.832 775.103 425.651C774.492 425.456 777.995 417.087 777.035 407.079C776.734 403.931 776.047 396.769 771.68 395.006C769.456 394.109 767.197 394.982 765.837 395.507V395.507Z" fill="#AEDBD8"/>
<path id="Vector_77" d="M843.03 400.253C847.315 406.138 846.853 416.226 842.356 418.974C838.654 421.236 832.8 418.169 832.584 418.827C832.382 419.442 838.078 420.349 839.934 424.011C842.739 429.544 836.493 440.803 829.897 441.42C824.602 441.916 819.696 435.496 819.426 435.799C819.17 436.086 825.275 439.84 827.096 445.671C829.703 454.019 823.407 466.236 816.212 467.36C808.172 468.616 799.393 455.962 799.178 456.177C798.951 456.405 812.575 466.722 810.64 473.91C809.341 478.731 802.249 481.537 796.841 481.507C785.555 481.446 775.618 469.113 776.833 460.134C777.778 453.152 784.646 454.255 793.113 443.599C803.511 430.512 802.708 416.825 812.749 411.895C813.662 411.446 816.602 410.003 818.233 411.197C820.838 413.104 818.3 420.418 818.874 420.572C819.494 420.739 821.094 411.811 827.336 403.919C829.299 401.437 833.765 395.79 838.392 396.671C840.748 397.12 842.172 399.076 843.03 400.253L843.03 400.253Z" fill="#AEDBD8"/>
<path id="Vector_78" d="M836.911 464.817C841.196 470.702 840.734 480.79 836.237 483.538C832.535 485.8 826.681 482.734 826.465 483.391C826.263 484.006 831.959 484.913 833.815 488.575C836.62 494.108 830.374 505.368 823.778 505.985C818.483 506.48 813.578 500.06 813.307 500.364C813.051 500.65 819.156 504.405 820.977 510.235C823.584 518.583 817.288 530.8 810.093 531.924C802.054 533.18 793.275 520.526 793.06 520.741C792.832 520.969 806.456 531.286 804.521 538.474C803.223 543.296 796.13 546.101 790.722 546.071C779.436 546.01 769.499 533.677 770.714 524.698C771.659 517.716 778.527 518.819 786.994 508.163C797.392 495.076 796.589 481.389 806.63 476.459C807.543 476.011 810.483 474.567 812.114 475.761C814.719 477.668 812.182 484.982 812.755 485.136C813.375 485.303 814.975 476.375 821.217 468.484C823.18 466.001 827.646 460.354 832.273 461.235C834.629 461.684 836.053 463.64 836.911 464.817H836.911Z" fill="#AEDBD8"/>
</g>
<path id="Vector_79" d="M562 142C527.758 142 500 114.242 500 80C500 45.7583 527.758 18 562 18C596.242 18 624 45.7583 624 80C624 114.242 596.242 142 562 142Z" fill="#FFE665"/>
<path id="Vector_80" d="M744 222.562C744 222.562 786.873 222.191 839.981 222.427C865.503 222.539 888.741 222.775 906 223V193.933C887.433 180.012 862.944 168.923 840.165 181.484C795.41 206.18 744 222.562 744 222.562Z" fill="url(#paint0_linear_40_201)"/>
<path id="Vector_81" d="M647.825 47.9589C700.844 48.2064 744 49 744 49C744 49 692.703 -19.8356 648.017 5.66747C603.332 31.1706 552 48.1036 552 48.1036C552 48.1036 594.806 47.7113 647.825 47.9589Z" fill="url(#paint1_linear_40_201)"/>
</g>
<defs>
<linearGradient id="paint0_linear_40_201" x1="825" y1="176" x2="825" y2="223" gradientUnits="userSpaceOnUse">
<stop stop-color="#5FBEFB"/>
<stop offset="1" stop-color="#55ABE0"/>
</linearGradient>
<linearGradient id="paint1_linear_40_201" x1="648" y1="0" x2="648" y2="49" gradientUnits="userSpaceOnUse">
<stop stop-color="#5FBEFB"/>
<stop offset="1" stop-color="#55ABE0"/>
</linearGradient>
<clipPath id="clip0_40_201">
<rect width="906" height="651" fill="white"/>
</clipPath>
</defs>
</svg>
