<svg width="246" height="51" viewBox="0 0 246 51" fill="none" xmlns="http://www.w3.org/2000/svg">
<g id="LOGO SVG">
<g id="house">
<rect id="Rectangle 67" x="18.5737" y="24.6479" width="13.1602" height="13.1602" fill="#5FBEFB"/>
<path id="Vector 1" d="M13.3804 27.8625L25.3522 18.3098L37.324 27.8625V40.1408H13.3804V27.8625Z" fill="#5FBEFB"/>
<path id="Vector 3" fill-rule="evenodd" clip-rule="evenodd" d="M0 20.4225L8.4507 13.3803V4.92958H13.3803V9.85915L25.3521 0L50 20.4225L47 24.5L44.3662 22.2043V46.4789H6.33803V22.2043L3.5 24.5L0 20.4225ZM10.5634 26.0563L25.3521 14.0845L40.1408 26.0563V42.9577H10.5634V26.0563Z" fill="#4A4A4A"/>
<path id="Vector 4" d="M20.4229 30.2817V26.0563H24.6482V30.2817H20.4229Z" fill="#F3F7FA"/>
<path id="Vector 6" d="M20.4229 35.9155V31.6902H24.6482V35.9155H20.4229Z" fill="#F3F7FA"/>
<path id="Vector 5" d="M26.0566 30.2817V26.0563H30.282V30.2817H26.0566Z" fill="#F3F7FA"/>
<path id="Vector 7" d="M26.0566 35.9155V31.6902H30.282V35.9155H26.0566Z" fill="#F3F7FA"/>
</g>
<g id="text">
<g id="Vector 2">
<path d="M130 2H143.5V6H135V15.5H141.5V19.5H135V29.5H143.5V33.5H130V2Z" fill="#4A4A4A"/>
<path d="M148 2H161.5V6H153V15.5H159.5V19.5H153V29.5H161.5V33.5H148V2Z" fill="#4A4A4A"/>
<path d="M180 27V2H175.5V27C174.5 30.5 170.5 30 170 27V2H165.5V28C165.5 34.5 178 37.5 180 27Z" fill="#4A4A4A"/>
<path d="M183.5 2L188.5 33.5H193L196 15.5L199 33.5H203.5L208.5 2H203.5L201 22.5L198 2H194L191 22.5L188 2H183.5Z" fill="#4A4A4A"/>
<path d="M212.5 2H226V6H217.5V15.5H224V19.5H217.5V29.5H226V33.5H212.5V2Z" fill="#4A4A4A"/>
<path d="M230 2V33.5H234V13H235L241.5 33.5H245.5V2H241.5V20.5H240.5L234.5 2H230Z" fill="#4A4A4A"/>
<path d="M114.5 2.5H118.5V29.5H126.5V33.5H114.5V2.5Z" fill="#4A4A4A"/>
<path d="M93 2.5V33.5H97V13L104.5 33.5H108.5V2.5H104.5V22.5L98 2.5H93Z" fill="#5FBEFB"/>
<path fill-rule="evenodd" clip-rule="evenodd" d="M78 2.5L73 33.5H77.5L78.5 26.5H84L85 33.5H89.5L84 2.5H78ZM80.5 8.5H81.5L83 22.5H79L80.5 8.5Z" fill="#5FBEFB"/>
<path d="M54 2.5L59.5 33.5H65L67.75 18L70.5 2.5H66L62.5 27L58.5 2.5H54Z" fill="#5FBEFB"/>
</g>
<path id="REAL ESTATE ADVISORS" d="M59.558 49V39.4H61.448C62.164 39.4 62.682 39.55 63.002 39.85C63.326 40.15 63.5 40.648 63.524 41.344C63.536 41.636 63.542 41.904 63.542 42.148C63.546 42.388 63.546 42.626 63.542 42.862C63.542 43.094 63.536 43.34 63.524 43.6C63.512 44.052 63.434 44.42 63.29 44.704C63.15 44.984 62.932 45.192 62.636 45.328L63.686 49H62.306L61.412 45.544H60.854V49H59.558ZM60.854 44.398H61.442C61.702 44.398 61.894 44.338 62.018 44.218C62.146 44.094 62.216 43.91 62.228 43.666C62.24 43.41 62.248 43.148 62.252 42.88C62.256 42.608 62.256 42.338 62.252 42.07C62.248 41.798 62.24 41.534 62.228 41.278C62.216 41.034 62.148 40.852 62.024 40.732C61.9 40.612 61.708 40.552 61.448 40.552H60.854V44.398ZM69.8073 49V39.4H73.2333V40.552H71.1033V43.564H73.1133V44.716H71.1033V47.848H73.2333V49H69.8073ZM78.9992 49L80.1752 39.4H82.3352L83.5112 49H82.1852L81.9572 46.606H80.5532L80.3312 49H78.9992ZM80.6792 45.454H81.8372L81.6332 43.342L81.4232 40.552H81.0872L80.8832 43.342L80.6792 45.454ZM89.5677 49V39.4H90.8637V47.848H93.0057V49H89.5677ZM106.891 49V39.4H110.317V40.552H108.187V43.564H110.197V44.716H108.187V47.848H110.317V49H106.891ZM118.35 49.102C117.634 49.102 117.122 48.948 116.814 48.64C116.506 48.328 116.338 47.816 116.31 47.104C116.306 46.916 116.302 46.734 116.298 46.558C116.298 46.378 116.3 46.198 116.304 46.018C116.312 45.838 116.324 45.654 116.34 45.466H117.564C117.548 45.786 117.538 46.106 117.534 46.426C117.534 46.746 117.544 47.048 117.564 47.332C117.58 47.568 117.65 47.744 117.774 47.86C117.898 47.972 118.088 48.028 118.344 48.028C118.596 48.028 118.778 47.972 118.89 47.86C119.002 47.744 119.07 47.568 119.094 47.332C119.106 47.152 119.114 46.984 119.118 46.828C119.122 46.672 119.122 46.514 119.118 46.354C119.114 46.194 119.106 46.018 119.094 45.826C119.078 45.59 119.03 45.388 118.95 45.22C118.87 45.052 118.724 44.94 118.512 44.884L117.708 44.68C117.348 44.588 117.066 44.454 116.862 44.278C116.658 44.098 116.512 43.87 116.424 43.594C116.336 43.318 116.286 42.988 116.274 42.604C116.27 42.388 116.268 42.168 116.268 41.944C116.272 41.72 116.276 41.498 116.28 41.278C116.296 40.806 116.372 40.426 116.508 40.138C116.648 39.846 116.866 39.634 117.162 39.502C117.462 39.366 117.856 39.298 118.344 39.298C119.036 39.298 119.536 39.452 119.844 39.76C120.156 40.068 120.326 40.576 120.354 41.284C120.362 41.48 120.364 41.722 120.36 42.01C120.356 42.294 120.348 42.578 120.336 42.862H119.088C119.1 42.562 119.106 42.262 119.106 41.962C119.11 41.658 119.106 41.356 119.094 41.056C119.09 40.824 119.024 40.652 118.896 40.54C118.768 40.424 118.582 40.366 118.338 40.366C118.082 40.366 117.896 40.424 117.78 40.54C117.664 40.652 117.596 40.824 117.576 41.056C117.556 41.312 117.546 41.57 117.546 41.83C117.55 42.09 117.56 42.348 117.576 42.604C117.592 42.86 117.642 43.066 117.726 43.222C117.81 43.378 117.962 43.484 118.182 43.54L118.908 43.714C119.288 43.802 119.584 43.94 119.796 44.128C120.008 44.312 120.158 44.546 120.246 44.83C120.334 45.11 120.384 45.442 120.396 45.826C120.404 45.994 120.408 46.146 120.408 46.282C120.408 46.418 120.406 46.552 120.402 46.684C120.398 46.812 120.394 46.952 120.39 47.104C120.362 47.816 120.192 48.328 119.88 48.64C119.572 48.948 119.062 49.102 118.35 49.102ZM127.527 49V40.552H126.147V39.4H130.209V40.552H128.829V49H127.527ZM135.327 49L136.503 39.4H138.663L139.839 49H138.513L138.285 46.606H136.881L136.659 49H135.327ZM137.007 45.454H138.165L137.961 43.342L137.751 40.552H137.415L137.211 43.342L137.007 45.454ZM146.338 49V40.552H144.958V39.4H149.02V40.552H147.64V49H146.338ZM154.95 49V39.4H158.376V40.552H156.246V43.564H158.256V44.716H156.246V47.848H158.376V49H154.95ZM171.86 49L173.036 39.4H175.196L176.372 49H175.046L174.818 46.606H173.414L173.192 49H171.86ZM173.54 45.454H174.698L174.494 43.342L174.284 40.552H173.948L173.744 43.342L173.54 45.454ZM182.428 49V39.4H184.414C185.138 39.4 185.662 39.558 185.986 39.874C186.31 40.186 186.478 40.704 186.49 41.428C186.502 42.088 186.51 42.714 186.514 43.306C186.518 43.898 186.518 44.492 186.514 45.088C186.51 45.68 186.502 46.306 186.49 46.966C186.478 47.69 186.31 48.21 185.986 48.526C185.662 48.842 185.136 49 184.408 49H182.428ZM183.724 47.848H184.408C184.672 47.848 184.868 47.788 184.996 47.668C185.124 47.544 185.19 47.358 185.194 47.11C185.206 46.622 185.214 46.136 185.218 45.652C185.222 45.164 185.224 44.678 185.224 44.194C185.224 43.71 185.222 43.226 185.218 42.742C185.214 42.254 185.206 41.766 185.194 41.278C185.19 41.034 185.124 40.852 184.996 40.732C184.868 40.612 184.674 40.552 184.414 40.552H183.724V47.848ZM193.559 49L192.353 39.4H193.697L194.315 44.482L194.489 47.848H194.819L194.993 44.482L195.611 39.4H196.961L195.755 49H193.559ZM203.032 49V39.4H204.328V49H203.032ZM212.652 49.102C211.936 49.102 211.424 48.948 211.116 48.64C210.808 48.328 210.64 47.816 210.612 47.104C210.608 46.916 210.604 46.734 210.6 46.558C210.6 46.378 210.602 46.198 210.606 46.018C210.614 45.838 210.626 45.654 210.642 45.466H211.866C211.85 45.786 211.84 46.106 211.836 46.426C211.836 46.746 211.846 47.048 211.866 47.332C211.882 47.568 211.952 47.744 212.076 47.86C212.2 47.972 212.39 48.028 212.646 48.028C212.898 48.028 213.08 47.972 213.192 47.86C213.304 47.744 213.372 47.568 213.396 47.332C213.408 47.152 213.416 46.984 213.42 46.828C213.424 46.672 213.424 46.514 213.42 46.354C213.416 46.194 213.408 46.018 213.396 45.826C213.38 45.59 213.332 45.388 213.252 45.22C213.172 45.052 213.026 44.94 212.814 44.884L212.01 44.68C211.65 44.588 211.368 44.454 211.164 44.278C210.96 44.098 210.814 43.87 210.726 43.594C210.638 43.318 210.588 42.988 210.576 42.604C210.572 42.388 210.57 42.168 210.57 41.944C210.574 41.72 210.578 41.498 210.582 41.278C210.598 40.806 210.674 40.426 210.81 40.138C210.95 39.846 211.168 39.634 211.464 39.502C211.764 39.366 212.158 39.298 212.646 39.298C213.338 39.298 213.838 39.452 214.146 39.76C214.458 40.068 214.628 40.576 214.656 41.284C214.664 41.48 214.666 41.722 214.662 42.01C214.658 42.294 214.65 42.578 214.638 42.862H213.39C213.402 42.562 213.408 42.262 213.408 41.962C213.412 41.658 213.408 41.356 213.396 41.056C213.392 40.824 213.326 40.652 213.198 40.54C213.07 40.424 212.884 40.366 212.64 40.366C212.384 40.366 212.198 40.424 212.082 40.54C211.966 40.652 211.898 40.824 211.878 41.056C211.858 41.312 211.848 41.57 211.848 41.83C211.852 42.09 211.862 42.348 211.878 42.604C211.894 42.86 211.944 43.066 212.028 43.222C212.112 43.378 212.264 43.484 212.484 43.54L213.21 43.714C213.59 43.802 213.886 43.94 214.098 44.128C214.31 44.312 214.46 44.546 214.548 44.83C214.636 45.11 214.686 45.442 214.698 45.826C214.706 45.994 214.71 46.146 214.71 46.282C214.71 46.418 214.708 46.552 214.704 46.684C214.7 46.812 214.696 46.952 214.692 47.104C214.664 47.816 214.494 48.328 214.182 48.64C213.874 48.948 213.364 49.102 212.652 49.102ZM222.951 49.102C222.231 49.102 221.711 48.95 221.391 48.646C221.075 48.338 220.911 47.828 220.899 47.116C220.887 46.636 220.879 46.152 220.875 45.664C220.871 45.176 220.869 44.688 220.869 44.2C220.869 43.708 220.871 43.22 220.875 42.736C220.879 42.248 220.887 41.762 220.899 41.278C220.911 40.57 221.075 40.064 221.391 39.76C221.711 39.452 222.231 39.298 222.951 39.298C223.671 39.298 224.187 39.452 224.499 39.76C224.815 40.064 224.981 40.57 224.997 41.278C225.013 41.766 225.023 42.254 225.027 42.742C225.035 43.23 225.039 43.718 225.039 44.206C225.039 44.694 225.035 45.182 225.027 45.67C225.023 46.154 225.013 46.636 224.997 47.116C224.981 47.828 224.815 48.338 224.499 48.646C224.187 48.95 223.671 49.102 222.951 49.102ZM222.951 48.028C223.207 48.028 223.395 47.974 223.515 47.866C223.635 47.754 223.697 47.58 223.701 47.344C223.721 46.848 223.733 46.334 223.737 45.802C223.745 45.266 223.749 44.726 223.749 44.182C223.749 43.638 223.745 43.102 223.737 42.574C223.729 42.046 223.717 41.538 223.701 41.05C223.697 40.814 223.633 40.642 223.509 40.534C223.389 40.422 223.203 40.366 222.951 40.366C222.699 40.366 222.511 40.422 222.387 40.534C222.267 40.642 222.203 40.814 222.195 41.05C222.179 41.538 222.165 42.046 222.153 42.574C222.145 43.102 222.141 43.638 222.141 44.182C222.145 44.726 222.151 45.266 222.159 45.802C222.167 46.334 222.179 46.848 222.195 47.344C222.203 47.58 222.267 47.754 222.387 47.866C222.511 47.974 222.699 48.028 222.951 48.028ZM231.378 49V39.4H233.268C233.984 39.4 234.502 39.55 234.822 39.85C235.146 40.15 235.32 40.648 235.344 41.344C235.356 41.636 235.362 41.904 235.362 42.148C235.366 42.388 235.366 42.626 235.362 42.862C235.362 43.094 235.356 43.34 235.344 43.6C235.332 44.052 235.254 44.42 235.11 44.704C234.97 44.984 234.752 45.192 234.456 45.328L235.506 49H234.126L233.232 45.544H232.674V49H231.378ZM232.674 44.398H233.262C233.522 44.398 233.714 44.338 233.838 44.218C233.966 44.094 234.036 43.91 234.048 43.666C234.06 43.41 234.068 43.148 234.072 42.88C234.076 42.608 234.076 42.338 234.072 42.07C234.068 41.798 234.06 41.534 234.048 41.278C234.036 41.034 233.968 40.852 233.844 40.732C233.72 40.612 233.528 40.552 233.268 40.552H232.674V44.398ZM243.529 49.102C242.813 49.102 242.301 48.948 241.993 48.64C241.685 48.328 241.517 47.816 241.489 47.104C241.485 46.916 241.481 46.734 241.477 46.558C241.477 46.378 241.479 46.198 241.483 46.018C241.491 45.838 241.503 45.654 241.519 45.466H242.743C242.727 45.786 242.717 46.106 242.713 46.426C242.713 46.746 242.723 47.048 242.743 47.332C242.759 47.568 242.829 47.744 242.953 47.86C243.077 47.972 243.267 48.028 243.523 48.028C243.775 48.028 243.957 47.972 244.069 47.86C244.181 47.744 244.249 47.568 244.273 47.332C244.285 47.152 244.293 46.984 244.297 46.828C244.301 46.672 244.301 46.514 244.297 46.354C244.293 46.194 244.285 46.018 244.273 45.826C244.257 45.59 244.209 45.388 244.129 45.22C244.049 45.052 243.903 44.94 243.691 44.884L242.887 44.68C242.527 44.588 242.245 44.454 242.041 44.278C241.837 44.098 241.691 43.87 241.603 43.594C241.515 43.318 241.465 42.988 241.453 42.604C241.449 42.388 241.447 42.168 241.447 41.944C241.451 41.72 241.455 41.498 241.459 41.278C241.475 40.806 241.551 40.426 241.687 40.138C241.827 39.846 242.045 39.634 242.341 39.502C242.641 39.366 243.035 39.298 243.523 39.298C244.215 39.298 244.715 39.452 245.023 39.76C245.335 40.068 245.505 40.576 245.533 41.284C245.541 41.48 245.543 41.722 245.539 42.01C245.535 42.294 245.527 42.578 245.515 42.862H244.267C244.279 42.562 244.285 42.262 244.285 41.962C244.289 41.658 244.285 41.356 244.273 41.056C244.269 40.824 244.203 40.652 244.075 40.54C243.947 40.424 243.761 40.366 243.517 40.366C243.261 40.366 243.075 40.424 242.959 40.54C242.843 40.652 242.775 40.824 242.755 41.056C242.735 41.312 242.725 41.57 242.725 41.83C242.729 42.09 242.739 42.348 242.755 42.604C242.771 42.86 242.821 43.066 242.905 43.222C242.989 43.378 243.141 43.484 243.361 43.54L244.087 43.714C244.467 43.802 244.763 43.94 244.975 44.128C245.187 44.312 245.337 44.546 245.425 44.83C245.513 45.11 245.563 45.442 245.575 45.826C245.583 45.994 245.587 46.146 245.587 46.282C245.587 46.418 245.585 46.552 245.581 46.684C245.577 46.812 245.573 46.952 245.569 47.104C245.541 47.816 245.371 48.328 245.059 48.64C244.751 48.948 244.241 49.102 243.529 49.102Z" fill="#4A4A4A"/>
</g>
</g>
</svg>
