<svg width="224" height="230" viewBox="0 0 224 230" fill="none" xmlns="http://www.w3.org/2000/svg">
<g clip-path="url(#clip0_249_505)">
<path d="M146.646 26.7075C149.109 35.1381 152.007 43.4425 153.951 52.0214C155.113 57.2354 155.695 58.8557 156.004 62.848C155.384 61.7934 154.692 60.6818 154.315 60.1499C144.955 45.6112 123.056 37.7839 106.654 34.485C92.9258 32.3485 78.1367 34.2549 66.1066 41.5547C55.1025 48.9445 45.221 58.3572 38.5054 69.8467C21.0339 101.197 30.5431 141.665 55.8139 165.718C66.2152 175.442 78.0687 183.496 90.9554 189.597C105.551 195.678 121.179 199.143 136.814 201.413C123.109 196.664 105.791 188.722 95.4726 181.927C82.5489 172.449 70.1476 161.153 62.128 148.792C47.7639 127.256 44.1735 100.932 51.7587 82.2344C56.5495 72.3794 57.3768 71.3543 65.6021 62.0926C72.5479 55.2866 72.1777 54.5595 80.5363 50.0111C84.9199 47.9962 89.5356 46.5341 94.2761 45.6585C99.7949 44.7432 105.406 44.5472 110.967 45.0753C117.051 45.7892 133.055 48.6775 141.084 52.7285C146.844 55.0019 151.694 59.0643 155.759 63.594C145.48 66.4901 125.352 69.2413 106.947 72.7206C117.472 73.4076 165.111 79.9631 164.371 63.9044C162.328 50.1157 154.258 38.0603 146.646 26.7075Z" fill="black"/>
<path d="M100.272 47.9116L143.905 59.7821C129.411 72.2175 103.359 65.7511 100.272 47.9116Z" fill="#5FBEFB"/>
</g>
<defs>
<clipPath id="clip0_249_505">
<rect width="154.3" height="172.515" fill="white" transform="translate(0.216309 84.5566) rotate(-33.1296)"/>
</clipPath>
</defs>
</svg>
