<svg width="1128" height="422" viewBox="0 0 1128 422" fill="none" xmlns="http://www.w3.org/2000/svg">
<g id="sellers-hero-svg" clip-path="url(#clip0_97_536)">
<path id="Vector" d="M238.175 168.489C185.155 168.736 142 169.53 142 169.53C142 169.53 193.297 100.694 237.982 126.197C282.668 151.7 333.999 168.633 333.999 168.633C333.999 168.633 291.194 168.241 238.175 168.489Z" fill="#55ABE0"/>
<path id="Vector_2" d="M1032.17 156.959C979.155 157.206 936 158 936 158C936 158 987.297 89.1644 1031.98 114.667C1076.67 140.171 1128 157.104 1128 157.104C1128 157.104 1085.19 156.711 1032.17 156.959Z" fill="url(#paint0_linear_97_536)"/>
<path id="Vector_3" d="M482.933 422.47C536.467 422.47 579.865 414.411 579.865 404.47C579.865 394.529 536.467 386.47 482.933 386.47C429.398 386.47 386 394.529 386 404.47C386 414.411 429.398 422.47 482.933 422.47Z" fill="url(#paint1_linear_97_536)"/>
<g id="sale">
<path id="Vector_4" d="M634.685 192.365L561.13 77.1528L564.534 74.9474L634.33 184.276L691.205 75.1047L694.786 76.9954L634.685 192.365Z" fill="#2F5D7A"/>
<path id="Vector_5" d="M694.793 40.4491H519.613V37.4154C519.613 32.5019 518.644 27.6365 516.761 23.0971C514.878 18.5576 512.119 14.4331 508.64 10.9588C505.16 7.48443 501.03 4.72833 496.485 2.84804C491.939 0.967743 487.067 -3.9445e-06 482.147 0V0C477.227 -3.94449e-06 472.355 0.967744 467.809 2.84804C463.263 4.72833 459.133 7.48443 455.654 10.9588C452.175 14.4331 449.415 18.5576 447.532 23.0971C445.65 27.6365 444.68 32.5019 444.681 37.4154V40.4491H427.466C417.53 40.4491 408 44.3911 400.974 51.4079C393.947 58.4246 390 67.9413 390 77.8645C390 87.7876 393.947 97.3043 400.974 104.321C408 111.338 417.53 115.28 427.466 115.28H444.681V398.033C519.335 396.539 444.14 399.542 519.613 398.033V115.28H694.793C704.73 115.28 714.26 111.338 721.286 104.321C728.312 97.3043 732.26 87.7876 732.26 77.8645C732.26 67.9413 728.312 58.4246 721.286 51.4079C714.26 44.3911 704.73 40.4491 694.793 40.4491V40.4491Z" fill="#2F5D7A"/>
<path id="Vector_6" d="M481.186 91.186C488.774 91.186 494.926 84.7546 494.926 76.8211C494.926 68.8876 488.774 62.4561 481.186 62.4561C473.597 62.4561 467.446 68.8876 467.446 76.8211C467.446 84.7546 473.597 91.186 481.186 91.186Z" fill="url(#paint2_linear_97_536)"/>
<path id="Vector_7" d="M717.123 264.814H555.031C547.375 264.805 540.035 261.774 534.621 256.384C529.208 250.995 526.163 243.687 526.154 236.065V183.639C526.163 176.017 529.208 168.71 534.622 163.321C540.035 157.931 547.375 154.9 555.031 154.891H717.123C724.779 154.9 732.119 157.931 737.532 163.321C742.946 168.71 745.991 176.017 746 183.639V236.065C745.991 243.687 742.946 250.995 737.533 256.384C732.119 261.774 724.779 264.805 717.123 264.814V264.814Z" fill="#2F5D7A"/>
<path id="Vector_8" d="M689.618 194.863H583.785C577.482 194.863 572.372 203.252 572.372 213.6C572.372 223.948 577.482 232.337 583.785 232.337H689.618C695.922 232.337 701.031 223.948 701.031 213.6C701.031 203.252 695.922 194.863 689.618 194.863Z" fill="url(#paint3_linear_97_536)"/>
<g id="For Sale">
<path d="M588.485 207.503C587.645 207.53 586.998 207.85 586.545 208.463C586.105 209.076 585.885 210.136 585.885 211.643C585.885 212.136 585.931 212.483 586.025 212.683C586.118 212.87 586.165 212.976 586.165 213.003C585.445 213.003 584.905 212.856 584.545 212.563C584.198 212.256 584.025 211.756 584.025 211.063C584.025 210.116 584.258 209.256 584.725 208.483C585.191 207.696 585.931 207.063 586.945 206.583C587.971 206.103 589.271 205.863 590.845 205.863C591.165 205.863 591.591 205.896 592.125 205.963C593.085 206.056 593.765 206.103 594.165 206.103C594.871 206.103 595.471 206.023 595.965 205.863C595.925 205.983 595.851 206.25 595.745 206.663C595.638 207.063 595.445 207.41 595.165 207.703C594.898 207.983 594.531 208.17 594.065 208.263C593.278 208.263 592.345 208.136 591.265 207.883L590.425 211.863H593.345L593.025 213.343H590.105L588.485 220.863H585.605L588.485 207.503ZM601.844 220.943C600.858 220.943 600.078 220.69 599.504 220.183C598.931 219.676 598.644 218.876 598.644 217.783C598.644 216.876 598.831 215.87 599.204 214.763C599.578 213.656 600.178 212.703 601.004 211.903C601.831 211.09 602.871 210.683 604.124 210.683C605.831 210.683 606.684 211.75 606.684 213.883V213.903C606.724 213.916 606.798 213.923 606.904 213.923C607.344 213.923 607.851 213.81 608.424 213.583C608.998 213.343 609.518 213.056 609.984 212.723L610.164 213.263C609.778 213.676 609.271 214.03 608.644 214.323C608.031 214.603 607.358 214.803 606.624 214.923C606.518 216.136 606.244 217.196 605.804 218.103C605.364 219.01 604.798 219.71 604.104 220.203C603.411 220.696 602.658 220.943 601.844 220.943ZM602.644 219.143C602.964 219.143 603.284 218.963 603.604 218.603C603.924 218.23 604.204 217.73 604.444 217.103C604.684 216.463 604.858 215.756 604.964 214.983C604.604 214.903 604.424 214.623 604.424 214.143C604.424 213.596 604.631 213.236 605.044 213.063C605.018 212.623 604.951 212.323 604.844 212.163C604.738 211.99 604.551 211.903 604.284 211.903C603.844 211.903 603.418 212.223 603.004 212.863C602.591 213.503 602.258 214.27 602.004 215.163C601.751 216.056 601.624 216.843 601.624 217.523C601.624 218.163 601.698 218.596 601.844 218.823C601.991 219.036 602.258 219.143 602.644 219.143ZM614.973 210.863H617.853L617.593 212.103C618.047 211.703 618.453 211.396 618.813 211.183C619.187 210.97 619.587 210.863 620.013 210.863C620.44 210.863 620.773 211.01 621.013 211.303C621.267 211.596 621.393 211.95 621.393 212.363C621.393 212.75 621.267 213.09 621.013 213.383C620.76 213.676 620.407 213.823 619.953 213.823C619.66 213.823 619.46 213.756 619.353 213.623C619.26 213.476 619.187 213.27 619.133 213.003C619.093 212.83 619.053 212.703 619.013 212.623C618.973 212.543 618.9 212.503 618.793 212.503C618.513 212.503 618.273 212.563 618.073 212.683C617.887 212.79 617.64 212.983 617.333 213.263L615.733 220.863H612.853L614.973 210.863ZM642.169 221.223C641.329 221.223 640.589 221.076 639.949 220.783C639.309 220.49 638.816 220.083 638.469 219.563C638.122 219.03 637.949 218.416 637.949 217.723C637.949 217.136 638.069 216.603 638.309 216.123C638.562 215.643 638.896 215.263 639.309 214.983C639.736 214.703 640.202 214.563 640.709 214.563C641.176 214.563 641.569 214.683 641.889 214.923C642.209 215.15 642.409 215.47 642.489 215.883C641.796 215.883 641.242 216.07 640.829 216.443C640.416 216.803 640.209 217.296 640.209 217.923C640.209 218.496 640.382 218.956 640.729 219.303C641.076 219.65 641.536 219.823 642.109 219.823C642.816 219.823 643.396 219.59 643.849 219.123C644.316 218.643 644.549 218.043 644.549 217.323C644.549 216.696 644.376 216.103 644.029 215.543C643.682 214.983 643.162 214.303 642.469 213.503C641.749 212.676 641.202 211.97 640.829 211.383C640.469 210.783 640.289 210.13 640.289 209.423C640.289 208.73 640.482 208.11 640.869 207.563C641.256 207.003 641.789 206.563 642.469 206.243C643.149 205.923 643.916 205.763 644.769 205.763C645.849 205.763 646.709 206.016 647.349 206.523C648.002 207.03 648.329 207.71 648.329 208.563C648.329 209.123 648.189 209.576 647.909 209.923C647.629 210.27 647.262 210.443 646.809 210.443C646.302 210.443 645.896 210.236 645.589 209.823C645.842 209.636 646.042 209.39 646.189 209.083C646.336 208.776 646.409 208.456 646.409 208.123C646.409 207.696 646.282 207.356 646.029 207.103C645.776 206.85 645.429 206.723 644.989 206.723C644.456 206.723 644.016 206.916 643.669 207.303C643.336 207.676 643.169 208.156 643.169 208.743C643.169 209.276 643.322 209.776 643.629 210.243C643.936 210.696 644.416 211.283 645.069 212.003C645.602 212.576 646.029 213.07 646.349 213.483C646.682 213.896 646.962 214.376 647.189 214.923C647.429 215.456 647.549 216.036 647.549 216.663C647.549 217.516 647.309 218.29 646.829 218.983C646.362 219.676 645.716 220.223 644.889 220.623C644.076 221.023 643.169 221.223 642.169 221.223ZM656.975 220.983C656.215 220.983 655.582 220.723 655.075 220.203C654.568 219.683 654.315 218.87 654.315 217.763C654.315 216.776 654.508 215.743 654.895 214.663C655.295 213.57 655.882 212.65 656.655 211.903C657.442 211.143 658.375 210.763 659.455 210.763C660.002 210.763 660.408 210.856 660.675 211.043C660.942 211.23 661.075 211.476 661.075 211.783V211.923L661.295 210.863H664.175L662.735 217.663C662.682 217.863 662.655 218.076 662.655 218.303C662.655 218.876 662.928 219.163 663.475 219.163C663.848 219.163 664.168 218.99 664.435 218.643C664.715 218.296 664.935 217.843 665.095 217.283H665.935C665.442 218.723 664.828 219.703 664.095 220.223C663.375 220.73 662.648 220.983 661.915 220.983C661.355 220.983 660.902 220.83 660.555 220.523C660.222 220.203 660.022 219.743 659.955 219.143C659.568 219.69 659.135 220.136 658.655 220.483C658.188 220.816 657.628 220.983 656.975 220.983ZM658.275 219.043C658.608 219.043 658.935 218.89 659.255 218.583C659.588 218.263 659.815 217.83 659.935 217.283L660.895 212.763C660.895 212.59 660.828 212.423 660.695 212.263C660.562 212.09 660.355 212.003 660.075 212.003C659.542 212.003 659.062 212.316 658.635 212.943C658.208 213.556 657.875 214.303 657.635 215.183C657.395 216.05 657.275 216.816 657.275 217.483C657.275 218.15 657.368 218.576 657.555 218.763C657.755 218.95 657.995 219.043 658.275 219.043ZM672.982 220.983C672.342 220.983 671.822 220.783 671.422 220.383C671.036 219.983 670.842 219.383 670.842 218.583C670.842 218.25 670.896 217.816 671.002 217.283L673.142 207.263L676.102 206.863L673.802 217.663C673.749 217.863 673.722 218.076 673.722 218.303C673.722 218.57 673.782 218.763 673.902 218.883C674.036 218.99 674.249 219.043 674.542 219.043C674.929 219.043 675.289 218.883 675.622 218.563C675.956 218.23 676.196 217.803 676.342 217.283H677.182C676.689 218.723 676.056 219.703 675.282 220.223C674.509 220.73 673.742 220.983 672.982 220.983ZM685.054 220.983C684.081 220.983 683.321 220.73 682.774 220.223C682.228 219.703 681.954 218.896 681.954 217.803C681.954 216.883 682.134 215.87 682.494 214.763C682.854 213.656 683.441 212.703 684.254 211.903C685.068 211.09 686.101 210.683 687.354 210.683C688.821 210.683 689.554 211.323 689.554 212.603C689.554 213.35 689.341 214.036 688.914 214.663C688.488 215.29 687.921 215.796 687.214 216.183C686.508 216.556 685.754 216.77 684.954 216.823C684.928 217.116 684.914 217.316 684.914 217.423C684.914 218.53 685.328 219.083 686.154 219.083C686.528 219.083 686.928 218.983 687.354 218.783C687.781 218.583 688.168 218.33 688.514 218.023C688.154 219.996 687.001 220.983 685.054 220.983ZM685.094 215.863C685.601 215.85 686.074 215.683 686.514 215.363C686.968 215.043 687.328 214.636 687.594 214.143C687.874 213.636 688.014 213.11 688.014 212.563C688.014 212.016 687.848 211.743 687.514 211.743C687.048 211.743 686.581 212.17 686.114 213.023C685.661 213.863 685.321 214.81 685.094 215.863Z" fill="#F3F7FA"/>
<path d="M583.845 222.863H689.554V223.863H583.845V222.863Z" fill="#F3F7FA"/>
</g>
</g>
<path id="Vector_9" d="M163.5 188C200.779 188 231 157.779 231 120.5C231 83.2208 200.779 53 163.5 53C126.221 53 96 83.2208 96 120.5C96 157.779 126.221 188 163.5 188Z" fill="#FF6584"/>
<g id="Group 56">
<path id="Vector_10" d="M215 356.289H359.375V404.939H215V356.289Z" fill="#478EBA"/>
<path id="Vector_11" d="M378.527 356.289H215L219.42 295.845H374.107L378.527 356.289Z" fill="url(#paint4_linear_97_536)"/>
<path id="Vector_12" d="M288.661 300.268L324.018 341.547H253.304L288.661 300.268Z" fill="#478EBA"/>
<path id="Vector_13" d="M328.438 344.136H248.884L288.661 295.486L328.438 344.136ZM259.197 339.713H318.125L288.661 302.857L259.197 339.713Z" fill="#2F5D7A"/>
<path id="Vector_14" d="M284.241 316.485H294.554V331.227H284.241V316.485ZM238.572 363.66H268.036V391.671H238.572V363.66ZM328.438 371.031H352.009V391.671H328.438V371.031Z" fill="#F3F7FA"/>
<path id="Vector_15" d="M295.61 372.614H311.815V405.047H295.61V372.614Z" fill="#2F5D7A"/>
<path id="Vector_16" d="M334.331 287H352.009V319.433H334.331V287Z" fill="#2F5D7A"/>
<path id="Vector_17" d="M251.83 360.712H254.777V394.619H251.83V360.712Z" fill="#478EBA"/>
<path id="Vector_18" d="M237.098 378.403V375.454H270.982V378.403H237.098Z" fill="#478EBA"/>
<path id="Vector_19" d="M288.661 351.866H362.321V357.763H288.661V351.866Z" fill="#2F5D7A"/>
<path id="Vector_20" d="M290.134 353.341V404.939H285.714V353.341H290.134ZM321.071 351.866V404.939H316.652V351.866H321.071ZM362.321 353.341V404.939H357.902V353.341H362.321Z" fill="#2F5D7A"/>
<path id="Vector_21" d="M254.777 312.062L290.134 353.341H219.42L254.777 312.062Z" fill="#478EBA"/>
<path id="Vector_22" d="M295.027 357.65H214L255.25 309L295.027 357.65ZM225.786 353.227H284.714L255.25 317.845L225.786 353.227Z" fill="#2F5D7A"/>
<path id="Vector_23" d="M248.884 328.279H260.67V345.969H248.884V328.279Z" fill="#F3F7FA"/>
<path id="Vector_24" d="M362.322 351.866H378.527V404.939H362.322V351.866Z" fill="#2F5D7A"/>
<path id="Vector_25" d="M365.268 372.506H374.107V390.197H365.268V372.506Z" fill="url(#paint5_linear_97_536)"/>
<path id="Vector_26" d="M215 403H378.527V408.897H215V403Z" fill="#2F5D7A"/>
</g>
<path id="Vector_27" d="M95.8242 193.489C148.844 193.736 191.999 194.53 191.999 194.53C191.999 194.53 140.702 125.694 96.0166 151.197C51.3313 176.7 0 193.633 0 193.633C0 193.633 42.8049 193.241 95.8242 193.489Z" fill="#5FBEFB"/>
<g id="Group">
<path id="Vector_28" d="M222.144 408.09C222.186 408.446 222.198 408.777 222.174 409.102H204.232C204.069 408.777 203.93 408.44 203.809 408.09C201.616 401.807 205.223 391.35 200.649 375.844C197.253 364.338 190.914 355.338 187.958 351.146C184.327 345.989 180.211 341.23 175.443 333.628C174.41 331.983 173.347 330.2 172.247 328.254C171.878 327.604 167.63 320.056 168.017 319.821C168.198 319.712 169.322 321.237 169.703 321.749C173.063 326.279 175.014 328.26 177.812 331.519C179.51 333.495 181.517 335.935 184.333 339.7C191.554 349.344 195.162 354.164 196.419 357.772C196.751 358.736 198.522 363.953 201.857 370.422C203.561 373.723 204.413 375.374 204.879 375.241C206.196 374.862 204.42 361.194 198.836 347.531C197.881 345.206 197.168 343.718 195.814 340.905C193.615 336.315 181.366 310.803 172.362 295.532C171.232 293.611 170.15 291.858 169.153 290.321C168.959 290.032 168.772 289.749 168.591 289.478C167.334 287.611 166.222 286.135 165.297 285.183C164.808 284.677 163.563 283.243 161.067 280.364C160.076 279.219 159.351 278.37 158.862 277.749C158.789 277.659 158.723 277.569 158.668 277.49C158.076 276.719 157.907 276.346 158.046 276.147C158.245 275.864 159.013 276.027 159.853 276.322C159.943 276.352 160.04 276.388 160.131 276.424C161.043 276.762 161.968 277.201 162.276 277.352C165.104 278.707 167.866 281.135 170.422 284.02C171.371 285.087 172.283 286.213 173.165 287.37C176.005 291.105 178.483 295.171 180.356 298.514C182.653 302.635 184.031 305.665 184.031 305.665C190.442 319.779 197.555 335.923 197.929 335.784C198.34 335.634 190.454 315.538 188.158 304.622C187.39 300.966 187.251 298.339 188.261 297.833C188.297 297.815 188.333 297.797 188.375 297.785C188.533 297.731 188.678 297.737 188.756 297.743C188.756 297.743 189.693 297.623 190.678 297.833C191.905 298.098 193.3 301.502 194.66 306.279C198.195 318.592 201.555 340.001 201.555 340.001C204.915 361.416 210.015 378.747 211.224 378.555C211.895 378.446 210.934 373.067 211.828 364.097C212.457 357.808 213.17 358.001 215.454 346.628C219.08 328.586 220.893 319.568 220.893 319.52C220.875 319.14 220.826 318.375 220.941 317.58C221.062 316.719 221.37 315.815 222.101 315.303C223.213 314.52 225.002 314.857 225.727 315.303C226.307 315.664 226.603 316.327 226.67 317.279C227.069 323.267 218.439 340.628 215.454 364.097C213.967 375.79 213.152 382.169 215.454 390.603C217.732 398.964 221.702 404.289 222.144 408.09V408.09Z" fill="#2F5D7A"/>
<path id="Vector_29" d="M247.875 253.435C242.918 252.536 236.761 255.843 236.394 259.459C236.092 262.435 239.761 265.152 239.415 265.483C239.092 265.792 236.819 262.527 233.977 262.471C229.682 262.386 224.528 269.636 226.121 273.916C227.399 277.352 232.876 278.476 232.768 278.735C232.666 278.98 228.492 276.313 224.308 276.928C218.316 277.809 212.579 285.376 214.035 290.181C215.661 295.549 226.191 297.212 226.121 297.41C226.047 297.619 215.523 292.248 211.618 295.602C208.998 297.852 209.374 303.097 211.013 306.446C214.435 313.436 225.111 315.913 230.351 312.47C234.425 309.792 231.677 305.858 235.789 297.41C240.839 287.034 249.622 283.435 249.688 275.723C249.694 275.022 249.714 272.764 248.48 272.109C246.509 271.063 242.705 274.828 242.437 274.519C242.147 274.184 247.239 270.516 250.293 264.278C251.253 262.316 253.439 257.851 251.501 255.242C250.515 253.913 248.867 253.615 247.875 253.435V253.435Z" fill="#AEDBD8"/>
<path id="Vector_30" d="M220.078 241.989C215.12 241.09 208.963 244.398 208.596 248.013C208.294 250.989 211.963 253.706 211.618 254.037C211.294 254.346 209.021 251.081 206.179 251.025C201.885 250.94 196.731 258.19 198.323 262.471C199.601 265.907 205.079 267.031 204.97 267.29C204.868 267.534 200.695 264.868 196.51 265.483C190.519 266.363 184.781 273.931 186.237 278.735C187.864 284.104 198.393 285.766 198.323 285.964C198.249 286.173 187.726 280.803 183.82 284.157C181.2 286.407 181.576 291.651 183.216 295C186.638 301.99 197.314 304.467 202.553 301.024C206.627 298.347 203.88 294.413 207.992 285.964C213.042 275.589 221.824 271.989 221.891 264.278C221.897 263.577 221.916 261.319 220.682 260.663C218.711 259.617 214.907 263.383 214.639 263.073C214.349 262.738 219.441 259.071 222.495 252.832C223.456 250.87 225.641 246.406 223.704 243.796C222.717 242.468 221.07 242.169 220.078 241.989Z" fill="#AEDBD8"/>
<path id="Vector_31" d="M186.417 228.613C191.116 230.427 194.635 236.453 193.054 239.727C191.752 242.422 187.2 242.83 187.321 243.292C187.435 243.724 191.084 242.123 193.538 243.554C197.244 245.717 197.842 254.583 194.242 257.405C191.352 259.67 186.092 257.777 186.049 258.055C186.008 258.316 190.964 258.214 194.21 260.917C198.859 264.787 199.788 274.227 196.03 277.567C191.831 281.299 181.98 277.236 181.936 277.441C181.889 277.658 193.678 278.555 195.251 283.449C196.307 286.731 193.24 291.008 190.087 293.011C183.507 297.191 173.105 293.747 170.44 288.083C168.368 283.679 172.771 281.754 173.69 272.408C174.818 260.931 169.213 253.29 173.196 246.679C173.558 246.077 174.724 244.142 176.12 244.225C178.349 244.359 179.621 249.55 180.011 249.426C180.434 249.291 178.012 243.513 178.676 236.603C178.884 234.429 179.359 229.484 182.378 228.267C183.915 227.648 185.477 228.251 186.417 228.613Z" fill="#AEDBD8"/>
<path id="Vector_32" d="M133.053 231.89C130.091 235.953 130.41 242.918 133.519 244.816C136.078 246.378 140.125 244.26 140.275 244.714C140.414 245.139 136.477 245.765 135.193 248.293C133.254 252.114 137.572 259.887 142.132 260.313C145.793 260.655 149.184 256.223 149.371 256.432C149.548 256.63 145.327 259.222 144.069 263.248C142.266 269.012 146.618 277.447 151.593 278.223C157.15 279.09 163.219 270.353 163.368 270.502C163.525 270.659 154.107 277.783 155.445 282.745C156.342 286.074 161.246 288.011 164.984 287.991C172.786 287.948 179.656 279.433 178.815 273.234C178.162 268.413 173.415 269.175 167.561 261.817C160.373 252.782 160.928 243.332 153.987 239.928C153.355 239.618 151.323 238.622 150.195 239.446C148.395 240.763 150.149 245.812 149.753 245.919C149.324 246.034 148.218 239.87 143.903 234.421C142.546 232.708 139.458 228.808 136.259 229.417C134.631 229.727 133.646 231.077 133.053 231.89L133.053 231.89Z" fill="#AEDBD8"/>
<path id="Vector_33" d="M137.284 276.467C134.321 280.53 134.641 287.496 137.749 289.393C140.308 290.955 144.356 288.837 144.505 289.292C144.644 289.716 140.707 290.342 139.424 292.871C137.484 296.691 141.803 304.465 146.362 304.891C150.023 305.233 153.414 300.8 153.601 301.01C153.778 301.208 149.558 303.8 148.299 307.825C146.496 313.589 150.849 322.024 155.823 322.8C161.381 323.668 167.45 314.931 167.598 315.079C167.756 315.237 158.337 322.36 159.675 327.323C160.573 330.652 165.476 332.588 169.214 332.568C177.017 332.526 183.886 324.01 183.046 317.811C182.392 312.991 177.645 313.752 171.792 306.395C164.603 297.359 165.158 287.909 158.217 284.505C157.586 284.196 155.553 283.199 154.426 284.023C152.625 285.34 154.379 290.39 153.983 290.496C153.554 290.612 152.448 284.447 148.133 278.999C146.776 277.285 143.688 273.386 140.49 273.994C138.861 274.304 137.876 275.655 137.284 276.467H137.284Z" fill="#AEDBD8"/>
</g>
<g id="Group 58">
<path id="Vector_34" d="M760.049 391.782C758.74 390.473 754.813 390.473 753.505 393.091C752.774 394.283 752.327 395.626 752.196 397.018C752.196 393.091 750.887 381.311 745.651 381.311C741.725 381.311 741.725 391.782 741.725 397.018C739.107 391.782 737.798 389.164 735.181 389.164C727.327 389.164 736.489 406.18 736.489 406.18H754.813L757.431 402.253C758.507 400.617 759.385 398.86 760.049 397.018C760.225 396.154 760.225 395.264 760.049 394.4C760.348 393.553 760.348 392.629 760.049 391.782Z" fill="#AEDBD8"/>
<path id="Vector_35" d="M756.122 291H890.935V406.18H756.122V291Z" fill="url(#paint6_linear_97_536)"/>
<path id="Vector_36" d="M756.122 387.856H890.935V389.164H756.122V387.856ZM756.122 380.002H890.935V381.311H756.122V380.002ZM756.122 372.149H890.935H756.122ZM756.122 362.987H890.935V364.296H756.122V362.987ZM756.122 355.134H890.935V356.443H756.122V355.134ZM756.122 347.281H890.935V348.59H756.122V347.281ZM756.122 339.428H890.935H756.122ZM756.122 330.266H890.935V331.575H756.122V330.266ZM756.122 322.413H890.935V323.721H756.122V322.413ZM756.122 314.559H890.935V315.868H756.122V314.559ZM756.122 305.397H890.935V306.706H756.122V305.397ZM756.122 297.544H890.935V298.853H756.122V297.544ZM901.405 335.501H931.509V406.18H901.405V335.501Z" fill="#2F5D7A"/>
<path id="Vector_37" d="M756.122 291H805.859V339.428H756.122V291Z" fill="#2F5D7A"/>
<path id="Vector_38" d="M745.651 331.575H805.859V340.737H745.651V331.575Z" fill="#F3F7FA"/>
<path id="Vector_39" d="M783.608 362.987H805.859V400.944H783.608V362.987Z" fill="#2F5D7A"/>
<path id="Vector_40" d="M811.094 366.914H821.565V376.076H811.094V366.914ZM828.109 366.914H838.58V376.076H828.109V366.914ZM858.213 309.324H867.375V319.795H858.213V309.324ZM875.228 309.324H885.699V319.795H875.228V309.324ZM778.373 361.678H805.859V366.914H778.373V361.678Z" fill="#F3F7FA"/>
<path id="Vector_41" d="M901.405 398.326H931.509V399.635H901.405V398.326ZM901.405 390.473H931.509V391.782H901.405V390.473ZM901.405 381.311H931.509V382.62H901.405V381.311ZM901.405 373.458H931.509V374.767H901.405V373.458ZM901.405 365.605H931.509V366.914H901.405V365.605ZM901.405 357.752H931.509H901.405ZM901.405 348.59H931.509V349.899H901.405V348.59ZM851.669 335.501H901.405V406.18H851.669V335.501Z" fill="url(#paint7_linear_97_536)"/>
<path id="Vector_42" d="M851.669 398.326H901.405V399.635H851.669V398.326ZM851.669 390.473H901.405V391.782H851.669V390.473ZM851.669 381.311H901.405V382.62H851.669V381.311ZM851.669 373.458H901.405V374.767H851.669V373.458ZM851.669 365.605H901.405V366.914H851.669V365.605ZM851.669 357.752H901.405H851.669ZM851.669 348.59H901.405V349.899H851.669V348.59Z" fill="#2F5D7A"/>
<path id="Vector_43" d="M756.122 325.03H805.859V326.339H756.122V325.03ZM756.122 317.177H805.859H756.122ZM756.122 308.015H805.859V309.324H756.122V308.015ZM756.122 300.162H805.859V301.471H756.122V300.162Z" fill="url(#paint8_linear_97_536)"/>
<path id="Vector_44" d="M846.433 334.192H905.332V343.354H846.433V334.192Z" fill="#F3F7FA"/>
<path id="Vector_45" d="M902.714 334.192H939.362V343.354H902.714V334.192Z" fill="#2F5D7A"/>
<path id="Vector_46" d="M751.473 403.47H857.491V408.705H751.473V403.47Z" fill="#2F5D7A"/>
</g>
<g id="Group_2">
<path id="Vector_47" d="M949.954 408.351C949.997 408.707 950.009 409.039 949.984 409.365H932.004C931.841 409.039 931.701 408.701 931.58 408.351C929.382 402.054 932.997 391.574 928.413 376.035C925.009 364.504 918.657 355.485 915.695 351.283C912.055 346.116 907.931 341.346 903.153 333.728C902.118 332.08 901.052 330.293 899.949 328.343C899.58 327.691 895.323 320.126 895.71 319.891C895.892 319.782 897.018 321.31 897.4 321.823C900.767 326.363 902.723 328.349 905.527 331.615C907.229 333.595 909.239 336.04 912.062 339.813C919.298 349.478 922.914 354.308 924.174 357.924C924.507 358.89 926.281 364.118 929.624 370.602C931.332 373.91 932.186 375.564 932.652 375.431C933.972 375.051 932.192 361.353 926.596 347.661C925.639 345.331 924.925 343.84 923.568 341.02C921.364 336.42 909.088 310.854 900.064 295.55C898.932 293.624 897.848 291.867 896.849 290.328C896.655 290.038 896.467 289.754 896.286 289.483C895.026 287.611 893.912 286.132 892.985 285.178C892.494 284.671 891.247 283.234 888.746 280.349C887.753 279.202 887.026 278.35 886.535 277.729C886.463 277.638 886.396 277.547 886.342 277.469C885.748 276.696 885.578 276.322 885.718 276.123C885.918 275.839 886.687 276.002 887.528 276.298C887.619 276.328 887.716 276.364 887.807 276.4C888.722 276.738 889.648 277.179 889.957 277.33C892.791 278.688 895.559 281.121 898.12 284.013C899.071 285.082 899.986 286.211 900.87 287.37C903.716 291.113 906.199 295.188 908.077 298.538C910.378 302.667 911.759 305.704 911.759 305.704C918.184 319.849 925.312 336.028 925.688 335.889C926.099 335.738 918.196 315.599 915.895 304.66C915.126 300.995 914.987 298.363 915.998 297.856C916.034 297.838 916.071 297.82 916.113 297.808C916.27 297.753 916.416 297.759 916.495 297.765C916.495 297.765 917.433 297.645 918.42 297.856C919.65 298.122 921.049 301.532 922.411 306.32C925.954 318.659 929.321 340.115 929.321 340.115C932.688 361.576 937.8 378.945 939.011 378.752C939.683 378.643 938.72 373.252 939.616 364.263C940.246 357.96 940.961 358.153 943.25 346.756C946.884 328.675 948.701 319.637 948.701 319.589C948.682 319.209 948.634 318.442 948.749 317.645C948.87 316.782 949.179 315.876 949.912 315.363C951.026 314.578 952.819 314.916 953.545 315.363C954.127 315.725 954.424 316.389 954.49 317.343C954.89 323.344 946.242 340.743 943.25 364.263C941.76 375.981 940.943 382.374 943.25 390.826C945.533 399.205 949.512 404.542 949.954 408.351V408.351Z" fill="#2F5D7A"/>
<path id="Vector_48" d="M974.152 257.49C969.184 256.589 963.014 259.904 962.646 263.527C962.343 266.509 966.021 269.232 965.674 269.564C965.35 269.874 963.072 266.602 960.224 266.545C955.92 266.46 950.755 273.726 952.351 278.015C953.632 281.459 959.121 282.585 959.012 282.845C958.91 283.09 954.728 280.418 950.534 281.034C944.53 281.916 938.78 289.5 940.239 294.315C941.869 299.695 952.421 301.361 952.351 301.56C952.277 301.77 941.73 296.387 937.816 299.749C935.191 302.003 935.567 307.259 937.211 310.615C940.64 317.62 951.339 320.103 956.59 316.652C960.673 313.969 957.919 310.027 962.04 301.56C967.101 291.162 975.903 287.555 975.969 279.827C975.975 279.124 975.995 276.861 974.758 276.204C972.783 275.156 968.971 278.93 968.702 278.619C968.411 278.283 973.514 274.608 976.575 268.356C977.538 266.39 979.728 261.916 977.786 259.301C976.798 257.969 975.147 257.67 974.152 257.49Z" fill="#AEDBD8"/>
<path id="Vector_49" d="M946.581 245.636C941.613 244.735 935.442 248.05 935.075 251.673C934.772 254.655 938.449 257.378 938.103 257.71C937.779 258.02 935.5 254.748 932.652 254.691C928.349 254.606 923.183 261.872 924.779 266.162C926.061 269.605 931.55 270.732 931.441 270.991C931.339 271.236 927.156 268.564 922.963 269.18C916.958 270.063 911.209 277.647 912.667 282.462C914.297 287.842 924.85 289.507 924.779 289.706C924.705 289.916 914.159 284.533 910.245 287.895C907.62 290.149 907.996 295.405 909.639 298.761C913.069 305.767 923.768 308.249 929.019 304.798C933.101 302.115 930.348 298.173 934.469 289.706C939.53 279.308 948.331 275.701 948.398 267.973C948.404 267.27 948.424 265.007 947.187 264.351C945.212 263.302 941.399 267.076 941.131 266.765C940.84 266.43 945.943 262.755 949.004 256.502C949.966 254.536 952.156 250.062 950.215 247.447C949.226 246.116 947.575 245.816 946.581 245.636Z" fill="#AEDBD8"/>
<path id="Vector_50" d="M912.561 232.615C917.27 234.432 920.796 240.472 919.212 243.753C917.908 246.454 913.346 246.862 913.468 247.325C913.581 247.758 917.238 246.154 919.697 247.588C923.412 249.755 924.011 258.641 920.403 261.468C917.507 263.738 912.235 261.842 912.192 262.12C912.151 262.382 917.118 262.28 920.371 264.988C925.03 268.866 925.961 278.327 922.195 281.674C917.987 285.414 908.115 281.342 908.07 281.548C908.024 281.765 919.837 282.665 921.415 287.569C922.473 290.858 919.399 295.145 916.239 297.152C909.645 301.341 899.22 297.889 896.549 292.213C894.473 287.8 898.886 285.87 899.807 276.504C900.937 265.002 895.32 257.345 899.311 250.719C899.674 250.116 900.843 248.176 902.242 248.26C904.476 248.394 905.75 253.597 906.142 253.472C906.565 253.337 904.138 247.547 904.803 240.621C905.012 238.443 905.488 233.488 908.514 232.268C910.054 231.647 911.619 232.251 912.561 232.615L912.561 232.615Z" fill="#AEDBD8"/>
<path id="Vector_51" d="M859.058 235.542C856.089 239.614 856.409 246.595 859.525 248.496C862.089 250.061 866.145 247.939 866.295 248.394C866.435 248.82 862.489 249.447 861.202 251.981C859.259 255.81 863.587 263.6 868.156 264.027C871.825 264.37 875.223 259.928 875.411 260.138C875.588 260.336 871.358 262.934 870.097 266.968C868.291 272.744 872.652 281.198 877.637 281.976C883.207 282.845 889.289 274.089 889.438 274.238C889.596 274.395 880.157 281.534 881.498 286.508C882.397 289.844 887.311 291.785 891.057 291.764C898.877 291.722 905.761 283.188 904.919 276.975C904.264 272.145 899.507 272.908 893.64 265.534C886.436 256.479 886.993 247.009 880.036 243.598C879.404 243.287 877.367 242.288 876.237 243.115C874.432 244.434 876.19 249.495 875.793 249.602C875.364 249.717 874.255 243.54 869.931 238.079C868.571 236.362 865.476 232.454 862.271 233.064C860.639 233.374 859.652 234.728 859.058 235.542L859.058 235.542Z" fill="#AEDBD8"/>
<path id="Vector_52" d="M863.297 280.216C860.328 284.288 860.648 291.268 863.764 293.17C866.328 294.735 870.384 292.613 870.534 293.068C870.674 293.493 866.728 294.121 865.442 296.655C863.498 300.483 867.826 308.274 872.396 308.701C876.064 309.044 879.462 304.601 879.65 304.812C879.827 305.01 875.598 307.608 874.336 311.642C872.53 317.418 876.892 325.872 881.876 326.649C887.446 327.518 893.528 318.763 893.677 318.912C893.835 319.069 884.396 326.208 885.737 331.182C886.636 334.517 891.55 336.459 895.297 336.438C903.116 336.396 910 327.862 909.158 321.649C908.503 316.818 903.746 317.582 897.88 310.208C890.676 301.153 891.232 291.683 884.276 288.271C883.643 287.961 881.606 286.962 880.476 287.788C878.672 289.108 880.43 294.169 880.032 294.275C879.603 294.391 878.494 288.213 874.17 282.753C872.81 281.035 869.716 277.128 866.51 277.738C864.878 278.048 863.891 279.401 863.297 280.216H863.297Z" fill="#AEDBD8"/>
</g>
<g id="Group_3">
<path id="Vector_53" d="M704.609 407.821C704.567 408.177 704.555 408.509 704.579 408.835H722.559C722.723 408.509 722.862 408.171 722.983 407.821C725.182 401.525 721.566 391.044 726.151 375.505C729.554 363.975 735.907 354.955 738.868 350.754C742.508 345.586 746.632 340.817 751.41 333.198C752.446 331.55 753.512 329.763 754.614 327.813C754.983 327.161 759.241 319.597 758.853 319.361C758.672 319.252 757.545 320.78 757.164 321.293C753.796 325.833 751.84 327.819 749.036 331.085C747.335 333.065 745.324 335.51 742.502 339.283C735.265 348.948 731.65 353.778 730.39 357.394C730.057 358.36 728.282 363.588 724.939 370.072C723.232 373.38 722.378 375.034 721.911 374.902C720.591 374.521 722.372 360.823 727.967 347.131C728.924 344.801 729.639 343.31 730.995 340.491C733.2 335.89 745.475 310.324 754.499 295.02C755.631 293.094 756.715 291.337 757.715 289.798C757.909 289.508 758.096 289.224 758.278 288.953C759.538 287.081 760.652 285.602 761.578 284.648C762.069 284.141 763.317 282.704 765.818 279.819C766.811 278.672 767.538 277.821 768.028 277.199C768.101 277.108 768.167 277.018 768.222 276.939C768.815 276.166 768.985 275.792 768.846 275.593C768.646 275.309 767.877 275.472 767.035 275.768C766.944 275.798 766.847 275.834 766.756 275.871C765.842 276.209 764.915 276.649 764.607 276.8C761.772 278.159 759.005 280.592 756.443 283.483C755.492 284.552 754.578 285.681 753.694 286.84C750.847 290.583 748.364 294.658 746.487 298.008C744.186 302.138 742.805 305.174 742.805 305.174C736.379 319.319 729.251 335.498 728.876 335.359C728.464 335.208 736.367 315.069 738.668 304.13C739.438 300.465 739.577 297.833 738.566 297.326C738.529 297.308 738.493 297.29 738.45 297.278C738.293 297.223 738.148 297.23 738.069 297.236C738.069 297.236 737.13 297.115 736.143 297.326C734.914 297.592 733.515 301.003 732.152 305.79C728.609 318.13 725.242 339.585 725.242 339.585C721.875 361.047 716.764 378.415 715.553 378.222C714.88 378.113 715.843 372.722 714.947 363.733C714.317 357.43 713.603 357.624 711.313 346.226C707.68 328.145 705.863 319.108 705.863 319.059C705.881 318.679 705.93 317.912 705.814 317.115C705.693 316.252 705.385 315.347 704.652 314.833C703.537 314.049 701.745 314.387 701.018 314.833C700.437 315.196 700.14 315.86 700.073 316.814C699.674 322.814 708.322 340.213 711.313 363.733C712.803 375.451 713.621 381.844 711.313 390.296C709.03 398.675 705.051 404.012 704.609 407.821V407.821Z" fill="#2F5D7A"/>
<path id="Vector_54" d="M680.411 256.96C685.379 256.059 691.55 259.374 691.917 262.997C692.22 265.979 688.543 268.702 688.889 269.034C689.213 269.344 691.492 266.072 694.34 266.015C698.643 265.93 703.809 273.196 702.213 277.486C700.932 280.929 695.442 282.056 695.551 282.315C695.654 282.56 699.836 279.888 704.03 280.504C710.034 281.387 715.784 288.971 714.325 293.786C712.695 299.166 702.143 300.831 702.213 301.03C702.287 301.24 712.833 295.857 716.747 299.219C719.373 301.473 718.996 306.729 717.353 310.085C713.923 317.091 703.224 319.573 697.974 316.122C693.891 313.439 696.644 309.497 692.523 301.03C687.462 290.632 678.661 287.025 678.594 279.297C678.588 278.594 678.569 276.331 679.805 275.675C681.781 274.626 685.593 278.4 685.861 278.089C686.152 277.754 681.049 274.079 677.989 267.826C677.026 265.86 674.836 261.386 676.777 258.771C677.766 257.44 679.417 257.14 680.411 256.96Z" fill="#AEDBD8"/>
<path id="Vector_55" d="M707.982 245.106C712.951 244.205 719.121 247.52 719.489 251.143C719.791 254.125 716.114 256.848 716.461 257.18C716.785 257.49 719.063 254.218 721.911 254.162C726.215 254.076 731.38 261.342 729.784 265.632C728.503 269.075 723.014 270.202 723.122 270.461C723.225 270.706 727.407 268.034 731.601 268.65C737.605 269.533 743.355 277.117 741.896 281.932C740.266 287.312 729.714 288.978 729.784 289.176C729.858 289.386 740.404 284.004 744.319 287.365C746.944 289.62 746.567 294.875 744.924 298.232C741.495 305.237 730.795 307.719 725.545 304.269C721.462 301.586 724.215 297.643 720.094 289.176C715.034 278.778 706.232 275.171 706.165 267.443C706.159 266.74 706.14 264.477 707.377 263.821C709.352 262.772 713.164 266.546 713.433 266.236C713.723 265.9 708.62 262.225 705.56 255.973C704.597 254.006 702.407 249.532 704.349 246.917C705.337 245.586 706.988 245.286 707.982 245.106Z" fill="#AEDBD8"/>
<path id="Vector_56" d="M742.002 232.085C737.293 233.903 733.767 239.942 735.351 243.223C736.655 245.924 741.218 246.332 741.096 246.795C740.982 247.228 737.325 245.624 734.866 247.058C731.152 249.226 730.552 258.111 734.16 260.939C737.057 263.209 742.328 261.312 742.372 261.59C742.412 261.852 737.446 261.75 734.192 264.459C729.534 268.337 728.602 277.797 732.369 281.144C736.577 284.884 746.449 280.812 746.493 281.018C746.54 281.236 734.726 282.135 733.149 287.039C732.091 290.328 735.165 294.615 738.324 296.622C744.919 300.811 755.344 297.359 758.014 291.683C760.091 287.27 755.677 285.341 754.757 275.975C753.626 264.473 759.243 256.815 755.252 250.189C754.889 249.587 753.721 247.647 752.322 247.73C750.088 247.864 748.813 253.067 748.422 252.942C747.998 252.807 750.425 247.017 749.76 240.092C749.551 237.913 749.075 232.958 746.05 231.738C744.51 231.117 742.944 231.721 742.002 232.085L742.002 232.085Z" fill="#AEDBD8"/>
<path id="Vector_57" d="M795.506 235.013C798.475 239.084 798.154 246.065 795.039 247.966C792.474 249.531 788.418 247.409 788.269 247.864C788.129 248.29 792.075 248.917 793.361 251.451C795.304 255.28 790.977 263.07 786.407 263.497C782.739 263.84 779.34 259.398 779.153 259.608C778.976 259.806 783.205 262.404 784.467 266.438C786.273 272.214 781.911 280.668 776.926 281.446C771.356 282.315 765.274 273.559 765.125 273.708C764.968 273.866 774.407 281.004 773.066 285.978C772.166 289.314 767.252 291.255 763.506 291.235C755.687 291.192 748.803 282.658 749.645 276.446C750.299 271.615 755.057 272.378 760.923 265.004C768.127 255.949 767.571 246.479 774.527 243.068C775.16 242.758 777.197 241.759 778.327 242.585C780.131 243.904 778.373 248.965 778.77 249.072C779.2 249.187 780.309 243.01 784.633 237.549C785.993 235.832 789.087 231.924 792.293 232.534C793.925 232.845 794.912 234.198 795.506 235.013L795.506 235.013Z" fill="#AEDBD8"/>
<path id="Vector_58" d="M791.266 279.686C794.235 283.758 793.915 290.739 790.8 292.64C788.235 294.205 784.179 292.083 784.03 292.538C783.89 292.964 787.836 293.591 789.122 296.125C791.065 299.954 786.738 307.744 782.168 308.171C778.5 308.514 775.101 304.072 774.913 304.282C774.736 304.48 778.966 307.078 780.227 311.112C782.034 316.888 777.672 325.342 772.687 326.12C767.117 326.989 761.035 318.233 760.886 318.382C760.729 318.539 770.168 325.678 768.826 330.652C767.927 333.988 763.013 335.929 759.267 335.908C751.447 335.866 744.563 327.332 745.405 321.119C746.06 316.289 750.818 317.052 756.684 309.678C763.888 300.623 763.331 291.153 770.288 287.742C770.921 287.431 772.957 286.432 774.087 287.259C775.892 288.578 774.134 293.639 774.531 293.746C774.961 293.861 776.069 287.684 780.393 282.223C781.753 280.506 784.848 276.598 788.053 277.208C789.686 277.518 790.672 278.872 791.266 279.686H791.266Z" fill="#AEDBD8"/>
</g>
<g id="Group_4">
<path id="Vector_59" d="M383.549 408.376C383.507 408.732 383.495 409.064 383.519 409.39H401.499C401.663 409.064 401.802 408.726 401.923 408.376C404.122 402.079 400.506 391.599 405.091 376.06C408.494 364.529 414.847 355.51 417.808 351.308C421.448 346.14 425.572 341.371 430.35 333.752C431.386 332.104 432.452 330.317 433.554 328.367C433.923 327.715 438.181 320.151 437.793 319.916C437.612 319.807 436.485 321.334 436.104 321.847C432.736 326.387 430.78 328.373 427.976 331.639C426.275 333.62 424.264 336.065 421.442 339.838C414.205 349.503 410.589 354.333 409.33 357.949C408.997 358.915 407.222 364.143 403.879 370.626C402.172 373.935 401.318 375.589 400.851 375.456C399.531 375.076 401.312 361.378 406.907 347.686C407.864 345.356 408.579 343.864 409.935 341.045C412.14 336.445 424.415 310.878 433.439 295.574C434.571 293.649 435.655 291.892 436.655 290.352C436.848 290.063 437.036 289.779 437.218 289.507C438.478 287.636 439.592 286.157 440.518 285.203C441.009 284.696 442.257 283.259 444.758 280.373C445.751 279.226 446.478 278.375 446.968 277.753C447.041 277.663 447.107 277.572 447.162 277.494C447.755 276.721 447.925 276.347 447.786 276.147C447.586 275.864 446.817 276.027 445.975 276.322C445.884 276.353 445.787 276.389 445.696 276.425C444.782 276.763 443.855 277.204 443.546 277.355C440.712 278.713 437.945 281.146 435.383 284.038C434.432 285.106 433.518 286.235 432.633 287.394C429.787 291.137 427.304 295.212 425.427 298.563C423.125 302.692 421.745 305.729 421.745 305.729C415.319 319.873 408.191 336.053 407.816 335.914C407.404 335.763 415.307 315.623 417.608 304.684C418.378 301.02 418.517 298.388 417.505 297.881C417.469 297.862 417.433 297.844 417.39 297.832C417.233 297.778 417.088 297.784 417.009 297.79C417.009 297.79 416.07 297.669 415.083 297.881C413.854 298.146 412.455 301.557 411.092 306.344C407.549 318.684 404.182 340.14 404.182 340.14C400.815 361.601 395.704 378.97 394.493 378.776C393.82 378.668 394.783 373.277 393.887 364.288C393.257 357.985 392.543 358.178 390.253 346.78C386.62 328.699 384.803 319.662 384.803 319.614C384.821 319.233 384.869 318.467 384.754 317.67C384.633 316.807 384.324 315.901 383.592 315.388C382.477 314.603 380.685 314.941 379.958 315.388C379.377 315.75 379.08 316.414 379.013 317.368C378.614 323.369 387.262 340.767 390.253 364.288C391.743 376.005 392.561 382.399 390.253 390.85C387.97 399.23 383.991 404.566 383.549 408.376V408.376Z" fill="#2F5D7A"/>
<path id="Vector_60" d="M361.411 254.49C366.379 253.589 372.55 256.904 372.917 260.527C373.22 263.509 369.543 266.232 369.889 266.564C370.213 266.874 372.492 263.602 375.34 263.545C379.643 263.46 384.809 270.726 383.213 275.015C381.932 278.459 376.442 279.585 376.551 279.845C376.654 280.09 380.836 277.418 385.03 278.034C391.034 278.916 396.784 286.5 395.325 291.315C393.695 296.695 383.143 298.361 383.213 298.56C383.287 298.77 393.833 293.387 397.747 296.749C400.373 299.003 399.996 304.259 398.353 307.615C394.923 314.62 384.224 317.103 378.974 313.652C374.891 310.969 377.644 307.027 373.523 298.56C368.462 288.162 359.661 284.555 359.594 276.827C359.588 276.124 359.569 273.861 360.805 273.204C362.781 272.156 366.593 275.93 366.861 275.619C367.152 275.283 362.049 271.608 358.989 265.356C358.026 263.39 355.836 258.916 357.777 256.301C358.766 254.969 360.417 254.67 361.411 254.49Z" fill="#AEDBD8"/>
<path id="Vector_61" d="M388.982 242.636C393.951 241.735 400.121 245.05 400.489 248.673C400.791 251.655 397.114 254.378 397.461 254.71C397.785 255.02 400.063 251.748 402.911 251.691C407.215 251.606 412.38 258.872 410.784 263.162C409.503 266.605 404.014 267.732 404.122 267.991C404.225 268.236 408.407 265.564 412.601 266.18C418.605 267.063 424.355 274.647 422.896 279.462C421.266 284.842 410.714 286.507 410.784 286.706C410.858 286.916 421.404 281.533 425.319 284.895C427.944 287.149 427.567 292.405 425.924 295.761C422.495 302.767 411.795 305.249 406.545 301.798C402.462 299.115 405.215 295.173 401.094 286.706C396.034 276.308 387.232 272.701 387.165 264.973C387.159 264.27 387.14 262.007 388.377 261.351C390.352 260.302 394.164 264.076 394.433 263.765C394.723 263.43 389.62 259.755 386.56 253.502C385.597 251.536 383.407 247.062 385.349 244.447C386.337 243.116 387.988 242.816 388.982 242.636Z" fill="#AEDBD8"/>
<path id="Vector_62" d="M423.002 229.615C418.293 231.432 414.767 237.472 416.351 240.753C417.655 243.454 422.218 243.862 422.096 244.325C421.982 244.758 418.325 243.154 415.866 244.588C412.152 246.755 411.552 255.641 415.16 258.468C418.057 260.738 423.328 258.842 423.372 259.12C423.412 259.382 418.446 259.28 415.192 261.988C410.534 265.866 409.602 275.327 413.369 278.674C417.577 282.414 427.449 278.342 427.493 278.548C427.54 278.765 415.726 279.665 414.149 284.569C413.091 287.858 416.165 292.145 419.324 294.152C425.919 298.341 436.344 294.889 439.014 289.213C441.091 284.8 436.677 282.87 435.757 273.504C434.626 262.002 440.243 254.345 436.252 247.719C435.889 247.116 434.721 245.176 433.322 245.26C431.088 245.394 429.813 250.597 429.422 250.472C428.998 250.337 431.425 244.547 430.76 237.621C430.551 235.443 430.075 230.488 427.05 229.268C425.51 228.647 423.944 229.251 423.002 229.615L423.002 229.615Z" fill="#AEDBD8"/>
<path id="Vector_63" d="M476.506 232.542C479.475 236.614 479.154 243.595 476.039 245.496C473.474 247.061 469.418 244.939 469.269 245.394C469.129 245.82 473.075 246.447 474.361 248.981C476.304 252.81 471.977 260.6 467.407 261.027C463.739 261.37 460.34 256.928 460.153 257.138C459.976 257.336 464.205 259.934 465.467 263.968C467.273 269.744 462.911 278.198 457.926 278.976C452.356 279.845 446.274 271.089 446.125 271.238C445.968 271.395 455.407 278.534 454.066 283.508C453.166 286.844 448.252 288.785 444.506 288.764C436.687 288.722 429.803 280.188 430.645 273.975C431.299 269.145 436.057 269.908 441.923 262.534C449.127 253.479 448.571 244.009 455.527 240.598C456.16 240.287 458.197 239.288 459.327 240.115C461.131 241.434 459.373 246.495 459.77 246.602C460.2 246.717 461.309 240.54 465.633 235.079C466.993 233.362 470.087 229.454 473.293 230.064C474.925 230.374 475.912 231.728 476.506 232.542L476.506 232.542Z" fill="#AEDBD8"/>
<path id="Vector_64" d="M472.266 277.216C475.235 281.288 474.915 288.268 471.8 290.17C469.235 291.735 465.179 289.613 465.03 290.068C464.89 290.493 468.836 291.121 470.122 293.655C472.065 297.483 467.738 305.274 463.168 305.701C459.5 306.044 456.101 301.601 455.913 301.812C455.736 302.01 459.966 304.608 461.227 308.642C463.034 314.418 458.672 322.872 453.687 323.649C448.117 324.518 442.035 315.763 441.886 315.912C441.729 316.069 451.168 323.208 449.826 328.182C448.927 331.517 444.013 333.459 440.267 333.438C432.447 333.396 425.563 324.862 426.405 318.649C427.06 313.818 431.818 314.582 437.684 307.208C444.888 298.153 444.331 288.683 451.288 285.271C451.921 284.961 453.957 283.962 455.087 284.788C456.892 286.108 455.134 291.169 455.531 291.275C455.961 291.391 457.069 285.213 461.393 279.753C462.753 278.035 465.848 274.128 469.053 274.738C470.686 275.048 471.672 276.401 472.266 277.216H472.266Z" fill="#AEDBD8"/>
</g>
<g id="Group 67">
<path id="Vector_65" d="M472 405.5C472 407.441 472.128 409 472.287 409H685.713C685.872 409 686 407.441 686 405.5C686 403.559 685.872 402 685.713 402H472.287C472.128 402 472 403.559 472 405.5Z" fill="#2F5D7A"/>
<g id="Group_5">
<path id="Vector_66" d="M685.657 335.525V402.772H472.151V344.124L479.236 330.019H682.736L685.657 335.525Z" fill="#2F5D7A"/>
<path id="Vector_67" d="M698.453 359.632L685.657 350.661L662.99 334.772L629.356 360.363L472.151 361.241L463.527 361.288L472.151 344.124L479.236 330.019L487.872 296.75L673.227 296.019L682.736 330.019L685.657 335.525L698.453 359.632Z" fill="url(#paint9_linear_97_536)"/>
<path id="Vector_68" d="M605.227 350.648H520.409V314.82L562.818 299.309L605.227 314.82V350.648Z" fill="#2F5D7A"/>
<path id="Vector_69" d="M516.205 366.03H478.915V402.772H516.205V366.03Z" fill="#F3F7FA"/>
<path id="Vector_70" d="M598.098 366.03H530.463V402.772H598.098V366.03Z" fill="#F3F7FA"/>
<path id="Vector_71" d="M622.227 368.955H610.893V402.772H622.227V368.955Z" fill="#F3F7FA"/>
<g id="Group_6">
<path id="Vector_72" d="M672.059 363H649V386.324H672.059V363Z" fill="#F3F7FA"/>
<path id="Vector_73" d="M661.192 363H659.602V386.324H661.192V363Z" fill="#2F5D7A"/>
</g>
<g id="Group_7">
<path id="Vector_74" d="M597.932 321.072H574.873V344.396H597.932V321.072Z" fill="#F3F7FA"/>
<path id="Vector_75" d="M587.065 321.072H585.475V344.396H587.065V321.072Z" fill="#2F5D7A"/>
</g>
<g id="Group_8">
<path id="Vector_76" d="M555.524 321.072H532.465V344.396H555.524V321.072Z" fill="#F3F7FA"/>
<path id="Vector_77" d="M544.657 321.072H543.066V344.396H544.657V321.072Z" fill="#2F5D7A"/>
</g>
</g>
<path id="Vector_78" d="M666.787 344H656V354.787H666.787V344Z" fill="#F3F7FA"/>
<path id="Vector_79" d="M584.527 282H572.527V299H584.527V282Z" fill="#2F5D7A"/>
</g>
<path id="Vector_80" d="M219.712 354V405.528H214V354H219.712Z" fill="#2F5D7A"/>
</g>
<defs>
<linearGradient id="paint0_linear_97_536" x1="1032" y1="109" x2="1032" y2="158" gradientUnits="userSpaceOnUse">
<stop stop-color="#5FBEFB"/>
<stop offset="1" stop-color="#55ABE0"/>
</linearGradient>
<linearGradient id="paint1_linear_97_536" x1="482.933" y1="386.47" x2="482.933" y2="422.47" gradientUnits="userSpaceOnUse">
<stop stop-color="#5FBEFB"/>
<stop offset="1" stop-color="#55ABE0"/>
</linearGradient>
<linearGradient id="paint2_linear_97_536" x1="481.186" y1="62.4561" x2="481.186" y2="91.186" gradientUnits="userSpaceOnUse">
<stop stop-color="#5FBEFB"/>
<stop offset="1" stop-color="#55ABE0"/>
</linearGradient>
<linearGradient id="paint3_linear_97_536" x1="636.702" y1="194.863" x2="636.702" y2="232.337" gradientUnits="userSpaceOnUse">
<stop stop-color="#5FBEFB"/>
<stop offset="1" stop-color="#55ABE0"/>
</linearGradient>
<linearGradient id="paint4_linear_97_536" x1="296.763" y1="295.845" x2="296.763" y2="356.289" gradientUnits="userSpaceOnUse">
<stop stop-color="#5FBEFB"/>
<stop offset="1" stop-color="#55ABE0"/>
</linearGradient>
<linearGradient id="paint5_linear_97_536" x1="369.688" y1="372.506" x2="369.688" y2="390.197" gradientUnits="userSpaceOnUse">
<stop stop-color="#5FBEFB"/>
<stop offset="1" stop-color="#55ABE0"/>
</linearGradient>
<linearGradient id="paint6_linear_97_536" x1="823.528" y1="291" x2="823.528" y2="406.18" gradientUnits="userSpaceOnUse">
<stop stop-color="#5FBEFB"/>
<stop offset="1" stop-color="#55ABE0"/>
</linearGradient>
<linearGradient id="paint7_linear_97_536" x1="891.589" y1="335.501" x2="891.589" y2="406.18" gradientUnits="userSpaceOnUse">
<stop stop-color="#5FBEFB"/>
<stop offset="1" stop-color="#55ABE0"/>
</linearGradient>
<linearGradient id="paint8_linear_97_536" x1="780.99" y1="300.162" x2="780.99" y2="326.339" gradientUnits="userSpaceOnUse">
<stop stop-color="#5FBEFB"/>
<stop offset="1" stop-color="#55ABE0"/>
</linearGradient>
<linearGradient id="paint9_linear_97_536" x1="580.99" y1="296.019" x2="580.99" y2="361.288" gradientUnits="userSpaceOnUse">
<stop stop-color="#5FBEFB"/>
<stop offset="1" stop-color="#55ABE0"/>
</linearGradient>
<clipPath id="clip0_97_536">
<rect width="1128" height="422" fill="white"/>
</clipPath>
</defs>
</svg>
