<svg width="983" height="422" viewBox="0 0 983 422" fill="none" xmlns="http://www.w3.org/2000/svg">
<g id="sellers-hero-svg" clip-path="url(#clip0_97_536)">
<path id="Vector" d="M230.175 163.959C177.155 164.206 134 165 134 165C134 165 185.297 96.1644 229.982 121.667C274.668 147.171 325.999 164.104 325.999 164.104C325.999 164.104 283.194 163.711 230.175 163.959Z" fill="#478EBA"/>
<path id="Vector_2" d="M887.175 132.959C834.155 133.206 791 134 791 134C791 134 842.297 65.1644 886.982 90.6675C931.668 116.171 982.999 133.104 982.999 133.104C982.999 133.104 940.194 132.711 887.175 132.959Z" fill="#55ABE0"/>
<path id="Vector_3" d="M424.933 422.47C478.467 422.47 521.865 414.411 521.865 404.47C521.865 394.529 478.467 386.47 424.933 386.47C371.398 386.47 328 394.529 328 404.47C328 414.411 371.398 422.47 424.933 422.47Z" fill="#478EBA"/>
<g id="sale">
<path id="Vector_4" d="M576.685 192.365L503.13 77.1528L506.534 74.9474L576.33 184.276L633.205 75.1047L636.786 76.9954L576.685 192.365Z" fill="#162D3B"/>
<path id="Vector_5" d="M636.793 40.4491H461.613V37.4154C461.613 32.5019 460.644 27.6365 458.761 23.0971C456.878 18.5576 454.119 14.4331 450.64 10.9588C447.16 7.48443 443.03 4.72833 438.485 2.84804C433.939 0.967743 429.067 -3.9445e-06 424.147 0V0C419.227 -3.94449e-06 414.355 0.967744 409.809 2.84804C405.263 4.72833 401.133 7.48443 397.654 10.9588C394.175 14.4331 391.415 18.5576 389.532 23.0971C387.65 27.6365 386.68 32.5019 386.681 37.4154V40.4491H369.466C359.53 40.4491 350 44.3911 342.974 51.4079C335.947 58.4246 332 67.9413 332 77.8645C332 87.7876 335.947 97.3043 342.974 104.321C350 111.338 359.53 115.28 369.466 115.28H386.681V398.033C461.335 396.539 386.14 399.542 461.613 398.033V115.28H636.793C646.73 115.28 656.26 111.338 663.286 104.321C670.312 97.3043 674.26 87.7876 674.26 77.8645C674.26 67.9413 670.312 58.4246 663.286 51.4079C656.26 44.3911 646.73 40.4491 636.793 40.4491V40.4491Z" fill="#162D3B"/>
<path id="Vector_6" d="M423.186 91.186C430.774 91.186 436.926 84.7546 436.926 76.8211C436.926 68.8876 430.774 62.4561 423.186 62.4561C415.597 62.4561 409.446 68.8876 409.446 76.8211C409.446 84.7546 415.597 91.186 423.186 91.186Z" fill="#55ABE0"/>
<path id="Vector_7" d="M659.123 264.814H497.031C489.375 264.805 482.035 261.774 476.621 256.384C471.208 250.995 468.163 243.687 468.154 236.065V183.639C468.163 176.017 471.208 168.71 476.622 163.321C482.035 157.931 489.375 154.9 497.031 154.891H659.123C666.779 154.9 674.119 157.931 679.532 163.321C684.946 168.71 687.991 176.017 688 183.639V236.065C687.991 243.687 684.946 250.995 679.533 256.384C674.119 261.774 666.779 264.805 659.123 264.814V264.814Z" fill="#162D3B"/>
<path id="Vector_8" d="M631.618 194.863H525.785C519.482 194.863 514.372 203.252 514.372 213.6C514.372 223.948 519.482 232.337 525.785 232.337H631.618C637.922 232.337 643.031 223.948 643.031 213.6C643.031 203.252 637.922 194.863 631.618 194.863Z" fill="#478EBA"/>
<path id="Selling" d="M538.509 221.223C537.669 221.223 536.929 221.076 536.289 220.783C535.649 220.49 535.156 220.083 534.809 219.563C534.462 219.03 534.289 218.416 534.289 217.723C534.289 217.136 534.409 216.603 534.649 216.123C534.902 215.643 535.236 215.263 535.649 214.983C536.076 214.703 536.542 214.563 537.049 214.563C537.516 214.563 537.909 214.683 538.229 214.923C538.549 215.15 538.749 215.47 538.829 215.883C538.136 215.883 537.582 216.07 537.169 216.443C536.756 216.803 536.549 217.296 536.549 217.923C536.549 218.496 536.722 218.956 537.069 219.303C537.416 219.65 537.876 219.823 538.449 219.823C539.156 219.823 539.736 219.59 540.189 219.123C540.656 218.643 540.889 218.043 540.889 217.323C540.889 216.696 540.716 216.103 540.369 215.543C540.022 214.983 539.502 214.303 538.809 213.503C538.089 212.676 537.542 211.97 537.169 211.383C536.809 210.783 536.629 210.13 536.629 209.423C536.629 208.73 536.822 208.11 537.209 207.563C537.596 207.003 538.129 206.563 538.809 206.243C539.489 205.923 540.256 205.763 541.109 205.763C542.189 205.763 543.049 206.016 543.689 206.523C544.342 207.03 544.669 207.71 544.669 208.563C544.669 209.123 544.529 209.576 544.249 209.923C543.969 210.27 543.602 210.443 543.149 210.443C542.642 210.443 542.236 210.236 541.929 209.823C542.182 209.636 542.382 209.39 542.529 209.083C542.676 208.776 542.749 208.456 542.749 208.123C542.749 207.696 542.622 207.356 542.369 207.103C542.116 206.85 541.769 206.723 541.329 206.723C540.796 206.723 540.356 206.916 540.009 207.303C539.676 207.676 539.509 208.156 539.509 208.743C539.509 209.276 539.662 209.776 539.969 210.243C540.276 210.696 540.756 211.283 541.409 212.003C541.942 212.576 542.369 213.07 542.689 213.483C543.022 213.896 543.302 214.376 543.529 214.923C543.769 215.456 543.889 216.036 543.889 216.663C543.889 217.516 543.649 218.29 543.169 218.983C542.702 219.676 542.056 220.223 541.229 220.623C540.416 221.023 539.509 221.223 538.509 221.223ZM553.775 220.983C552.789 220.983 552.022 220.73 551.475 220.223C550.929 219.703 550.655 218.896 550.655 217.803C550.655 216.883 550.835 215.87 551.195 214.763C551.555 213.656 552.142 212.703 552.955 211.903C553.769 211.09 554.802 210.683 556.055 210.683C557.522 210.683 558.255 211.323 558.255 212.603C558.255 213.35 558.042 214.036 557.615 214.663C557.189 215.29 556.622 215.796 555.915 216.183C555.209 216.556 554.455 216.77 553.655 216.823C553.629 217.223 553.615 217.49 553.615 217.623C553.615 218.276 553.729 218.723 553.955 218.963C554.182 219.19 554.549 219.303 555.055 219.303C555.775 219.303 556.389 219.136 556.895 218.803C557.415 218.47 557.982 217.963 558.595 217.283H559.275C557.795 219.75 555.962 220.983 553.775 220.983ZM553.815 215.863C554.309 215.836 554.775 215.663 555.215 215.343C555.669 215.023 556.029 214.616 556.295 214.123C556.575 213.63 556.715 213.11 556.715 212.563C556.715 212.016 556.549 211.743 556.215 211.743C555.735 211.743 555.262 212.163 554.795 213.003C554.342 213.843 554.015 214.796 553.815 215.863ZM566.471 220.983C565.831 220.983 565.311 220.783 564.911 220.383C564.524 219.983 564.331 219.383 564.331 218.583C564.331 218.25 564.384 217.816 564.491 217.283L566.631 207.263L569.591 206.863L567.291 217.663C567.238 217.863 567.211 218.076 567.211 218.303C567.211 218.57 567.271 218.763 567.391 218.883C567.524 218.99 567.738 219.043 568.031 219.043C568.418 219.043 568.778 218.883 569.111 218.563C569.444 218.23 569.684 217.803 569.831 217.283H570.671C570.178 218.723 569.544 219.703 568.771 220.223C567.998 220.73 567.231 220.983 566.471 220.983ZM577.703 220.983C577.063 220.983 576.543 220.783 576.143 220.383C575.756 219.983 575.563 219.383 575.563 218.583C575.563 218.25 575.616 217.816 575.723 217.283L577.863 207.263L580.823 206.863L578.523 217.663C578.47 217.863 578.443 218.076 578.443 218.303C578.443 218.57 578.503 218.763 578.623 218.883C578.756 218.99 578.97 219.043 579.263 219.043C579.65 219.043 580.01 218.883 580.343 218.563C580.676 218.23 580.916 217.803 581.063 217.283H581.903C581.41 218.723 580.776 219.703 580.003 220.223C579.23 220.73 578.463 220.983 577.703 220.983ZM590.295 209.783C589.855 209.783 589.482 209.63 589.175 209.323C588.869 209.016 588.715 208.643 588.715 208.203C588.715 207.763 588.869 207.39 589.175 207.083C589.482 206.763 589.855 206.603 590.295 206.603C590.735 206.603 591.109 206.763 591.415 207.083C591.735 207.39 591.895 207.763 591.895 208.203C591.895 208.643 591.735 209.016 591.415 209.323C591.109 209.63 590.735 209.783 590.295 209.783ZM588.935 220.983C588.295 220.983 587.775 220.783 587.375 220.383C586.989 219.983 586.795 219.383 586.795 218.583C586.795 218.25 586.849 217.816 586.955 217.283L588.315 210.863H591.195L589.755 217.663C589.702 217.863 589.675 218.076 589.675 218.303C589.675 218.57 589.735 218.763 589.855 218.883C589.989 218.99 590.202 219.043 590.495 219.043C590.882 219.043 591.242 218.883 591.575 218.563C591.909 218.23 592.149 217.803 592.295 217.283H593.135C592.642 218.723 592.009 219.703 591.235 220.223C590.462 220.73 589.695 220.983 588.935 220.983ZM605.407 220.983C604.594 220.983 603.994 220.77 603.607 220.343C603.234 219.903 603.047 219.363 603.047 218.723C603.047 218.443 603.081 218.13 603.147 217.783C603.214 217.423 603.281 217.076 603.347 216.743C603.427 216.41 603.481 216.196 603.507 216.103C603.614 215.636 603.714 215.176 603.807 214.723C603.901 214.27 603.947 213.903 603.947 213.623C603.947 212.943 603.707 212.603 603.227 212.603C602.881 212.603 602.574 212.776 602.307 213.123C602.041 213.456 601.827 213.896 601.667 214.443L600.307 220.863H597.427L599.547 210.863H602.427L602.207 211.903C602.874 211.156 603.654 210.783 604.547 210.783C605.227 210.783 605.767 210.97 606.167 211.343C606.567 211.716 606.767 212.283 606.767 213.043C606.767 213.43 606.721 213.863 606.627 214.343C606.534 214.81 606.401 215.383 606.227 216.063C606.121 216.476 606.021 216.883 605.927 217.283C605.847 217.67 605.807 217.976 605.807 218.203C605.807 218.47 605.867 218.676 605.987 218.823C606.107 218.97 606.314 219.043 606.607 219.043C607.007 219.043 607.327 218.903 607.567 218.623C607.807 218.33 608.047 217.883 608.287 217.283H609.127C608.634 218.75 608.061 219.736 607.407 220.243C606.767 220.736 606.101 220.983 605.407 220.983ZM617.705 225.863C617.078 225.863 616.525 225.656 616.045 225.243C615.578 224.843 615.345 224.33 615.345 223.703C615.345 223.116 615.492 222.636 615.785 222.263C616.078 221.89 616.458 221.596 616.925 221.383C617.392 221.17 618.018 220.943 618.805 220.703L618.985 219.863C618.292 220.61 617.492 220.983 616.585 220.983C615.825 220.983 615.192 220.723 614.685 220.203C614.178 219.683 613.925 218.87 613.925 217.763C613.925 216.776 614.118 215.743 614.505 214.663C614.905 213.57 615.492 212.65 616.265 211.903C617.052 211.143 617.985 210.763 619.065 210.763C619.612 210.763 620.018 210.856 620.285 211.043C620.552 211.23 620.685 211.476 620.685 211.783V211.823L620.885 210.863H623.785L621.345 222.463C621.078 223.743 620.605 224.63 619.925 225.123C619.258 225.616 618.518 225.863 617.705 225.863ZM617.885 219.043C618.192 219.043 618.498 218.916 618.805 218.663C619.125 218.396 619.352 218.023 619.485 217.543L620.505 212.703C620.398 212.236 620.125 212.003 619.685 212.003C619.152 212.003 618.672 212.316 618.245 212.943C617.818 213.556 617.485 214.303 617.245 215.183C617.005 216.05 616.885 216.816 616.885 217.483C616.885 218.15 616.978 218.576 617.165 218.763C617.365 218.95 617.605 219.043 617.885 219.043ZM617.245 224.083C617.485 224.083 617.712 223.956 617.925 223.703C618.138 223.463 618.305 223.07 618.425 222.523L618.665 221.343C617.958 221.583 617.412 221.863 617.025 222.183C616.638 222.503 616.445 222.916 616.445 223.423C616.445 223.583 616.525 223.73 616.685 223.863C616.845 224.01 617.032 224.083 617.245 224.083Z" fill="#D5ECEB"/>
</g>
<path id="Vector_9" d="M155.5 183.47C192.779 183.47 223 153.249 223 115.97C223 78.691 192.779 48.4702 155.5 48.4702C118.221 48.4702 88 78.691 88 115.97C88 153.249 118.221 183.47 155.5 183.47Z" fill="#FF6584"/>
<g id="Group 56">
<path id="Vector_10" d="M157 350.289H301.375V398.939H157V350.289Z" fill="#818EA1"/>
<path id="Vector_11" d="M320.527 350.289H157L161.42 289.845H316.107L320.527 350.289Z" fill="#55ABE0"/>
<path id="Vector_12" d="M230.661 294.268L266.018 335.547H195.304L230.661 294.268Z" fill="#818EA1"/>
<path id="Vector_13" d="M270.438 338.136H190.884L230.661 289.486L270.438 338.136ZM201.197 333.713H260.125L230.661 296.857L201.197 333.713Z" fill="#162D3B"/>
<path id="Vector_14" d="M226.241 310.485H236.554V325.227H226.241V310.485ZM180.572 357.66H210.036V385.671H180.572V357.66ZM270.438 365.031H294.009V385.671H270.438V365.031Z" fill="#F3F7FA"/>
<path id="Vector_15" d="M237.61 366.614H253.815V399.047H237.61V366.614Z" fill="#55ABE0"/>
<path id="Vector_16" d="M276.331 281H294.009V313.433H276.331V281Z" fill="#162D3B"/>
<path id="Vector_17" d="M193.83 354.712H196.777V388.619H193.83V354.712Z" fill="#818EA1"/>
<path id="Vector_18" d="M179.098 372.403V369.454H212.982V372.403H179.098Z" fill="#818EA1"/>
<path id="Vector_19" d="M230.661 345.866H304.321V351.763H230.661V345.866Z" fill="#162D3B"/>
<path id="Vector_20" d="M232.134 347.341V398.939H227.714V347.341H232.134ZM263.071 345.866V398.939H258.652V345.866H263.071ZM304.321 347.341V398.939H299.902V347.341H304.321Z" fill="#162D3B"/>
<path id="Vector_21" d="M196.777 306.062L232.134 347.341H161.42L196.777 306.062Z" fill="#818EA1"/>
<path id="Vector_22" d="M237.027 351.65H156L197.25 303L237.027 351.65ZM167.786 347.227H226.714L197.25 311.845L167.786 347.227Z" fill="#162D3B"/>
<path id="Vector_23" d="M190.884 322.279H202.67V339.969H190.884V322.279Z" fill="#F3F7FA"/>
<path id="Vector_24" d="M304.322 345.866H320.527V398.939H304.322V345.866Z" fill="#162D3B"/>
<path id="Vector_25" d="M307.268 366.506H316.107V384.197H307.268V366.506Z" fill="#55ABE0"/>
<path id="Vector_26" d="M157 397H320.527V402.897H157V397Z" fill="#162D3B"/>
</g>
<path id="Vector_27" d="M95.8242 193.429C148.844 193.677 191.999 194.47 191.999 194.47C191.999 194.47 140.702 125.635 96.0166 151.138C51.3313 176.641 0 193.574 0 193.574C0 193.574 42.8049 193.182 95.8242 193.429Z" fill="#55ABE0"/>
<g id="Group">
<path id="Vector_28" d="M162.491 405.353C162.534 405.709 162.546 406.04 162.521 406.365H144.58C144.417 406.04 144.278 405.703 144.157 405.353C141.963 399.07 145.571 388.613 140.996 373.107C137.6 361.601 131.261 352.601 128.306 348.409C124.674 343.252 120.559 338.493 115.791 330.891C114.758 329.246 113.694 327.463 112.594 325.518C112.226 324.867 107.978 317.319 108.364 317.084C108.546 316.976 109.67 318.5 110.05 319.012C113.41 323.542 115.362 325.524 118.16 328.782C119.858 330.758 121.864 333.198 124.68 336.963C131.902 346.607 135.509 351.427 136.766 355.035C137.099 355.999 138.869 361.216 142.205 367.685C143.909 370.986 144.761 372.637 145.226 372.504C146.544 372.125 144.767 358.457 139.183 344.794C138.229 342.469 137.516 340.981 136.162 338.168C133.962 333.578 121.713 308.066 112.709 292.795C111.579 290.874 110.498 289.121 109.5 287.585C109.307 287.295 109.12 287.012 108.938 286.741C107.681 284.874 106.57 283.398 105.645 282.446C105.156 281.94 103.911 280.506 101.415 277.627C100.424 276.482 99.6987 275.633 99.2092 275.013C99.1367 274.922 99.0702 274.832 99.0159 274.753C98.4236 273.982 98.2544 273.609 98.3934 273.41C98.5929 273.127 99.3603 273.29 100.2 273.585C100.291 273.615 100.388 273.651 100.478 273.687C101.391 274.025 102.315 274.464 102.624 274.615C105.452 275.97 108.213 278.398 110.769 281.283C111.718 282.35 112.631 283.476 113.513 284.633C116.353 288.368 118.831 292.434 120.704 295.777C123 299.898 124.378 302.928 124.378 302.928C130.79 317.042 137.902 333.186 138.277 333.047C138.688 332.897 130.802 312.801 128.506 301.885C127.738 298.229 127.599 295.602 128.608 295.096C128.645 295.078 128.681 295.06 128.723 295.048C128.88 294.994 129.025 295 129.104 295.006C129.104 295.006 130.04 294.886 131.025 295.096C132.252 295.362 133.648 298.765 135.008 303.542C138.543 315.855 141.903 337.264 141.903 337.264C145.263 358.679 150.363 376.01 151.572 375.818C152.242 375.709 151.282 370.33 152.176 361.36C152.804 355.071 153.517 355.264 155.802 343.891C159.427 325.849 161.24 316.831 161.24 316.783C161.222 316.403 161.174 315.638 161.289 314.843C161.41 313.982 161.718 313.078 162.449 312.566C163.561 311.783 165.35 312.12 166.075 312.566C166.655 312.927 166.951 313.59 167.017 314.542C167.416 320.53 158.787 337.891 155.802 361.36C154.315 373.053 153.499 379.432 155.802 387.866C158.08 396.227 162.05 401.552 162.491 405.353V405.353Z" fill="#162D3B"/>
<path id="Vector_29" d="M189.875 253.435C184.918 252.536 178.761 255.843 178.394 259.459C178.092 262.435 181.761 265.152 181.415 265.483C181.092 265.792 178.819 262.527 175.977 262.471C171.682 262.386 166.528 269.636 168.121 273.916C169.399 277.352 174.876 278.476 174.768 278.735C174.666 278.98 170.492 276.313 166.308 276.928C160.316 277.809 154.579 285.376 156.035 290.181C157.661 295.549 168.191 297.212 168.121 297.41C168.047 297.619 157.523 292.248 153.618 295.602C150.998 297.852 151.374 303.097 153.013 306.446C156.435 313.436 167.111 315.913 172.351 312.47C176.425 309.792 173.677 305.858 177.789 297.41C182.839 287.034 191.622 283.435 191.688 275.723C191.694 275.022 191.714 272.764 190.48 272.109C188.509 271.063 184.705 274.828 184.437 274.519C184.147 274.184 189.239 270.516 192.293 264.278C193.253 262.316 195.439 257.851 193.501 255.242C192.515 253.913 190.867 253.615 189.875 253.435V253.435Z" fill="#AEDBD8"/>
<path id="Vector_30" d="M162.078 241.989C157.12 241.09 150.963 244.398 150.596 248.013C150.294 250.989 153.963 253.706 153.618 254.037C153.294 254.346 151.021 251.081 148.179 251.025C143.885 250.94 138.731 258.19 140.323 262.471C141.601 265.907 147.079 267.031 146.97 267.29C146.868 267.534 142.695 264.868 138.51 265.483C132.519 266.363 126.781 273.931 128.237 278.735C129.864 284.104 140.393 285.766 140.323 285.964C140.249 286.173 129.726 280.803 125.82 284.157C123.2 286.407 123.576 291.651 125.216 295C128.638 301.99 139.314 304.467 144.553 301.024C148.627 298.347 145.88 294.413 149.992 285.964C155.042 275.589 163.824 271.989 163.891 264.278C163.897 263.577 163.916 261.319 162.682 260.663C160.711 259.617 156.907 263.383 156.639 263.073C156.349 262.738 161.441 259.071 164.495 252.832C165.456 250.87 167.641 246.406 165.704 243.796C164.717 242.468 163.07 242.169 162.078 241.989Z" fill="#AEDBD8"/>
<path id="Vector_31" d="M128.417 228.613C133.116 230.427 136.635 236.453 135.054 239.727C133.752 242.422 129.2 242.83 129.321 243.292C129.435 243.724 133.084 242.123 135.538 243.554C139.244 245.717 139.842 254.583 136.242 257.405C133.352 259.67 128.092 257.777 128.049 258.055C128.008 258.316 132.964 258.214 136.21 260.917C140.859 264.787 141.788 274.227 138.03 277.567C133.831 281.299 123.98 277.236 123.936 277.441C123.889 277.658 135.678 278.555 137.251 283.449C138.307 286.731 135.24 291.008 132.087 293.011C125.507 297.191 115.105 293.747 112.44 288.083C110.368 283.679 114.771 281.754 115.69 272.408C116.818 260.931 111.213 253.29 115.196 246.679C115.558 246.077 116.724 244.142 118.12 244.225C120.349 244.359 121.621 249.55 122.011 249.426C122.434 249.291 120.012 243.513 120.676 236.603C120.884 234.429 121.359 229.484 124.378 228.267C125.915 227.648 127.477 228.251 128.417 228.613Z" fill="#AEDBD8"/>
<path id="Vector_32" d="M75.0534 231.89C72.0907 235.953 72.4105 242.918 75.5192 244.816C78.0781 246.378 82.1254 244.26 82.2746 244.714C82.4142 245.139 78.4768 245.765 77.1934 248.293C75.2542 252.114 79.5724 259.887 84.1322 260.313C87.7925 260.655 91.1839 256.223 91.3711 256.432C91.5477 256.63 87.3273 259.222 86.0685 263.248C84.2662 269.012 88.6185 277.447 93.5926 278.223C99.1505 279.09 105.219 270.353 105.368 270.502C105.525 270.659 96.1067 277.783 97.4449 282.745C98.3424 286.074 103.246 288.011 106.984 287.991C114.786 287.948 121.656 279.433 120.815 273.234C120.162 268.413 115.415 269.175 109.561 261.817C102.373 252.782 102.928 243.332 95.9866 239.928C95.3553 239.618 93.3229 238.622 92.1954 239.446C90.3947 240.763 92.1489 245.812 91.7527 245.919C91.324 246.034 90.2177 239.87 85.9029 234.421C84.5458 232.708 81.4582 228.808 78.2594 229.417C76.6308 229.727 75.6462 231.077 75.0534 231.89L75.0534 231.89Z" fill="#AEDBD8"/>
<path id="Vector_33" d="M79.2837 276.467C76.3209 280.53 76.6407 287.496 79.7494 289.393C82.3084 290.955 86.3556 288.837 86.5049 289.292C86.6444 289.716 82.707 290.342 81.4236 292.871C79.4845 296.691 83.8026 304.465 88.3624 304.891C92.0228 305.233 95.4141 300.8 95.6013 301.01C95.7779 301.208 91.5576 303.8 90.2988 307.825C88.4964 313.589 92.8487 322.024 97.8228 322.8C103.381 323.668 109.45 314.931 109.598 315.079C109.756 315.237 100.337 322.36 101.675 327.323C102.573 330.652 107.476 332.588 111.214 332.568C119.017 332.526 125.886 324.01 125.046 317.811C124.392 312.991 119.645 313.752 113.792 306.395C106.603 297.359 107.158 287.909 100.217 284.505C99.5855 284.196 97.5531 283.199 96.4256 284.023C94.6249 285.34 96.3791 290.39 95.9829 290.496C95.5543 290.612 94.4479 284.447 90.1332 278.999C88.776 277.285 85.6884 273.386 82.4896 273.994C80.861 274.304 79.8764 275.655 79.2836 276.467H79.2837Z" fill="#AEDBD8"/>
</g>
<g id="Group 58">
<path id="Vector_34" d="M704.576 388.312C703.267 387.003 699.34 387.003 698.031 389.621C697.301 390.813 696.854 392.156 696.723 393.548C696.723 389.621 695.414 377.841 690.178 377.841C686.252 377.841 686.252 388.312 686.252 393.548C683.634 388.312 682.325 385.694 679.707 385.694C671.854 385.694 681.016 402.71 681.016 402.71H699.34L701.958 398.783C703.034 397.147 703.912 395.39 704.576 393.548C704.752 392.684 704.752 391.794 704.576 390.93C704.875 390.083 704.875 389.159 704.576 388.312Z" fill="#AEDBD8"/>
<path id="Vector_35" d="M700.649 287.53H835.461V402.71H700.649V287.53Z" fill="#55ABE0"/>
<path id="Vector_36" d="M700.649 384.386H835.461V385.694H700.649V384.386ZM700.649 376.532H835.461V377.841H700.649V376.532ZM700.649 368.679H835.461H700.649ZM700.649 359.517H835.461V360.826H700.649V359.517ZM700.649 351.664H835.461V352.973H700.649V351.664ZM700.649 343.811H835.461V345.12H700.649V343.811ZM700.649 335.958H835.461H700.649ZM700.649 326.796H835.461V328.105H700.649V326.796ZM700.649 318.943H835.461V320.251H700.649V318.943ZM700.649 311.089H835.461V312.398H700.649V311.089ZM700.649 301.927H835.461V303.236H700.649V301.927ZM700.649 294.074H835.461V295.383H700.649V294.074ZM845.932 332.031H876.036V402.71H845.932V332.031Z" fill="#162D3B"/>
<path id="Vector_37" d="M700.649 287.53H750.386V335.958H700.649V287.53Z" fill="#162D3B"/>
<path id="Vector_38" d="M690.178 328.105H750.386V337.267H690.178V328.105Z" fill="#F3F7FA"/>
<path id="Vector_39" d="M728.135 359.517H750.386V397.474H728.135V359.517Z" fill="#162D3B"/>
<path id="Vector_40" d="M755.621 363.444H766.092V372.606H755.621V363.444ZM772.636 363.444H783.107V372.606H772.636V363.444ZM802.74 305.854H811.902V316.325H802.74V305.854ZM819.755 305.854H830.226V316.325H819.755V305.854ZM722.9 358.208H750.386V363.444H722.9V358.208Z" fill="#F3F7FA"/>
<path id="Vector_41" d="M845.932 394.856H876.036V396.165H845.932V394.856ZM845.932 387.003H876.036V388.312H845.932V387.003ZM845.932 377.841H876.036V379.15H845.932V377.841ZM845.932 369.988H876.036V371.297H845.932V369.988ZM845.932 362.135H876.036V363.444H845.932V362.135ZM845.932 354.282H876.036H845.932ZM845.932 345.12H876.036V346.429H845.932V345.12ZM796.196 332.031H845.932V402.71H796.196V332.031Z" fill="#55ABE0"/>
<path id="Vector_42" d="M796.196 394.856H845.932V396.165H796.196V394.856ZM796.196 387.003H845.932V388.312H796.196V387.003ZM796.196 377.841H845.932V379.15H796.196V377.841ZM796.196 369.988H845.932V371.297H796.196V369.988ZM796.196 362.135H845.932V363.444H796.196V362.135ZM796.196 354.282H845.932H796.196ZM796.196 345.12H845.932V346.429H796.196V345.12Z" fill="#162D3B"/>
<path id="Vector_43" d="M700.649 321.56H750.386V322.869H700.649V321.56ZM700.649 313.707H750.386H700.649ZM700.649 304.545H750.386V305.854H700.649V304.545ZM700.649 296.692H750.386V298.001H700.649V296.692Z" fill="#55ABE0"/>
<path id="Vector_44" d="M790.96 330.722H849.859V339.884H790.96V330.722Z" fill="#F3F7FA"/>
<path id="Vector_45" d="M847.241 330.722H883.889V339.884H847.241V330.722Z" fill="#162D3B"/>
<path id="Vector_46" d="M696 400H802.018V405.235H696V400Z" fill="#162D3B"/>
</g>
<g id="Group_2">
<path id="Vector_47" d="M894.954 407.821C894.997 408.177 895.009 408.509 894.984 408.835H877.004C876.841 408.509 876.701 408.171 876.58 407.821C874.382 401.525 877.997 391.044 873.413 375.505C870.009 363.974 863.657 354.955 860.695 350.753C857.055 345.586 852.931 340.817 848.153 333.198C847.118 331.55 846.052 329.763 844.949 327.813C844.58 327.161 840.323 319.597 840.71 319.361C840.892 319.252 842.018 320.78 842.4 321.293C845.767 325.833 847.723 327.819 850.527 331.085C852.229 333.065 854.239 335.51 857.062 339.283C864.298 348.948 867.914 353.778 869.174 357.394C869.507 358.36 871.281 363.588 874.624 370.072C876.332 373.38 877.186 375.034 877.652 374.901C878.972 374.521 877.192 360.823 871.596 347.131C870.639 344.801 869.925 343.31 868.568 340.491C866.364 335.89 854.088 310.324 845.064 295.02C843.932 293.094 842.848 291.337 841.849 289.798C841.655 289.508 841.467 289.224 841.286 288.953C840.026 287.081 838.912 285.602 837.985 284.648C837.494 284.141 836.247 282.704 833.746 279.819C832.753 278.672 832.026 277.821 831.535 277.199C831.463 277.108 831.396 277.018 831.342 276.939C830.748 276.166 830.578 275.792 830.718 275.593C830.918 275.309 831.687 275.472 832.528 275.768C832.619 275.798 832.716 275.834 832.807 275.871C833.722 276.209 834.648 276.649 834.957 276.8C837.791 278.159 840.559 280.591 843.12 283.483C844.071 284.552 844.986 285.681 845.87 286.84C848.716 290.583 851.199 294.658 853.077 298.008C855.378 302.138 856.759 305.174 856.759 305.174C863.184 319.319 870.312 335.498 870.688 335.359C871.099 335.208 863.196 315.069 860.895 304.13C860.126 300.465 859.987 297.833 860.998 297.326C861.034 297.308 861.071 297.29 861.113 297.278C861.27 297.223 861.416 297.229 861.495 297.236C861.495 297.236 862.433 297.115 863.42 297.326C864.65 297.592 866.049 301.003 867.411 305.79C870.954 318.13 874.321 339.585 874.321 339.585C877.688 361.047 882.8 378.415 884.011 378.222C884.683 378.113 883.72 372.722 884.616 363.733C885.246 357.43 885.961 357.624 888.25 346.226C891.884 328.145 893.701 319.108 893.701 319.059C893.682 318.679 893.634 317.912 893.749 317.115C893.87 316.252 894.179 315.346 894.912 314.833C896.026 314.049 897.819 314.387 898.545 314.833C899.127 315.196 899.424 315.86 899.49 316.813C899.89 322.814 891.242 340.213 888.25 363.733C886.76 375.451 885.943 381.844 888.25 390.296C890.533 398.675 894.512 404.012 894.954 407.821V407.821Z" fill="#162D3B"/>
<path id="Vector_48" d="M919.152 256.96C914.184 256.059 908.014 259.374 907.646 262.997C907.343 265.979 911.021 268.702 910.674 269.034C910.35 269.344 908.072 266.072 905.224 266.015C900.92 265.93 895.755 273.196 897.351 277.486C898.632 280.929 904.121 282.055 904.012 282.315C903.91 282.56 899.728 279.888 895.534 280.504C889.53 281.387 883.78 288.971 885.239 293.786C886.869 299.166 897.421 300.831 897.351 301.03C897.277 301.24 886.73 295.857 882.816 299.219C880.191 301.473 880.567 306.729 882.211 310.085C885.64 317.091 896.339 319.573 901.59 316.122C905.673 313.439 902.919 309.497 907.04 301.03C912.101 290.632 920.903 287.025 920.969 279.297C920.975 278.594 920.995 276.331 919.758 275.675C917.783 274.626 913.971 278.4 913.702 278.089C913.411 277.754 918.514 274.079 921.575 267.826C922.538 265.86 924.728 261.386 922.786 258.771C921.798 257.44 920.147 257.14 919.152 256.96Z" fill="#AEDBD8"/>
<path id="Vector_49" d="M891.581 245.106C886.613 244.205 880.442 247.52 880.075 251.143C879.772 254.125 883.449 256.848 883.103 257.18C882.779 257.49 880.5 254.218 877.652 254.162C873.349 254.076 868.183 261.342 869.779 265.632C871.061 269.075 876.55 270.202 876.441 270.461C876.339 270.706 872.156 268.034 867.963 268.65C861.958 269.533 856.209 277.117 857.667 281.932C859.297 287.312 869.85 288.978 869.779 289.176C869.705 289.386 859.159 284.004 855.245 287.365C852.62 289.62 852.996 294.875 854.639 298.232C858.069 305.237 868.768 307.719 874.019 304.269C878.101 301.586 875.348 297.643 879.469 289.176C884.53 278.778 893.331 275.171 893.398 267.443C893.404 266.74 893.424 264.477 892.187 263.821C890.212 262.772 886.399 266.546 886.131 266.236C885.84 265.9 890.943 262.225 894.004 255.973C894.966 254.006 897.156 249.532 895.215 246.917C894.226 245.586 892.575 245.286 891.581 245.106Z" fill="#AEDBD8"/>
<path id="Vector_50" d="M857.561 232.085C862.27 233.902 865.796 239.942 864.212 243.223C862.908 245.924 858.346 246.332 858.468 246.795C858.581 247.228 862.238 245.624 864.697 247.058C868.412 249.226 869.011 258.111 865.403 260.939C862.507 263.208 857.235 261.312 857.192 261.59C857.151 261.852 862.118 261.75 865.371 264.459C870.03 268.337 870.961 277.797 867.195 281.144C862.987 284.884 853.115 280.812 853.07 281.018C853.024 281.236 864.837 282.135 866.415 287.039C867.473 290.328 864.399 294.615 861.239 296.622C854.645 300.811 844.22 297.359 841.549 291.683C839.473 287.27 843.886 285.341 844.807 275.975C845.937 264.473 840.32 256.815 844.311 250.189C844.674 249.587 845.843 247.647 847.242 247.73C849.476 247.864 850.75 253.067 851.142 252.942C851.565 252.807 849.138 247.017 849.803 240.092C850.012 237.913 850.488 232.958 853.514 231.738C855.054 231.117 856.619 231.721 857.561 232.085L857.561 232.085Z" fill="#AEDBD8"/>
<path id="Vector_51" d="M804.058 235.013C801.089 239.084 801.409 246.065 804.525 247.966C807.089 249.531 811.145 247.409 811.295 247.864C811.435 248.29 807.489 248.917 806.202 251.451C804.259 255.28 808.587 263.07 813.156 263.497C816.825 263.84 820.223 259.398 820.411 259.608C820.588 259.806 816.358 262.404 815.097 266.438C813.291 272.214 817.652 280.668 822.637 281.446C828.207 282.315 834.289 273.559 834.438 273.708C834.596 273.866 825.157 281.004 826.498 285.978C827.397 289.314 832.311 291.255 836.057 291.235C843.877 291.192 850.761 282.658 849.919 276.446C849.264 271.615 844.507 272.378 838.64 265.004C831.436 255.949 831.993 246.479 825.036 243.068C824.404 242.758 822.367 241.759 821.237 242.585C819.432 243.904 821.19 248.965 820.793 249.072C820.364 249.187 819.255 243.01 814.931 237.549C813.571 235.832 810.476 231.924 807.271 232.534C805.639 232.845 804.652 234.198 804.058 235.013L804.058 235.013Z" fill="#AEDBD8"/>
<path id="Vector_52" d="M808.297 279.686C805.328 283.758 805.648 290.739 808.764 292.64C811.328 294.205 815.384 292.083 815.534 292.538C815.674 292.964 811.728 293.591 810.442 296.125C808.498 299.954 812.826 307.744 817.396 308.171C821.064 308.514 824.462 304.072 824.65 304.282C824.827 304.48 820.598 307.078 819.336 311.112C817.53 316.888 821.892 325.342 826.876 326.119C832.446 326.989 838.528 318.233 838.677 318.382C838.835 318.539 829.396 325.678 830.737 330.652C831.636 333.988 836.55 335.929 840.297 335.908C848.116 335.866 855 327.332 854.158 321.119C853.503 316.289 848.746 317.052 842.88 309.678C835.676 300.623 836.232 291.153 829.276 287.742C828.643 287.431 826.606 286.432 825.476 287.259C823.672 288.578 825.43 293.639 825.032 293.746C824.603 293.861 823.494 287.684 819.17 282.223C817.81 280.506 814.716 276.598 811.51 277.208C809.878 277.518 808.891 278.872 808.297 279.686H808.297Z" fill="#AEDBD8"/>
</g>
<g id="Group_3">
<path id="Vector_53" d="M646.609 407.821C646.567 408.177 646.555 408.509 646.579 408.835H664.559C664.723 408.509 664.862 408.171 664.983 407.821C667.182 401.525 663.566 391.044 668.151 375.505C671.554 363.974 677.907 354.955 680.868 350.753C684.508 345.586 688.632 340.817 693.41 333.198C694.446 331.55 695.512 329.763 696.614 327.813C696.983 327.161 701.241 319.597 700.853 319.361C700.672 319.252 699.545 320.78 699.164 321.293C695.796 325.833 693.84 327.819 691.036 331.085C689.335 333.065 687.324 335.51 684.502 339.283C677.265 348.948 673.65 353.778 672.39 357.394C672.057 358.36 670.282 363.588 666.939 370.072C665.232 373.38 664.378 375.034 663.911 374.901C662.591 374.521 664.372 360.823 669.967 347.131C670.924 344.801 671.639 343.31 672.995 340.491C675.2 335.89 687.475 310.324 696.499 295.02C697.631 293.094 698.715 291.337 699.715 289.798C699.909 289.508 700.096 289.224 700.278 288.953C701.538 287.081 702.652 285.602 703.578 284.648C704.069 284.141 705.317 282.704 707.818 279.819C708.811 278.672 709.538 277.821 710.028 277.199C710.101 277.108 710.167 277.018 710.222 276.939C710.815 276.166 710.985 275.792 710.846 275.593C710.646 275.309 709.877 275.472 709.035 275.768C708.944 275.798 708.847 275.834 708.756 275.871C707.842 276.209 706.915 276.649 706.607 276.8C703.772 278.159 701.005 280.591 698.443 283.483C697.492 284.552 696.578 285.681 695.694 286.84C692.847 290.583 690.364 294.658 688.487 298.008C686.186 302.138 684.805 305.174 684.805 305.174C678.379 319.319 671.251 335.498 670.876 335.359C670.464 335.208 678.367 315.069 680.668 304.13C681.438 300.465 681.577 297.833 680.566 297.326C680.529 297.308 680.493 297.29 680.45 297.278C680.293 297.223 680.148 297.229 680.069 297.236C680.069 297.236 679.13 297.115 678.143 297.326C676.914 297.592 675.515 301.003 674.152 305.79C670.609 318.13 667.242 339.585 667.242 339.585C663.875 361.047 658.764 378.415 657.553 378.222C656.88 378.113 657.843 372.722 656.947 363.733C656.317 357.43 655.603 357.624 653.313 346.226C649.68 328.145 647.863 319.108 647.863 319.059C647.881 318.679 647.93 317.912 647.814 317.115C647.693 316.252 647.385 315.346 646.652 314.833C645.537 314.049 643.745 314.387 643.018 314.833C642.437 315.196 642.14 315.86 642.073 316.813C641.674 322.814 650.322 340.213 653.313 363.733C654.803 375.451 655.621 381.844 653.313 390.296C651.03 398.675 647.051 404.012 646.609 407.821V407.821Z" fill="#162D3B"/>
<path id="Vector_54" d="M622.411 256.96C627.379 256.059 633.55 259.374 633.917 262.997C634.22 265.979 630.543 268.702 630.889 269.034C631.213 269.344 633.492 266.072 636.34 266.015C640.643 265.93 645.809 273.196 644.213 277.486C642.932 280.929 637.442 282.055 637.551 282.315C637.654 282.56 641.836 279.888 646.03 280.504C652.034 281.387 657.784 288.971 656.325 293.786C654.695 299.166 644.143 300.831 644.213 301.03C644.287 301.24 654.833 295.857 658.747 299.219C661.373 301.473 660.996 306.729 659.353 310.085C655.923 317.091 645.224 319.573 639.974 316.122C635.891 313.439 638.644 309.497 634.523 301.03C629.462 290.632 620.661 287.025 620.594 279.297C620.588 278.594 620.569 276.331 621.805 275.675C623.781 274.626 627.593 278.4 627.861 278.089C628.152 277.754 623.049 274.079 619.989 267.826C619.026 265.86 616.836 261.386 618.777 258.771C619.766 257.44 621.417 257.14 622.411 256.96Z" fill="#AEDBD8"/>
<path id="Vector_55" d="M649.982 245.106C654.951 244.205 661.121 247.52 661.489 251.143C661.791 254.125 658.114 256.848 658.461 257.18C658.785 257.49 661.063 254.218 663.911 254.162C668.215 254.076 673.38 261.342 671.784 265.632C670.503 269.075 665.014 270.202 665.122 270.461C665.225 270.706 669.407 268.034 673.601 268.65C679.605 269.533 685.355 277.117 683.896 281.932C682.266 287.312 671.714 288.978 671.784 289.176C671.858 289.386 682.404 284.004 686.319 287.365C688.944 289.62 688.567 294.875 686.924 298.232C683.495 305.237 672.795 307.719 667.545 304.269C663.462 301.586 666.215 297.643 662.094 289.176C657.034 278.778 648.232 275.171 648.165 267.443C648.159 266.74 648.14 264.477 649.377 263.821C651.352 262.772 655.164 266.546 655.433 266.236C655.723 265.9 650.62 262.225 647.56 255.973C646.597 254.006 644.407 249.532 646.349 246.917C647.337 245.586 648.988 245.286 649.982 245.106Z" fill="#AEDBD8"/>
<path id="Vector_56" d="M684.002 232.085C679.293 233.902 675.767 239.942 677.351 243.223C678.655 245.924 683.218 246.332 683.096 246.795C682.982 247.228 679.325 245.624 676.866 247.058C673.152 249.226 672.552 258.111 676.16 260.939C679.057 263.208 684.328 261.312 684.372 261.59C684.412 261.852 679.446 261.75 676.192 264.459C671.534 268.337 670.602 277.797 674.369 281.144C678.577 284.884 688.449 280.812 688.493 281.018C688.54 281.236 676.726 282.135 675.149 287.039C674.091 290.328 677.165 294.615 680.324 296.622C686.919 300.811 697.344 297.359 700.014 291.683C702.091 287.27 697.677 285.341 696.757 275.975C695.626 264.473 701.243 256.815 697.252 250.189C696.889 249.587 695.721 247.647 694.322 247.73C692.088 247.864 690.813 253.067 690.422 252.942C689.998 252.807 692.425 247.017 691.76 240.092C691.551 237.913 691.075 232.958 688.05 231.738C686.51 231.117 684.944 231.721 684.002 232.085L684.002 232.085Z" fill="#AEDBD8"/>
<path id="Vector_57" d="M737.506 235.013C740.475 239.084 740.154 246.065 737.039 247.966C734.474 249.531 730.418 247.409 730.269 247.864C730.129 248.29 734.075 248.917 735.361 251.451C737.304 255.28 732.977 263.07 728.407 263.497C724.739 263.84 721.34 259.398 721.153 259.608C720.976 259.806 725.205 262.404 726.467 266.438C728.273 272.214 723.911 280.668 718.926 281.446C713.356 282.315 707.274 273.559 707.125 273.708C706.968 273.866 716.407 281.004 715.066 285.978C714.166 289.314 709.252 291.255 705.506 291.235C697.687 291.192 690.803 282.658 691.645 276.446C692.299 271.615 697.057 272.378 702.923 265.004C710.127 255.949 709.571 246.479 716.527 243.068C717.16 242.758 719.197 241.759 720.327 242.585C722.131 243.904 720.373 248.965 720.77 249.072C721.2 249.187 722.309 243.01 726.633 237.549C727.993 235.832 731.087 231.924 734.293 232.534C735.925 232.845 736.912 234.198 737.506 235.013L737.506 235.013Z" fill="#AEDBD8"/>
<path id="Vector_58" d="M733.266 279.686C736.235 283.758 735.915 290.739 732.8 292.64C730.235 294.205 726.179 292.083 726.03 292.538C725.89 292.964 729.836 293.591 731.122 296.125C733.065 299.954 728.738 307.744 724.168 308.171C720.5 308.514 717.101 304.072 716.913 304.282C716.736 304.48 720.966 307.078 722.227 311.112C724.034 316.888 719.672 325.342 714.687 326.119C709.117 326.989 703.035 318.233 702.886 318.382C702.729 318.539 712.168 325.678 710.826 330.652C709.927 333.988 705.013 335.929 701.267 335.908C693.447 335.866 686.563 327.332 687.405 321.119C688.06 316.289 692.818 317.052 698.684 309.678C705.888 300.623 705.331 291.153 712.288 287.742C712.921 287.431 714.957 286.432 716.087 287.259C717.892 288.578 716.134 293.639 716.531 293.746C716.961 293.861 718.069 287.684 722.393 282.223C723.753 280.506 726.848 276.598 730.053 277.208C731.686 277.518 732.672 278.872 733.266 279.686H733.266Z" fill="#AEDBD8"/>
</g>
<g id="Group_4">
<path id="Vector_59" d="M325.549 406.376C325.507 406.732 325.495 407.064 325.519 407.39H343.499C343.663 407.064 343.802 406.726 343.923 406.376C346.122 400.079 342.506 389.599 347.091 374.06C350.494 362.529 356.847 353.51 359.808 349.308C363.448 344.14 367.572 339.371 372.35 331.752C373.386 330.104 374.452 328.317 375.554 326.367C375.923 325.715 380.181 318.151 379.793 317.916C379.612 317.807 378.485 319.334 378.104 319.847C374.736 324.387 372.78 326.373 369.976 329.639C368.275 331.62 366.264 334.065 363.442 337.838C356.205 347.503 352.589 352.333 351.33 355.949C350.997 356.915 349.222 362.143 345.879 368.626C344.172 371.935 343.318 373.589 342.851 373.456C341.531 373.076 343.312 359.378 348.907 345.686C349.864 343.356 350.579 341.864 351.935 339.045C354.14 334.445 366.415 308.878 375.439 293.574C376.571 291.649 377.655 289.892 378.655 288.352C378.848 288.063 379.036 287.779 379.218 287.507C380.478 285.636 381.592 284.157 382.518 283.203C383.009 282.696 384.257 281.259 386.758 278.373C387.751 277.226 388.478 276.375 388.968 275.753C389.041 275.663 389.107 275.572 389.162 275.494C389.755 274.721 389.925 274.347 389.786 274.147C389.586 273.864 388.817 274.027 387.975 274.322C387.884 274.353 387.787 274.389 387.696 274.425C386.782 274.763 385.855 275.204 385.546 275.355C382.712 276.713 379.945 279.146 377.383 282.038C376.432 283.106 375.518 284.235 374.633 285.394C371.787 289.137 369.304 293.212 367.427 296.563C365.125 300.692 363.745 303.729 363.745 303.729C357.319 317.873 350.191 334.053 349.816 333.914C349.404 333.763 357.307 313.623 359.608 302.684C360.378 299.02 360.517 296.388 359.505 295.881C359.469 295.862 359.433 295.844 359.39 295.832C359.233 295.778 359.088 295.784 359.009 295.79C359.009 295.79 358.07 295.669 357.083 295.881C355.854 296.146 354.455 299.557 353.092 304.344C349.549 316.684 346.182 338.14 346.182 338.14C342.815 359.601 337.704 376.97 336.493 376.776C335.82 376.668 336.783 371.277 335.887 362.288C335.257 355.985 334.543 356.178 332.253 344.78C328.62 326.699 326.803 317.662 326.803 317.614C326.821 317.233 326.869 316.467 326.754 315.67C326.633 314.807 326.324 313.901 325.592 313.388C324.477 312.603 322.685 312.941 321.958 313.388C321.377 313.75 321.08 314.414 321.013 315.368C320.614 321.369 329.262 338.767 332.253 362.288C333.743 374.005 334.561 380.399 332.253 388.85C329.97 397.23 325.991 402.566 325.549 406.376V406.376Z" fill="#162D3B"/>
<path id="Vector_60" d="M303.411 252.49C308.379 251.589 314.55 254.904 314.917 258.527C315.22 261.509 311.543 264.232 311.889 264.564C312.213 264.874 314.492 261.602 317.34 261.545C321.643 261.46 326.809 268.726 325.213 273.015C323.932 276.459 318.442 277.585 318.551 277.845C318.654 278.09 322.836 275.418 327.03 276.034C333.034 276.916 338.784 284.5 337.325 289.315C335.695 294.695 325.143 296.361 325.213 296.56C325.287 296.77 335.833 291.387 339.747 294.749C342.373 297.003 341.996 302.259 340.353 305.615C336.923 312.62 326.224 315.103 320.974 311.652C316.891 308.969 319.644 305.027 315.523 296.56C310.462 286.162 301.661 282.555 301.594 274.827C301.588 274.124 301.569 271.861 302.805 271.204C304.781 270.156 308.593 273.93 308.861 273.619C309.152 273.283 304.049 269.608 300.989 263.356C300.026 261.39 297.836 256.916 299.777 254.301C300.766 252.969 302.417 252.67 303.411 252.49Z" fill="#AEDBD8"/>
<path id="Vector_61" d="M330.982 240.636C335.951 239.735 342.121 243.05 342.489 246.673C342.791 249.655 339.114 252.378 339.461 252.71C339.785 253.02 342.063 249.748 344.911 249.691C349.215 249.606 354.38 256.872 352.784 261.162C351.503 264.605 346.014 265.732 346.122 265.991C346.225 266.236 350.407 263.564 354.601 264.18C360.605 265.063 366.355 272.647 364.896 277.462C363.266 282.842 352.714 284.507 352.784 284.706C352.858 284.916 363.404 279.533 367.319 282.895C369.944 285.149 369.567 290.405 367.924 293.761C364.495 300.767 353.795 303.249 348.545 299.798C344.462 297.115 347.215 293.173 343.094 284.706C338.034 274.308 329.232 270.701 329.165 262.973C329.159 262.27 329.14 260.007 330.377 259.351C332.352 258.302 336.164 262.076 336.433 261.765C336.723 261.43 331.62 257.755 328.56 251.502C327.597 249.536 325.407 245.062 327.349 242.447C328.337 241.116 329.988 240.816 330.982 240.636Z" fill="#AEDBD8"/>
<path id="Vector_62" d="M365.002 227.615C360.293 229.432 356.767 235.472 358.351 238.753C359.655 241.454 364.218 241.862 364.096 242.325C363.982 242.758 360.325 241.154 357.866 242.588C354.152 244.755 353.552 253.641 357.16 256.468C360.057 258.738 365.328 256.842 365.372 257.12C365.412 257.382 360.446 257.28 357.192 259.988C352.534 263.866 351.602 273.327 355.369 276.674C359.577 280.414 369.449 276.342 369.493 276.548C369.54 276.765 357.726 277.665 356.149 282.569C355.091 285.858 358.165 290.145 361.324 292.152C367.919 296.341 378.344 292.889 381.014 287.213C383.091 282.8 378.677 280.87 377.757 271.504C376.626 260.002 382.243 252.345 378.252 245.719C377.889 245.116 376.721 243.176 375.322 243.26C373.088 243.394 371.813 248.597 371.422 248.472C370.998 248.337 373.425 242.547 372.76 235.621C372.551 233.443 372.075 228.488 369.05 227.268C367.51 226.647 365.944 227.251 365.002 227.615L365.002 227.615Z" fill="#AEDBD8"/>
<path id="Vector_63" d="M418.506 230.542C421.475 234.614 421.154 241.595 418.039 243.496C415.474 245.061 411.418 242.939 411.269 243.394C411.129 243.82 415.075 244.447 416.361 246.981C418.304 250.81 413.977 258.6 409.407 259.027C405.739 259.37 402.34 254.928 402.153 255.138C401.976 255.336 406.205 257.934 407.467 261.968C409.273 267.744 404.911 276.198 399.926 276.976C394.356 277.845 388.274 269.089 388.125 269.238C387.968 269.395 397.407 276.534 396.066 281.508C395.166 284.844 390.252 286.785 386.506 286.764C378.687 286.722 371.803 278.188 372.645 271.975C373.299 267.145 378.057 267.908 383.923 260.534C391.127 251.479 390.571 242.009 397.527 238.598C398.16 238.287 400.197 237.288 401.327 238.115C403.131 239.434 401.373 244.495 401.77 244.602C402.2 244.717 403.309 238.54 407.633 233.079C408.993 231.362 412.087 227.454 415.293 228.064C416.925 228.374 417.912 229.728 418.506 230.542L418.506 230.542Z" fill="#AEDBD8"/>
<path id="Vector_64" d="M414.266 275.216C417.235 279.288 416.915 286.268 413.8 288.17C411.235 289.735 407.179 287.613 407.03 288.068C406.89 288.493 410.836 289.121 412.122 291.655C414.065 295.483 409.738 303.274 405.168 303.701C401.5 304.044 398.101 299.601 397.913 299.812C397.736 300.01 401.966 302.608 403.227 306.642C405.034 312.418 400.672 320.872 395.687 321.649C390.117 322.518 384.035 313.763 383.886 313.912C383.729 314.069 393.168 321.208 391.826 326.182C390.927 329.517 386.013 331.459 382.267 331.438C374.447 331.396 367.563 322.862 368.405 316.649C369.06 311.818 373.818 312.582 379.684 305.208C386.888 296.153 386.331 286.683 393.288 283.271C393.921 282.961 395.957 281.962 397.087 282.788C398.892 284.108 397.134 289.169 397.531 289.275C397.961 289.391 399.069 283.213 403.393 277.753C404.753 276.035 407.848 272.128 411.053 272.738C412.686 273.048 413.672 274.401 414.266 275.216H414.266Z" fill="#AEDBD8"/>
</g>
<g id="Group 67">
<path id="Vector_65" d="M414 405.5C414 407.441 414.128 409 414.287 409H627.713C627.872 409 628 407.441 628 405.5C628 403.559 627.872 402 627.713 402H414.287C414.128 402 414 403.559 414 405.5Z" fill="#162D3B"/>
<g id="Group_5">
<path id="Vector_66" d="M627.657 335.525V402.772H414.151V344.124L421.236 330.019H624.736L627.657 335.525Z" fill="#162D3B"/>
<path id="Vector_67" d="M640.453 359.632L627.657 350.661L604.99 334.772L571.356 360.363L414.151 361.241L405.527 361.288L414.151 344.124L421.236 330.019L429.872 296.75L615.227 296.019L624.736 330.019L627.657 335.525L640.453 359.632Z" fill="#55ABE0"/>
<path id="Vector_68" d="M547.227 350.648H462.409V314.82L504.818 299.309L547.227 314.82V350.648Z" fill="#162D3B"/>
<path id="Vector_69" d="M458.205 366.03H420.915V402.772H458.205V366.03Z" fill="white"/>
<path id="Vector_70" d="M540.098 366.03H472.463V402.772H540.098V366.03Z" fill="white"/>
<path id="Vector_71" d="M564.227 368.955H552.893V402.772H564.227V368.955Z" fill="white"/>
<g id="Group_6">
<path id="Vector_72" d="M614.059 363H591V386.324H614.059V363Z" fill="#F3F7FA"/>
<path id="Vector_73" d="M603.192 363H601.602V386.324H603.192V363Z" fill="#162D3B"/>
</g>
<g id="Group_7">
<path id="Vector_74" d="M539.932 321.072H516.873V344.396H539.932V321.072Z" fill="#F3F7FA"/>
<path id="Vector_75" d="M529.065 321.072H527.475V344.396H529.065V321.072Z" fill="#162D3B"/>
</g>
<g id="Group_8">
<path id="Vector_76" d="M497.524 321.072H474.465V344.396H497.524V321.072Z" fill="#F3F7FA"/>
<path id="Vector_77" d="M486.657 321.072H485.066V344.396H486.657V321.072Z" fill="#162D3B"/>
</g>
</g>
<path id="Vector_78" d="M608.787 344H598V354.787H608.787V344Z" fill="#818EA1"/>
<path id="Vector_79" d="M526.527 282H514.527V299H526.527V282Z" fill="#818EA1"/>
</g>
<path id="Vector_80" d="M162.712 349V400.528H157V349H162.712Z" fill="#162D3B"/>
</g>
<defs>
<clipPath id="clip0_97_536">
<rect width="983" height="422" fill="white"/>
</clipPath>
</defs>
</svg>
