<svg width="845" height="400" viewBox="0 0 845 400" fill="none" xmlns="http://www.w3.org/2000/svg">
<g id="sellers-hero-svg" clip-path="url(#clip0_97_536)">
<path id="Vector" d="M184.632 177.193C144.592 177.385 112 178 112 178C112 178 150.74 124.617 184.487 144.395C218.234 164.173 257 177.305 257 177.305C257 177.305 224.673 177.001 184.632 177.193Z" fill="#55ABE0"/>
<path id="Vector_2" d="M772.133 187.214C731.816 187.401 699 188 699 188C699 188 738.007 136.022 771.987 155.28C805.967 174.537 845 187.323 845 187.323C845 187.323 812.45 187.027 772.133 187.214Z" fill="#5FBEFB"/>
<path id="Vector_3" d="M343.746 400C397.147 400 440.437 391.961 440.437 382.045C440.437 372.129 397.147 364.09 343.746 364.09C290.345 364.09 247.055 372.129 247.055 382.045C247.055 391.961 290.345 400 343.746 400Z" fill="#AEDBD8"/>
<g id="sale">
<path id="Vector_4" d="M497.202 188.033L425.303 75.4152L428.631 73.2595L496.855 180.126L552.449 73.4133L555.95 75.2615L497.202 188.033Z" fill="#2F5D7A"/>
<path id="Vector_5" d="M555.957 39.5382H384.722V36.5727C384.722 31.7699 383.774 27.0141 381.934 22.5769C380.093 18.1397 377.396 14.1081 373.995 10.712C370.594 7.31587 366.557 4.62185 362.114 2.7839C357.671 0.945949 352.908 -3.85567e-06 348.099 0V0C343.29 -3.85566e-06 338.527 0.94595 334.084 2.7839C329.641 4.62185 325.604 7.31587 322.203 10.712C318.802 14.1081 316.105 18.1397 314.264 22.5769C312.424 27.0141 311.476 31.7699 311.476 36.5727V39.5382H294.65C284.937 39.5382 275.622 43.3914 268.754 50.2501C261.886 57.1088 258.027 66.4112 258.027 76.1109C258.027 85.8106 261.886 95.113 268.754 101.972C275.622 108.83 284.937 112.683 294.65 112.683H311.476V389.069C384.449 387.608 310.948 390.544 384.722 389.069V112.683H555.957C565.67 112.683 574.985 108.83 581.853 101.972C588.721 95.113 592.579 85.8106 592.579 76.1109C592.579 66.4112 588.721 57.1088 581.853 50.2501C574.985 43.3914 565.67 39.5382 555.957 39.5382V39.5382Z" fill="#2F5D7A"/>
<path id="Vector_6" d="M347.16 89.1324C354.577 89.1324 360.591 82.8459 360.591 75.0911C360.591 67.3362 354.577 61.0496 347.16 61.0496C339.742 61.0496 333.729 67.3362 333.729 75.0911C333.729 82.8459 339.742 89.1324 347.16 89.1324Z" fill="#5FBEFB"/>
<path id="Vector_7" d="M577.784 258.85H419.342C411.858 258.842 404.684 255.878 399.392 250.61C394.1 245.342 391.124 238.199 391.115 230.749V179.503C391.124 172.053 394.101 164.91 399.392 159.642C404.684 154.375 411.858 151.411 419.342 151.403H577.784C585.267 151.411 592.442 154.375 597.733 159.642C603.025 164.91 606.001 172.053 606.01 179.503V230.749C606.002 238.199 603.025 245.342 597.734 250.61C592.442 255.878 585.267 258.842 577.784 258.85V258.85Z" fill="#2F5D7A"/>
<path id="Vector_8" d="M550.898 190.475H447.448C441.287 190.475 436.292 198.675 436.292 208.79C436.292 218.905 441.287 227.104 447.448 227.104H550.898C557.059 227.104 562.054 218.905 562.054 208.79C562.054 198.675 557.059 190.475 550.898 190.475Z" fill="#478EBA"/>
<g id="For Sale">
<path d="M462.856 203.115C462.016 203.141 461.369 203.461 460.916 204.075C460.476 204.688 460.256 205.748 460.256 207.255C460.256 207.748 460.303 208.095 460.396 208.295C460.489 208.481 460.536 208.588 460.536 208.615C459.816 208.615 459.276 208.468 458.916 208.175C458.569 207.868 458.396 207.368 458.396 206.675C458.396 205.728 458.629 204.868 459.096 204.095C459.563 203.308 460.303 202.675 461.316 202.195C462.343 201.715 463.643 201.475 465.216 201.475C465.536 201.475 465.963 201.508 466.496 201.575C467.456 201.668 468.136 201.715 468.536 201.715C469.243 201.715 469.843 201.635 470.336 201.475C470.296 201.595 470.223 201.861 470.116 202.275C470.009 202.675 469.816 203.021 469.536 203.315C469.269 203.595 468.903 203.781 468.436 203.875C467.649 203.875 466.716 203.748 465.636 203.495L464.796 207.475H467.716L467.396 208.955H464.476L462.856 216.475H459.976L462.856 203.115ZM472.816 216.555C471.829 216.555 471.049 216.301 470.476 215.795C469.902 215.288 469.616 214.488 469.616 213.395C469.616 212.488 469.802 211.481 470.176 210.375C470.549 209.268 471.149 208.315 471.976 207.515C472.802 206.701 473.842 206.295 475.096 206.295C476.802 206.295 477.656 207.361 477.656 209.495V209.515C477.696 209.528 477.769 209.535 477.876 209.535C478.316 209.535 478.822 209.421 479.396 209.195C479.969 208.955 480.489 208.668 480.956 208.335L481.136 208.875C480.749 209.288 480.242 209.641 479.616 209.935C479.002 210.215 478.329 210.415 477.596 210.535C477.489 211.748 477.216 212.808 476.776 213.715C476.336 214.621 475.769 215.321 475.076 215.815C474.382 216.308 473.629 216.555 472.816 216.555ZM473.616 214.755C473.936 214.755 474.256 214.575 474.576 214.215C474.896 213.841 475.176 213.341 475.416 212.715C475.656 212.075 475.829 211.368 475.936 210.595C475.576 210.515 475.396 210.235 475.396 209.755C475.396 209.208 475.602 208.848 476.016 208.675C475.989 208.235 475.922 207.935 475.816 207.775C475.709 207.601 475.522 207.515 475.256 207.515C474.816 207.515 474.389 207.835 473.976 208.475C473.562 209.115 473.229 209.881 472.976 210.775C472.722 211.668 472.596 212.455 472.596 213.135C472.596 213.775 472.669 214.208 472.816 214.435C472.962 214.648 473.229 214.755 473.616 214.755ZM482.545 206.475H485.425L485.165 207.715C485.618 207.315 486.025 207.008 486.385 206.795C486.758 206.581 487.158 206.475 487.585 206.475C488.011 206.475 488.345 206.621 488.585 206.915C488.838 207.208 488.965 207.561 488.965 207.975C488.965 208.361 488.838 208.701 488.585 208.995C488.331 209.288 487.978 209.435 487.525 209.435C487.231 209.435 487.031 209.368 486.925 209.235C486.831 209.088 486.758 208.881 486.705 208.615C486.665 208.441 486.625 208.315 486.585 208.235C486.545 208.155 486.471 208.115 486.365 208.115C486.085 208.115 485.845 208.175 485.645 208.295C485.458 208.401 485.211 208.595 484.905 208.875L483.305 216.475H480.425L482.545 206.475ZM502.94 216.835C502.1 216.835 501.36 216.688 500.72 216.395C500.08 216.101 499.587 215.695 499.24 215.175C498.894 214.641 498.72 214.028 498.72 213.335C498.72 212.748 498.84 212.215 499.08 211.735C499.334 211.255 499.667 210.875 500.08 210.595C500.507 210.315 500.974 210.175 501.48 210.175C501.947 210.175 502.34 210.295 502.66 210.535C502.98 210.761 503.18 211.081 503.26 211.495C502.567 211.495 502.014 211.681 501.6 212.055C501.187 212.415 500.98 212.908 500.98 213.535C500.98 214.108 501.154 214.568 501.5 214.915C501.847 215.261 502.307 215.435 502.88 215.435C503.587 215.435 504.167 215.201 504.62 214.735C505.087 214.255 505.32 213.655 505.32 212.935C505.32 212.308 505.147 211.715 504.8 211.155C504.454 210.595 503.934 209.915 503.24 209.115C502.52 208.288 501.974 207.581 501.6 206.995C501.24 206.395 501.06 205.741 501.06 205.035C501.06 204.341 501.254 203.721 501.64 203.175C502.027 202.615 502.56 202.175 503.24 201.855C503.92 201.535 504.687 201.375 505.54 201.375C506.62 201.375 507.48 201.628 508.12 202.135C508.774 202.641 509.1 203.321 509.1 204.175C509.1 204.735 508.96 205.188 508.68 205.535C508.4 205.881 508.034 206.055 507.58 206.055C507.074 206.055 506.667 205.848 506.36 205.435C506.614 205.248 506.814 205.001 506.96 204.695C507.107 204.388 507.18 204.068 507.18 203.735C507.18 203.308 507.054 202.968 506.8 202.715C506.547 202.461 506.2 202.335 505.76 202.335C505.227 202.335 504.787 202.528 504.44 202.915C504.107 203.288 503.94 203.768 503.94 204.355C503.94 204.888 504.094 205.388 504.4 205.855C504.707 206.308 505.187 206.895 505.84 207.615C506.374 208.188 506.8 208.681 507.12 209.095C507.454 209.508 507.734 209.988 507.96 210.535C508.2 211.068 508.32 211.648 508.32 212.275C508.32 213.128 508.08 213.901 507.6 214.595C507.134 215.288 506.487 215.835 505.66 216.235C504.847 216.635 503.94 216.835 502.94 216.835ZM514.347 216.595C513.587 216.595 512.953 216.335 512.447 215.815C511.94 215.295 511.687 214.481 511.687 213.375C511.687 212.388 511.88 211.355 512.267 210.275C512.667 209.181 513.253 208.261 514.027 207.515C514.813 206.755 515.747 206.375 516.827 206.375C517.373 206.375 517.78 206.468 518.047 206.655C518.313 206.841 518.447 207.088 518.447 207.395V207.535L518.667 206.475H521.547L520.107 213.275C520.053 213.475 520.027 213.688 520.027 213.915C520.027 214.488 520.3 214.775 520.847 214.775C521.22 214.775 521.54 214.601 521.807 214.255C522.087 213.908 522.307 213.455 522.467 212.895H523.307C522.813 214.335 522.2 215.315 521.467 215.835C520.747 216.341 520.02 216.595 519.287 216.595C518.727 216.595 518.273 216.441 517.927 216.135C517.593 215.815 517.393 215.355 517.327 214.755C516.94 215.301 516.507 215.748 516.027 216.095C515.56 216.428 515 216.595 514.347 216.595ZM515.647 214.655C515.98 214.655 516.307 214.501 516.627 214.195C516.96 213.875 517.187 213.441 517.307 212.895L518.267 208.375C518.267 208.201 518.2 208.035 518.067 207.875C517.933 207.701 517.727 207.615 517.447 207.615C516.913 207.615 516.433 207.928 516.007 208.555C515.58 209.168 515.247 209.915 515.007 210.795C514.767 211.661 514.647 212.428 514.647 213.095C514.647 213.761 514.74 214.188 514.927 214.375C515.127 214.561 515.367 214.655 515.647 214.655ZM526.954 216.595C526.314 216.595 525.794 216.395 525.394 215.995C525.007 215.595 524.814 214.995 524.814 214.195C524.814 213.861 524.867 213.428 524.974 212.895L527.114 202.875L530.074 202.475L527.774 213.275C527.721 213.475 527.694 213.688 527.694 213.915C527.694 214.181 527.754 214.375 527.874 214.495C528.007 214.601 528.221 214.655 528.514 214.655C528.901 214.655 529.261 214.495 529.594 214.175C529.927 213.841 530.167 213.415 530.314 212.895H531.154C530.661 214.335 530.027 215.315 529.254 215.835C528.481 216.341 527.714 216.595 526.954 216.595ZM535.626 216.595C534.653 216.595 533.893 216.341 533.346 215.835C532.799 215.315 532.526 214.508 532.526 213.415C532.526 212.495 532.706 211.481 533.066 210.375C533.426 209.268 534.013 208.315 534.826 207.515C535.639 206.701 536.673 206.295 537.926 206.295C539.393 206.295 540.126 206.935 540.126 208.215C540.126 208.961 539.913 209.648 539.486 210.275C539.059 210.901 538.493 211.408 537.786 211.795C537.079 212.168 536.326 212.381 535.526 212.435C535.499 212.728 535.486 212.928 535.486 213.035C535.486 214.141 535.899 214.695 536.726 214.695C537.099 214.695 537.499 214.595 537.926 214.395C538.353 214.195 538.739 213.941 539.086 213.635C538.726 215.608 537.573 216.595 535.626 216.595ZM535.666 211.475C536.173 211.461 536.646 211.295 537.086 210.975C537.539 210.655 537.899 210.248 538.166 209.755C538.446 209.248 538.586 208.721 538.586 208.175C538.586 207.628 538.419 207.355 538.086 207.355C537.619 207.355 537.153 207.781 536.686 208.635C536.233 209.475 535.893 210.421 535.666 211.475Z" fill="white"/>
<path d="M458.216 218.475H540.126V219.475H458.216V218.475Z" fill="white"/>
</g>
</g>
<path id="Vector_9" d="M128 192C156.167 192 179 168.943 179 140.5C179 112.057 156.167 89 128 89C99.8335 89 77 112.057 77 140.5C77 168.943 99.8335 192 128 192Z" fill="#FF6584"/>
<g id="Group 56">
<path id="Vector_10" d="M83.4639 347.421H227.479V395.949H83.4639V347.421Z" fill="#5FBEFB"/>
<path id="Vector_11" d="M246.583 347.421H83.4639L87.8725 287.128H242.174L246.583 347.421Z" fill="#5FBEFB"/>
<path id="Vector_12" d="M156.941 291.539L192.21 332.715H121.672L156.941 291.539Z" fill="#5FBEFB"/>
<path id="Vector_13" d="M196.619 335.297H117.263L156.941 286.769L196.619 335.297ZM127.55 330.886H186.332L156.941 294.122L127.55 330.886Z" fill="#2F5D7A"/>
<path id="Vector_14" d="M152.532 307.715H162.819V322.421H152.532V307.715ZM106.977 354.773H136.367V382.714H106.977V354.773ZM196.619 362.126H220.131V382.714H196.619V362.126Z" fill="#F3F7FA"/>
<path id="Vector_15" d="M163.873 363.704H180.038V396.057H163.873V363.704Z" fill="#2F5D7A"/>
<path id="Vector_16" d="M202.497 278.304H220.131V310.657H202.497V278.304Z" fill="#2F5D7A"/>
<path id="Vector_17" d="M120.202 351.832H123.141V385.655H120.202V351.832Z" fill="#5FBEFB"/>
<path id="Vector_18" d="M105.507 369.479V366.538H139.306V369.479H105.507Z" fill="#5FBEFB"/>
<path id="Vector_19" d="M156.941 343.009H230.418V348.891H156.941V343.009Z" fill="#2F5D7A"/>
<path id="Vector_20" d="M158.41 344.479V395.949H154.002V344.479H158.41ZM189.271 343.009V395.949H184.862V343.009H189.271ZM230.418 344.479V395.949H226.009V344.479H230.418Z" fill="#2F5D7A"/>
<path id="Vector_21" d="M123.142 303.304L158.41 344.479H87.8726L123.142 303.304Z" fill="#5FBEFB"/>
<path id="Vector_22" d="M163.291 348.778H82.4663L123.613 300.249L163.291 348.778ZM94.2226 344.366H153.004L123.613 309.073L94.2226 344.366Z" fill="#2F5D7A"/>
<path id="Vector_23" d="M117.263 319.48H129.02V337.127H117.263V319.48Z" fill="#F3F7FA"/>
<path id="Vector_24" d="M230.418 343.009H246.583V395.949H230.418V343.009Z" fill="#2F5D7A"/>
<path id="Vector_25" d="M233.357 363.597H242.174V381.243H233.357V363.597Z" fill="#5FBEFB"/>
<path id="Vector_26" d="M83.4639 394.015H246.583V399.897H83.4639V394.015Z" fill="#2F5D7A"/>
</g>
<path id="Vector_27" d="M76.8667 195.214C117.184 195.401 150 196 150 196C150 196 110.993 144.022 77.013 163.28C43.0333 182.537 4 195.323 4 195.323C4 195.323 36.5497 195.027 76.8667 195.214Z" fill="#5FBEFB"/>
<g id="Group">
<path id="Vector_28" d="M90.5896 399.092C90.6318 399.447 90.6438 399.777 90.6197 400.102H72.7229C72.5601 399.777 72.4215 399.441 72.3009 399.092C70.1128 392.825 73.7115 382.394 69.1483 366.927C65.7607 355.449 59.4374 346.472 56.4897 342.29C52.867 337.146 48.762 332.399 44.0059 324.816C42.9752 323.175 41.9143 321.397 40.8172 319.456C40.4495 318.807 36.2119 311.278 36.5977 311.043C36.7785 310.935 37.8997 312.455 38.2794 312.966C41.6309 317.485 43.578 319.462 46.3689 322.713C48.0627 324.684 50.064 327.117 52.873 330.873C60.0763 340.493 63.675 345.3 64.9288 348.9C65.2603 349.861 67.0265 355.065 70.3539 361.518C72.0538 364.811 72.9037 366.458 73.3679 366.326C74.6819 365.947 72.9097 352.313 67.34 338.684C66.3875 336.365 65.6763 334.881 64.326 332.075C62.1318 327.496 49.9133 302.048 40.9317 286.815C39.8045 284.898 38.7255 283.15 37.7309 281.617C37.538 281.329 37.3511 281.047 37.1703 280.776C35.9165 278.913 34.8074 277.441 33.8851 276.492C33.3968 275.987 32.1551 274.557 29.6656 271.685C28.677 270.543 27.9536 269.696 27.4654 269.077C27.393 268.987 27.3267 268.897 27.2725 268.818C26.6817 268.049 26.513 267.677 26.6516 267.478C26.8505 267.196 27.6161 267.358 28.4539 267.653C28.5444 267.683 28.6408 267.719 28.7312 267.755C29.6415 268.091 30.5637 268.53 30.8711 268.68C33.6922 270.032 36.447 272.454 38.9967 275.332C39.9431 276.396 40.8534 277.519 41.7334 278.673C44.5665 282.399 47.038 286.455 48.9066 289.79C51.1972 293.9 52.5716 296.922 52.5716 296.922C58.9672 311.001 66.062 327.105 66.4358 326.967C66.8457 326.817 58.9793 306.771 56.6887 295.883C55.9231 292.235 55.7845 289.615 56.7911 289.111C56.8273 289.093 56.8635 289.075 56.9057 289.063C57.0624 289.008 57.2071 289.014 57.2854 289.02C57.2854 289.02 58.2197 288.9 59.2023 289.111C60.426 289.375 61.8184 292.77 63.1747 297.535C66.701 309.817 70.0525 331.173 70.0525 331.173C73.404 352.535 78.4916 369.823 79.6972 369.631C80.3663 369.522 79.4078 364.156 80.3 355.209C80.9268 348.936 81.6381 349.128 83.9167 337.783C87.5334 319.786 89.3418 310.791 89.3418 310.743C89.3237 310.364 89.2755 309.601 89.39 308.808C89.5106 307.949 89.818 307.047 90.5474 306.537C91.6565 305.755 93.4408 306.092 94.1641 306.537C94.7428 306.897 95.0382 307.558 95.1045 308.507C95.5023 314.48 86.8945 331.798 83.9167 355.209C82.4338 366.872 81.6201 373.236 83.9167 381.648C86.1892 389.989 90.1496 395.301 90.5896 399.092V399.092Z" fill="#2F5D7A"/>
<path id="Vector_29" d="M116.257 244.823C111.312 243.926 105.17 247.225 104.804 250.832C104.503 253.8 108.163 256.51 107.818 256.841C107.496 257.149 105.228 253.892 102.393 253.836C98.1095 253.751 92.9683 260.983 94.5568 265.253C95.832 268.681 101.296 269.802 101.188 270.06C101.085 270.304 96.9226 267.644 92.7485 268.258C86.772 269.136 81.049 276.685 82.501 281.477C84.1235 286.832 94.6266 288.49 94.5568 288.688C94.4831 288.897 83.9858 283.539 80.0899 286.885C77.4768 289.129 77.8515 294.361 79.4871 297.701C82.9007 304.674 93.5501 307.145 98.7764 303.71C102.84 301.04 100.1 297.116 104.201 288.688C109.239 278.338 117.999 274.748 118.066 267.056C118.072 266.356 118.091 264.104 116.86 263.45C114.894 262.407 111.1 266.163 110.832 265.854C110.543 265.52 115.622 261.862 118.668 255.639C119.627 253.681 121.807 249.228 119.874 246.625C118.89 245.3 117.247 245.002 116.257 244.823V244.823Z" fill="#AEDBD8"/>
<path id="Vector_30" d="M88.5288 233.406C83.5836 232.509 77.4416 235.808 77.0758 239.415C76.7746 242.383 80.4346 245.093 80.0897 245.423C79.7673 245.732 77.4995 242.475 74.6646 242.419C70.381 242.334 65.2398 249.566 66.8283 253.836C68.1035 257.264 73.5672 258.385 73.459 258.643C73.357 258.887 69.1941 256.227 65.02 256.84C59.0434 257.719 53.3205 265.268 54.7725 270.06C56.3949 275.415 66.8981 277.073 66.8283 277.271C66.7546 277.48 56.2573 272.122 52.3613 275.468C49.7483 277.712 50.123 282.944 51.7586 286.284C55.1722 293.257 65.8216 295.728 71.0479 292.293C75.1115 289.623 72.3711 285.699 76.473 277.271C81.5102 266.921 90.2707 263.331 90.3372 255.639C90.3432 254.939 90.3627 252.687 89.1316 252.033C87.1655 250.99 83.3711 254.746 83.1037 254.437C82.8144 254.103 87.8937 250.445 90.9399 244.222C91.8981 242.264 94.078 237.811 92.1455 235.208C91.1617 233.883 89.5182 233.585 88.5288 233.406Z" fill="#AEDBD8"/>
<path id="Vector_31" d="M54.9523 220.063C59.6395 221.872 63.1493 227.884 61.5724 231.149C60.2743 233.838 55.7332 234.244 55.8544 234.705C55.9677 235.136 59.6078 233.539 62.0549 234.967C65.7526 237.124 66.3491 245.968 62.7577 248.783C59.8749 251.042 54.6279 249.154 54.5847 249.431C54.5441 249.692 59.4877 249.59 62.7262 252.286C67.3631 256.147 68.2898 265.563 64.5411 268.895C60.3524 272.617 50.5263 268.564 50.4823 268.769C50.4358 268.986 62.1947 269.881 63.7647 274.762C64.8177 278.036 61.7579 282.303 58.6132 284.3C52.0495 288.47 41.6729 285.034 39.0148 279.385C36.948 274.992 41.3407 273.072 42.2569 263.749C43.3821 252.3 37.7914 244.678 41.7641 238.083C42.1253 237.484 43.2885 235.553 44.6808 235.636C46.9043 235.769 48.1728 240.948 48.5626 240.824C48.9844 240.689 46.5686 234.926 47.2303 228.033C47.4385 225.865 47.912 220.932 50.9235 219.718C52.4567 219.1 54.0144 219.701 54.9523 220.063Z" fill="#AEDBD8"/>
<path id="Vector_32" d="M1.72165 223.332C-1.23368 227.385 -0.914735 234.333 2.18622 236.225C4.73882 237.783 8.77594 235.671 8.92486 236.124C9.06402 236.547 5.13647 237.172 3.85631 239.694C1.92195 243.505 6.22933 251.259 10.7778 251.684C14.429 252.025 17.8119 247.604 17.9986 247.813C18.1747 248.01 13.9649 250.596 12.7093 254.611C10.9114 260.361 15.2529 268.775 20.2145 269.549C25.7586 270.414 31.8125 261.699 31.9608 261.847C32.1176 262.004 22.7225 269.11 24.0572 274.06C24.9525 277.381 29.8437 279.313 33.5726 279.292C41.3556 279.25 48.2076 270.756 47.3696 264.572C46.718 259.764 41.9824 260.524 36.1435 253.184C28.973 244.171 29.5269 234.745 22.6026 231.349C21.9729 231.041 19.9455 230.046 18.8208 230.869C17.0247 232.182 18.7745 237.219 18.3792 237.326C17.9517 237.441 16.8481 231.292 12.5441 225.857C11.1903 224.147 8.1104 220.258 4.91962 220.865C3.2951 221.174 2.31295 222.521 1.72164 223.332L1.72165 223.332Z" fill="#AEDBD8"/>
<path id="Vector_33" d="M5.94113 267.798C2.9858 271.851 3.30475 278.799 6.4057 280.691C8.9583 282.249 12.9954 280.137 13.1443 280.59C13.2835 281.014 9.35595 281.638 8.07579 284.16C6.14143 287.971 10.4488 295.725 14.9973 296.15C18.6485 296.491 22.0313 292.07 22.2181 292.279C22.3942 292.477 18.1844 295.062 16.9288 299.078C15.1309 304.827 19.4724 313.241 24.434 314.015C29.9781 314.88 36.032 306.165 36.1803 306.314C36.337 306.47 26.9419 313.576 28.2767 318.527C29.172 321.847 34.0632 323.779 37.7921 323.759C45.5751 323.716 52.4271 315.222 51.589 309.038C50.9375 304.23 46.2019 304.99 40.363 297.65C33.1925 288.637 33.7464 279.211 26.8221 275.816C26.1924 275.507 24.165 274.513 23.0403 275.335C21.2441 276.648 22.994 281.686 22.5987 281.792C22.1712 281.907 21.0676 275.758 16.7636 270.323C15.4098 268.613 12.3299 264.724 9.1391 265.331C7.51458 265.64 6.53243 266.987 5.94113 267.798H5.94113Z" fill="#AEDBD8"/>
</g>
<g id="Group 58">
<path id="Vector_34" d="M627.153 382.825C625.848 381.519 621.931 381.519 620.625 384.131C619.897 385.32 619.451 386.659 619.32 388.047C619.32 384.131 618.014 372.38 612.792 372.38C608.875 372.38 608.875 382.825 608.875 388.047C606.264 382.825 604.958 380.214 602.347 380.214C594.514 380.214 603.653 397.187 603.653 397.187H621.931L624.542 393.27C625.615 391.638 626.492 389.885 627.153 388.047C627.329 387.186 627.329 386.298 627.153 385.436C627.452 384.591 627.452 383.67 627.153 382.825Z" fill="#AEDBD8"/>
<path id="Vector_35" d="M623.237 282.294H757.713V397.187H623.237V282.294Z" fill="#5FBEFB"/>
<path id="Vector_36" d="M623.237 378.908H757.713V380.214H623.237V378.908ZM623.237 371.075H757.713V372.38H623.237V371.075ZM623.237 363.241H757.713H623.237ZM623.237 354.102H757.713V355.408H623.237V354.102ZM623.237 346.268H757.713V347.574H623.237V346.268ZM623.237 338.435H757.713V339.74H623.237V338.435ZM623.237 330.601H757.713H623.237ZM623.237 321.462H757.713V322.768H623.237V321.462ZM623.237 313.629H757.713V314.934H623.237V313.629ZM623.237 305.795H757.713V307.101H623.237V305.795ZM623.237 296.656H757.713V297.961H623.237V296.656ZM623.237 288.822H757.713V290.128H623.237V288.822ZM768.158 326.684H798.186V397.187H768.158V326.684Z" fill="#2F5D7A"/>
<path id="Vector_37" d="M623.237 282.294H672.849V330.601H623.237V282.294Z" fill="#2F5D7A"/>
<path id="Vector_38" d="M612.792 322.768H672.849V331.907H612.792V322.768Z" fill="#F3F7FA"/>
<path id="Vector_39" d="M650.654 354.102H672.849V391.964H650.654V354.102Z" fill="#2F5D7A"/>
<path id="Vector_40" d="M678.072 358.019H688.516V367.158H678.072V358.019ZM695.044 358.019H705.489V367.158H695.044V358.019ZM725.073 300.573H734.212V311.017H725.073V300.573ZM742.046 300.573H752.49V311.017H742.046V300.573ZM645.432 352.796H672.849V358.019H645.432V352.796Z" fill="#F3F7FA"/>
<path id="Vector_41" d="M768.158 389.353H798.186V390.659H768.158V389.353ZM768.158 381.519H798.186V382.825H768.158V381.519ZM768.158 372.38H798.186V373.686H768.158V372.38ZM768.158 364.547H798.186V365.852H768.158V364.547ZM768.158 356.713H798.186V358.019H768.158V356.713ZM768.158 348.88H798.186H768.158ZM768.158 339.74H798.186V341.046H768.158V339.74ZM718.545 326.684H768.158V397.187H718.545V326.684Z" fill="#5FBEFB"/>
<path id="Vector_42" d="M718.545 389.353H768.158V390.659H718.545V389.353ZM718.545 381.519H768.158V382.825H718.545V381.519ZM718.545 372.38H768.158V373.686H718.545V372.38ZM718.545 364.547H768.158V365.852H718.545V364.547ZM718.545 356.713H768.158V358.019H718.545V356.713ZM718.545 348.88H768.158H718.545ZM718.545 339.74H768.158V341.046H718.545V339.74Z" fill="#2F5D7A"/>
<path id="Vector_43" d="M623.237 316.24H672.849V317.545H623.237V316.24ZM623.237 308.406H672.849H623.237ZM623.237 299.267H672.849V300.573H623.237V299.267ZM623.237 291.433H672.849V292.739H623.237V291.433Z" fill="#5FBEFB"/>
<path id="Vector_44" d="M713.323 325.379H772.074V334.518H713.323V325.379Z" fill="#F3F7FA"/>
<path id="Vector_45" d="M769.463 325.379H806.02V334.518H769.463V325.379Z" fill="#2F5D7A"/>
<path id="Vector_46" d="M618.599 394.484H724.352V399.706H618.599V394.484Z" fill="#2F5D7A"/>
</g>
<g id="Group_2">
<path id="Vector_47" d="M816.585 399.353C816.628 399.708 816.64 400.039 816.616 400.364H798.68C798.517 400.039 798.378 399.702 798.257 399.353C796.064 393.072 799.671 382.618 795.098 367.117C791.703 355.615 785.366 346.618 782.412 342.427C778.781 337.272 774.667 332.515 769.901 324.915C768.868 323.271 767.805 321.489 766.705 319.544C766.337 318.893 762.09 311.348 762.477 311.113C762.658 311.005 763.782 312.528 764.162 313.04C767.521 317.569 769.472 319.55 772.269 322.808C773.967 324.783 775.972 327.222 778.787 330.986C786.006 340.627 789.613 345.444 790.869 349.051C791.201 350.015 792.971 355.23 796.306 361.697C798.009 364.997 798.861 366.647 799.326 366.515C800.643 366.136 798.867 352.472 793.285 338.814C792.331 336.49 791.618 335.002 790.265 332.19C788.066 327.601 775.821 302.098 766.82 286.833C765.69 284.912 764.609 283.159 763.612 281.624C763.419 281.335 763.232 281.052 763.051 280.781C761.794 278.914 760.683 277.438 759.758 276.487C759.269 275.981 758.025 274.548 755.53 271.669C754.539 270.525 753.814 269.676 753.325 269.056C753.252 268.966 753.186 268.875 753.131 268.797C752.539 268.026 752.37 267.653 752.509 267.454C752.708 267.171 753.476 267.334 754.315 267.629C754.406 267.659 754.503 267.695 754.593 267.731C755.505 268.068 756.43 268.508 756.738 268.658C759.565 270.013 762.326 272.44 764.881 275.325C765.829 276.391 766.742 277.517 767.624 278.673C770.463 282.407 772.94 286.471 774.812 289.814C777.108 293.933 778.485 296.962 778.485 296.962C784.895 311.071 792.005 327.21 792.379 327.071C792.79 326.921 784.907 306.832 782.611 295.92C781.844 292.264 781.705 289.639 782.714 289.133C782.75 289.115 782.786 289.097 782.829 289.085C782.986 289.031 783.131 289.037 783.209 289.043C783.209 289.043 784.146 288.922 785.13 289.133C786.357 289.398 787.752 292.8 789.111 297.576C792.645 309.885 796.004 331.287 796.004 331.287C799.363 352.695 804.461 370.02 805.669 369.827C806.34 369.719 805.379 364.341 806.273 355.374C806.902 349.088 807.615 349.28 809.898 337.911C813.523 319.875 815.335 310.86 815.335 310.812C815.317 310.433 815.268 309.668 815.383 308.873C815.504 308.012 815.812 307.109 816.543 306.597C817.655 305.814 819.443 306.151 820.168 306.597C820.748 306.958 821.044 307.62 821.11 308.572C821.509 314.558 812.882 331.913 809.898 355.374C808.412 367.063 807.596 373.44 809.898 381.871C812.175 390.229 816.144 395.553 816.585 399.353V399.353Z" fill="#2F5D7A"/>
<path id="Vector_48" d="M840.723 248.867C835.767 247.969 829.612 251.275 829.245 254.889C828.943 257.864 832.611 260.58 832.266 260.911C831.943 261.221 829.67 257.957 826.829 257.9C822.536 257.815 817.384 265.063 818.976 269.342C820.253 272.777 825.729 273.901 825.621 274.16C825.518 274.404 821.346 271.738 817.163 272.353C811.174 273.233 805.438 280.798 806.894 285.601C808.52 290.968 819.045 292.63 818.976 292.828C818.902 293.037 808.382 287.668 804.477 291.021C801.859 293.27 802.234 298.513 803.873 301.861C807.294 308.848 817.967 311.324 823.204 307.883C827.277 305.206 824.53 301.274 828.641 292.828C833.689 282.456 842.469 278.858 842.535 271.149C842.541 270.448 842.561 268.191 841.327 267.535C839.357 266.489 835.554 270.254 835.286 269.944C834.996 269.609 840.086 265.944 843.139 259.707C844.099 257.745 846.284 253.282 844.347 250.674C843.361 249.346 841.714 249.047 840.723 248.867Z" fill="#AEDBD8"/>
<path id="Vector_49" d="M813.22 237.043C808.265 236.144 802.109 239.451 801.743 243.065C801.441 246.04 805.109 248.756 804.763 249.087C804.44 249.396 802.167 246.132 799.326 246.076C795.033 245.991 789.881 253.239 791.473 257.518C792.751 260.953 798.227 262.076 798.118 262.335C798.016 262.58 793.844 259.914 789.661 260.529C783.671 261.409 777.936 268.974 779.391 273.777C781.017 279.144 791.543 280.805 791.473 281.003C791.399 281.213 780.879 275.844 776.975 279.197C774.356 281.446 774.732 286.688 776.371 290.036C779.792 297.024 790.464 299.5 795.702 296.058C799.774 293.382 797.028 289.449 801.139 281.003C806.187 270.632 814.966 267.033 815.033 259.324C815.039 258.623 815.058 256.366 813.825 255.711C811.854 254.665 808.052 258.43 807.784 258.12C807.494 257.785 812.584 254.119 815.637 247.883C816.597 245.921 818.782 241.458 816.845 238.85C815.859 237.522 814.212 237.223 813.22 237.043Z" fill="#AEDBD8"/>
<path id="Vector_50" d="M779.286 224.055C783.983 225.868 787.5 231.892 785.92 235.165C784.619 237.859 780.068 238.266 780.19 238.728C780.303 239.16 783.951 237.56 786.404 238.99C790.109 241.153 790.707 250.016 787.108 252.836C784.219 255.101 778.96 253.209 778.917 253.486C778.876 253.748 783.831 253.646 787.076 256.347C791.723 260.216 792.652 269.653 788.895 272.992C784.697 276.722 774.85 272.661 774.806 272.866C774.759 273.083 786.544 273.98 788.117 278.872C789.172 282.153 786.106 286.429 782.954 288.431C776.377 292.609 765.977 289.166 763.314 283.504C761.242 279.102 765.644 277.177 766.563 267.835C767.69 256.361 762.088 248.723 766.069 242.114C766.431 241.513 767.597 239.578 768.992 239.661C771.22 239.795 772.491 244.984 772.882 244.86C773.305 244.725 770.884 238.949 771.547 232.041C771.755 229.868 772.23 224.925 775.248 223.709C776.785 223.089 778.346 223.692 779.286 224.055L779.286 224.055Z" fill="#AEDBD8"/>
<path id="Vector_51" d="M725.916 226.975C722.954 231.037 723.273 238 726.381 239.896C728.939 241.458 732.985 239.341 733.134 239.795C733.274 240.219 729.338 240.845 728.055 243.373C726.116 247.192 730.433 254.963 734.991 255.389C738.65 255.73 742.041 251.299 742.228 251.509C742.404 251.707 738.185 254.298 736.927 258.322C735.125 264.084 739.476 272.516 744.448 273.292C750.004 274.159 756.071 265.425 756.22 265.574C756.377 265.731 746.962 272.852 748.299 277.813C749.197 281.141 754.098 283.077 757.835 283.057C765.635 283.014 772.502 274.502 771.662 268.305C771.009 263.486 766.263 264.247 760.412 256.892C753.226 247.86 753.781 238.413 746.842 235.01C746.211 234.701 744.179 233.704 743.052 234.528C741.252 235.844 743.005 240.893 742.609 240.999C742.181 241.114 741.075 234.952 736.761 229.505C735.405 227.792 732.318 223.894 729.12 224.503C727.492 224.812 726.508 226.162 725.916 226.975L725.916 226.975Z" fill="#AEDBD8"/>
<path id="Vector_52" d="M730.144 271.537C727.182 275.599 727.502 282.562 730.61 284.459C733.168 286.02 737.214 283.903 737.363 284.357C737.502 284.781 733.566 285.407 732.283 287.935C730.345 291.754 734.661 299.525 739.22 299.951C742.879 300.293 746.269 295.862 746.456 296.071C746.633 296.269 742.414 298.861 741.155 302.885C739.354 308.646 743.705 317.079 748.677 317.855C754.233 318.722 760.3 309.988 760.449 310.136C760.606 310.293 751.19 317.414 752.528 322.376C753.425 325.703 758.327 327.639 762.064 327.619C769.864 327.577 776.73 319.064 775.891 312.867C775.238 308.048 770.492 308.81 764.64 301.454C757.454 292.422 758.009 282.975 751.07 279.572C750.439 279.263 748.407 278.267 747.28 279.091C745.48 280.407 747.234 285.455 746.838 285.562C746.409 285.677 745.303 279.515 740.99 274.068C739.633 272.355 736.547 268.457 733.349 269.065C731.721 269.375 730.737 270.725 730.144 271.537H730.144Z" fill="#AEDBD8"/>
</g>
<g id="Group_3">
<path id="Vector_53" d="M571.852 399.353C571.81 399.708 571.798 400.039 571.822 400.364H589.757C589.92 400.039 590.059 399.702 590.18 399.353C592.373 393.072 588.767 382.618 593.34 367.117C596.735 355.615 603.071 346.618 606.025 342.427C609.656 337.272 613.77 332.515 618.536 324.915C619.569 323.271 620.632 321.489 621.732 319.544C622.1 318.893 626.347 311.348 625.961 311.113C625.779 311.005 624.656 312.528 624.275 313.04C620.916 317.569 618.965 319.55 616.168 322.808C614.471 324.783 612.465 327.222 609.65 330.986C602.431 340.627 598.825 345.444 597.568 349.051C597.236 350.015 595.466 355.23 592.131 361.697C590.428 364.997 589.576 366.647 589.111 366.515C587.794 366.136 589.57 352.472 595.152 338.814C596.106 336.49 596.819 335.002 598.172 332.19C600.371 327.601 612.616 302.098 621.617 286.833C622.747 284.912 623.828 283.159 624.825 281.624C625.018 281.335 625.205 281.052 625.387 280.781C626.643 278.914 627.755 277.438 628.679 276.487C629.168 275.981 630.413 274.548 632.908 271.669C633.898 270.525 634.623 269.676 635.113 269.056C635.185 268.966 635.252 268.875 635.306 268.797C635.898 268.026 636.067 267.653 635.928 267.454C635.729 267.171 634.962 267.334 634.122 267.629C634.031 267.659 633.935 267.695 633.844 267.731C632.932 268.068 632.008 268.508 631.699 268.658C628.872 270.013 626.112 272.44 623.556 275.325C622.608 276.391 621.696 277.517 620.814 278.673C617.974 282.407 615.498 286.471 613.625 289.814C611.329 293.933 609.952 296.962 609.952 296.962C603.543 311.071 596.432 327.21 596.058 327.071C595.647 326.921 603.531 306.832 605.826 295.92C606.593 292.264 606.732 289.639 605.723 289.133C605.687 289.115 605.651 289.097 605.609 289.085C605.452 289.031 605.307 289.037 605.228 289.043C605.228 289.043 604.292 288.922 603.307 289.133C602.081 289.398 600.685 292.8 599.326 297.576C595.792 309.885 592.433 331.287 592.433 331.287C589.075 352.695 583.976 370.02 582.768 369.827C582.097 369.719 583.058 364.341 582.164 355.374C581.536 349.088 580.823 349.28 578.539 337.911C574.915 319.875 573.102 310.86 573.102 310.812C573.121 310.433 573.169 309.668 573.054 308.873C572.933 308.012 572.625 307.109 571.894 306.597C570.783 305.814 568.995 306.151 568.27 306.597C567.69 306.958 567.394 307.62 567.327 308.572C566.929 314.558 575.555 331.913 578.539 355.374C580.025 367.063 580.841 373.44 578.539 381.871C576.262 390.229 572.293 395.553 571.852 399.353V399.353Z" fill="#2F5D7A"/>
<path id="Vector_54" d="M547.714 248.867C552.67 247.969 558.826 251.275 559.192 254.889C559.494 257.864 555.826 260.58 556.172 260.911C556.495 261.221 558.768 257.957 561.609 257.9C565.901 257.815 571.054 265.063 569.462 269.342C568.184 272.777 562.708 273.901 562.817 274.16C562.919 274.404 567.091 271.738 571.274 272.353C577.263 273.233 582.999 280.798 581.544 285.601C579.918 290.968 569.392 292.63 569.462 292.828C569.536 293.037 580.056 287.668 583.96 291.021C586.579 293.27 586.203 298.513 584.564 301.861C581.143 308.848 570.471 311.324 565.233 307.883C561.161 305.206 563.907 301.274 559.796 292.828C554.748 282.456 545.969 278.858 545.902 271.149C545.896 270.448 545.877 268.191 547.11 267.535C549.081 266.489 552.883 270.254 553.151 269.944C553.441 269.609 548.351 265.944 545.298 259.707C544.338 257.745 542.153 253.282 544.09 250.674C545.076 249.346 546.723 249.047 547.714 248.867Z" fill="#AEDBD8"/>
<path id="Vector_55" d="M575.217 237.043C580.173 236.144 586.328 239.451 586.695 243.065C586.996 246.04 583.328 248.756 583.674 249.087C583.997 249.396 586.27 246.132 589.111 246.076C593.404 245.991 598.556 253.239 596.964 257.518C595.686 260.953 590.211 262.076 590.319 262.335C590.421 262.58 594.593 259.914 598.776 260.529C604.766 261.409 610.501 268.974 609.046 273.777C607.42 279.144 596.894 280.805 596.964 281.003C597.038 281.213 607.558 275.844 611.462 279.197C614.081 281.446 613.706 286.688 612.067 290.036C608.645 297.024 597.973 299.5 592.736 296.058C588.663 293.382 591.409 289.449 587.299 281.003C582.251 270.632 573.471 267.033 573.405 259.324C573.398 258.623 573.379 256.366 574.613 255.711C576.583 254.665 580.386 258.43 580.654 258.12C580.944 257.785 575.853 254.119 572.8 247.883C571.84 245.921 569.656 241.458 571.592 238.85C572.578 237.522 574.225 237.223 575.217 237.043Z" fill="#AEDBD8"/>
<path id="Vector_56" d="M609.152 224.055C604.454 225.868 600.937 231.892 602.517 235.165C603.818 237.859 608.369 238.266 608.248 238.728C608.134 239.16 604.486 237.56 602.034 238.99C598.328 241.153 597.73 250.016 601.329 252.836C604.219 255.101 609.477 253.209 609.52 253.486C609.561 253.748 604.606 253.646 601.361 256.347C596.714 260.216 595.785 269.653 599.542 272.992C603.74 276.722 613.587 272.661 613.631 272.866C613.678 273.083 601.894 273.98 600.32 278.872C599.265 282.153 602.331 286.429 605.483 288.431C612.061 292.609 622.46 289.166 625.124 283.504C627.195 279.102 622.793 277.177 621.875 267.835C620.747 256.361 626.35 248.723 622.368 242.114C622.006 241.513 620.841 239.578 619.445 239.661C617.217 239.795 615.946 244.984 615.555 244.86C615.133 244.725 617.554 238.949 616.89 232.041C616.682 229.868 616.207 224.925 613.189 223.709C611.653 223.089 610.092 223.692 609.152 224.055L609.152 224.055Z" fill="#AEDBD8"/>
<path id="Vector_57" d="M662.522 226.975C665.483 231.037 665.164 238 662.056 239.896C659.498 241.458 655.452 239.341 655.303 239.795C655.163 240.219 659.1 240.845 660.382 243.373C662.321 247.192 658.004 254.963 653.446 255.389C649.787 255.73 646.397 251.299 646.21 251.509C646.033 251.707 650.252 254.298 651.51 258.322C653.312 264.084 648.961 272.516 643.989 273.292C638.433 274.159 632.366 265.425 632.217 265.574C632.06 265.731 641.476 272.852 640.138 277.813C639.241 281.141 634.339 283.077 630.602 283.057C622.802 283.014 615.935 274.502 616.775 268.305C617.428 263.486 622.174 264.247 628.025 256.892C635.211 247.86 634.656 238.413 641.596 235.01C642.227 234.701 644.258 233.704 645.386 234.528C647.186 235.844 645.432 240.893 645.828 240.999C646.257 241.114 647.363 234.952 651.676 229.505C653.033 227.792 656.119 223.894 659.317 224.503C660.945 224.812 661.929 226.162 662.522 226.975L662.522 226.975Z" fill="#AEDBD8"/>
<path id="Vector_58" d="M658.293 271.537C661.255 275.599 660.935 282.562 657.828 284.459C655.27 286.02 651.224 283.903 651.074 284.357C650.935 284.781 654.871 285.407 656.154 287.935C658.092 291.754 653.776 299.525 649.217 299.951C645.558 300.293 642.168 295.862 641.981 296.071C641.805 296.269 646.023 298.861 647.282 302.885C649.084 308.646 644.733 317.079 639.76 317.855C634.204 318.722 628.137 309.988 627.989 310.136C627.832 310.293 637.247 317.414 635.909 322.376C635.012 325.703 630.11 327.639 626.373 327.619C618.574 327.577 611.707 319.064 612.547 312.867C613.2 308.048 617.945 308.81 623.797 301.454C630.983 292.422 630.428 282.975 637.367 279.572C637.998 279.263 640.03 278.267 641.157 279.091C642.957 280.407 641.204 285.455 641.6 285.562C642.028 285.677 643.134 279.515 647.447 274.068C648.804 272.355 651.891 268.457 655.088 269.065C656.716 269.375 657.701 270.725 658.293 271.537H658.293Z" fill="#AEDBD8"/>
</g>
<g id="Group_4">
<path id="Vector_59" d="M251.593 399.377C251.551 399.733 251.539 400.064 251.563 400.389H269.498C269.661 400.064 269.8 399.727 269.921 399.377C272.114 393.096 268.507 382.642 273.08 367.142C276.475 355.64 282.812 346.643 285.766 342.452C289.397 337.297 293.511 332.54 298.277 324.94C299.31 323.296 300.373 321.514 301.473 319.569C301.841 318.918 306.088 311.373 305.702 311.138C305.52 311.029 304.397 312.553 304.016 313.065C300.657 317.593 298.706 319.575 295.909 322.832C294.212 324.808 292.206 327.246 289.391 331.01C282.172 340.651 278.566 345.469 277.309 349.076C276.977 350.04 275.207 355.255 271.872 361.722C270.169 365.022 269.317 366.672 268.852 366.54C267.535 366.16 269.311 352.496 274.893 338.839C275.847 336.514 276.56 335.027 277.913 332.215C280.112 327.626 292.357 302.123 301.358 286.857C302.488 284.936 303.569 283.184 304.566 281.648C304.759 281.359 304.946 281.076 305.128 280.805C306.384 278.938 307.496 277.463 308.42 276.512C308.909 276.006 310.154 274.573 312.649 271.694C313.639 270.55 314.364 269.701 314.854 269.081C314.926 268.99 314.993 268.9 315.047 268.822C315.639 268.051 315.808 267.677 315.669 267.479C315.47 267.196 314.703 267.358 313.863 267.653C313.772 267.683 313.676 267.72 313.585 267.756C312.673 268.093 311.749 268.533 311.44 268.683C308.613 270.038 305.853 272.465 303.297 275.349C302.349 276.415 301.437 277.541 300.555 278.698C297.715 282.431 295.239 286.496 293.366 289.838C291.07 293.957 289.693 296.986 289.693 296.986C283.284 311.096 276.173 327.234 275.799 327.096C275.388 326.945 283.272 306.856 285.567 295.944C286.334 292.289 286.473 289.664 285.464 289.158C285.428 289.14 285.392 289.122 285.35 289.11C285.193 289.055 285.048 289.061 284.969 289.067C284.969 289.067 284.033 288.947 283.048 289.158C281.822 289.423 280.426 292.825 279.067 297.6C275.533 309.909 272.174 331.311 272.174 331.311C268.816 352.719 263.717 370.044 262.509 369.852C261.838 369.743 262.799 364.366 261.905 355.399C261.277 349.112 260.564 349.305 258.28 337.935C254.656 319.9 252.843 310.885 252.843 310.837C252.861 310.457 252.91 309.693 252.795 308.898C252.674 308.036 252.366 307.133 251.635 306.621C250.524 305.838 248.736 306.176 248.011 306.621C247.431 306.983 247.135 307.645 247.068 308.597C246.67 314.582 255.296 331.938 258.28 355.399C259.766 367.088 260.582 373.465 258.28 381.896C256.003 390.254 252.034 395.577 251.593 399.377V399.377Z" fill="#2F5D7A"/>
<path id="Vector_60" d="M229.51 245.875C234.466 244.976 240.621 248.283 240.988 251.897C241.289 254.872 237.621 257.588 237.967 257.919C238.29 258.228 240.563 254.964 243.404 254.908C247.697 254.823 252.849 262.071 251.257 266.35C249.979 269.784 244.504 270.908 244.612 271.167C244.714 271.411 248.886 268.746 253.069 269.361C259.059 270.241 264.794 277.806 263.339 282.609C261.713 287.975 251.187 289.637 251.257 289.835C251.331 290.044 261.851 284.675 265.755 288.029C268.374 290.278 267.999 295.52 266.359 298.868C262.938 305.856 252.266 308.332 247.028 304.89C242.956 302.214 245.702 298.281 241.592 289.835C236.544 279.463 227.764 275.865 227.697 268.156C227.691 267.455 227.672 265.198 228.906 264.543C230.876 263.497 234.679 267.261 234.947 266.952C235.237 266.617 230.146 262.951 227.093 256.714C226.133 254.753 223.949 250.29 225.885 247.682C226.871 246.354 228.518 246.055 229.51 245.875Z" fill="#AEDBD8"/>
<path id="Vector_61" d="M257.012 234.051C261.968 233.152 268.124 236.459 268.49 240.073C268.792 243.048 265.124 245.764 265.47 246.095C265.793 246.404 268.066 243.14 270.907 243.084C275.199 242.999 280.352 250.246 278.76 254.525C277.482 257.96 272.006 259.084 272.115 259.343C272.217 259.587 276.389 256.921 280.572 257.536C286.562 258.417 292.297 265.982 290.842 270.785C289.216 276.151 278.69 277.813 278.76 278.011C278.834 278.22 289.354 272.851 293.258 276.204C295.877 278.453 295.501 283.696 293.862 287.044C290.441 294.031 279.769 296.508 274.531 293.066C270.459 290.389 273.205 286.457 269.094 278.011C264.046 267.639 255.267 264.041 255.2 256.332C255.194 255.631 255.175 253.374 256.408 252.719C258.379 251.673 262.181 255.437 262.449 255.128C262.739 254.793 257.649 251.127 254.596 244.89C253.636 242.929 251.451 238.466 253.388 235.857C254.374 234.529 256.021 234.231 257.012 234.051Z" fill="#AEDBD8"/>
<path id="Vector_62" d="M290.947 221.062C286.25 222.875 282.733 228.899 284.313 232.172C285.614 234.867 290.165 235.274 290.043 235.736C289.93 236.168 286.282 234.567 283.829 235.998C280.124 238.16 279.526 247.023 283.125 249.844C286.014 252.108 291.272 250.216 291.316 250.493C291.356 250.755 286.402 250.653 283.157 253.355C278.51 257.223 277.581 266.661 281.338 269.999C285.536 273.73 295.383 269.668 295.427 269.873C295.474 270.09 283.689 270.987 282.116 275.879C281.061 279.16 284.127 283.436 287.279 285.438C293.856 289.617 304.255 286.173 306.919 280.512C308.991 276.109 304.588 274.185 303.67 264.842C302.543 253.369 308.145 245.73 304.164 239.121C303.802 238.52 302.636 236.585 301.241 236.669C299.013 236.802 297.742 241.992 297.351 241.867C296.928 241.733 299.349 235.957 298.686 229.049C298.477 226.876 298.003 221.933 294.985 220.716C293.448 220.097 291.887 220.699 290.947 221.062L290.947 221.062Z" fill="#AEDBD8"/>
<path id="Vector_63" d="M344.317 223.982C347.279 228.044 346.959 235.007 343.852 236.904C341.294 238.465 337.248 236.348 337.099 236.802C336.959 237.227 340.895 237.853 342.178 240.38C344.117 244.199 339.8 251.97 335.242 252.396C331.583 252.738 328.192 248.307 328.005 248.517C327.829 248.714 332.048 251.306 333.306 255.33C335.108 261.091 330.757 269.524 325.784 270.3C320.228 271.167 314.161 262.433 314.013 262.581C313.856 262.738 323.271 269.859 321.933 274.821C321.036 278.148 316.135 280.085 312.398 280.064C304.598 280.022 297.731 271.509 298.571 265.312C299.224 260.493 303.97 261.255 309.821 253.9C317.007 244.867 316.452 235.421 323.391 232.018C324.022 231.708 326.054 230.712 327.181 231.536C328.981 232.852 327.228 237.9 327.624 238.007C328.052 238.122 329.158 231.96 333.472 226.513C334.828 224.8 337.915 220.902 341.112 221.51C342.741 221.82 343.725 223.17 344.317 223.982L344.317 223.982Z" fill="#AEDBD8"/>
<path id="Vector_64" d="M340.089 268.545C343.051 272.606 342.731 279.569 339.623 281.466C337.065 283.027 333.019 280.911 332.87 281.365C332.731 281.789 336.667 282.415 337.95 284.942C339.888 288.762 335.571 296.533 331.013 296.958C327.354 297.3 323.964 292.869 323.777 293.079C323.6 293.277 327.819 295.868 329.077 299.892C330.879 305.654 326.528 314.086 321.556 314.862C316 315.729 309.933 306.995 309.784 307.144C309.627 307.301 319.043 314.422 317.705 319.383C316.808 322.711 311.906 324.647 308.169 324.627C300.369 324.584 293.502 316.072 294.342 309.874C294.995 305.056 299.741 305.817 305.593 298.462C312.779 289.429 312.224 279.983 319.163 276.58C319.794 276.27 321.826 275.274 322.953 276.098C324.753 277.414 322.999 282.463 323.395 282.569C323.824 282.684 324.93 276.522 329.243 271.075C330.6 269.362 333.686 265.464 336.884 266.073C338.512 266.382 339.496 267.732 340.089 268.545H340.089Z" fill="#AEDBD8"/>
</g>
<g id="Group 67">
<path id="Vector_65" d="M339.823 396.509C339.823 398.445 339.95 400 340.109 400H553.003C553.162 400 553.289 398.445 553.289 396.509C553.289 394.572 553.162 393.017 553.003 393.017H340.109C339.95 393.017 339.823 394.572 339.823 396.509Z" fill="#5FBEFB"/>
<g id="Group_5">
<path id="Vector_66" d="M552.947 326.708V393.788H339.974V335.286L347.041 321.216H550.033L552.947 326.708Z" fill="#2F5D7A"/>
<path id="Vector_67" d="M565.711 350.755L552.947 341.806L530.337 325.957L496.786 351.485L339.974 352.36L331.371 352.407L339.974 335.286L347.041 321.216L355.655 288.03L540.548 287.301L550.033 321.216L552.947 326.708L565.711 350.755Z" fill="#5FBEFB"/>
<path id="Vector_68" d="M472.717 341.793H388.111V306.055L430.414 290.583L472.717 306.055V341.793Z" fill="#2F5D7A"/>
<path id="Vector_69" d="M383.918 357.137H346.72V393.788H383.918V357.137Z" fill="#F3F7FA"/>
<path id="Vector_70" d="M465.606 357.137H398.14V393.788H465.606V357.137Z" fill="#F3F7FA"/>
<path id="Vector_71" d="M489.675 360.055H478.37V393.788H489.675V360.055Z" fill="#F3F7FA"/>
<g id="Group_6">
<path id="Vector_72" d="M539.383 354.115H516.381V377.381H539.383V354.115Z" fill="#F3F7FA"/>
<path id="Vector_73" d="M528.543 354.115H526.957V377.381H528.543V354.115Z" fill="#2F5D7A"/>
</g>
<g id="Group_7">
<path id="Vector_74" d="M465.441 312.291H442.44V335.557H465.441V312.291Z" fill="#F3F7FA"/>
<path id="Vector_75" d="M454.601 312.291H453.015V335.557H454.601V312.291Z" fill="#2F5D7A"/>
</g>
<g id="Group_8">
<path id="Vector_76" d="M423.138 312.291H400.137V335.557H423.138V312.291Z" fill="#F3F7FA"/>
<path id="Vector_77" d="M412.298 312.291H410.712V335.557H412.298V312.291Z" fill="#2F5D7A"/>
</g>
</g>
<path id="Vector_78" d="M534.124 335.162H523.364V345.922H534.124V335.162Z" fill="#F3F7FA"/>
<path id="Vector_79" d="M452.069 273.317H440.099V290.274H452.069V273.317Z" fill="#2F5D7A"/>
</g>
<path id="Vector_80" d="M88.1636 345.137V396.536H82.4663V345.137H88.1636Z" fill="#2F5D7A"/>
</g>
<defs>
<clipPath id="clip0_97_536">
<rect width="845" height="400" fill="white"/>
</clipPath>
</defs>
</svg>
